<svg width="52" height="52" viewBox="0 0 52 52" fill="none" xmlns="http://www.w3.org/2000/svg">
<rect width="52" height="52" rx="6" fill="#4267B2" fill-opacity="0.12"/>
<path d="M12.5842 11.1358C12.0665 11.3617 12.0006 11.6629 12.0006 13.9125C12.0006 16.9717 11.8783 16.8493 15.0598 16.8116L17.2717 16.7834L17.5259 16.5198L17.7894 16.2657L17.8177 14.0537C17.8553 10.8722 17.9777 10.9946 14.8997 10.9946C13.3749 11.004 12.8195 11.0322 12.5842 11.1358Z" fill="#4267B2"/>
<path d="M20.3776 11.117C19.7846 11.324 19.7188 11.5876 19.7188 13.9596C19.7188 15.861 19.7376 16.0586 19.907 16.341C20.0105 16.5104 20.2082 16.6893 20.34 16.7363C20.4906 16.7928 24.2368 16.8305 30.3645 16.8305C41.2174 16.8305 40.5867 16.8681 40.8597 16.2186C41.0479 15.748 41.0479 12.0676 40.8503 11.597C40.5867 10.9664 41.1232 10.9946 30.3833 11.004C23.145 11.004 20.6224 11.0322 20.3776 11.117ZM39.0148 13.9125V14.8538H30.3551H21.6954V13.9125V12.9713H30.3551H39.0148V13.9125Z" fill="#4267B2"/>
<path d="M12.5649 18.8825C12.066 19.1272 12.0095 19.4096 12.0095 21.6592C12.0001 24.6525 11.8872 24.5489 14.9369 24.5489C16.8665 24.5489 17.0641 24.5301 17.3465 24.3607C17.516 24.2572 17.6948 24.0595 17.7419 23.9277C17.883 23.5606 17.8642 19.5696 17.7136 19.2778C17.4689 18.779 17.13 18.7131 14.918 18.7131C13.1767 18.7131 12.8473 18.7319 12.5649 18.8825Z" fill="#4267B2"/>
<path d="M20.2647 18.8637C19.7658 19.1273 19.7188 19.3626 19.7188 21.584C19.7188 23.1277 19.747 23.6924 19.8505 23.9371C20.1235 24.5866 19.4928 24.549 30.3551 24.549C41.2174 24.549 40.5867 24.5866 40.8597 23.9371C40.9632 23.6924 40.9915 23.1465 40.982 21.6593C40.982 19.4096 40.9256 19.1273 40.4267 18.8825C40.1161 18.7225 39.4478 18.7131 30.308 18.7131C21.8366 18.7225 20.4812 18.7413 20.2647 18.8637ZM39.0148 21.631V22.5723H30.3551H21.6954V21.631V20.6898H30.3551H39.0148V21.631Z" fill="#4267B2"/>
<path d="M12.5095 26.6102C12.0577 26.8832 12.0012 27.1938 12.0106 29.3399C12.0106 32.3708 11.9165 32.2672 14.9192 32.2672C17.1312 32.2672 17.47 32.2013 17.7147 31.7025C17.8653 31.4107 17.8842 27.4197 17.743 27.0526C17.6959 26.9208 17.5171 26.7231 17.3476 26.6196C17.0653 26.4502 16.8676 26.4313 14.9192 26.4313C12.999 26.4313 12.7731 26.4502 12.5095 26.6102Z" fill="#4267B2"/>
<path d="M20.2272 26.6102C19.7754 26.8832 19.7189 27.1844 19.7189 29.4152C19.7189 32.4273 19.5589 32.2861 22.9757 32.2484L25.3854 32.2202L25.6584 31.9096C25.969 31.5707 26.0066 31.1848 25.7901 30.7706C25.5831 30.3565 25.2348 30.2906 23.3805 30.2906H21.6956V29.3493V28.4175L24.7171 28.3892L27.7386 28.361L28.0115 28.0504C28.4539 27.5515 28.341 26.855 27.7668 26.5726C27.5033 26.4502 26.9197 26.4314 23.9829 26.4314C20.7449 26.4314 20.5002 26.4408 20.2272 26.6102Z" fill="#4267B2"/>
<path d="M37.5371 26.6197C36.9347 26.9868 36.9629 27.9374 37.5936 28.2575C37.7536 28.3422 38.1113 28.4081 38.4407 28.4081H38.9961L39.0337 29.4341C39.062 30.3659 39.0808 30.4883 39.2879 30.7048C39.5891 31.0248 40.0409 31.1001 40.4268 30.9024C40.8975 30.6577 40.9916 30.3 40.9916 28.7375C40.9916 26.5726 40.8692 26.4314 38.9961 26.4314C38.0172 26.4314 37.7913 26.4596 37.5371 26.6197Z" fill="#4267B2"/>
<path d="M31.4099 28.4081C30.4592 28.6623 29.8568 29.0106 29.132 29.7259C28.1248 30.7237 27.626 31.9191 27.626 33.3216C27.626 35.2229 28.699 36.9831 30.3651 37.8208C31.2969 38.2821 31.9746 38.4233 32.9912 38.3574C33.9419 38.3009 34.7137 38.0562 35.4385 37.5667C35.7209 37.369 35.9845 37.1996 36.0127 37.1808C36.0503 37.162 36.8598 37.7644 37.8105 38.508C38.7706 39.2516 39.6648 39.8916 39.806 39.9293C40.2013 40.0234 40.6908 39.7693 40.8602 39.3739C41.1332 38.7151 40.992 38.5456 39.0342 37.0114C38.0647 36.2583 37.2834 35.59 37.2928 35.5336C37.3022 35.4677 37.4058 35.1759 37.5093 34.8653C38.3 32.6439 37.2269 29.9801 35.0808 28.8505C33.8854 28.2199 32.69 28.0787 31.4099 28.4081ZM34.0737 30.4789C35.1373 30.9966 35.7491 31.9473 35.7962 33.1616C35.8621 34.5264 35.2597 35.5524 34.0549 36.1454C33.5372 36.3995 33.3301 36.4466 32.7653 36.4466C31.7582 36.456 31.184 36.2207 30.478 35.5147C29.9792 35.0159 29.8756 34.8464 29.6968 34.2534C29.4332 33.3969 29.4897 32.7474 29.8944 31.9191C30.2239 31.2225 30.8357 30.6578 31.5228 30.3848C32.21 30.1118 33.4242 30.1589 34.0737 30.4789Z" fill="#4267B2"/>
<path d="M12.5086 34.3287C12.0568 34.6017 12.0003 34.9123 12.0003 37.0867C12.0003 40.0799 11.9062 39.9858 14.9183 39.9858C17.9774 39.9858 17.855 40.1081 17.8174 36.9266L17.7891 34.7147L17.5256 34.4605L17.2714 34.197L15.0312 34.1687C12.9698 34.1499 12.7816 34.1593 12.5086 34.3287Z" fill="#4267B2"/>
<path d="M20.2835 34.2723C19.7846 34.517 19.7188 34.8559 19.7188 37.0491C19.7188 39.3458 19.7752 39.6187 20.3212 39.8446C20.8106 40.0517 27.0042 40.0517 27.4936 39.8446C28.1808 39.5622 28.2372 38.5833 27.5878 38.188C27.3148 38.0186 27.0889 38.0092 24.5004 38.0092H21.6954V37.0679V36.1266H23.3426C24.5851 36.1266 25.0746 36.089 25.3287 35.9854C26.0158 35.703 26.0723 34.7241 25.4228 34.3288C25.1593 34.1688 24.9334 34.1499 22.8249 34.1499C21.1683 34.1499 20.4529 34.1876 20.2835 34.2723Z" fill="#4267B2"/>
</svg>
