<svg xmlns="http://www.w3.org/2000/svg" xmlns:xlink="http://www.w3.org/1999/xlink" width="40" zoomAndPan="magnify" viewBox="0 0 30 30.000001" height="40" preserveAspectRatio="xMidYMid meet" version="1.0"><defs><clipPath id="id1"><path d="M 3.386719 1.671875 L 28.066406 1.671875 L 28.066406 27.074219 L 3.386719 27.074219 Z M 3.386719 1.671875 " clip-rule="nonzero"/></clipPath></defs><g clip-path="url(#id1)"><path fill="rgb(59.999084%, 72.158813%, 23.529053%)" d="M 27.121094 1.75 L 26.011719 2.5 C 20.214844 6.421875 14.28125 14.539062 11.320312 21.136719 C 10.863281 20.503906 10.726562 20.296875 10.28125 19.589844 C 8.472656 17.171875 6.175781 15.097656 5.089844 14.332031 L 3.386719 15.035156 L 3.441406 15.136719 C 4.617188 16.40625 6.675781 19.230469 9.785156 25.449219 C 9.976562 25.71875 10.179688 25.980469 10.410156 26.226562 C 11.015625 26.871094 11.640625 27.007812 12.054688 27.007812 C 12.058594 27.007812 12.058594 27.007812 12.058594 27.007812 C 13.242188 27.007812 13.941406 26.078125 14.425781 24.996094 C 17.535156 13.574219 24.890625 5.710938 28.070312 3.015625 Z M 27.121094 1.75 " fill-opacity="1" fill-rule="nonzero"/></g></svg>