<svg width="577" height="423" viewBox="0 0 577 423" fill="none" xmlns="http://www.w3.org/2000/svg">
<path opacity="0.05" d="M128.607 389.491C-15.492 345.231 -50.2125 166.938 84.8726 146.887C274.679 118.708 322.196 45.9385 399.382 34.1224C472.173 22.9764 477.253 84.7875 486.979 132.045C496.728 179.388 604.773 160.144 569.476 248.397C502.29 416.365 342.312 455.128 128.614 389.498L128.607 389.491Z" fill="#4267B2"/>
<g style="mix-blend-mode:multiply">
<path d="M58.157 326.765L46.8092 351.204C46.1248 352.681 44.3164 353.25 42.9042 352.436L11.9158 334.546C9.64625 333.235 10.2947 329.805 12.8813 329.409L55.2174 322.86C57.4077 322.521 59.0864 324.755 58.157 326.765Z" fill="#E8ECF7"/>
</g>
<g style="mix-blend-mode:multiply">
<path d="M456.365 60.9896C465.631 55.6436 480.646 55.6436 489.904 60.9896C499.17 66.3357 499.17 75.0104 489.904 80.3565C480.639 85.7025 465.624 85.7025 456.358 80.3565C447.093 75.0104 447.1 66.3357 456.358 60.9896H456.365ZM481.993 75.7886C486.885 72.9642 486.885 68.3891 481.993 65.5648C477.101 62.7404 469.176 62.7404 464.284 65.5648C459.391 68.3891 459.391 72.9642 464.284 75.7886C469.176 78.6129 477.108 78.6129 481.993 75.7886Z" fill="#E8ECF7"/>
</g>
<path d="M7.39169 193.957C9.02721 193.013 11.6714 193.013 13.3069 193.957C14.9352 194.9 14.9352 196.428 13.3069 197.372C11.6714 198.316 9.02721 198.316 7.39169 197.372C5.75617 196.428 5.75617 194.9 7.39169 193.957Z" fill="white"/>
<path d="M21.8591 202.307C23.4946 201.363 26.1388 201.363 27.7743 202.307C29.4098 203.251 29.4098 204.778 27.7743 205.722C26.1388 206.666 23.4946 206.666 21.8591 205.722C20.2235 204.778 20.2235 203.251 21.8591 202.307Z" fill="white"/>
<path d="M36.3194 210.658C37.9549 209.714 40.5991 209.714 42.2274 210.658C43.8629 211.601 43.8629 213.129 42.2274 214.073C40.5919 215.017 37.9477 215.017 36.3194 214.073C34.6838 213.129 34.6838 211.601 36.3194 210.658Z" fill="white"/>
<path d="M50.7868 219.008C52.4223 218.064 55.0665 218.064 56.702 219.008C58.3375 219.952 58.3375 221.479 56.702 222.423C55.0665 223.367 52.4223 223.367 50.7868 222.423C49.1584 221.479 49.1584 219.952 50.7868 219.008Z" fill="white"/>
<path d="M65.2541 227.359C66.8896 226.415 69.5338 226.415 71.1693 227.359C72.7976 228.302 72.7976 229.83 71.1693 230.774C69.5338 231.718 66.8896 231.718 65.2541 230.774C63.6186 229.83 63.6186 228.302 65.2541 227.359Z" fill="white"/>
<g style="mix-blend-mode:multiply">
<path d="M335.525 402.921L322.528 410.421C320.546 411.567 320.791 413.563 323.083 414.888L334.971 421.747C337.262 423.066 340.72 423.21 342.702 422.072L355.699 414.564C357.681 413.419 357.436 411.423 355.144 410.097L343.256 403.231C340.965 401.912 337.507 401.768 335.525 402.914V402.921Z" fill="#E8ECF7"/>
</g>
<path style="mix-blend-mode:multiply" d="M486.868 278.068C480.888 274.617 472.941 273.025 465.131 273.255H452.89V275.266C450.57 276 448.373 276.93 446.413 278.068C435.281 284.538 435.346 295.029 446.55 301.506C448.481 302.615 450.628 303.53 452.89 304.251V306.348H467.574C474.634 306.232 481.63 304.626 487.005 301.506C498.137 295.029 498.079 284.538 486.868 278.068Z" fill="url(#paint0_linear_0_1990)"/>
<path d="M425 282.182C425 278.039 427.731 273.904 433.206 270.741C438.675 267.585 445.851 266 453.02 266C460.189 266 467.358 267.578 472.833 270.741C478.302 273.897 481.04 278.039 481.04 282.182C481.04 286.318 478.309 290.461 472.833 293.624C467.365 296.779 460.196 298.365 453.027 298.365C445.858 298.365 438.689 296.787 433.214 293.624C427.738 290.468 425.007 286.325 425.007 282.182H425Z" fill="#FFD03E"/>
<path d="M472.826 293.624C467.358 296.779 460.189 298.365 453.02 298.365C445.851 298.365 438.682 296.787 433.206 293.624C427.731 290.468 425 286.325 425 282.182V290.165C425 294.308 427.738 298.444 433.206 301.6C438.675 304.762 445.851 306.34 453.02 306.34C460.189 306.34 467.358 304.762 472.826 301.607C478.302 298.451 481.033 294.308 481.033 290.165V282.182C481.033 286.318 478.302 290.461 472.826 293.624Z" fill="url(#paint1_linear_0_1990)"/>
<path d="M436.932 291.469C441.377 294.034 447.199 295.317 453.02 295.317C458.842 295.317 464.664 294.034 469.109 291.469C473.209 289.106 475.413 286.059 475.73 282.96C475.413 279.862 473.209 276.815 469.109 274.451C464.664 271.886 458.842 270.604 453.02 270.604C447.199 270.604 441.377 271.886 436.932 274.451C432.832 276.822 430.628 279.862 430.31 282.96C430.628 286.059 432.832 289.106 436.932 291.469Z" fill="#FFAD02"/>
<path d="M436.931 274.451C441.376 271.886 447.198 270.604 453.02 270.604C458.841 270.604 464.67 271.886 469.108 274.451C473.208 276.822 475.413 279.862 475.73 282.96C475.758 282.701 475.773 282.442 475.773 282.182C475.773 278.818 473.554 275.46 469.108 272.895C464.663 270.33 458.841 269.048 453.02 269.048C447.198 269.048 441.376 270.33 436.931 272.895C432.486 275.46 430.266 278.825 430.266 282.182C430.266 282.442 430.281 282.701 430.31 282.96C430.627 279.862 432.831 276.822 436.931 274.451Z" fill="url(#paint2_linear_0_1990)"/>
<path d="M463.006 274.696L463.071 274.66V273.104L461.659 273.918L463.006 274.696Z" fill="#EF4E16"/>
<path d="M438.171 284.87L435.167 283.133V284.697L436.817 285.648L438.171 284.87Z" fill="#FC780B"/>
<path d="M454.93 273.111L453.727 272.42V273.803L454.93 273.111Z" fill="#FC780B"/>
<path d="M466.04 276.548C466.429 276.872 466.725 277.225 466.926 277.593L467.532 277.24V275.683L466.033 276.548H466.04Z" fill="#EF4E16"/>
<path d="M467.286 278.839L466.515 280.23L466.839 280.295C466.5 280.835 465.96 281.346 465.203 281.779C463.878 282.542 462.163 282.939 460.427 282.975C460.621 283.479 460.686 283.998 460.643 284.517C462.307 284.452 463.935 284.063 465.203 283.335C466.616 282.521 467.293 281.44 467.264 280.374H467.278V278.839H467.286Z" fill="url(#paint3_linear_0_1990)"/>
<path d="M452.87 277.384L454.217 278.162L457.596 276.209V274.653L452.87 277.384Z" fill="#EF4E16"/>
<path d="M462.545 277.513L457.596 274.653V276.209L462.545 279.07C462.848 279.243 463.064 279.444 463.23 279.653C463.77 278.947 463.547 278.09 462.545 277.513Z" fill="#FC780B"/>
<path d="M459.909 285.648L460.32 285.734C459.888 286.649 459.059 287.507 457.82 288.227C454.318 290.252 448.806 290.41 444.973 288.717V290.273C448.799 291.966 454.318 291.808 457.82 289.783C459.722 288.688 460.659 287.247 460.659 285.806H460.666L460.68 284.243L459.909 285.648Z" fill="url(#paint4_linear_0_1990)"/>
<path d="M441.19 288.242V289.798L443.489 291.131V289.567L441.19 288.242Z" fill="#FC780B"/>
<path d="M443.488 289.567V291.131L444.972 290.273V288.717L443.488 289.567Z" fill="#EF4E16"/>
<path d="M440.433 286.174V287.737L441.255 288.205L442.602 287.427L440.433 286.174Z" fill="#FC780B"/>
<path d="M436.759 285.684V287.24L439.021 288.551V286.988L436.759 285.684Z" fill="#FC780B"/>
<path d="M439.021 286.988V288.551L440.433 287.737V286.174L439.021 286.988Z" fill="#EF4E16"/>
<path d="M441.702 283.825L443.049 284.61L450.204 280.482V278.918L441.702 283.825Z" fill="#EF4E16"/>
<path d="M455.154 281.779L450.204 278.918V280.475L455.154 283.335C455.982 283.81 456.508 284.394 456.753 285.006C457.2 283.883 456.674 282.65 455.154 281.779Z" fill="#FC780B"/>
<path d="M457.812 288.227C460.276 286.808 461.148 284.812 460.434 282.982C462.171 282.946 463.885 282.55 465.211 281.786C467.675 280.367 467.949 278.155 466.04 276.555L467.538 275.691L465.24 274.365L463.828 275.179L461.659 273.925L463.071 273.111L460.809 271.807L459.397 272.621L456.4 270.892L453.734 272.434L454.93 273.126L439.036 282.305L437.84 281.613L435.174 283.155L438.171 284.884L436.759 285.698L439.021 287.01L440.433 286.195L442.602 287.449L441.19 288.263L443.488 289.589L444.965 288.739C448.791 290.432 454.31 290.273 457.812 288.249V288.227ZM462.545 277.513C463.849 278.263 463.849 279.488 462.545 280.244C461.241 280.993 459.123 280.993 457.819 280.244L452.869 277.384L457.596 274.653L462.545 277.513ZM446.651 286.692L441.701 283.832L450.203 278.926L455.153 281.786C457.495 283.14 457.495 285.338 455.153 286.692C452.811 288.047 449 288.047 446.658 286.692H446.651Z" fill="#FFD03E"/>
<path style="mix-blend-mode:multiply" d="M106.091 188.56L114.463 183.725C116.956 182.285 123.087 181.103 128.08 181.103H327.282C332.275 181.103 436.862 246.538 436.862 246.538C439.355 247.979 439.355 250.335 436.862 251.783L284.384 339.82C283.13 340.548 281.473 340.901 279.816 340.901H275.853L168.507 278.924L164.076 276.366H106.098V188.567L106.091 188.56Z" fill="url(#paint5_linear_0_1990)"/>
<path style="mix-blend-mode:multiply" d="M243.185 359.634C245.606 358.236 248.999 357.746 252.119 358.15C255.232 357.746 258.632 358.236 261.053 359.634L275.211 367.804C278.035 369.432 278.727 371.832 277.308 373.842C278.1 374.144 278.792 374.461 279.361 374.793L293.519 382.963C295.493 384.102 295.565 385.132 294.11 385.845H294.124L290.01 388.18C289.981 388.201 289.945 388.216 289.909 388.237L289.837 388.273C288.555 388.943 285.982 389.354 282.351 389.354C274.851 389.354 265.693 387.596 261.947 385.427L247.789 377.257C245.822 376.119 245.743 375.096 247.184 374.382H247.169L250.866 372.372C250.959 372.286 251.067 372.199 251.197 372.113L243.185 367.487C239.431 365.326 239.431 361.795 243.185 359.634ZM272.329 382.97C274.238 384.073 278.648 384.981 282.582 385.132L268.964 377.271C268.064 377.3 267.156 377.257 266.27 377.142C264.966 377.315 263.618 377.329 262.307 377.185L272.322 382.97H272.329ZM250.462 365.751L259.346 370.881C260.124 370.888 260.916 370.917 261.723 370.96C261.961 370.96 262.242 370.974 262.581 371.003C264.497 371.176 267.221 371.464 269.49 371.817C269.526 370.996 269.008 370.175 267.934 369.548L253.776 361.377C253.286 361.096 252.717 360.88 252.119 360.736C251.521 360.887 250.952 361.096 250.462 361.377C248.373 362.581 248.373 364.548 250.462 365.751Z" fill="url(#paint6_linear_0_1990)"/>
<path d="M276.436 368.503C280.189 366.342 280.189 362.811 276.436 360.65L262.278 352.479C258.524 350.311 252.429 350.311 248.675 352.479C244.928 354.648 244.928 358.171 248.675 360.333L262.833 368.503C266.586 370.672 272.689 370.672 276.436 368.503ZM273.424 362.386C275.513 363.589 275.513 365.556 273.424 366.759C271.334 367.963 267.934 367.963 265.851 366.759L251.694 358.589C249.604 357.386 249.604 355.419 251.694 354.216C253.783 353.012 257.184 353.012 259.266 354.216L273.424 362.386Z" fill="#F6F6FB"/>
<path d="M273.416 362.393L259.258 354.223C257.169 353.02 253.768 353.02 251.686 354.223C249.842 355.289 249.625 356.946 251.052 358.15C251.239 357.991 251.448 357.84 251.686 357.703C253.775 356.5 257.176 356.5 259.258 357.703L273.416 365.873C273.654 366.01 273.87 366.161 274.05 366.32C275.469 365.117 275.261 363.46 273.416 362.393Z" fill="url(#paint7_linear_0_1990)"/>
<path d="M276.435 368.503C272.681 370.672 266.579 370.672 262.832 368.503L248.675 360.333C246.809 359.252 245.872 357.84 245.865 356.428V359.778H245.872C245.822 361.241 246.751 362.71 248.675 363.82L262.832 371.99C266.586 374.152 272.689 374.152 276.435 371.99C278.352 370.881 279.281 369.425 279.238 367.97H279.245V364.584C279.245 366.003 278.308 367.43 276.435 368.51V368.503Z" fill="url(#paint8_linear_0_1990)"/>
<path d="M292.157 367.984L277.999 359.814C276.09 358.712 274.361 358.632 273.129 359.389L270.384 360.974H270.391C271.601 360.39 273.215 360.527 274.988 361.55L289.145 369.721C292.899 371.882 295.947 377.171 295.947 381.501C295.947 383.612 295.219 385.103 294.037 385.838L296.905 384.188C298.166 383.489 298.951 381.955 298.951 379.757C298.951 375.427 295.896 370.139 292.15 367.977L292.157 367.984Z" fill="#FF4B4B"/>
<path d="M274.26 366.125C274.03 366.349 273.756 366.565 273.424 366.759C272.79 367.127 272.027 367.365 271.22 367.509C271.22 367.408 271.205 367.314 271.205 367.213C271.205 365.081 272.538 364.072 274.289 364.699C274.246 364.937 274.224 365.196 274.224 365.477C274.224 365.686 274.238 365.902 274.267 366.125H274.26ZM292.863 380.535C292.532 382.365 290.99 383.014 289.145 381.947L279.534 376.4L274.995 373.777C274.635 373.568 274.289 373.309 273.958 373.006C274.851 372.747 275.694 372.408 276.436 371.976C276.717 371.817 276.962 371.644 277.2 371.471C277.459 371.688 277.726 371.875 277.999 372.033L292.157 380.204C292.402 380.341 292.633 380.449 292.863 380.528V380.535Z" fill="#FF4B4B"/>
<path d="M289.145 369.728L274.987 361.558C271.234 359.396 268.186 361.154 268.186 365.484C268.186 366.161 268.272 366.868 268.409 367.581C269.339 367.703 270.297 367.682 271.212 367.516C271.212 367.415 271.198 367.321 271.198 367.221C271.198 364.807 272.898 363.827 274.987 365.03L289.145 373.201C291.235 374.404 292.935 377.351 292.935 379.764C292.935 382.178 291.235 383.158 289.145 381.955L274.987 373.784C274.627 373.575 274.281 373.316 273.95 373.013C273.028 373.28 272.055 373.453 271.054 373.539C272.163 375.096 273.518 376.414 274.98 377.264L289.138 385.435C292.892 387.603 295.939 385.838 295.939 381.508C295.939 377.178 292.885 371.889 289.138 369.728H289.145Z" fill="#FF4B4B"/>
<path d="M289.145 369.728L274.987 361.558C271.234 359.396 268.186 361.154 268.186 365.484C268.186 366.161 268.272 366.868 268.409 367.581C269.339 367.703 270.297 367.682 271.212 367.516C271.212 367.415 271.198 367.321 271.198 367.221C271.198 364.807 272.898 363.827 274.987 365.03L289.145 373.201C291.235 374.404 292.935 377.351 292.935 379.764C292.935 382.178 291.235 383.158 289.145 381.955L274.987 373.784C274.627 373.575 274.281 373.316 273.95 373.013C273.028 373.28 272.055 373.453 271.054 373.539C272.163 375.096 273.518 376.414 274.98 377.264L289.138 385.435C292.892 387.603 295.939 385.838 295.939 381.508C295.939 377.178 292.885 371.889 289.138 369.728H289.145Z" fill="black" fill-opacity="0.2"/>
<path style="mix-blend-mode:multiply" d="M104.145 274.976C107.135 273.247 107.135 270.444 104.145 268.715L99.0294 265.761C96.0393 264.032 91.176 264.032 88.186 265.761C85.1959 267.483 85.1959 270.293 88.186 272.022L93.3015 274.976C96.2915 276.698 101.155 276.698 104.145 274.976ZM91.0968 267.447C92.4801 266.647 94.728 266.647 96.1114 267.447L101.227 270.401C102.61 271.201 102.61 272.497 101.227 273.297C99.8435 274.097 97.5956 274.097 96.2122 273.297L91.0968 270.343C89.7134 269.543 89.7134 268.247 91.0968 267.447Z" fill="url(#paint9_linear_0_1990)"/>
<path d="M107.063 271.827C110.053 270.098 110.053 267.295 107.063 265.566L101.947 262.612C98.9574 260.883 94.0941 260.89 91.104 262.612C88.114 264.334 88.114 267.144 91.104 268.873L96.2195 271.827C99.2095 273.557 104.073 273.549 107.063 271.827ZM94.0148 264.298C95.3981 263.499 97.6461 263.499 99.0294 264.298L104.145 267.252C105.528 268.052 105.528 269.349 104.145 270.149C102.762 270.948 100.514 270.948 99.1303 270.149L94.0148 267.195C92.6314 266.395 92.6314 265.098 94.0148 264.298Z" fill="#F6F6FB"/>
<path d="M94.0215 264.291C95.4049 263.491 97.6528 263.491 99.0362 264.291L104.152 267.245C105.535 268.045 105.535 269.342 104.152 270.141C104.08 270.185 103.993 270.214 103.914 270.257L99.0362 267.44C97.7249 266.683 95.6498 266.654 94.2593 267.324L94.0215 267.187C92.6382 266.388 92.6382 265.091 94.0215 264.291Z" fill="url(#paint10_linear_0_1990)"/>
<path d="M91.1034 268.873L96.2188 271.827C99.2089 273.557 104.072 273.549 107.062 271.827C108.539 270.977 109.281 269.853 109.303 268.737V271.799C109.325 272.951 108.582 274.104 107.062 274.976C104.072 276.698 99.2089 276.698 96.2188 274.976L91.1034 272.022C89.6119 271.165 88.8698 270.033 88.8626 268.902V265.754C88.8626 266.885 89.6119 268.016 91.1034 268.881V268.873Z" fill="url(#paint11_linear_0_1990)"/>
<path style="mix-blend-mode:multiply" d="M527.023 298.284H532.477L529.566 299.963L544.92 308.832H539.473L524.112 299.963L527.023 298.284Z" fill="url(#paint12_linear_0_1990)"/>
<path d="M544.92 305.683L547.838 303.997L535.388 296.814L537.492 295.604L534.581 293.918L529.566 296.814L544.92 305.683Z" fill="#F6F6FB"/>
<path d="M544.92 308.832L547.838 307.146V303.997L544.92 305.683V308.832Z" fill="#C7D5F0"/>
<path d="M537.491 298.032V295.604L535.387 296.814L537.491 298.032Z" fill="#C7D5F0"/>
<path d="M529.566 299.963L544.92 308.832V305.683L529.566 296.814V299.963Z" fill="#C7D5F0"/>
<path style="mix-blend-mode:multiply" d="M47.9972 282.289L37.0457 288.615L47.9972 294.941L17.5636 288.615L47.9972 282.289Z" fill="url(#paint13_linear_0_1990)"/>
<path d="M47.9975 269.486V294.941L58.9562 288.615L47.9975 269.486Z" fill="white"/>
<path d="M47.9972 269.486V294.941L37.0457 288.615L47.9972 269.486Z" fill="#C7D5F0"/>
<path style="mix-blend-mode:multiply" d="M505.034 122.779L494.075 129.105L505.034 135.431L474.601 129.105L505.034 122.779Z" fill="url(#paint14_linear_0_1990)"/>
<path d="M505.034 109.976V135.431L515.993 129.105L505.034 109.976Z" fill="#EFEFF3"/>
<path d="M505.034 109.976V135.431L494.075 129.105L505.034 109.976Z" fill="#C7D5F0"/>
<path style="mix-blend-mode:multiply" d="M472.792 245.486H392.551V204.115H472.792V245.486Z" fill="url(#paint15_linear_0_1990)"/>
<path style="mix-blend-mode:multiply" d="M444.297 218.986H364.063V174.345H444.297V218.986Z" fill="url(#paint16_linear_0_1990)"/>
<path style="mix-blend-mode:multiply" d="M76.8018 215.715C78.322 214.836 80.9302 214.044 83.913 213.468C86.9031 212.891 90.2678 212.538 93.3083 212.538H148.613C151.654 212.538 153.786 212.891 154.781 213.468C155.775 214.044 155.631 214.836 154.111 215.715V250.342C155.631 251.221 155.775 252.014 154.781 252.59C153.786 253.167 151.647 253.52 148.613 253.52H93.3083C90.2678 253.52 86.9031 253.167 83.913 252.59C80.923 252.014 78.3148 251.221 76.8018 250.342V215.715Z" fill="url(#paint17_linear_0_1990)"/>
<path style="mix-blend-mode:multiply" d="M360.835 317.91C363.825 317.334 367.189 316.981 370.23 316.981H425.535C428.575 316.981 430.708 317.334 431.702 317.91C432.697 318.486 432.553 319.279 431.032 320.158V354.785C432.553 355.664 432.697 356.456 431.702 357.033C430.708 357.609 428.568 357.962 425.535 357.962H417.091V362.84C418.611 363.719 418.755 364.511 417.761 365.088C416.767 365.664 414.627 366.017 411.593 366.017H403.149V370.895C404.67 371.774 404.814 372.567 403.819 373.143C402.825 373.719 400.685 374.072 397.652 374.072H342.347C339.306 374.072 335.942 373.719 332.952 373.143C329.962 372.567 327.353 371.774 325.84 370.895V336.268C337.613 327.003 357.866 318.494 360.849 317.917L360.835 317.91Z" fill="url(#paint18_linear_0_1990)"/>
<path d="M123.244 236.242L150.897 252.208C152.417 253.087 153.793 253.167 154.787 252.597C155.782 252.021 156.401 250.789 156.401 249.038V217.106C156.401 215.348 155.789 213.41 154.787 211.681C153.793 209.959 152.417 208.453 150.897 207.574L123.244 191.608C121.724 190.729 120.348 190.65 119.354 191.226C118.359 191.802 117.74 193.034 117.74 194.785V226.717C117.74 228.475 118.352 230.414 119.354 232.143C120.348 233.865 121.724 235.37 123.244 236.249V236.242Z" fill="#C7D5F0"/>
<path d="M125.86 233.526L148.274 246.466C149.507 247.179 150.623 247.244 151.43 246.776C152.237 246.308 152.734 245.313 152.734 243.887V217.999C152.734 216.58 152.237 215.002 151.43 213.604C150.623 212.207 149.507 210.989 148.274 210.276L125.86 197.336C124.628 196.622 123.511 196.558 122.704 197.026C121.897 197.494 121.4 198.489 121.4 199.915V225.802C121.4 227.222 121.897 228.8 122.704 230.197C123.511 231.595 124.628 232.813 125.86 233.526Z" fill="#4267B2"/>
<path d="M156.402 249.031V217.099C156.402 215.341 155.789 213.403 154.788 211.673C153.793 209.952 152.417 208.446 150.897 207.567L123.244 191.601C121.724 190.722 120.348 190.642 119.354 191.219L155.58 170.303C156.574 169.726 157.951 169.813 159.471 170.685L187.123 186.651C188.644 187.53 190.02 189.036 191.014 190.758C192.008 192.48 192.628 194.425 192.628 196.183V228.115C192.628 229.873 192.015 231.105 191.014 231.682L154.788 252.597C155.782 252.021 156.402 250.789 156.402 249.038V249.031Z" fill="url(#paint19_linear_0_1990)"/>
<path style="mix-blend-mode:multiply" d="M148.952 192.364C150.472 193.243 150.616 194.036 149.622 194.612C148.628 195.189 146.488 195.542 143.455 195.542H130.068L123.252 191.608C121.732 190.729 120.356 190.65 119.361 191.226L148.959 174.136V192.372L148.952 192.364Z" fill="url(#paint20_linear_0_1990)"/>
<path d="M444.304 129.71L482.966 152.031L444.304 174.352L405.643 152.031L444.304 129.71ZM444.304 168.105L472.151 152.031L444.304 135.957L416.457 152.031L444.304 168.105Z" fill="white"/>
<path d="M444.304 174.352V218.994L405.642 196.673V152.031L444.304 174.352ZM411.053 193.553L438.9 209.627V177.472L411.053 161.397V193.553Z" fill="#C7D5F0"/>
<path d="M482.959 152.031V196.673L444.297 218.994V174.352L482.959 152.031ZM449.708 209.627L477.555 193.553V161.398L449.708 177.472V209.627Z" fill="#C7D5F0"/>
<path d="M469.284 153.681L444.305 139.257V135.957L472.145 152.031L469.284 153.681Z" fill="#C7D5F0"/>
<path d="M474.694 163.047V191.896L477.555 193.546V161.397L474.694 163.047Z" fill="#C7D5F0"/>
<path d="M477.555 193.546L449.708 209.627V206.32L474.694 191.896L477.555 193.546Z" fill="#F6F6FB"/>
<path d="M474.694 163.047V191.896L449.708 206.32V177.472L474.694 163.047Z" fill="#4267B2"/>
<path d="M419.317 153.681L444.304 139.257V135.957L416.457 152.031L419.317 153.681Z" fill="#C7D5F0"/>
<path d="M413.914 163.047V191.896L411.047 193.546V161.397L413.914 163.047Z" fill="#C7D5F0"/>
<path d="M411.046 193.546L438.894 209.627V206.32L413.914 191.896L411.046 193.546Z" fill="#F6F6FB"/>
<path d="M413.914 163.047V191.896L438.894 206.32V177.472L413.914 163.047Z" fill="#4267B2"/>
<path d="M469.283 153.681L444.304 139.257L419.317 153.681L444.304 168.105L469.283 153.681Z" fill="#4267B2"/>
<g style="mix-blend-mode:multiply">
<path d="M469.283 153.681L444.304 139.257L441.436 140.914L466.423 155.338L469.283 153.681Z" fill="#DFE4F4"/>
</g>
<g style="mix-blend-mode:multiply">
<path d="M441.436 140.914L444.304 135.957V139.257L441.436 140.914Z" fill="#DFE4F4"/>
</g>
<path d="M478.289 202.343L505.941 186.377C507.461 185.498 508.218 184.352 508.218 183.2C508.218 182.047 507.461 180.901 505.941 180.022L478.289 164.056C476.768 163.177 474.78 162.738 472.784 162.738C470.788 162.738 468.8 163.177 467.28 164.056L439.627 180.022C438.107 180.901 437.35 182.047 437.35 183.2C437.35 184.352 438.107 185.498 439.627 186.377L467.28 202.343C468.8 203.222 470.788 203.662 472.784 203.662C474.78 203.662 476.768 203.222 478.289 202.343Z" fill="#F6F6FB"/>
<path d="M439.276 186.177L466.929 202.143C468.449 203.022 470.438 203.462 472.434 203.462C474.429 203.462 476.418 203.022 477.938 202.143L505.591 186.177C507.111 185.298 507.867 184.153 507.867 183V224.825C507.867 225.977 507.111 227.123 505.591 228.002L477.938 243.968C476.418 244.847 474.429 245.287 472.434 245.287C470.438 245.287 468.449 244.847 466.929 243.968L439.276 228.002C437.756 227.123 437 225.977 437 224.825V183C437 184.153 437.756 185.298 439.276 186.177Z" fill="url(#paint21_linear_0_1990)"/>
<path d="M482.612 177.529C477.187 174.395 468.382 174.395 462.957 177.529C457.531 180.663 457.531 185.743 462.957 188.877C468.382 192.011 477.187 192.011 482.612 188.877C488.037 185.743 488.037 180.663 482.612 177.529Z" fill="#4267B2"/>
<path d="M360.431 62.8269L399.093 40.506L360.431 18.1852L321.777 40.506L360.431 62.8269Z" fill="#F6F6FB"/>
<path d="M360.431 107.461L399.093 85.1405V40.506L360.431 62.8268V107.461Z" fill="#C7D5F0"/>
<path d="M360.431 107.461L321.777 85.1405V40.506L360.431 62.8268V107.461Z" fill="#C7D5F0"/>
<g style="mix-blend-mode:multiply">
<path d="M360.431 25.6639L363.522 23.877L360.431 22.0902L357.34 23.877L360.431 25.6639Z" fill="#C7D5F0"/>
<path d="M353.234 29.8211L356.324 28.0343L353.234 26.2474L350.143 28.0343L353.234 29.8211Z" fill="#C7D5F0"/>
<path d="M346.035 33.9783L349.126 32.1915L346.035 30.4047L342.944 32.1915L346.035 33.9783Z" fill="#C7D5F0"/>
<path d="M338.831 38.1355L341.929 36.3487L338.831 34.5619L335.74 36.3487L338.831 38.1355Z" fill="#C7D5F0"/>
<path d="M331.633 42.2929L334.724 40.5061L331.633 38.7192L328.542 40.5061L331.633 42.2929Z" fill="#C7D5F0"/>
<path d="M367.636 29.8211L370.727 28.0343L367.636 26.2474L364.545 28.0343L367.636 29.8211Z" fill="#C7D5F0"/>
<path d="M360.431 33.9783L363.522 32.1915L360.431 30.4047L357.34 32.1915L360.431 33.9783Z" fill="#C7D5F0"/>
<path d="M353.234 38.1355L356.324 36.3487L353.234 34.5619L350.143 36.3487L353.234 38.1355Z" fill="#C7D5F0"/>
<path d="M346.035 42.2929L349.126 40.5061L346.035 38.7192L342.944 40.5061L346.035 42.2929Z" fill="#C7D5F0"/>
<path d="M338.831 46.4501L341.929 44.6633L338.831 42.8765L335.74 44.6633L338.831 46.4501Z" fill="#C7D5F0"/>
<path d="M374.834 33.9783L377.925 32.1915L374.834 30.4047L371.743 32.1915L374.834 33.9783Z" fill="#C7D5F0"/>
<path d="M367.636 38.1355L370.727 36.3487L367.636 34.5619L364.545 36.3487L367.636 38.1355Z" fill="#C7D5F0"/>
<path d="M360.431 42.2929L363.522 40.5061L360.431 38.7192L357.34 40.5061L360.431 42.2929Z" fill="#C7D5F0"/>
<path d="M353.234 46.4429L356.324 44.6633L353.234 42.8765L350.143 44.6633L353.234 46.4429Z" fill="#C7D5F0"/>
<path d="M346.035 50.6001L349.126 48.8205L346.035 47.0337L342.944 48.8205L346.035 50.6001Z" fill="#C7D5F0"/>
<path d="M382.031 38.1355L385.122 36.3487L382.031 34.5619L378.94 36.3487L382.031 38.1355Z" fill="#C7D5F0"/>
<path d="M374.834 42.2929L377.925 40.5061L374.834 38.7192L371.743 40.5061L374.834 42.2929Z" fill="#C7D5F0"/>
<path d="M367.636 46.4429L370.727 44.6633L367.636 42.8765L364.545 44.6633L367.636 46.4429Z" fill="#C7D5F0"/>
<path d="M360.431 50.6001L363.522 48.8205L360.431 47.0337L357.34 48.8205L360.431 50.6001Z" fill="#C7D5F0"/>
<path d="M353.234 54.7574L356.324 52.9777L353.234 51.1909L350.143 52.9777L353.234 54.7574Z" fill="#C7D5F0"/>
<path d="M389.236 42.2929L392.327 40.5061L389.236 38.7192L386.146 40.5061L389.236 42.2929Z" fill="#C7D5F0"/>
<path d="M382.031 46.4429L385.122 44.6633L382.031 42.8765L378.94 44.6633L382.031 46.4429Z" fill="#C7D5F0"/>
<path d="M374.834 50.6001L377.925 48.8205L374.834 47.0337L371.743 48.8205L374.834 50.6001Z" fill="#C7D5F0"/>
<path d="M367.636 54.7574L370.727 52.9777L367.636 51.1909L364.545 52.9777L367.636 54.7574Z" fill="#C7D5F0"/>
<path d="M360.431 58.9146L363.522 57.135L360.431 55.3481L357.34 57.135L360.431 58.9146Z" fill="#C7D5F0"/>
<path d="M392.615 51.7169L395.706 49.9373V46.3636L392.615 48.1505V51.7169Z" fill="#C7D5F0"/>
<path d="M385.417 55.8741L388.508 54.0945V50.5209L385.417 52.3077V55.8741Z" fill="#C7D5F0"/>
<path d="M378.22 60.0314L381.311 58.2517V54.6781L378.22 56.4649V60.0314Z" fill="#C7D5F0"/>
<path d="M371.015 64.1886L374.106 62.409V58.8353L371.015 60.6222V64.1886Z" fill="#C7D5F0"/>
<path d="M363.818 68.3458L366.908 66.559V62.9926L363.818 64.7794V68.3458Z" fill="#C7D5F0"/>
<path d="M392.615 60.0314L395.706 58.2517V54.6781L392.615 56.4649V60.0314Z" fill="#C7D5F0"/>
<path d="M385.417 64.1886L388.508 62.409V58.8353L385.417 60.6222V64.1886Z" fill="#C7D5F0"/>
<path d="M378.22 68.3458L381.311 66.559V62.9926L378.22 64.7794V68.3458Z" fill="#C7D5F0"/>
<path d="M371.015 72.503L374.106 70.7162V67.1498L371.015 68.9366V72.503Z" fill="#C7D5F0"/>
<path d="M363.818 76.6603L366.908 74.8735V71.307L363.818 73.0938V76.6603Z" fill="#C7D5F0"/>
<path d="M392.615 68.3458L395.706 66.559V62.9926L392.615 64.7794V68.3458Z" fill="#C7D5F0"/>
<path d="M385.417 72.503L388.508 70.7162V67.1498L385.417 68.9366V72.503Z" fill="#C7D5F0"/>
<path d="M378.22 76.6603L381.311 74.8735V71.307L378.22 73.0938V76.6603Z" fill="#C7D5F0"/>
<path d="M371.015 80.8175L374.106 79.0307V75.4642L371.015 77.2511V80.8175Z" fill="#C7D5F0"/>
<path d="M363.818 84.9748L366.908 83.188V79.6216L363.818 81.4084V84.9748Z" fill="#C7D5F0"/>
<path d="M392.615 76.6603L395.706 74.8735V71.307L392.615 73.0938V76.6603Z" fill="#C7D5F0"/>
<path d="M385.417 80.8176L388.508 79.0308V75.4644L385.417 77.2512V80.8176Z" fill="#C7D5F0"/>
<path d="M378.22 84.9748L381.311 83.188V79.6216L378.22 81.4084V84.9748Z" fill="#C7D5F0"/>
<path d="M371.015 89.1321L374.106 87.3452V83.7788L371.015 85.5656V89.1321Z" fill="#C7D5F0"/>
<path d="M363.818 93.2893L366.908 91.5025V87.936L363.818 89.7229V93.2893Z" fill="#C7D5F0"/>
<path d="M392.615 84.9748L395.706 83.188V79.6216L392.615 81.4084V84.9748Z" fill="#C7D5F0"/>
<path d="M385.417 89.1321L388.508 87.3452V83.7788L385.417 85.5656V89.1321Z" fill="#C7D5F0"/>
<path d="M378.22 93.2893L381.311 91.5025V87.936L378.22 89.7229V93.2893Z" fill="#C7D5F0"/>
<path d="M371.015 97.4465L374.106 95.6597V92.0933L371.015 93.8729V97.4465Z" fill="#C7D5F0"/>
<path d="M363.818 101.604L366.908 99.8169V96.2505L363.818 98.0301V101.604Z" fill="#C7D5F0"/>
<path d="M328.246 51.7168L325.155 49.9372V46.3635L328.246 48.1503V51.7168Z" fill="#C7D5F0"/>
<path d="M335.451 55.8741L332.36 54.0945V50.5209L335.451 52.3077V55.8741Z" fill="#C7D5F0"/>
<path d="M342.65 60.0314L339.559 58.2517V54.6781L342.65 56.4649V60.0314Z" fill="#C7D5F0"/>
<path d="M349.847 64.1886L346.756 62.409V58.8353L349.847 60.6222V64.1886Z" fill="#C7D5F0"/>
<path d="M357.052 68.3458L353.961 66.559V62.9926L357.052 64.7794V68.3458Z" fill="#C7D5F0"/>
<path d="M328.246 60.0314L325.155 58.2517V54.6781L328.246 56.4649V60.0314Z" fill="#C7D5F0"/>
<path d="M335.451 64.1886L332.36 62.409V58.8353L335.451 60.6222V64.1886Z" fill="#C7D5F0"/>
<path d="M342.65 68.3458L339.559 66.559V62.9926L342.65 64.7794V68.3458Z" fill="#C7D5F0"/>
<path d="M349.847 72.503L346.756 70.7162V67.1498L349.847 68.9366V72.503Z" fill="#C7D5F0"/>
<path d="M357.052 76.6603L353.961 74.8735V71.307L357.052 73.0938V76.6603Z" fill="#C7D5F0"/>
<path d="M328.246 68.3458L325.155 66.559V62.9926L328.246 64.7794V68.3458Z" fill="#C7D5F0"/>
<path d="M335.451 72.503L332.36 70.7162V67.1498L335.451 68.9366V72.503Z" fill="#C7D5F0"/>
<path d="M342.65 76.6603L339.559 74.8735V71.307L342.65 73.0938V76.6603Z" fill="#C7D5F0"/>
<path d="M349.847 80.8175L346.756 79.0307V75.4642L349.847 77.2511V80.8175Z" fill="#C7D5F0"/>
<path d="M357.052 84.9748L353.961 83.188V79.6216L357.052 81.4084V84.9748Z" fill="#C7D5F0"/>
<path d="M328.246 76.6603L325.155 74.8735V71.307L328.246 73.0938V76.6603Z" fill="#C7D5F0"/>
<path d="M335.451 80.8176L332.36 79.0308V75.4644L335.451 77.2512V80.8176Z" fill="#C7D5F0"/>
<path d="M342.65 84.9748L339.559 83.188V79.6216L342.65 81.4084V84.9748Z" fill="#C7D5F0"/>
<path d="M349.847 89.1321L346.756 87.3452V83.7788L349.847 85.5656V89.1321Z" fill="#C7D5F0"/>
<path d="M357.052 93.2893L353.961 91.5025V87.936L357.052 89.7229V93.2893Z" fill="#C7D5F0"/>
<path d="M328.246 84.9748L325.155 83.188V79.6216L328.246 81.4084V84.9748Z" fill="#C7D5F0"/>
<path d="M335.451 89.1321L332.36 87.3452V83.7788L335.451 85.5656V89.1321Z" fill="#C7D5F0"/>
<path d="M342.65 93.2893L339.559 91.5025V87.936L342.65 89.7229V93.2893Z" fill="#C7D5F0"/>
<path d="M349.847 97.4465L346.756 95.6597V92.0933L349.847 93.8729V97.4465Z" fill="#C7D5F0"/>
<path d="M357.052 101.604L353.961 99.8169V96.2505L357.052 98.0301V101.604Z" fill="#C7D5F0"/>
</g>
<path d="M177.275 178.646L149.622 194.612C148.102 195.491 146.726 195.57 145.732 195.001C144.737 194.425 144.118 193.193 144.118 191.442V159.51C144.118 157.752 144.73 155.814 145.732 154.085C146.726 152.363 148.102 150.857 149.622 149.978L177.275 134.012C178.795 133.133 180.171 133.053 181.165 133.63C182.16 134.206 182.779 135.438 182.779 137.189V169.121C182.779 170.879 182.167 172.817 181.165 174.546C180.171 176.268 178.795 177.774 177.275 178.653V178.646Z" fill="#C7D5F0"/>
<path d="M144.118 191.435V159.503C144.118 157.745 144.73 155.806 145.731 154.077C146.726 152.355 148.102 150.849 149.622 149.97L177.275 134.004C178.795 133.125 180.171 133.046 181.165 133.623L144.939 112.707C143.945 112.13 142.568 112.217 141.048 113.088L113.396 129.055C111.875 129.934 110.499 131.439 109.505 133.161C108.511 134.883 107.891 136.829 107.891 138.587V170.519C107.891 172.277 108.511 173.509 109.505 174.078L145.731 194.994C144.737 194.418 144.118 193.186 144.118 191.435Z" fill="url(#paint22_linear_0_1990)"/>
<path d="M178.651 166.83L148.239 184.388V188.913L178.651 171.355V166.83Z" fill="white"/>
<path d="M178.651 157.925L148.239 175.483V180.008L178.651 162.449V157.925Z" fill="white"/>
<path d="M178.651 149.019L148.239 166.578V171.102L178.651 153.544V149.019Z" fill="white"/>
<path d="M178.651 140.114L148.239 157.673V162.197L178.651 144.639V140.114Z" fill="white"/>
<path d="M394.193 325.057C394.525 324.481 394.979 323.984 395.483 323.696L402.594 319.589C403.099 319.301 403.553 319.272 403.884 319.466L440.11 340.382C439.779 340.188 439.325 340.217 438.821 340.505L431.709 344.612C431.205 344.9 430.751 345.404 430.42 345.973C430.088 346.55 429.887 347.191 429.887 347.775V355.981C429.887 356.565 430.095 356.968 430.42 357.163L394.193 336.247C393.862 336.052 393.653 335.649 393.653 335.065V326.859C393.653 326.282 393.862 325.634 394.193 325.057Z" fill="url(#paint23_linear_0_1990)"/>
<path d="M394.193 308.947C394.525 308.371 394.979 307.874 395.483 307.585L402.594 303.479C403.099 303.19 403.553 303.162 403.884 303.356L440.11 324.272C439.779 324.078 439.325 324.106 438.821 324.395L431.709 328.501C431.205 328.79 430.751 329.294 430.42 329.863C430.088 330.44 429.887 331.081 429.887 331.664V339.871C429.887 340.454 430.095 340.858 430.42 341.052L394.193 320.136C393.862 319.942 393.653 319.538 393.653 318.955V310.748C393.653 310.172 393.862 309.524 394.193 308.947Z" fill="url(#paint24_linear_0_1990)"/>
<path d="M380.244 333.105C380.575 332.529 381.029 332.032 381.534 331.744L388.645 327.637C389.149 327.349 389.603 327.32 389.935 327.514L426.161 348.43C425.83 348.236 425.376 348.264 424.871 348.553L417.76 352.659C417.256 352.948 416.802 353.452 416.47 354.021C416.139 354.598 415.93 355.239 415.93 355.822V364.029C415.93 364.612 416.139 365.016 416.47 365.21L380.244 344.295C379.913 344.1 379.704 343.697 379.704 343.113V334.907C379.704 334.33 379.913 333.682 380.244 333.105Z" fill="url(#paint25_linear_0_1990)"/>
<path d="M366.296 341.16C366.627 340.584 367.081 340.087 367.585 339.799L374.697 335.692C375.201 335.404 375.655 335.375 375.986 335.569L412.213 356.485C411.881 356.291 411.427 356.32 410.923 356.608L403.812 360.715C403.307 361.003 402.853 361.507 402.522 362.076C402.191 362.653 401.989 363.294 401.989 363.878V372.084C401.989 372.668 402.198 373.071 402.522 373.266L366.296 352.35C365.964 352.155 365.763 351.752 365.763 351.168V342.962C365.763 342.385 365.972 341.737 366.296 341.16Z" fill="url(#paint26_linear_0_1990)"/>
<path d="M380.244 317.002C380.575 316.426 381.029 315.929 381.534 315.641L388.645 311.534C389.149 311.246 389.603 311.217 389.935 311.411L426.161 332.327C425.83 332.133 425.376 332.162 424.871 332.45L417.76 336.557C417.256 336.845 416.802 337.349 416.47 337.918C416.139 338.495 415.93 339.136 415.93 339.719V347.926C415.93 348.51 416.139 348.913 416.47 349.107L380.244 328.192C379.913 327.997 379.704 327.594 379.704 327.01V318.804C379.704 318.227 379.913 317.579 380.244 317.002Z" fill="url(#paint27_linear_0_1990)"/>
<path d="M380.244 317.002C380.575 316.426 381.029 315.929 381.534 315.641L388.645 311.534C389.149 311.246 389.603 311.217 389.935 311.411L426.161 332.327C425.83 332.133 425.376 332.162 424.871 332.45L417.76 336.557C417.256 336.845 416.802 337.349 416.47 337.918C416.139 338.495 415.93 339.136 415.93 339.719V347.926C415.93 348.51 416.139 348.913 416.47 349.107L380.244 328.192C379.913 327.997 379.704 327.594 379.704 327.01V318.804C379.704 318.227 379.913 317.579 380.244 317.002Z" fill="url(#paint28_linear_0_1990)"/>
<path d="M366.296 325.057C366.627 324.481 367.081 323.984 367.585 323.696L374.697 319.589C375.201 319.301 375.655 319.272 375.986 319.466L412.213 340.382C411.881 340.188 411.427 340.217 410.923 340.505L403.812 344.612C403.307 344.9 402.853 345.404 402.522 345.973C402.191 346.55 401.989 347.191 401.989 347.775V355.981C401.989 356.565 402.198 356.968 402.522 357.163L366.296 336.247C365.964 336.052 365.763 335.649 365.763 335.065V326.859C365.763 326.282 365.972 325.634 366.296 325.057Z" fill="url(#paint29_linear_0_1990)"/>
<path d="M429.88 331.664C429.88 331.088 430.089 330.439 430.413 329.863C430.744 329.287 431.198 328.79 431.703 328.501L438.814 324.395C439.318 324.106 439.772 324.078 440.104 324.272C440.435 324.467 440.637 324.87 440.637 325.454V333.66C440.637 334.237 440.428 334.885 440.104 335.461C439.772 336.038 439.318 336.535 438.814 336.823L431.703 340.93C431.198 341.218 430.744 341.247 430.413 341.052C430.081 340.858 429.88 340.454 429.88 339.871V331.664Z" fill="#C7D5F0"/>
<path d="M415.93 339.712C415.93 339.136 416.139 338.487 416.47 337.911C416.802 337.335 417.256 336.837 417.76 336.549L424.871 332.442C425.376 332.154 425.83 332.125 426.161 332.32C426.492 332.514 426.701 332.918 426.701 333.502V341.708C426.701 342.284 426.492 342.933 426.161 343.509C425.83 344.086 425.376 344.583 424.871 344.871L417.76 348.978C417.256 349.266 416.802 349.295 416.47 349.1C416.139 348.906 415.93 348.502 415.93 347.919V339.712Z" fill="#C7D5F0"/>
<path d="M401.981 347.767C401.981 347.191 402.19 346.543 402.514 345.966C402.846 345.39 403.3 344.893 403.804 344.604L410.915 340.498C411.42 340.209 411.874 340.181 412.205 340.375C412.536 340.57 412.745 340.973 412.745 341.557V349.763C412.745 350.34 412.536 350.988 412.205 351.564C411.874 352.141 411.42 352.638 410.915 352.926L403.804 357.033C403.3 357.321 402.846 357.35 402.514 357.155C402.183 356.961 401.981 356.557 401.981 355.974V347.767Z" fill="#C7D5F0"/>
<path d="M429.88 347.767C429.88 347.191 430.089 346.543 430.413 345.966C430.744 345.39 431.198 344.893 431.703 344.604L438.814 340.498C439.318 340.209 439.772 340.181 440.104 340.375C440.435 340.57 440.637 340.973 440.637 341.557V349.763C440.637 350.34 440.428 350.988 440.104 351.564C439.772 352.141 439.318 352.638 438.814 352.926L431.703 357.033C431.198 357.321 430.744 357.35 430.413 357.155C430.081 356.961 429.88 356.557 429.88 355.974V347.767Z" fill="#C7D5F0"/>
<path d="M415.93 355.822C415.93 355.246 416.139 354.598 416.47 354.021C416.802 353.445 417.256 352.948 417.76 352.66L424.871 348.553C425.376 348.265 425.83 348.236 426.161 348.43C426.492 348.625 426.701 349.028 426.701 349.612V357.818C426.701 358.395 426.492 359.043 426.161 359.62C425.83 360.196 425.376 360.693 424.871 360.981L417.76 365.088C417.256 365.376 416.802 365.405 416.47 365.211C416.139 365.016 415.93 364.613 415.93 364.029V355.822Z" fill="#C7D5F0"/>
<path d="M401.981 363.87C401.981 363.294 402.19 362.646 402.514 362.069C402.846 361.493 403.3 360.996 403.804 360.707L410.915 356.601C411.42 356.312 411.874 356.284 412.205 356.478C412.536 356.673 412.745 357.076 412.745 357.66V365.866C412.745 366.443 412.536 367.091 412.205 367.667C411.874 368.244 411.42 368.741 410.915 369.029L403.804 373.136C403.3 373.424 402.846 373.453 402.514 373.258C402.183 373.064 401.981 372.66 401.981 372.077V363.87Z" fill="#C7D5F0"/>
<path d="M394.193 292.844C394.525 292.268 394.979 291.771 395.483 291.482L402.594 287.376C403.099 287.087 403.553 287.059 403.884 287.253L440.11 308.169C439.779 307.975 439.325 308.003 438.821 308.292L431.709 312.398C431.205 312.687 430.751 313.191 430.42 313.76C430.088 314.336 429.887 314.978 429.887 315.561V323.768C429.887 324.351 430.095 324.755 430.42 324.949L394.193 304.033C393.862 303.839 393.653 303.435 393.653 302.852V294.645C393.653 294.069 393.862 293.421 394.193 292.844Z" fill="url(#paint30_linear_0_1990)"/>
<path d="M415.93 323.609C415.93 323.033 416.139 322.384 416.47 321.808C416.802 321.232 417.256 320.735 417.76 320.446L424.871 316.339C425.376 316.051 425.83 316.022 426.161 316.217C426.492 316.412 426.701 316.815 426.701 317.399V325.605C426.701 326.181 426.492 326.83 426.161 327.406C425.83 327.983 425.376 328.48 424.871 328.768L417.76 332.875C417.256 333.163 416.802 333.192 416.47 332.997C416.139 332.803 415.93 332.399 415.93 331.816V323.609Z" fill="#C7D5F0"/>
<path d="M380.244 300.899C380.575 300.323 381.029 299.826 381.534 299.538L388.645 295.431C389.149 295.142 389.603 295.114 389.935 295.308L426.161 316.224C425.83 316.03 425.376 316.058 424.871 316.347L417.76 320.453C417.256 320.742 416.802 321.246 416.47 321.815C416.139 322.392 415.93 323.033 415.93 323.616V331.823C415.93 332.406 416.139 332.81 416.47 333.004L380.244 312.088C379.913 311.894 379.704 311.49 379.704 310.907V302.7C379.704 302.124 379.913 301.476 380.244 300.899Z" fill="url(#paint31_linear_0_1990)"/>
<path d="M401.981 331.664C401.981 331.088 402.19 330.439 402.514 329.863C402.846 329.287 403.3 328.79 403.804 328.501L410.915 324.395C411.42 324.106 411.874 324.078 412.205 324.272C412.536 324.467 412.745 324.87 412.745 325.454V333.66C412.745 334.237 412.536 334.885 412.205 335.461C411.874 336.038 411.42 336.535 410.915 336.823L403.804 340.93C403.3 341.218 402.846 341.247 402.514 341.052C402.183 340.865 401.981 340.454 401.981 339.871V331.664Z" fill="#C7D5F0"/>
<path d="M366.296 308.947C366.627 308.371 367.081 307.874 367.585 307.585L374.697 303.479C375.201 303.19 375.655 303.162 375.986 303.356L412.213 324.272C411.881 324.078 411.427 324.106 410.923 324.395L403.812 328.501C403.307 328.79 402.853 329.294 402.522 329.863C402.191 330.44 401.989 331.081 401.989 331.664V339.871C401.989 340.454 402.198 340.858 402.522 341.052L366.296 320.136C365.964 319.942 365.763 319.538 365.763 318.955V310.748C365.763 310.172 365.972 309.524 366.296 308.947Z" fill="url(#paint32_linear_0_1990)"/>
<path d="M429.879 347.767C429.879 346.607 430.7 345.181 431.709 344.604L438.82 340.498C439.822 339.921 440.65 340.389 440.65 341.549V349.756C440.65 350.916 439.829 352.342 438.82 352.919L431.709 357.026C430.708 357.602 429.879 357.134 429.879 355.974V347.767Z" fill="#C7D5F0"/>
<path d="M429.879 331.664C429.879 330.504 430.7 329.078 431.709 328.501L438.82 324.395C439.822 323.818 440.65 324.287 440.65 325.446V333.653C440.65 334.813 439.829 336.239 438.82 336.816L431.709 340.923C430.708 341.499 429.879 341.031 429.879 339.871V331.664Z" fill="#C7D5F0"/>
<path d="M415.93 339.712C415.93 338.552 416.751 337.126 417.76 336.549L424.871 332.443C425.873 331.866 426.701 332.334 426.701 333.494V341.701C426.701 342.861 425.88 344.287 424.871 344.864L417.76 348.971C416.759 349.547 415.93 349.079 415.93 347.919V339.712Z" fill="#C7D5F0"/>
<path d="M429.88 315.554C429.88 314.978 430.089 314.329 430.413 313.753C430.744 313.176 431.198 312.679 431.703 312.391L438.814 308.284C439.318 307.996 439.772 307.967 440.104 308.162C440.435 308.356 440.637 308.76 440.637 309.343V317.55C440.637 318.126 440.428 318.775 440.104 319.351C439.772 319.927 439.318 320.425 438.814 320.713L431.703 324.82C431.198 325.108 430.744 325.137 430.413 324.942C430.081 324.748 429.88 324.344 429.88 323.76V315.554Z" fill="#C7D5F0"/>
<path d="M415.93 355.822C415.93 354.662 416.751 353.236 417.76 352.659L424.871 348.553C425.873 347.976 426.701 348.445 426.701 349.605V357.811C426.701 358.971 425.88 360.398 424.871 360.974L417.76 365.081C416.759 365.657 415.93 365.189 415.93 364.029V355.822Z" fill="#C7D5F0"/>
<path d="M415.93 323.609C415.93 322.449 416.751 321.023 417.76 320.446L424.871 316.34C425.873 315.763 426.701 316.231 426.701 317.391V325.598C426.701 326.758 425.88 328.184 424.871 328.761L417.76 332.868C416.759 333.444 415.93 332.976 415.93 331.816V323.609Z" fill="#C7D5F0"/>
<path d="M401.982 363.87C401.982 362.71 402.803 361.284 403.812 360.707L410.923 356.601C411.924 356.024 412.753 356.493 412.753 357.653V365.859C412.753 367.019 411.932 368.446 410.923 369.022L403.812 373.129C402.81 373.705 401.982 373.237 401.982 372.077V363.87Z" fill="#C7D5F0"/>
<path d="M401.982 347.767C401.982 346.607 402.803 345.181 403.812 344.604L410.923 340.498C411.924 339.921 412.753 340.389 412.753 341.549V349.756C412.753 350.916 411.932 352.342 410.923 352.919L403.812 357.026C402.81 357.609 401.982 357.134 401.982 355.974V347.767Z" fill="#C7D5F0"/>
<path d="M401.982 331.664C401.982 330.504 402.803 329.078 403.812 328.501L410.923 324.395C411.924 323.818 412.753 324.287 412.753 325.446V333.653C412.753 334.813 411.932 336.239 410.923 336.816L403.812 340.923C402.81 341.506 401.982 341.031 401.982 339.871V331.664Z" fill="#C7D5F0"/>
<path style="mix-blend-mode:multiply" d="M406.572 222.178H429.196L414.836 230.471L429.196 238.764H406.572L392.213 230.471L406.572 222.178Z" fill="url(#paint33_linear_0_1990)"/>
<path d="M429.196 238.764L414.836 230.471V213.64L429.196 221.926V238.764Z" fill="#B9BEE4"/>
<path d="M429.195 238.764L443.555 230.471V213.64L429.195 221.926V238.764Z" fill="#CCD1F6"/>
<path d="M429.195 221.926L443.555 213.64L429.195 205.348L414.836 213.64L429.195 221.926Z" fill="url(#paint34_linear_0_1990)"/>
<path d="M344.609 36.32L330.256 28.0343V11.1964L344.609 19.4893V36.32Z" fill="#4267B2"/>
<path d="M344.609 36.32L358.976 28.0343V11.1964L344.609 19.4893V36.32Z" fill="#4267B2"/>
<path d="M344.609 19.4893L358.976 11.1964L344.609 2.91077L330.257 11.1964L344.609 19.4893Z" fill="#4267B2"/>
<path d="M344.609 19.4893L358.976 11.1964L344.609 2.91077L330.257 11.1964L344.609 19.4893Z" fill="black" fill-opacity="0.2"/>
<path style="mix-blend-mode:multiply" d="M344.609 36.32H329.017L336.813 31.8241L344.609 36.32Z" fill="url(#paint35_linear_0_1990)"/>
<path d="M217.672 97.5258L203.313 89.2329V72.4022L217.672 80.6879V97.5258Z" fill="#B9BEE4"/>
<path d="M217.672 97.5258L232.032 89.2329V72.4022L217.672 80.6879V97.5258Z" fill="#CCD1F6"/>
<path d="M217.672 80.6879L232.032 72.4022L217.672 64.1094L203.313 72.4022L217.672 80.6879Z" fill="#F4F4F9"/>
<path d="M174.566 268.996C174.566 271.878 176.612 273.059 179.105 271.618L331.583 183.581C334.083 182.14 336.122 178.603 336.122 175.721V60.7086C336.122 57.8267 334.083 56.645 331.583 58.086L179.105 146.123C176.605 147.564 174.566 151.102 174.566 153.984V268.996Z" fill="#4267B2"/>
<path d="M175.675 144.142L328.16 56.1047C329.428 55.377 330.574 55.3193 331.395 55.8165L334.659 57.7042H334.652C333.845 57.3151 332.771 57.4016 331.59 58.086L179.112 146.123C176.612 147.564 174.573 151.102 174.573 153.984V268.996C174.573 270.43 175.077 271.438 175.891 271.914L172.635 270.026H172.642C171.727 269.594 171.151 268.549 171.151 267.022V152.009C171.151 149.127 173.197 145.59 175.69 144.149L175.675 144.142Z" fill="#4267B2"/>
<path d="M179.105 264.572L331.583 176.535V63.3312L179.105 151.361V264.572Z" fill="white"/>
<path d="M282.504 333.307C284.996 334.748 289.082 334.748 291.582 333.307L444.067 245.27C446.56 243.829 446.56 241.473 444.067 240.025L340.136 180.022C337.643 178.581 333.558 178.581 331.058 180.022L178.58 268.059C176.08 269.5 176.08 271.856 178.58 273.297L282.511 333.3L282.504 333.307Z" fill="#F1F1F6"/>
<path d="M330.891 192.508L338.349 188.2L334.624 186.053L327.167 190.354L330.891 192.508Z" fill="#C7D5F0"/>
<path d="M318.334 199.756L325.791 195.455L322.066 193.301L314.609 197.609L318.334 199.756Z" fill="#C7D5F0"/>
<path d="M305.775 207.012L313.232 202.703L309.5 200.549L302.043 204.858L305.775 207.012Z" fill="#C7D5F0"/>
<path d="M293.217 214.26L300.674 209.959L296.942 207.804L289.485 212.106L293.217 214.26Z" fill="#C7D5F0"/>
<path d="M280.659 221.515L288.109 217.207L284.384 215.052L276.927 219.361L280.659 221.515Z" fill="#C7D5F0"/>
<path d="M268.094 228.763L275.551 224.455L271.826 222.308L264.369 226.609L268.094 228.763Z" fill="#C7D5F0"/>
<path d="M255.535 236.019L262.992 231.71L259.26 229.556L251.81 233.864L255.535 236.019Z" fill="#C7D5F0"/>
<path d="M242.977 243.267L250.434 238.958L246.702 236.804L239.245 241.113L242.977 243.267Z" fill="#C7D5F0"/>
<path d="M230.419 250.515L237.876 246.214L234.144 244.059L226.687 248.368L230.419 250.515Z" fill="#C7D5F0"/>
<path d="M217.861 257.77L225.31 253.462L221.586 251.308L214.128 255.616L217.861 257.77Z" fill="#C7D5F0"/>
<path d="M205.295 265.019L212.752 260.717L209.027 258.563L201.57 262.864L205.295 265.019Z" fill="#C7D5F0"/>
<path d="M192.737 272.274L200.194 267.965L196.469 265.811L189.012 270.12L192.737 272.274Z" fill="#C7D5F0"/>
<path d="M337.506 203.193L350.907 195.455L343.45 191.146L330.049 198.892L337.506 203.193Z" fill="#C7D5F0"/>
<path d="M344.437 213.093L362.946 202.401L355.489 198.099L336.98 208.784L344.437 213.093Z" fill="#C7D5F0"/>
<path d="M351.895 223.288L375.505 209.656L368.048 205.347L344.437 218.979L351.895 223.288Z" fill="#C7D5F0"/>
<path d="M377.299 226.17L390.707 218.432L380.606 212.603L367.205 220.341L377.299 226.17Z" fill="#C7D5F0"/>
<path d="M358.789 236.854L372.197 229.116L362.103 223.288L348.695 231.026L358.789 236.854Z" fill="#C7D5F0"/>
<path d="M340.28 247.539L353.689 239.801L343.587 233.973L330.186 241.718L340.28 247.539Z" fill="#C7D5F0"/>
<path d="M276.459 284.393L289.867 276.647L279.773 270.819L266.365 278.557L276.459 284.393Z" fill="#C7D5F0"/>
<path d="M245.095 302.499L271.386 287.318L261.292 281.489L235.001 296.67L245.095 302.499Z" fill="#C7D5F0"/>
<path d="M294.939 273.722L335.179 250.486L325.085 244.657L284.845 267.893L294.939 273.722Z" fill="#C7D5F0"/>
<path d="M321.424 212.473L332.398 206.14L324.948 201.831L313.975 208.172L321.424 212.473Z" fill="#C7D5F0"/>
<path d="M328.363 222.373L339.336 216.04L331.879 211.731L320.906 218.064L328.363 222.373Z" fill="#C7D5F0"/>
<path d="M335.474 232.373L346.448 226.033L338.99 221.731L328.017 228.065L335.474 232.373Z" fill="#C7D5F0"/>
<path d="M319.4 241.646L330.373 235.313L322.916 231.011L311.943 237.344L319.4 241.646Z" fill="#C7D5F0"/>
<path d="M303.333 250.933L314.299 244.593L306.842 240.291L295.876 246.624L303.333 250.933Z" fill="#C7D5F0"/>
<path d="M287.252 260.213L298.225 253.88L290.768 249.571L279.802 255.904L287.252 260.213Z" fill="#C7D5F0"/>
<path d="M271.178 269.493L282.151 263.153L274.694 258.851L263.728 265.184L271.178 269.493Z" fill="#C7D5F0"/>
<path d="M255.11 278.773L266.076 272.44L258.619 268.131L247.653 274.464L255.11 278.773Z" fill="#C7D5F0"/>
<path d="M229.555 293.528L250.002 281.712L242.545 277.411L222.098 289.22L229.555 293.528Z" fill="#C7D5F0"/>
<path d="M312.289 231.653L323.262 225.319L315.805 221.011L304.831 227.344L312.289 231.653Z" fill="#C7D5F0"/>
<path d="M296.215 240.933L307.188 234.599L299.731 230.291L288.758 236.624L296.215 240.933Z" fill="#C7D5F0"/>
<path d="M280.14 250.212L291.113 243.879L283.656 239.571L272.683 245.904L280.14 250.212Z" fill="#C7D5F0"/>
<path d="M264.066 259.492L275.039 253.159L267.582 248.851L256.609 255.184L264.066 259.492Z" fill="#C7D5F0"/>
<path d="M247.992 268.772L258.965 262.439L251.508 258.131L240.535 264.464L247.992 268.772Z" fill="#C7D5F0"/>
<path d="M217.335 286.475L242.891 271.719L235.434 267.411L209.878 282.166L217.335 286.475Z" fill="#C7D5F0"/>
<path d="M305.357 221.753L316.323 215.42L308.866 211.119L297.9 217.452L305.357 221.753Z" fill="#C7D5F0"/>
<path d="M289.276 231.033L300.249 224.7L292.792 220.398L281.826 226.732L289.276 231.033Z" fill="#C7D5F0"/>
<path d="M273.209 240.313L284.175 233.98L276.725 229.678L265.752 236.012L273.209 240.313Z" fill="#C7D5F0"/>
<path d="M257.135 249.593L268.109 243.26L260.651 238.958L249.678 245.292L257.135 249.593Z" fill="#C7D5F0"/>
<path d="M241.061 258.873L252.026 252.54L244.577 248.238L233.603 254.571L241.061 258.873Z" fill="#C7D5F0"/>
<path d="M224.986 268.16L235.952 261.82L228.495 257.518L217.529 263.851L224.986 268.16Z" fill="#C7D5F0"/>
<path d="M205.296 279.522L219.879 271.1L212.422 266.798L197.839 275.221L205.296 279.522Z" fill="#C7D5F0"/>
<path d="M198.184 260.912L318.68 191.348L315.055 189.259L194.567 258.822L198.184 260.912Z" fill="#4267B2"/>
<path d="M294.939 282.707L356.426 247.208L394.634 269.269L333.147 304.768L294.939 282.707Z" fill="#C7D5F0"/>
<path d="M178.573 273.297L282.504 333.3C284.485 334.445 287.468 334.676 289.86 334.006C289.874 334.006 291.351 333.437 291.575 333.3L444.06 245.263C444.233 245.162 444.391 245.054 444.543 244.946C444.55 244.946 444.557 244.931 444.564 244.931C444.6 244.902 444.636 244.874 444.679 244.838C444.766 244.766 444.852 244.701 444.932 244.629C444.968 244.593 445.011 244.557 445.047 244.521C445.141 244.427 445.227 244.333 445.306 244.232C445.313 244.218 445.328 244.211 445.335 244.196C445.335 244.189 445.35 244.182 445.357 244.175C445.443 244.059 445.522 243.944 445.594 243.822C445.796 243.469 445.911 243.101 445.926 242.734V244.931H445.911C445.926 245.89 445.313 246.848 444.06 247.575L291.575 335.612C287.936 337.414 282.742 337.068 281.193 336.729C279.643 336.391 278.253 336.002 276.632 335.648L178.566 279.032C177.305 278.304 176.678 277.339 176.699 276.381V270.71C176.707 271.647 177.334 272.591 178.566 273.304L178.573 273.297Z" fill="#4267B2"/>
<path style="mix-blend-mode:multiply" d="M416.551 239.131L442.676 239.225L401.334 215.362L375.216 215.261L416.551 239.131Z" fill="url(#paint36_linear_0_1990)"/>
<path d="M278.245 104.507L288.375 98.6571V96.2506L278.245 102.094V104.507Z" fill="#D4DEF0"/>
<path d="M199.365 150.05L272.848 107.627V105.214L199.365 147.643V150.05Z" fill="#D4DEF0"/>
<path d="M271.047 115.228L288.375 105.221V102.814L271.047 112.815V115.228Z" fill="#D4DEF0"/>
<path d="M199.365 156.613L265.644 118.348V115.934L199.365 154.2V156.613Z" fill="#D4DEF0"/>
<path d="M281.66 115.661L288.375 111.784V109.371L281.66 113.254V115.661Z" fill="#FF4B4B"/>
<path d="M199.366 163.177L276.257 118.78V116.367L199.366 160.763V163.177Z" fill="#4267B2"/>
<path d="M266.22 131.137L288.375 118.348V115.934L266.22 128.73V131.137Z" fill="#D4DEF0"/>
<path d="M199.366 169.741L260.816 134.257V131.85L199.366 167.327V169.741Z" fill="#FF4B4B"/>
<path d="M278.245 130.755L288.375 124.912V122.498L278.245 128.349V130.755Z" fill="#D4DEF0"/>
<path d="M199.365 176.297L272.848 133.875V131.468L199.365 173.891V176.297Z" fill="#D4DEF0"/>
<path d="M281.12 135.661L288.375 131.475V129.062L281.12 133.255V135.661Z" fill="#4267B2"/>
<path d="M199.366 182.861L275.717 138.781V136.375L199.366 180.454V182.861Z" fill="#4267B2"/>
<path d="M278.245 143.882L288.375 138.032V135.625L278.245 141.469V143.882Z" fill="#D4DEF0"/>
<path d="M202.384 187.681L275.867 145.259V142.845L202.384 185.275V187.681Z" fill="#D4DEF0"/>
<path d="M278.245 150.446L288.375 144.596V142.189L278.245 148.032V150.446Z" fill="#D4DEF0"/>
<path d="M199.365 195.988L272.848 153.566V151.152L199.365 193.582V195.988Z" fill="#D4DEF0"/>
<path d="M274.974 158.897L285.097 153.054V150.641L274.974 156.491V158.897Z" fill="#D4DEF0"/>
<path d="M199.365 202.552L272.848 160.129V157.716L199.365 200.138V202.552Z" fill="#D4DEF0"/>
<path d="M281.826 161.506L288.375 157.723V155.317L281.826 159.099V161.506Z" fill="#FF4B4B"/>
<path d="M202.845 207.106L279.902 162.615V160.209L202.845 204.692V207.106Z" fill="#4267B2"/>
<path d="M278.245 170.13L288.375 164.287V161.873L278.245 167.723V170.13Z" fill="#D4DEF0"/>
<path d="M228.603 198.791L272.848 173.25V170.843L228.603 196.385V198.791Z" fill="#D4DEF0"/>
<path d="M278.245 176.694L288.375 170.85V168.437L278.245 174.287V176.694Z" fill="#4267B2"/>
<path d="M199.365 222.243L272.848 179.813V177.407L199.365 219.829V222.243Z" fill="#4267B2"/>
<path d="M281.12 181.542L288.375 177.414V175L281.12 179.129V181.542Z" fill="#FF4B4B"/>
<path d="M211.269 221.919L275.717 184.662V182.249L211.269 219.512V221.919Z" fill="#FF4B4B"/>
<path d="M278.245 189.821L288.375 183.971V181.564L278.245 187.414V189.821Z" fill="#D4DEF0"/>
<path d="M199.365 235.363L272.848 192.941V190.527L199.365 232.957V235.363Z" fill="#D4DEF0"/>
<path d="M278.245 196.385L288.375 190.534V188.128L278.245 193.971V196.385Z" fill="#D4DEF0"/>
<path d="M207.197 237.409L272.848 199.504V197.091L207.197 234.996V237.409Z" fill="#D4DEF0"/>
<path d="M271.047 207.091L288.375 197.098V194.691L271.047 204.685V207.091Z" fill="#D4DEF0"/>
<path d="M224.359 234.059L265.644 210.211V207.804L224.359 231.653V234.059Z" fill="#D4DEF0"/>
<path d="M299.478 113.737L322.39 100.509C323.989 99.5865 325.286 97.1008 325.286 94.9681V92.3815C325.286 90.2489 323.989 89.2618 322.39 90.1912L299.478 103.419C297.879 104.342 296.582 106.827 296.582 108.96V111.547C296.582 113.679 297.879 114.666 299.478 113.737Z" fill="#07DA63"/>
<path d="M299.478 129.761L322.39 116.532C323.989 115.61 325.286 113.125 325.286 110.992V108.405C325.286 106.273 323.989 105.286 322.39 106.215L299.478 119.443C297.879 120.366 296.582 122.851 296.582 124.984V127.57C296.582 129.703 297.879 130.69 299.478 129.761Z" fill="#FF4B4B"/>
<path opacity="0.2" d="M311.064 134.033C312.786 135.027 314.378 135.719 316.849 134.293C319.097 132.996 322.635 130.957 322.635 130.957V144.552C322.635 152.989 315.387 164.856 311.071 169.056C306.755 169.842 299.5 166.347 299.5 157.91V144.315C299.5 144.315 302.893 142.355 305.285 140.972C307.685 139.588 309.219 137.232 311.071 134.033H311.064Z" fill="#4267B2"/>
<path d="M316.438 98.7867C316.438 97.9798 315.869 97.6483 315.17 98.0518C314.471 98.4553 313.902 99.4424 313.902 100.249C313.902 101.056 314.471 101.388 315.17 100.984C315.869 100.581 316.438 99.5937 316.438 98.7867Z" fill="#F6F6FB"/>
<path d="M312.202 101.236C312.202 100.429 311.633 100.098 310.934 100.502C310.235 100.905 309.666 101.892 309.666 102.699C309.666 103.506 310.235 103.837 310.934 103.434C311.633 103.03 312.202 102.043 312.202 101.236Z" fill="#F6F6FB"/>
<path d="M307.966 103.679C307.966 102.872 307.397 102.54 306.698 102.944C305.999 103.347 305.43 104.334 305.43 105.141C305.43 105.948 305.999 106.28 306.698 105.876C307.397 105.473 307.966 104.486 307.966 103.679Z" fill="#F6F6FB"/>
<path style="mix-blend-mode:multiply" d="M131.574 367.494H51.3329L51.3329 322.853H131.574V367.494Z" fill="url(#paint37_linear_0_1990)"/>
<path style="mix-blend-mode:multiply" d="M125.075 325.972C126.595 325.093 129.203 324.301 132.186 323.724C135.176 323.148 138.541 322.795 141.581 322.795H196.886C199.927 322.795 202.059 323.148 203.054 323.724C204.048 324.301 203.904 325.093 202.384 325.972V360.599C203.904 361.478 204.048 362.271 203.054 362.847C202.059 363.423 199.92 363.777 196.886 363.777H141.581C138.541 363.777 135.176 363.423 132.186 362.847C129.196 362.271 126.588 361.478 125.075 360.599V325.972Z" fill="url(#paint38_linear_0_1990)"/>
<path d="M231.498 346.499L203.846 362.465C202.326 363.344 200.95 363.424 199.955 362.847C198.961 362.271 198.341 361.039 198.341 359.288V327.356C198.341 325.598 198.961 323.66 199.955 321.93C200.95 320.208 202.326 318.703 203.846 317.824L231.498 301.857C233.019 300.978 234.395 300.899 235.389 301.468C236.383 302.045 237.003 303.277 237.003 305.028V336.96C237.003 338.718 236.391 340.656 235.389 342.385C234.395 344.107 233.019 345.613 231.498 346.492V346.499Z" fill="#C7D5F0"/>
<path d="M198.341 359.281V327.349C198.341 325.591 198.961 323.652 199.955 321.923C200.949 320.201 202.325 318.695 203.846 317.816L231.498 301.85C233.018 300.971 234.395 300.892 235.389 301.461L199.162 280.545C198.168 279.969 196.792 280.055 195.272 280.927L167.619 296.893C166.099 297.772 164.723 299.278 163.729 301C162.734 302.722 162.115 304.667 162.115 306.425V338.358C162.115 340.116 162.734 341.348 163.729 341.917L199.955 362.833C198.961 362.256 198.341 361.024 198.341 359.274V359.281Z" fill="url(#paint39_linear_0_1990)"/>
<g style="mix-blend-mode:multiply">
<path d="M194.234 318.623C195.228 316.901 196.605 315.396 198.125 314.517L225.777 298.55C227.298 297.671 228.674 297.592 229.668 298.161L231.404 299.163C230.41 298.586 229.034 298.673 227.514 299.552L199.861 315.518C198.341 316.397 196.965 317.903 195.971 319.625C194.976 321.347 194.357 323.292 194.357 325.05V356.982C194.357 358.74 194.969 359.972 195.971 360.542L194.234 359.54C193.24 358.964 192.62 357.732 192.62 355.974V324.041C192.62 322.291 193.24 320.345 194.234 318.616V318.623Z" fill="#C7D5F0"/>
<path d="M189.587 315.943C190.581 314.221 191.957 312.715 193.478 311.836L221.13 295.87C222.65 294.991 224.026 294.912 225.021 295.481L226.757 296.483C225.763 295.906 224.387 295.993 222.866 296.864L195.214 312.831C193.694 313.71 192.318 315.215 191.323 316.937C190.329 318.659 189.709 320.605 189.709 322.363V354.295C189.709 356.046 190.329 357.285 191.323 357.854L189.587 356.853C188.593 356.276 187.973 355.044 187.973 353.286V321.354C187.973 319.596 188.593 317.658 189.587 315.929V315.943Z" fill="#C7D5F0"/>
<path d="M184.932 313.256C185.927 311.534 187.303 310.028 188.823 309.149L216.476 293.183C217.996 292.304 219.372 292.225 220.366 292.794L222.103 293.795C221.108 293.219 219.732 293.305 218.212 294.184L190.56 310.15C189.039 311.029 187.663 312.535 186.669 314.257C185.675 315.979 185.055 317.925 185.055 319.683V351.615C185.055 353.373 185.675 354.605 186.669 355.181L184.932 354.18C183.938 353.603 183.319 352.371 183.319 350.62V318.688C183.319 316.93 183.938 314.992 184.932 313.263V313.256Z" fill="#C7D5F0"/>
<path d="M180.285 310.575C181.279 308.853 182.656 307.348 184.176 306.469L211.828 290.502C213.349 289.623 214.725 289.544 215.719 290.113L217.455 291.115C216.461 290.539 215.085 290.625 213.565 291.504L185.912 307.47C184.392 308.349 183.016 309.855 182.022 311.577C181.027 313.299 180.408 315.244 180.408 317.002V348.934C180.408 350.692 181.027 351.924 182.022 352.501L180.285 351.499C179.291 350.923 178.671 349.691 178.671 347.94V316.008C178.671 314.25 179.284 312.312 180.285 310.583V310.575Z" fill="#C7D5F0"/>
<path d="M175.639 307.888C176.633 306.166 178.009 304.66 179.529 303.781L207.182 287.815C208.702 286.936 210.078 286.857 211.072 287.426L212.809 288.428C211.814 287.851 210.438 287.938 208.918 288.817L181.266 304.783C179.745 305.662 178.369 307.168 177.375 308.89C176.381 310.612 175.761 312.557 175.761 314.315V346.247C175.761 348.005 176.373 349.237 177.375 349.806L175.639 348.805C174.644 348.228 174.025 346.996 174.025 345.246V313.313C174.025 311.563 174.637 309.617 175.639 307.888Z" fill="#C7D5F0"/>
<path d="M170.984 305.208C171.979 303.486 173.355 301.98 174.875 301.101L202.527 285.135C204.048 284.256 205.424 284.177 206.418 284.746L208.154 285.747C207.16 285.171 205.784 285.257 204.264 286.136L176.611 302.103C175.091 302.982 173.715 304.487 172.721 306.209C171.726 307.931 171.107 309.877 171.107 311.635V343.567C171.107 345.325 171.719 346.557 172.721 347.126L170.984 346.125C169.99 345.548 169.37 344.316 169.37 342.558V310.626C169.37 308.868 169.983 306.93 170.984 305.201V305.208Z" fill="#C7D5F0"/>
<path d="M166.337 302.52C167.331 300.798 168.707 299.293 170.228 298.414L197.88 282.447C199.4 281.568 200.776 281.489 201.771 282.058L203.507 283.06C202.513 282.483 201.137 282.57 199.616 283.449L171.964 299.415C170.444 300.294 169.068 301.8 168.073 303.522C167.079 305.244 166.459 307.189 166.459 308.947V340.879C166.459 342.63 167.072 343.869 168.073 344.439L166.337 343.437C165.343 342.861 164.723 341.629 164.723 339.878V307.946C164.723 306.188 165.343 304.25 166.337 302.52Z" fill="#C7D5F0"/>
</g>
<path style="mix-blend-mode:multiply" d="M331.986 359.014H357.851L341.431 368.496L357.851 377.97H331.986L315.573 368.496L331.986 359.014Z" fill="url(#paint40_linear_0_1990)"/>
<path d="M357.851 377.97L341.431 368.496V349.244L357.851 358.719V377.97Z" fill="#B9BEE4"/>
<path d="M357.851 377.97L374.271 368.496V349.244L357.851 358.719V377.97Z" fill="#CCD1F6"/>
<path d="M357.851 358.719L374.271 349.244L357.851 339.77L341.431 349.244L357.851 358.719Z" fill="#F4F4F9"/>
<path d="M137.071 324.351L164.723 308.385C166.243 307.506 167 306.361 167 305.208C167 304.055 166.243 302.909 164.723 302.03L137.071 286.064C135.55 285.185 133.562 284.746 131.566 284.746C129.57 284.746 127.582 285.185 126.061 286.064L98.409 302.03C96.8887 302.909 96.1322 304.055 96.1322 305.208C96.1322 306.361 96.8887 307.506 98.409 308.385L126.061 324.351C127.582 325.23 129.57 325.67 131.566 325.67C133.562 325.67 135.55 325.23 137.071 324.351Z" fill="#F6F6FB"/>
<path d="M98.2762 308.177L125.929 324.143C127.449 325.022 129.438 325.462 131.433 325.462C133.429 325.462 135.418 325.022 136.938 324.143L164.59 308.177C166.111 307.298 166.867 306.153 166.867 305V346.825C166.867 347.977 166.111 349.123 164.59 350.002L136.938 365.968C135.418 366.847 133.429 367.287 131.433 367.287C129.438 367.287 127.449 366.847 125.929 365.968L98.2762 350.002C96.756 349.123 95.9995 347.977 95.9995 346.825V305C95.9995 306.153 96.756 307.298 98.2762 308.177Z" fill="url(#paint41_linear_0_1990)"/>
<path d="M131.572 301.267L124.735 305.208L131.572 309.156L138.402 305.208L131.572 301.267Z" fill="#C7D5F0"/>
<path d="M120.527 307.643L113.69 311.584L120.527 315.532L127.358 311.584L120.527 307.643Z" fill="#C7D5F0"/>
<path d="M109.482 301.267L102.645 305.208L109.482 309.156L116.312 305.208L109.482 301.267Z" fill="#C7D5F0"/>
<path d="M131.572 314.02L124.735 317.961L131.572 321.909L138.402 317.961L131.572 314.02Z" fill="#C7D5F0"/>
<path d="M142.618 294.89L135.78 298.831L142.618 302.78L149.448 298.831L142.618 294.89Z" fill="#C7D5F0"/>
<path d="M120.527 294.89L113.69 298.831L120.527 302.78L127.358 298.831L120.527 294.89Z" fill="#C7D5F0"/>
<path d="M131.572 288.514L124.735 292.455L131.572 296.403L138.402 292.455L131.572 288.514Z" fill="#C7D5F0"/>
<path d="M153.656 301.267L146.825 305.208L153.656 309.156L160.493 305.208L153.656 301.267Z" fill="#C7D5F0"/>
<path d="M142.618 307.643L135.78 311.584L142.618 315.532L149.448 311.584L142.618 307.643Z" fill="#C7D5F0"/>
<g style="mix-blend-mode:multiply">
<path d="M164.723 350.21L141.336 363.712L141.235 363.769L167.007 312.932V347.025C167.007 348.178 166.25 349.324 164.73 350.203L164.723 350.21Z" fill="#F1F1F6"/>
</g>
<path d="M281.004 89.7373L308.657 73.7712C310.177 72.8922 310.933 71.7466 310.933 70.5938C310.933 69.441 310.177 68.2955 308.657 67.4165L281.004 51.4503C279.484 50.5713 277.495 50.1318 275.5 50.1318C273.504 50.1318 271.515 50.5713 269.995 51.4503L242.342 67.4165C240.822 68.2955 240.066 69.441 240.066 70.5938C240.066 71.7466 240.822 72.8922 242.342 73.7712L269.995 89.7373C271.515 90.6163 273.504 91.0558 275.5 91.0558C277.495 91.0558 279.484 90.6163 281.004 89.7373Z" fill="#F6F6FB"/>
<g style="mix-blend-mode:multiply">
<path d="M242.342 67.4164L269.995 51.4503C270.665 51.0612 271.428 50.7658 272.242 50.5497C273.057 50.7658 273.82 51.0612 274.49 51.4503L302.143 67.4164C303.663 68.2954 304.42 69.441 304.42 70.5938C304.42 71.7466 303.663 72.8922 302.143 73.7712L274.49 89.7373C273.82 90.1263 273.057 90.4217 272.242 90.6379C271.428 90.4217 270.665 90.1263 269.995 89.7373L242.342 73.7712C240.822 72.8922 240.065 71.7466 240.065 70.5938C240.065 69.441 240.822 68.2954 242.342 67.4164Z" fill="#D1D7F3"/>
</g>
<path d="M242.342 73.7712L269.995 89.7374C271.515 90.6164 273.504 91.0559 275.5 91.0559C277.495 91.0559 279.484 90.6164 281.004 89.7374L308.657 73.7712C310.177 72.8922 310.933 71.7467 310.933 70.5939V78.2167C310.933 79.3695 310.177 80.515 308.657 81.394L281.004 97.3602C279.484 98.2392 277.495 98.6787 275.5 98.6787C273.504 98.6787 271.515 98.2392 269.995 97.3602L242.342 81.394C240.822 80.515 240.066 79.3695 240.066 78.2167V70.5939C240.066 71.7467 240.822 72.8922 242.342 73.7712Z" fill="url(#paint42_linear_0_1990)"/>
<path d="M281.004 64.1382L308.657 48.1721C310.177 47.2931 310.933 46.1475 310.933 44.9947C310.933 43.8419 310.177 42.6963 308.657 41.8173L281.004 25.8512C279.484 24.9722 277.495 24.5327 275.5 24.5327C273.504 24.5327 271.515 24.9722 269.995 25.8512L242.342 41.8173C240.822 42.6963 240.066 43.8419 240.066 44.9947C240.066 46.1475 240.822 47.2931 242.342 48.1721L269.995 64.1382C271.515 65.0172 273.504 65.4567 275.5 65.4567C277.495 65.4567 279.484 65.0172 281.004 64.1382Z" fill="#F6F6FB"/>
<g style="mix-blend-mode:multiply">
<path d="M242.342 41.8173L269.995 25.8512C270.665 25.4621 271.428 25.1667 272.242 24.9506C273.057 25.1667 273.82 25.4621 274.49 25.8512L302.143 41.8173C303.663 42.6963 304.42 43.8419 304.42 44.9947C304.42 46.1475 303.663 47.293 302.143 48.172L274.49 64.1381C273.82 64.5272 273.057 64.8226 272.242 65.0388C271.428 64.8226 270.665 64.5272 269.995 64.1381L242.342 48.172C240.822 47.293 240.065 46.1475 240.065 44.9947C240.065 43.8419 240.822 42.6963 242.342 41.8173Z" fill="#D1D7F3"/>
</g>
<path d="M242.342 48.1721L269.995 64.1382C271.515 65.0172 273.504 65.4567 275.5 65.4567C277.495 65.4567 279.484 65.0172 281.004 64.1382L308.657 48.1721C310.177 47.2931 310.933 46.1475 310.933 44.9948V69.1745C310.933 70.3273 310.177 71.4728 308.657 72.3518L281.004 88.318C279.484 89.197 277.495 89.6365 275.5 89.6365C273.504 89.6365 271.515 89.197 269.995 88.318L242.342 72.3518C240.822 71.4728 240.066 70.3273 240.066 69.1745V44.9948C240.066 46.1475 240.822 47.2931 242.342 48.1721Z" fill="url(#paint43_linear_0_1990)"/>
<path d="M281.004 55.5355L308.657 39.5694C310.177 38.6904 310.933 37.5448 310.933 36.392C310.933 35.2393 310.177 34.0937 308.657 33.2147L281.004 17.2486C279.484 16.3696 277.495 15.9301 275.5 15.9301C273.504 15.9301 271.515 16.3696 269.995 17.2486L242.342 33.2147C240.822 34.0937 240.066 35.2393 240.066 36.392C240.066 37.5448 240.822 38.6904 242.342 39.5694L269.995 55.5355C271.515 56.4145 273.504 56.854 275.5 56.854C277.495 56.854 279.484 56.4145 281.004 55.5355Z" fill="#F6F6FB"/>
<path d="M242.342 39.5695L269.995 55.5356C271.515 56.4146 273.504 56.8541 275.5 56.8541C277.495 56.8541 279.484 56.4146 281.004 55.5356L308.657 39.5695C310.177 38.6905 310.933 37.5449 310.933 36.3921V43.5754C310.933 44.7282 310.177 45.8738 308.657 46.7528L281.004 62.7189C279.484 63.5979 277.495 64.0374 275.5 64.0374C273.504 64.0374 271.515 63.5979 269.995 62.7189L242.342 46.7528C240.822 45.8738 240.066 44.7282 240.066 43.5754V36.3921C240.066 37.5449 240.822 38.6905 242.342 39.5695Z" fill="url(#paint44_linear_0_1990)"/>
<g style="mix-blend-mode:multiply">
<path d="M308.656 39.5695L307.338 40.3332V47.5165L308.656 46.76V39.5695Z" fill="white"/>
</g>
<g style="mix-blend-mode:multiply">
<path d="M308.656 48.1793L307.338 48.9358V73.1156L308.656 72.3518V48.1793Z" fill="white"/>
</g>
<g style="mix-blend-mode:multiply">
<path d="M308.656 73.7712L307.338 74.535V82.1578L308.656 81.4013V73.7712Z" fill="white"/>
</g>
<g style="mix-blend-mode:multiply">
<path d="M282.315 54.7791L281.004 55.5356V62.7261L282.315 61.9624V54.7791Z" fill="white"/>
</g>
<g style="mix-blend-mode:multiply">
<path d="M282.315 63.3817L281.004 64.1454V88.318L282.315 87.5614V63.3817Z" fill="white"/>
</g>
<g style="mix-blend-mode:multiply">
<path d="M282.315 88.9807L281.004 89.7372V97.36L282.315 96.6035V88.9807Z" fill="white"/>
</g>
<g style="mix-blend-mode:multiply">
<path d="M242.342 39.5693L243.661 40.3331V47.5164L242.342 46.7598V39.5693Z" fill="white"/>
</g>
<g style="mix-blend-mode:multiply">
<path d="M242.342 48.1793L243.661 48.9358V73.1156L242.342 72.3518V48.1793Z" fill="white"/>
</g>
<g style="mix-blend-mode:multiply">
<path d="M242.342 73.7712L243.661 74.535V82.1578L242.342 81.4013V73.7712Z" fill="white"/>
</g>
<g style="mix-blend-mode:multiply">
<path d="M268.684 54.7791L269.995 55.5356V62.7261L268.684 61.9624V54.7791Z" fill="white"/>
</g>
<g style="mix-blend-mode:multiply">
<path d="M268.684 63.3817L269.995 64.1454V88.318L268.684 87.5614V63.3817Z" fill="white"/>
</g>
<g style="mix-blend-mode:multiply">
<path d="M268.684 88.9807L269.995 89.7372V97.36L268.684 96.6035V88.9807Z" fill="white"/>
</g>
<path style="mix-blend-mode:multiply" d="M198.342 348.308H179.868L189.105 342.976L198.342 348.308Z" fill="url(#paint45_linear_0_1990)"/>
<g style="mix-blend-mode:multiply">
<path d="M364.61 374.065L374.271 355.015V368.496L364.61 374.065Z" fill="#F1F1F6"/>
</g>
<path d="M93.8864 189.281L126.273 170.577L93.8864 151.88L61.5002 170.577L93.8864 189.281Z" stroke="#4267B2" stroke-width="0.720492" stroke-linecap="round" stroke-linejoin="round"/>
<path d="M126.273 170.577V207.977L93.8864 226.681L61.493 207.977V170.577" stroke="#4267B2" stroke-width="0.720492" stroke-linecap="round" stroke-linejoin="round"/>
<path d="M93.8858 189.281V226.681" stroke="#4267B2" stroke-width="0.720492" stroke-linecap="round" stroke-linejoin="round"/>
<path d="M95.2619 151.88C95.2619 151.121 94.6451 150.504 93.8858 150.504C93.1265 150.504 92.5096 151.121 92.5096 151.88C92.5096 152.639 93.1265 153.256 93.8858 153.256C94.6451 153.256 95.2619 152.639 95.2619 151.88Z" fill="#4267B2" stroke="#4267B2" stroke-width="0.720492"/>
<path d="M127.649 170.577C127.649 169.817 127.032 169.2 126.272 169.2C125.513 169.2 124.896 169.817 124.896 170.577C124.896 171.336 125.513 171.953 126.272 171.953C127.032 171.953 127.649 171.336 127.649 170.577Z" fill="#4267B2" stroke="#4267B2" stroke-width="0.720492"/>
<path d="M127.649 207.977C127.649 207.218 127.032 206.601 126.272 206.601C125.513 206.601 124.896 207.218 124.896 207.977C124.896 208.737 125.513 209.353 126.272 209.353C127.032 209.353 127.649 208.737 127.649 207.977Z" fill="#4267B2" stroke="#4267B2" stroke-width="0.720492"/>
<path d="M95.2619 226.681C95.2619 225.922 94.6451 225.305 93.8858 225.305C93.1265 225.305 92.5096 225.922 92.5096 226.681C92.5096 227.441 93.1265 228.057 93.8858 228.057C94.6451 228.057 95.2619 227.441 95.2619 226.681Z" fill="#4267B2" stroke="#4267B2" stroke-width="0.720492"/>
<path d="M95.2619 189.281C95.2619 188.521 94.6451 187.904 93.8858 187.904C93.1265 187.904 92.5096 188.521 92.5096 189.281C92.5096 190.04 93.1265 190.657 93.8858 190.657C94.6451 190.657 95.2619 190.04 95.2619 189.281Z" fill="#4267B2" stroke="#4267B2" stroke-width="0.720492"/>
<path d="M62.8693 170.577C62.8693 169.817 62.2524 169.2 61.4931 169.2C60.7339 169.2 60.117 169.817 60.117 170.577C60.117 171.336 60.7339 171.953 61.4931 171.953C62.2524 171.953 62.8693 171.336 62.8693 170.577Z" fill="#4267B2" stroke="#4267B2" stroke-width="0.720492"/>
<path d="M62.8693 207.977C62.8693 207.218 62.2524 206.601 61.4931 206.601C60.7339 206.601 60.117 207.218 60.117 207.977C60.117 208.737 60.7339 209.353 61.4931 209.353C62.2524 209.353 62.8693 208.737 62.8693 207.977Z" fill="#4267B2" stroke="#4267B2" stroke-width="0.720492"/>
<path d="M519.812 230.075L542.594 216.919L519.812 203.77L497.037 216.919L519.812 230.075Z" stroke="#4267B2" stroke-width="0.720492" stroke-linecap="round" stroke-linejoin="round"/>
<path d="M542.594 216.918V243.224L519.812 256.38L497.037 243.224V216.918" stroke="#4267B2" stroke-width="0.720492" stroke-linecap="round" stroke-linejoin="round"/>
<path d="M519.812 230.075V256.38" stroke="#4267B2" stroke-width="0.720492" stroke-linecap="round" stroke-linejoin="round"/>
<path d="M521.549 203.77C521.549 202.811 520.771 202.033 519.813 202.033C518.854 202.033 518.076 202.811 518.076 203.77C518.076 204.728 518.854 205.506 519.813 205.506C520.771 205.506 521.549 204.728 521.549 203.77Z" fill="#4267B2"/>
<path d="M544.331 216.919C544.331 215.96 543.553 215.182 542.595 215.182C541.636 215.182 540.858 215.96 540.858 216.919C540.858 217.877 541.636 218.655 542.595 218.655C543.553 218.655 544.331 217.877 544.331 216.919Z" fill="#4267B2"/>
<path d="M544.331 243.224C544.331 242.266 543.553 241.487 542.595 241.487C541.636 241.487 540.858 242.266 540.858 243.224C540.858 244.182 541.636 244.96 542.595 244.96C543.553 244.96 544.331 244.182 544.331 243.224Z" fill="#4267B2"/>
<path d="M521.549 256.38C521.549 255.422 520.771 254.644 519.813 254.644C518.854 254.644 518.076 255.422 518.076 256.38C518.076 257.338 518.854 258.116 519.813 258.116C520.771 258.116 521.549 257.338 521.549 256.38Z" fill="#4267B2"/>
<path d="M521.307 230.132C521.307 229.174 520.529 228.396 519.57 228.396C518.612 228.396 517.834 229.174 517.834 230.132C517.834 231.091 518.612 231.869 519.57 231.869C520.529 231.869 521.307 231.091 521.307 230.132Z" fill="#4267B2"/>
<path d="M498.767 216.919C498.767 215.96 497.989 215.182 497.03 215.182C496.072 215.182 495.294 215.96 495.294 216.919C495.294 217.877 496.072 218.655 497.03 218.655C497.989 218.655 498.767 217.877 498.767 216.919Z" fill="#4267B2"/>
<path d="M498.767 243.224C498.767 242.266 497.989 241.487 497.03 241.487C496.072 241.487 495.294 242.266 495.294 243.224C495.294 244.182 496.072 244.96 497.03 244.96C497.989 244.96 498.767 244.182 498.767 243.224Z" fill="#4267B2"/>
<path d="M231.824 23.8772L251.003 12.8032L231.824 1.73645L212.651 12.8104L231.824 23.8772Z" stroke="#4267B2" stroke-width="0.720492" stroke-linecap="round" stroke-linejoin="round"/>
<path d="M251.003 12.8032V34.944L231.824 46.0179L212.651 34.944V12.8032" stroke="#4267B2" stroke-width="0.720492" stroke-linecap="round" stroke-linejoin="round"/>
<path d="M231.823 23.8772V46.0179" stroke="#4267B2" stroke-width="0.720492" stroke-linecap="round" stroke-linejoin="round"/>
<path d="M233.56 1.73638C233.56 0.778129 232.782 0 231.823 0C230.865 0 230.087 0.778129 230.087 1.73638C230.087 2.69464 230.865 3.47277 231.823 3.47277C232.782 3.47277 233.56 2.69464 233.56 1.73638Z" fill="#4267B2"/>
<path d="M252.732 12.8032C252.732 11.8449 251.954 11.0668 250.996 11.0668C250.038 11.0668 249.26 11.8449 249.26 12.8032C249.26 13.7614 250.038 14.5395 250.996 14.5395C251.954 14.5395 252.732 13.7614 252.732 12.8032Z" fill="#4267B2"/>
<path d="M252.732 34.9439C252.732 33.9856 251.954 33.2075 250.996 33.2075C250.038 33.2075 249.26 33.9856 249.26 34.9439C249.26 35.9022 250.038 36.6803 250.996 36.6803C251.954 36.6803 252.732 35.9022 252.732 34.9439Z" fill="#4267B2"/>
<path d="M233.56 46.0179C233.56 45.0596 232.782 44.2815 231.823 44.2815C230.865 44.2815 230.087 45.0596 230.087 46.0179C230.087 46.9761 230.865 47.7543 231.823 47.7543C232.782 47.7543 233.56 46.9761 233.56 46.0179Z" fill="#4267B2"/>
<path d="M233.56 23.8771C233.56 22.9189 232.782 22.1407 231.823 22.1407C230.865 22.1407 230.087 22.9189 230.087 23.8771C230.087 24.8354 230.865 25.6135 231.823 25.6135C232.782 25.6135 233.56 24.8354 233.56 23.8771Z" fill="#4267B2"/>
<path d="M214.388 12.8104C214.388 11.8521 213.61 11.074 212.651 11.074C211.693 11.074 210.915 11.8521 210.915 12.8104C210.915 13.7686 211.693 14.5467 212.651 14.5467C213.61 14.5467 214.388 13.7686 214.388 12.8104Z" fill="#4267B2"/>
<path d="M214.388 34.9439C214.388 33.9856 213.61 33.2075 212.651 33.2075C211.693 33.2075 210.915 33.9856 210.915 34.9439C210.915 35.9022 211.693 36.6803 212.651 36.6803C213.61 36.6803 214.388 35.9022 214.388 34.9439Z" fill="#4267B2"/>
<defs>
<linearGradient id="paint0_linear_0_1990" x1="438.106" y1="289.791" x2="495.32" y2="289.791" gradientUnits="userSpaceOnUse">
<stop offset="0.45" stop-color="#C4C9E4"/>
<stop offset="1" stop-color="white"/>
</linearGradient>
<linearGradient id="paint1_linear_0_1990" x1="425" y1="294.265" x2="481.04" y2="294.265" gradientUnits="userSpaceOnUse">
<stop stop-color="#FC780B"/>
<stop offset="1" stop-color="#EF4E16"/>
</linearGradient>
<linearGradient id="paint2_linear_0_1990" x1="430.266" y1="276.008" x2="475.773" y2="276.008" gradientUnits="userSpaceOnUse">
<stop stop-color="#FC780B"/>
<stop offset="1" stop-color="#EF4E16"/>
</linearGradient>
<linearGradient id="paint3_linear_0_1990" x1="460.434" y1="281.678" x2="467.286" y2="281.678" gradientUnits="userSpaceOnUse">
<stop stop-color="#FC780B"/>
<stop offset="1" stop-color="#EF4E16"/>
</linearGradient>
<linearGradient id="paint4_linear_0_1990" x1="444.973" y1="287.838" x2="460.68" y2="287.838" gradientUnits="userSpaceOnUse">
<stop stop-color="#FC780B"/>
<stop offset="1" stop-color="#EF4E16"/>
</linearGradient>
<linearGradient id="paint5_linear_0_1990" x1="438.735" y1="260.998" x2="106.091" y2="260.998" gradientUnits="userSpaceOnUse">
<stop stop-color="#C4C9E4"/>
<stop offset="0.24" stop-color="#C9CEE6"/>
<stop offset="0.54" stop-color="#D9DCED"/>
<stop offset="0.88" stop-color="#F3F4F9"/>
<stop offset="1" stop-color="white"/>
</linearGradient>
<linearGradient id="paint6_linear_0_1990" x1="295.104" y1="373.691" x2="240.375" y2="373.691" gradientUnits="userSpaceOnUse">
<stop stop-color="#CFD5F1"/>
<stop offset="0.28" stop-color="#E0E4F6"/>
<stop offset="0.72" stop-color="#F6F7FC"/>
<stop offset="1" stop-color="white"/>
</linearGradient>
<linearGradient id="paint7_linear_0_1990" x1="250.123" y1="359.814" x2="274.98" y2="359.814" gradientUnits="userSpaceOnUse">
<stop stop-color="#BBC0E6"/>
<stop offset="1" stop-color="#CED3F8"/>
</linearGradient>
<linearGradient id="paint8_linear_0_1990" x1="245.858" y1="365.016" x2="279.245" y2="365.016" gradientUnits="userSpaceOnUse">
<stop stop-color="#CED3F8"/>
<stop offset="0.77" stop-color="#BBC0E6"/>
</linearGradient>
<linearGradient id="paint9_linear_0_1990" x1="106.386" y1="270.365" x2="85.9452" y2="270.365" gradientUnits="userSpaceOnUse">
<stop stop-color="#C4CAE8"/>
<stop offset="0.78" stop-color="#F1F2F9"/>
<stop offset="1" stop-color="white"/>
</linearGradient>
<linearGradient id="paint10_linear_0_1990" x1="105.189" y1="266.979" x2="92.984" y2="266.979" gradientUnits="userSpaceOnUse">
<stop offset="0.6" stop-color="#BBC0E6"/>
<stop offset="0.62" stop-color="#BDC2E8"/>
<stop offset="0.82" stop-color="#CED3F8"/>
</linearGradient>
<linearGradient id="paint11_linear_0_1990" x1="109.303" y1="271.006" x2="88.8626" y2="271.006" gradientUnits="userSpaceOnUse">
<stop offset="0.18" stop-color="#CED3F8"/>
<stop offset="0.51" stop-color="#BDC2E8"/>
<stop offset="0.56" stop-color="#BBC0E6"/>
</linearGradient>
<linearGradient id="paint12_linear_0_1990" x1="544.92" y1="303.558" x2="524.112" y2="303.558" gradientUnits="userSpaceOnUse">
<stop stop-color="#C4CAE8"/>
<stop offset="0.78" stop-color="#F1F2F9"/>
<stop offset="1" stop-color="white"/>
</linearGradient>
<linearGradient id="paint13_linear_0_1990" x1="48.0044" y1="288.615" x2="17.5708" y2="288.615" gradientUnits="userSpaceOnUse">
<stop stop-color="#D1D6F0"/>
<stop offset="0.16" stop-color="#DCE0F3"/>
<stop offset="0.57" stop-color="#F5F6FB"/>
<stop offset="0.82" stop-color="white"/>
</linearGradient>
<linearGradient id="paint14_linear_0_1990" x1="505.041" y1="129.105" x2="474.608" y2="129.105" gradientUnits="userSpaceOnUse">
<stop stop-color="#D1D6F0"/>
<stop offset="0.16" stop-color="#DCE0F3"/>
<stop offset="0.57" stop-color="#F5F6FB"/>
<stop offset="0.82" stop-color="white"/>
</linearGradient>
<linearGradient id="paint15_linear_0_1990" x1="473.042" y1="224.801" x2="392.755" y2="224.801" gradientUnits="userSpaceOnUse">
<stop stop-color="#C4CAE8"/>
<stop offset="1" stop-color="white"/>
</linearGradient>
<linearGradient id="paint16_linear_0_1990" x1="444.539" y1="196.673" x2="364.252" y2="196.673" gradientUnits="userSpaceOnUse">
<stop stop-color="#C4CAE8"/>
<stop offset="1" stop-color="white"/>
</linearGradient>
<linearGradient id="paint17_linear_0_1990" x1="155.422" y1="233.029" x2="76.8018" y2="233.029" gradientUnits="userSpaceOnUse">
<stop stop-color="#C4CAE8"/>
<stop offset="1" stop-color="white"/>
</linearGradient>
<linearGradient id="paint18_linear_0_1990" x1="432.336" y1="345.526" x2="325.826" y2="345.526" gradientUnits="userSpaceOnUse">
<stop stop-color="#C4CAE8"/>
<stop offset="1" stop-color="white"/>
</linearGradient>
<linearGradient id="paint19_linear_0_1990" x1="181.756" y1="237.02" x2="146.322" y2="175.642" gradientUnits="userSpaceOnUse">
<stop offset="0.41" stop-color="#CED3F8"/>
<stop offset="0.62" stop-color="white"/>
</linearGradient>
<linearGradient id="paint20_linear_0_1990" x1="150.256" y1="184.835" x2="119.354" y2="184.835" gradientUnits="userSpaceOnUse">
<stop stop-color="#C4CAE8"/>
<stop offset="1" stop-color="#F1F1F6"/>
</linearGradient>
<linearGradient id="paint21_linear_0_1990" x1="507.867" y1="214.147" x2="436.993" y2="214.147" gradientUnits="userSpaceOnUse">
<stop offset="0.4" stop-color="#C7D5F0"/>
<stop offset="0.55" stop-color="#B9CEF5"/>
<stop offset="0.692708" stop-color="#C7D5F0"/>
</linearGradient>
<linearGradient id="paint22_linear_0_1990" x1="118.756" y1="179.424" x2="154.19" y2="118.045" gradientUnits="userSpaceOnUse">
<stop offset="0.41" stop-color="#BBC0E6"/>
<stop offset="0.62" stop-color="#F6F6FB"/>
</linearGradient>
<linearGradient id="paint23_linear_0_1990" x1="419.569" y1="328.516" x2="409.878" y2="345.303" gradientUnits="userSpaceOnUse">
<stop offset="0.38" stop-color="#F6F6FB"/>
<stop offset="0.59" stop-color="#BBC0E6"/>
</linearGradient>
<linearGradient id="paint24_linear_0_1990" x1="419.569" y1="312.413" x2="409.878" y2="329.193" gradientUnits="userSpaceOnUse">
<stop offset="0.38" stop-color="#F6F6FB"/>
<stop offset="0.59" stop-color="#BBC0E6"/>
</linearGradient>
<linearGradient id="paint25_linear_0_1990" x1="405.62" y1="336.571" x2="395.936" y2="353.351" gradientUnits="userSpaceOnUse">
<stop offset="0.38" stop-color="#F6F6FB"/>
<stop offset="0.59" stop-color="#BBC0E6"/>
</linearGradient>
<linearGradient id="paint26_linear_0_1990" x1="391.671" y1="344.626" x2="381.988" y2="361.406" gradientUnits="userSpaceOnUse">
<stop offset="0.38" stop-color="#F6F6FB"/>
<stop offset="0.59" stop-color="#BBC0E6"/>
</linearGradient>
<linearGradient id="paint27_linear_0_1990" x1="405.62" y1="320.468" x2="395.936" y2="337.248" gradientUnits="userSpaceOnUse">
<stop offset="0.38" stop-color="#F6F6FB"/>
<stop offset="0.59" stop-color="#BBC0E6"/>
</linearGradient>
<linearGradient id="paint28_linear_0_1990" x1="405.62" y1="320.468" x2="395.936" y2="337.248" gradientUnits="userSpaceOnUse">
<stop offset="0.38" stop-color="#F6F6FB"/>
<stop offset="0.59" stop-color="#BBC0E6"/>
</linearGradient>
<linearGradient id="paint29_linear_0_1990" x1="391.671" y1="328.516" x2="381.988" y2="345.303" gradientUnits="userSpaceOnUse">
<stop offset="0.38" stop-color="#F6F6FB"/>
<stop offset="0.59" stop-color="#BBC0E6"/>
</linearGradient>
<linearGradient id="paint30_linear_0_1990" x1="419.569" y1="296.31" x2="409.878" y2="313.09" gradientUnits="userSpaceOnUse">
<stop offset="0.38" stop-color="#F6F6FB"/>
<stop offset="0.59" stop-color="#BBC0E6"/>
</linearGradient>
<linearGradient id="paint31_linear_0_1990" x1="405.62" y1="304.358" x2="395.936" y2="321.145" gradientUnits="userSpaceOnUse">
<stop offset="0.38" stop-color="#F6F6FB"/>
<stop offset="0.59" stop-color="#BBC0E6"/>
</linearGradient>
<linearGradient id="paint32_linear_0_1990" x1="391.671" y1="312.413" x2="381.988" y2="329.193" gradientUnits="userSpaceOnUse">
<stop offset="0.38" stop-color="#F6F6FB"/>
<stop offset="0.59" stop-color="#BBC0E6"/>
</linearGradient>
<linearGradient id="paint33_linear_0_1990" x1="429.196" y1="230.471" x2="392.213" y2="230.471" gradientUnits="userSpaceOnUse">
<stop stop-color="#CFD5F1"/>
<stop offset="0.28" stop-color="#E0E4F6"/>
<stop offset="0.72" stop-color="#F6F7FC"/>
<stop offset="1" stop-color="white"/>
</linearGradient>
<linearGradient id="paint34_linear_0_1990" x1="443.555" y1="213.64" x2="414.836" y2="213.64" gradientUnits="userSpaceOnUse">
<stop stop-color="#DAE0F5"/>
<stop offset="1" stop-color="white"/>
</linearGradient>
<linearGradient id="paint35_linear_0_1990" x1="344.609" y1="34.072" x2="329.017" y2="34.072" gradientUnits="userSpaceOnUse">
<stop stop-color="#C4CAE8"/>
<stop offset="1" stop-color="white"/>
</linearGradient>
<linearGradient id="paint36_linear_0_1990" x1="267.871" y1="308.667" x2="254.893" y2="316.16" gradientUnits="userSpaceOnUse">
<stop stop-color="#F1F1F6"/>
<stop offset="1" stop-color="white"/>
</linearGradient>
<linearGradient id="paint37_linear_0_1990" x1="131.614" y1="345.174" x2="51.3193" y2="345.174" gradientUnits="userSpaceOnUse">
<stop stop-color="#C4CAE8"/>
<stop offset="1" stop-color="white"/>
</linearGradient>
<linearGradient id="paint38_linear_0_1990" x1="203.695" y1="343.286" x2="125.075" y2="343.286" gradientUnits="userSpaceOnUse">
<stop stop-color="#C4CAE8"/>
<stop offset="1" stop-color="white"/>
</linearGradient>
<linearGradient id="paint39_linear_0_1990" x1="172.987" y1="347.277" x2="208.421" y2="285.899" gradientUnits="userSpaceOnUse">
<stop offset="0.41" stop-color="#C7D5F0"/>
<stop offset="0.62" stop-color="#F6F6FB"/>
</linearGradient>
<linearGradient id="paint40_linear_0_1990" x1="357.851" y1="368.489" x2="315.573" y2="368.489" gradientUnits="userSpaceOnUse">
<stop stop-color="#CFD5F1"/>
<stop offset="0.28" stop-color="#E0E4F6"/>
<stop offset="0.72" stop-color="#F6F7FC"/>
<stop offset="1" stop-color="white"/>
</linearGradient>
<linearGradient id="paint41_linear_0_1990" x1="166.867" y1="336.147" x2="95.9923" y2="336.147" gradientUnits="userSpaceOnUse">
<stop offset="0.4" stop-color="#C7D5F0"/>
<stop offset="0.55" stop-color="#B9CEF5"/>
<stop offset="0.692708" stop-color="#C7D5F0"/>
</linearGradient>
<linearGradient id="paint42_linear_0_1990" x1="310.933" y1="84.6363" x2="240.066" y2="84.6363" gradientUnits="userSpaceOnUse">
<stop offset="0.4" stop-color="#C7D5F0"/>
<stop offset="0.55" stop-color="#BDC2E8"/>
<stop offset="0.57" stop-color="#BBC0E6"/>
</linearGradient>
<linearGradient id="paint43_linear_0_1990" x1="310.933" y1="67.3156" x2="240.066" y2="67.3156" gradientUnits="userSpaceOnUse">
<stop offset="0.4" stop-color="#CED3F8"/>
<stop offset="0.55" stop-color="#BDC2E8"/>
<stop offset="0.57" stop-color="#BBC0E6"/>
</linearGradient>
<linearGradient id="paint44_linear_0_1990" x1="310.933" y1="50.2183" x2="240.066" y2="50.2183" gradientUnits="userSpaceOnUse">
<stop offset="0.4" stop-color="#CED3F8"/>
<stop offset="0.55" stop-color="#BDC2E8"/>
<stop offset="0.57" stop-color="#BBC0E6"/>
</linearGradient>
<linearGradient id="paint45_linear_0_1990" x1="198.342" y1="345.642" x2="179.868" y2="345.642" gradientUnits="userSpaceOnUse">
<stop stop-color="#DAE0F5"/>
<stop offset="1" stop-color="white"/>
</linearGradient>
</defs>
</svg>
