<svg width="588" height="439" viewBox="0 0 588 439" fill="none" xmlns="http://www.w3.org/2000/svg">
<g filter="url(#filter0_d_0_1986)">
<g clip-path="url(#clip0_0_1986)">
<rect x="28.8047" y="52" width="530.336" height="340.147" rx="10.9725" fill="white"/>
<path d="M510.177 104.309H505.59V332.886H510.177V104.309Z" fill="#F4F4F4"/>
<path d="M441.166 104.309H436.579V332.886H441.166V104.309Z" fill="#F4F4F4"/>
<path d="M372.208 104.309H367.621V332.886H372.208V104.309Z" fill="#F4F4F4"/>
<path d="M303.192 104.309H298.605V332.886H303.192V104.309Z" fill="#F4F4F4"/>
<path d="M234.234 104.309H229.647V332.886H234.234V104.309Z" fill="#F4F4F4"/>
<path d="M165.225 104.309H160.638V332.886H165.225V104.309Z" fill="#F4F4F4"/>
<path d="M559.141 359.222H106.008V363.809H559.141V359.222Z" fill="#F4F4F4"/>
</g>
</g>
<g filter="url(#filter1_d_0_1986)">
<path d="M63.9664 94.127H426.982C432.513 94.127 437 98.6144 437 104.145V187.529C437 193.06 432.513 197.547 426.982 197.547H63.9664C58.4353 197.547 54 193.06 54 187.581V104.198C54 98.6666 58.4874 94.1791 64.0184 94.1791L63.9664 94.127Z" fill="white"/>
<path d="M140.878 112.338H73.8788V179.336H140.878V112.338Z" fill="#4267B2" fill-opacity="0.12"/>
<path d="M416.962 112.338H173.908V124.443H416.962V112.338Z" fill="#4267B2" fill-opacity="0.12"/>
<path d="M416.962 139.732H173.908V151.838H416.962V139.732Z" fill="#4267B2" fill-opacity="0.12"/>
<path d="M316.203 167.179H173.908V179.284H316.203V167.179Z" fill="#4267B2" fill-opacity="0.12"/>
</g>
<g filter="url(#filter2_d_0_1986)">
<path d="M274.024 340H61.976C57.5709 340 54 343.571 54 347.976V414.566C54 418.971 57.5709 422.542 61.976 422.542H274.024C278.429 422.542 282 418.971 282 414.566V347.976C282 343.571 278.429 340 274.024 340Z" fill="white"/>
</g>
<path d="M266.099 354.535H71.9971V364.191H266.099V354.535Z" fill="#F4F4F4"/>
<path d="M266.099 376.417H71.9971V386.072H266.099V376.417Z" fill="#F4F4F4"/>
<path d="M185.603 398.351H71.9971V408.007H185.603V398.351Z" fill="#F4F4F4"/>
<path d="M289.926 235H500.073C504.456 235 508 238.544 508 242.927V308.903C508 313.286 504.456 316.83 500.073 316.83H289.926C285.544 316.83 282 313.286 282 308.903V242.927C282 238.544 285.544 235 289.926 235Z" fill="#4267B2"/>
<path d="M492.147 249.408H299.812V259.013H492.147V249.408Z" fill="white"/>
<path d="M492.147 271.136H299.812V280.741H492.147V271.136Z" fill="white"/>
<path d="M412.415 292.817H299.812V302.422H412.415V292.817Z" fill="white"/>
<g filter="url(#filter3_d_0_1986)">
<rect x="439" y="12" width="100" height="100" rx="4" fill="white"/>
<path d="M511.903 24.6223L488.954 24H465.556C462.489 24 460 26.5855 460 29.7678V45.6403C460 56.6625 462.496 67.5821 467.635 77.225C471.959 85.3409 478.651 93.6942 488.954 99C498.43 95.4393 505.5 85.9568 509.818 77.8409C514.957 68.198 517.453 57.2784 517.453 46.2562V30.3837C517.453 27.195 514.964 24.6159 511.897 24.6159L511.903 24.6223Z" fill="#4267B2"/>
<path d="M488.165 61.763L479.671 54.7378L482.532 51.2733L487.652 55.5141L496.031 45.9033L499.412 48.8482L488.165 61.763Z" fill="white"/>
<g opacity="0.3">
<path d="M511.903 24.6223L488.954 24H465.556C462.489 24 460 26.5855 460 29.7678V45.6403C460 56.6625 462.496 67.5821 467.635 77.225C471.959 85.3409 478.651 93.6942 488.954 99C498.43 95.4393 505.5 85.9568 509.818 77.8409C514.957 68.198 517.453 57.2784 517.453 46.2562V30.3837C517.453 27.195 514.964 24.6159 511.897 24.6159L511.903 24.6223ZM511.146 47.4367C511.146 56.1557 509.17 64.7977 505.109 72.426C501.689 78.8482 496.66 85.4564 488.505 89.6523C480.351 85.45 475.513 78.8418 472.094 72.426C468.026 64.7977 466.056 56.1557 466.056 47.4367V34.8811C466.056 32.3597 468.026 30.3131 470.451 30.3131H506.764C509.189 30.3131 511.159 32.3597 511.159 34.8811V47.4367H511.146Z" fill="black"/>
</g>
</g>
<g filter="url(#filter4_d_0_1986)">
<rect x="483" y="340" width="86" height="86" rx="3.44" fill="white"/>
<path d="M521.813 347.733C518.98 348.341 516.419 350.574 515.538 353.215C515.226 354.16 515.09 355.184 515.034 357.025C515.01 357.962 514.986 358.73 514.978 358.738C514.97 358.738 510.232 358.77 504.445 358.802L493.921 358.858L493.104 359.282C491.784 359.963 490.887 360.891 490.167 362.308L489.879 362.892V382.621V402.349L490.167 402.934C490.911 404.406 491.84 405.327 493.32 406.071L493.921 406.375L510.072 406.415C524.767 406.447 526.215 406.439 526.215 406.327C526.215 406.255 526.255 405.735 526.303 405.175C526.671 400.725 527.8 397.427 530.201 393.834C530.689 393.097 531.097 392.473 531.097 392.457C531.097 392.441 530.649 392.425 530.097 392.425H529.096V389.624V386.823H533.442H537.796L538.949 386.27C542.15 384.742 545.032 384.101 548.705 384.093C551.426 384.093 553.675 384.445 556.061 385.254C556.525 385.414 556.917 385.526 556.941 385.502C557.069 385.366 557.109 381.34 557.061 372.656L557.013 362.852L556.733 362.292C556.045 360.923 555.1 359.946 553.804 359.282L552.987 358.858L542.462 358.802C536.676 358.77 531.938 358.738 531.93 358.738C531.93 358.73 531.898 358.002 531.874 357.105C531.818 355.256 531.73 354.504 531.45 353.544C530.601 350.606 528.024 348.317 524.911 347.725C524.126 347.573 522.518 347.581 521.813 347.733ZM524.654 353.464C525.423 353.872 525.887 354.448 526.103 355.288C526.607 357.265 524.911 359.026 522.854 358.658C522.005 358.506 521.357 357.978 520.917 357.065C520.365 355.929 520.725 354.544 521.773 353.752C522.365 353.304 522.694 353.207 523.534 353.231C524.126 353.255 524.326 353.296 524.654 353.464ZM510.776 370.215C511.473 370.391 512.481 370.895 513.049 371.36C513.85 372 514.666 373.336 514.85 374.313C514.914 374.617 514.938 375.241 514.914 375.954C514.882 376.986 514.858 377.146 514.658 377.578C513.946 379.139 512.961 380.148 511.497 380.796C510.912 381.06 509.696 381.172 508.591 381.068C507.911 381.004 507.687 380.94 507.135 380.676C505.806 380.035 505.078 379.315 504.397 377.979C503.965 377.13 503.861 376.538 503.933 375.337C504.021 373.777 504.381 372.864 505.262 371.904C506.686 370.343 508.775 369.703 510.776 370.215ZM548.705 378.419V381.22H538.901H529.096V378.419V375.618H538.901H548.705V378.419ZM504.702 383.701C506.342 384.614 507.159 384.854 508.871 384.95C511.008 385.07 512.489 384.694 514.434 383.525L515.098 383.125L516.123 383.453C517.307 383.829 519.276 384.79 520.076 385.382L520.613 385.782V389.104V392.425H509.408H498.203V389.104V385.782L498.747 385.382C499.443 384.862 501.612 383.781 502.685 383.421C503.149 383.269 503.565 383.141 503.605 383.141C503.653 383.141 504.141 383.397 504.702 383.701Z" fill="#4267B2"/>
<path d="M544.849 387.347C542.098 387.556 539.071 388.793 536.738 390.651C533.914 392.903 531.988 396.22 531.311 399.998C531.12 401.069 531.108 403.542 531.28 404.601C531.563 406.262 532.019 407.659 532.776 409.185C533.551 410.736 534.295 411.776 535.483 412.963C537.723 415.209 540.566 416.674 543.796 417.258C544.492 417.382 544.781 417.4 546.215 417.4C547.648 417.4 547.938 417.382 548.633 417.258C551.888 416.674 554.602 415.271 556.86 413.006C559.359 410.502 560.909 407.21 561.223 403.709C561.801 397.37 558.091 391.063 552.337 388.602C549.938 387.58 547.39 387.15 544.849 387.347ZM554.565 396.244C555.365 397.014 556.029 397.684 556.048 397.727C556.066 397.783 553.814 400.078 549.993 403.899L543.907 409.985L540.11 406.188L536.308 402.386L537.828 400.866L539.354 399.34L541.643 401.629L543.938 403.924L548.479 399.383C550.977 396.891 553.039 394.848 553.07 394.848C553.1 394.848 553.771 395.475 554.565 396.244Z" fill="#4267B2"/>
</g>
<defs>
<filter id="filter0_d_0_1986" x="0.478271" y="23.6736" width="586.989" height="396.8" filterUnits="userSpaceOnUse" color-interpolation-filters="sRGB">
<feFlood flood-opacity="0" result="BackgroundImageFix"/>
<feColorMatrix in="SourceAlpha" type="matrix" values="0 0 0 0 0 0 0 0 0 0 0 0 0 0 0 0 0 0 127 0" result="hardAlpha"/>
<feOffset/>
<feGaussianBlur stdDeviation="14.1632"/>
<feComposite in2="hardAlpha" operator="out"/>
<feColorMatrix type="matrix" values="0 0 0 0 0 0 0 0 0 0 0 0 0 0 0 0 0 0 0.16 0"/>
<feBlend mode="normal" in2="BackgroundImageFix" result="effect1_dropShadow_0_1986"/>
<feBlend mode="normal" in="SourceGraphic" in2="effect1_dropShadow_0_1986" result="shape"/>
</filter>
<filter id="filter1_d_0_1986" x="40.4024" y="80.5293" width="410.195" height="130.616" filterUnits="userSpaceOnUse" color-interpolation-filters="sRGB">
<feFlood flood-opacity="0" result="BackgroundImageFix"/>
<feColorMatrix in="SourceAlpha" type="matrix" values="0 0 0 0 0 0 0 0 0 0 0 0 0 0 0 0 0 0 127 0" result="hardAlpha"/>
<feOffset/>
<feGaussianBlur stdDeviation="6.79882"/>
<feComposite in2="hardAlpha" operator="out"/>
<feColorMatrix type="matrix" values="0 0 0 0 0 0 0 0 0 0 0 0 0 0 0 0 0 0 0.1 0"/>
<feBlend mode="normal" in2="BackgroundImageFix" result="effect1_dropShadow_0_1986"/>
<feBlend mode="normal" in="SourceGraphic" in2="effect1_dropShadow_0_1986" result="shape"/>
</filter>
<filter id="filter2_d_0_1986" x="38.0419" y="324.042" width="259.916" height="114.458" filterUnits="userSpaceOnUse" color-interpolation-filters="sRGB">
<feFlood flood-opacity="0" result="BackgroundImageFix"/>
<feColorMatrix in="SourceAlpha" type="matrix" values="0 0 0 0 0 0 0 0 0 0 0 0 0 0 0 0 0 0 127 0" result="hardAlpha"/>
<feOffset/>
<feGaussianBlur stdDeviation="7.97903"/>
<feComposite in2="hardAlpha" operator="out"/>
<feColorMatrix type="matrix" values="0 0 0 0 0 0 0 0 0 0 0 0 0 0 0 0 0 0 0.1 0"/>
<feBlend mode="normal" in2="BackgroundImageFix" result="effect1_dropShadow_0_1986"/>
<feBlend mode="normal" in="SourceGraphic" in2="effect1_dropShadow_0_1986" result="shape"/>
</filter>
<filter id="filter3_d_0_1986" x="427" y="0" width="124" height="124" filterUnits="userSpaceOnUse" color-interpolation-filters="sRGB">
<feFlood flood-opacity="0" result="BackgroundImageFix"/>
<feColorMatrix in="SourceAlpha" type="matrix" values="0 0 0 0 0 0 0 0 0 0 0 0 0 0 0 0 0 0 127 0" result="hardAlpha"/>
<feOffset/>
<feGaussianBlur stdDeviation="6"/>
<feComposite in2="hardAlpha" operator="out"/>
<feColorMatrix type="matrix" values="0 0 0 0 0 0 0 0 0 0 0 0 0 0 0 0 0 0 0.1 0"/>
<feBlend mode="normal" in2="BackgroundImageFix" result="effect1_dropShadow_0_1986"/>
<feBlend mode="normal" in="SourceGraphic" in2="effect1_dropShadow_0_1986" result="shape"/>
</filter>
<filter id="filter4_d_0_1986" x="472.68" y="329.68" width="106.64" height="106.64" filterUnits="userSpaceOnUse" color-interpolation-filters="sRGB">
<feFlood flood-opacity="0" result="BackgroundImageFix"/>
<feColorMatrix in="SourceAlpha" type="matrix" values="0 0 0 0 0 0 0 0 0 0 0 0 0 0 0 0 0 0 127 0" result="hardAlpha"/>
<feOffset/>
<feGaussianBlur stdDeviation="5.16"/>
<feComposite in2="hardAlpha" operator="out"/>
<feColorMatrix type="matrix" values="0 0 0 0 0 0 0 0 0 0 0 0 0 0 0 0 0 0 0.1 0"/>
<feBlend mode="normal" in2="BackgroundImageFix" result="effect1_dropShadow_0_1986"/>
<feBlend mode="normal" in="SourceGraphic" in2="effect1_dropShadow_0_1986" result="shape"/>
</filter>
<clipPath id="clip0_0_1986">
<rect x="28.8047" y="52" width="530.336" height="340.147" rx="10.9725" fill="white"/>
</clipPath>
</defs>
</svg>
