<svg width="42" height="42" viewBox="0 0 42 42" fill="none" xmlns="http://www.w3.org/2000/svg">
<rect width="42" height="42" rx="21" fill="white" fill-opacity="0.1"/>
<path d="M16.9863 22.6322C15.7869 22.6322 14.8089 21.5423 14.8089 20.208C14.8089 18.8747 15.7627 17.786 16.9875 17.786C18.1984 17.786 19.1903 18.8747 19.1661 20.208C19.1661 21.5423 18.1984 22.6322 16.9863 22.6322ZM25.0294 22.6322C23.83 22.6322 22.8497 21.5423 22.8497 20.208C22.8497 18.8747 23.8058 17.786 25.0294 17.786C26.2404 17.786 27.2322 18.8747 27.2092 20.208C27.2092 21.5423 26.2531 22.6322 25.0294 22.6322ZM18.8374 11.6493L18.4821 11L17.751 11.1211C16.0939 11.3974 14.4811 11.8939 12.9555 12.5973L12.6926 12.7196L12.5288 12.9606C9.51523 17.4054 8.68832 21.7811 9.09774 26.0806L9.14272 26.5488L9.52331 26.8256C11.2962 28.1264 13.2762 29.118 15.3798 29.7584L16.2909 30.0375L17.5745 26.904C19.7773 27.4484 22.2223 27.4495 24.424 26.904L25.7007 30.0387L26.6118 29.7584C28.7169 29.1197 30.6981 28.1275 32.4705 26.8244L32.8477 26.55L32.8938 26.0863C33.3966 21.1041 32.0899 16.763 29.4823 12.956L29.3186 12.7173L29.0556 12.5973C27.5304 11.8971 25.9196 11.4007 24.2648 11.1211L23.5521 11.0023L23.1899 11.6262C23.0827 11.8128 22.9815 12.0028 22.8866 12.196C21.6355 12.0667 20.3745 12.0667 19.1234 12.196C19.0315 12.012 18.9361 11.8297 18.8374 11.6493ZM14.9046 25.8199C15.1318 25.9514 15.3717 26.0806 15.6081 26.1982L15.0903 27.4622C13.6897 26.9516 12.3609 26.2624 11.1368 25.4116C10.8773 21.7914 11.6131 18.1401 14.0938 14.3746C15.1408 13.9135 16.2321 13.5607 17.3508 13.3216C17.42 13.4658 17.4845 13.6065 17.5376 13.7322L17.8524 14.4737L18.6505 14.3573C20.2145 14.1281 21.8035 14.1281 23.3675 14.3573L24.1633 14.4726L24.477 13.7322C24.5312 13.603 24.5946 13.4623 24.6615 13.3216C25.7883 13.5638 26.8793 13.9202 27.9231 14.3769C30.0855 17.6292 31.1765 21.2575 30.8594 25.4105C29.6353 26.2627 28.3055 26.9521 26.9036 27.4611L26.3903 26.1994C26.6279 26.0806 26.8678 25.9514 27.0973 25.8199C27.6624 25.4947 28.2702 25.0887 28.6577 24.7012L27.1815 23.225C26.9935 23.4141 26.5783 23.7094 26.0547 24.0115C25.5427 24.3068 25.034 24.5455 24.7088 24.6528C22.3988 25.4174 19.602 25.4174 17.2908 24.6528C16.9667 24.5455 16.4581 24.3068 15.946 24.0115C15.4224 23.7105 15.0073 23.4141 14.8181 23.225L13.3419 24.7012C13.7305 25.0887 14.3395 25.4947 14.9046 25.8199Z" fill="white"/>
</svg>
