<svg xmlns="http://www.w3.org/2000/svg" xmlns:xlink="http://www.w3.org/1999/xlink" width="200" zoomAndPan="magnify" viewBox="0 0 150 38.249999" height="51" preserveAspectRatio="xMidYMid meet" version="1.0"><defs><g/><clipPath id="41fbebacd1"><path d="M 6.785156 5.816406 L 35.472656 5.816406 L 35.472656 33.765625 L 6.785156 33.765625 Z M 6.785156 5.816406 " clip-rule="nonzero"/></clipPath></defs><g clip-path="url(#41fbebacd1)"><path fill="#ffffff" d="M 20.886719 33.765625 L 21.304688 33.765625 C 21.335938 33.769531 21.371094 33.769531 21.402344 33.765625 C 22.328125 33.765625 23.246094 33.675781 24.152344 33.496094 C 25.0625 33.316406 25.945312 33.050781 26.800781 32.699219 C 27.65625 32.34375 28.46875 31.914062 29.238281 31.402344 C 30.007812 30.894531 30.71875 30.3125 31.371094 29.664062 C 32.027344 29.011719 32.609375 28.308594 33.125 27.542969 C 33.636719 26.78125 34.070312 25.972656 34.425781 25.125 C 34.777344 24.277344 35.046875 23.402344 35.226562 22.503906 C 35.40625 21.601562 35.496094 20.695312 35.492188 19.777344 C 35.492188 18.859375 35.402344 17.949219 35.21875 17.050781 C 35.039062 16.148438 34.769531 15.277344 34.414062 14.429688 C 34.058594 13.582031 33.625 12.777344 33.109375 12.015625 C 32.59375 11.25 32.007812 10.546875 31.351562 9.898438 C 30.695312 9.25 29.984375 8.671875 29.210938 8.160156 C 28.441406 7.652344 27.628906 7.222656 26.773438 6.875 C 25.917969 6.523438 25.035156 6.257812 24.125 6.082031 C 23.21875 5.902344 22.300781 5.8125 21.375 5.816406 L 20.886719 5.816406 C 19.960938 5.816406 19.042969 5.90625 18.136719 6.085938 C 17.226562 6.261719 16.347656 6.527344 15.492188 6.878906 C 14.636719 7.230469 13.824219 7.660156 13.050781 8.171875 C 12.28125 8.683594 11.570312 9.261719 10.914062 9.910156 C 10.261719 10.558594 9.675781 11.265625 9.164062 12.027344 C 8.648438 12.789062 8.214844 13.597656 7.859375 14.445312 C 7.503906 15.292969 7.238281 16.164062 7.058594 17.066406 C 6.875 17.964844 6.785156 18.875 6.785156 19.789062 C 6.785156 20.707031 6.875 21.617188 7.058594 22.515625 C 7.238281 23.417969 7.503906 24.289062 7.859375 25.136719 C 8.214844 25.984375 8.648438 26.789062 9.164062 27.554688 C 9.675781 28.316406 10.261719 29.023438 10.914062 29.671875 C 11.570312 30.320312 12.28125 30.898438 13.050781 31.410156 C 13.824219 31.917969 14.636719 32.351562 15.492188 32.703125 C 16.347656 33.054688 17.226562 33.316406 18.136719 33.496094 C 19.042969 33.675781 19.960938 33.765625 20.886719 33.765625 Z M 12.617188 19.65625 C 12.628906 18.699219 12.738281 17.753906 12.945312 16.820312 C 14.285156 17.128906 15.640625 17.351562 17.011719 17.492188 C 16.957031 18.160156 16.921875 18.851562 16.914062 19.554688 C 16.914062 20.46875 16.945312 21.347656 17.019531 22.207031 C 15.652344 22.351562 14.304688 22.582031 12.96875 22.902344 C 12.726562 21.835938 12.613281 20.75 12.617188 19.65625 Z M 29.550781 19.65625 C 29.5625 20.796875 29.4375 21.917969 29.175781 23.027344 C 27.847656 22.695312 26.503906 22.445312 25.144531 22.28125 C 25.222656 21.410156 25.265625 20.507812 25.253906 19.574219 C 25.253906 18.851562 25.214844 18.128906 25.15625 17.457031 C 26.523438 17.300781 27.875 17.058594 29.210938 16.734375 C 29.429688 17.695312 29.546875 18.671875 29.558594 19.65625 Z M 17.875 19.5625 C 17.875 18.882812 17.914062 18.21875 17.964844 17.578125 C 18.878906 17.644531 19.828125 17.691406 20.820312 17.691406 L 21.085938 17.691406 C 22.1875 17.691406 23.238281 17.636719 24.242188 17.535156 C 24.296875 18.191406 24.332031 18.867188 24.335938 19.5625 C 24.335938 20.460938 24.300781 21.324219 24.230469 22.160156 C 23.226562 22.070312 22.175781 22.011719 21.082031 22.003906 C 19.988281 21.992188 18.964844 22.035156 17.976562 22.117188 C 17.894531 21.292969 17.855469 20.441406 17.867188 19.5625 Z M 21.089844 12.175781 L 21.195312 12.175781 C 21.914062 12.175781 22.585938 12.140625 23.21875 12.097656 C 23.652344 13.578125 23.960938 15.082031 24.136719 16.609375 C 23.164062 16.695312 22.136719 16.75 21.066406 16.753906 C 19.996094 16.757812 19.007812 16.726562 18.046875 16.652344 C 18.230469 15.101562 18.539062 13.578125 18.976562 12.078125 C 19.679688 12.140625 20.402344 12.175781 21.089844 12.175781 Z M 19.261719 11.167969 C 19.75 9.6875 20.363281 8.261719 21.097656 6.882812 C 21.828125 8.265625 22.441406 9.699219 22.933594 11.183594 C 22.386719 11.222656 21.804688 11.242188 21.1875 11.246094 L 21.089844 11.246094 C 20.484375 11.246094 19.871094 11.21875 19.261719 11.167969 Z M 21.0625 22.9375 C 22.132812 22.9375 23.152344 23 24.121094 23.09375 C 23.933594 24.617188 23.625 26.113281 23.1875 27.589844 C 22.558594 27.546875 21.898438 27.515625 21.195312 27.515625 C 20.488281 27.515625 19.734375 27.546875 19.007812 27.601562 C 18.5625 26.109375 18.246094 24.589844 18.0625 23.042969 C 19.019531 22.964844 20.019531 22.929688 21.0625 22.9375 Z M 21.1875 28.464844 C 21.792969 28.464844 22.355469 28.464844 22.894531 28.523438 C 22.410156 29.96875 21.8125 31.367188 21.097656 32.714844 C 20.382812 31.371094 19.78125 29.976562 19.296875 28.53125 C 19.914062 28.464844 20.5625 28.464844 21.1875 28.464844 Z M 19.78125 32.210938 C 18.328125 31.351562 17.0625 30.28125 15.984375 28.992188 C 16.757812 28.832031 17.546875 28.707031 18.332031 28.621094 C 18.738281 29.839844 19.21875 31.03125 19.78125 32.191406 Z M 18.757812 32.691406 C 16.460938 32.300781 14.417969 31.375 12.617188 29.910156 C 13.394531 29.632812 14.183594 29.390625 14.988281 29.191406 C 16.046875 30.558594 17.304688 31.714844 18.757812 32.664062 Z M 22.40625 32.210938 C 22.972656 31.039062 23.460938 29.835938 23.863281 28.601562 C 24.660156 28.675781 25.453125 28.792969 26.238281 28.949219 C 25.152344 30.25 23.875 31.332031 22.40625 32.191406 Z M 27.269531 29.179688 C 27.964844 29.355469 28.652344 29.570312 29.328125 29.824219 C 27.648438 31.214844 25.742188 32.132812 23.601562 32.578125 C 25.007812 31.636719 26.226562 30.496094 27.253906 29.160156 Z M 24.15625 27.691406 C 24.585938 26.21875 24.890625 24.726562 25.070312 23.207031 C 26.382812 23.367188 27.679688 23.609375 28.960938 23.929688 C 28.503906 25.441406 27.808594 26.84375 26.882812 28.128906 C 25.980469 27.921875 25.066406 27.769531 24.140625 27.671875 Z M 25.074219 16.511719 C 24.894531 14.992188 24.59375 13.492188 24.171875 12.015625 C 25.097656 11.921875 26.019531 11.773438 26.929688 11.570312 C 27.847656 12.871094 28.535156 14.289062 28.984375 15.816406 C 27.695312 16.128906 26.394531 16.359375 25.074219 16.511719 Z M 23.894531 11.117188 C 23.484375 9.84375 22.988281 8.605469 22.40625 7.398438 C 23.90625 8.292969 25.203125 9.417969 26.296875 10.773438 C 25.5 10.929688 24.699219 11.042969 23.894531 11.117188 Z M 23.582031 7.035156 C 25.769531 7.484375 27.714844 8.425781 29.417969 9.863281 C 28.738281 10.117188 28.042969 10.339844 27.335938 10.523438 C 26.285156 9.148438 25.03125 7.980469 23.582031 7.023438 Z M 19.78125 7.40625 C 19.210938 8.601562 18.722656 9.828125 18.324219 11.09375 C 17.519531 11.003906 16.722656 10.875 15.941406 10.710938 C 17.023438 9.378906 18.304688 8.273438 19.78125 7.394531 Z M 14.917969 10.480469 C 14.105469 10.277344 13.308594 10.03125 12.519531 9.746094 C 14.34375 8.246094 16.421875 7.304688 18.757812 6.917969 C 17.265625 7.882812 15.984375 9.066406 14.902344 10.46875 Z M 18.042969 11.996094 C 17.609375 13.5 17.304688 15.027344 17.128906 16.582031 C 15.796875 16.449219 14.480469 16.234375 13.175781 15.933594 C 13.632812 14.351562 14.335938 12.886719 15.292969 11.539062 C 16.195312 11.738281 17.109375 11.886719 18.027344 11.988281 Z M 17.128906 23.128906 C 17.308594 24.679688 17.617188 26.203125 18.054688 27.699219 C 17.144531 27.804688 16.242188 27.957031 15.347656 28.152344 C 14.390625 26.824219 13.675781 25.378906 13.210938 23.816406 C 14.5 23.5 15.804688 23.273438 17.128906 23.128906 Z M 14.378906 28.394531 C 13.503906 28.621094 12.644531 28.898438 11.800781 29.21875 C 10.609375 28.089844 9.660156 26.785156 8.960938 25.308594 C 10.03125 24.773438 11.144531 24.351562 12.300781 24.042969 C 12.761719 25.601562 13.453125 27.050781 14.378906 28.394531 Z M 30.089844 29.105469 C 29.355469 28.808594 28.605469 28.558594 27.84375 28.351562 C 28.726562 27.054688 29.398438 25.660156 29.851562 24.160156 C 30.871094 24.457031 31.859375 24.839844 32.808594 25.3125 C 32.132812 26.742188 31.226562 28.003906 30.089844 29.105469 Z M 33.179688 24.457031 C 32.1875 23.964844 31.15625 23.566406 30.089844 23.265625 C 30.636719 21.003906 30.648438 18.742188 30.128906 16.476562 C 31.207031 16.183594 32.25 15.800781 33.261719 15.332031 C 33.804688 16.808594 34.066406 18.332031 34.054688 19.902344 C 34.039062 21.472656 33.746094 22.988281 33.179688 24.457031 Z M 32.902344 14.488281 C 31.929688 14.945312 30.925781 15.316406 29.890625 15.601562 C 29.445312 14.082031 28.785156 12.664062 27.902344 11.347656 C 28.671875 11.132812 29.429688 10.875 30.171875 10.578125 C 31.324219 11.714844 32.234375 13.019531 32.902344 14.488281 Z M 11.71875 10.441406 C 12.5625 10.765625 13.425781 11.042969 14.300781 11.273438 C 13.382812 12.636719 12.699219 14.105469 12.253906 15.683594 C 11.078125 15.382812 9.945312 14.976562 8.847656 14.464844 C 9.546875 12.945312 10.503906 11.601562 11.71875 10.441406 Z M 8.511719 15.335938 C 9.648438 15.863281 10.824219 16.28125 12.039062 16.59375 C 11.816406 17.601562 11.699219 18.617188 11.6875 19.644531 C 11.679688 20.832031 11.804688 22.007812 12.070312 23.164062 C 10.867188 23.488281 9.707031 23.921875 8.589844 24.46875 C 8.023438 23.007812 7.734375 21.492188 7.722656 19.921875 C 7.707031 18.355469 7.972656 16.835938 8.511719 15.363281 Z M 8.511719 15.335938 " fill-opacity="1" fill-rule="nonzero"/></g><g fill="#ffffff" fill-opacity="1"><g transform="translate(37.27311, 23.611144)"><g><path d="M 2.09375 -4.03125 C 2.09375 -2.164062 2.921875 -1.234375 4.578125 -1.234375 C 6.191406 -1.234375 7 -2.164062 7 -4.03125 C 7 -5.863281 6.191406 -6.78125 4.578125 -6.78125 C 2.921875 -6.78125 2.09375 -5.863281 2.09375 -4.03125 Z M 0.5625 -4 C 0.5625 -6.707031 1.898438 -8.0625 4.578125 -8.0625 C 7.222656 -8.0625 8.546875 -6.707031 8.546875 -4 C 8.546875 -1.289062 7.222656 0.0625 4.578125 0.0625 C 2.015625 0.0625 0.675781 -1.289062 0.5625 -4 Z M 0.5625 -4 "/></g></g><g transform="translate(46.371573, 23.611144)"><g><path d="M 0.84375 -0.015625 L 0.84375 -8.015625 L 4.484375 -8.015625 C 6.117188 -8.015625 6.9375 -7.296875 6.9375 -5.859375 C 6.9375 -4.890625 6.296875 -4.085938 5.015625 -3.453125 L 7.5625 0 L 5.6875 0 L 3.25 -3.484375 L 3.25 -4.171875 C 4.664062 -4.410156 5.375 -4.957031 5.375 -5.8125 C 5.375 -6.40625 5.046875 -6.703125 4.390625 -6.703125 L 2.359375 -6.703125 L 2.359375 -0.015625 Z M 0.84375 -0.015625 "/></g></g><g transform="translate(53.79032, 23.611144)"><g><path d="M 3.96875 -1.28125 C 5.632812 -1.28125 6.46875 -2.257812 6.46875 -4.21875 C 6.46875 -5.882812 5.632812 -6.71875 3.96875 -6.71875 L 2.328125 -6.71875 L 2.328125 -1.28125 Z M 0.84375 0 L 0.84375 -8.015625 L 3.96875 -8.015625 C 6.625 -8.015625 7.953125 -6.75 7.953125 -4.21875 C 7.953125 -1.40625 6.625 0 3.96875 0 Z M 0.84375 0 "/></g></g><g transform="translate(62.160905, 23.611144)"><g><path d="M 2.328125 -8.015625 L 2.328125 0 L 0.84375 0 L 0.84375 -8.015625 Z M 2.328125 -8.015625 "/></g></g><g transform="translate(65.324371, 23.611144)"><g><path d="M 0.84375 0 L 0.84375 -8.015625 L 2.328125 -8.015625 L 6.546875 -2.171875 L 6.546875 -8.015625 L 7.984375 -8.015625 L 7.984375 0 L 6.5 0 L 2.265625 -5.953125 L 2.265625 0 Z M 0.84375 0 "/></g></g><g transform="translate(74.142881, 23.611144)"><g><path d="M 1.65625 0 L 0.140625 0 L 3.546875 -8.015625 L 5.140625 -8.015625 L 8.609375 0 L 7.015625 0 L 6.09375 -2.1875 L 3.4375 -2.1875 L 3.953125 -3.46875 L 5.5625 -3.46875 L 4.296875 -6.484375 Z M 1.65625 0 "/></g></g><g transform="translate(82.888603, 23.611144)"><g><path d="M 2.328125 -8.015625 L 2.328125 -1.28125 L 5.5 -1.28125 L 5.5 0 L 0.84375 0 L 0.84375 -8.015625 Z M 2.328125 -8.015625 "/></g></g><g transform="translate(88.952379, 23.611144)"><g><path d="M 3.96875 -1.28125 C 5.632812 -1.28125 6.46875 -2.257812 6.46875 -4.21875 C 6.46875 -5.882812 5.632812 -6.71875 3.96875 -6.71875 L 2.328125 -6.71875 L 2.328125 -1.28125 Z M 0.84375 0 L 0.84375 -8.015625 L 3.96875 -8.015625 C 6.625 -8.015625 7.953125 -6.75 7.953125 -4.21875 C 7.953125 -1.40625 6.625 0 3.96875 0 Z M 0.84375 0 "/></g></g><g transform="translate(97.322965, 23.611144)"><g><path d="M 2.09375 -4.03125 C 2.09375 -2.164062 2.921875 -1.234375 4.578125 -1.234375 C 6.191406 -1.234375 7 -2.164062 7 -4.03125 C 7 -5.863281 6.191406 -6.78125 4.578125 -6.78125 C 2.921875 -6.78125 2.09375 -5.863281 2.09375 -4.03125 Z M 0.5625 -4 C 0.5625 -6.707031 1.898438 -8.0625 4.578125 -8.0625 C 7.222656 -8.0625 8.546875 -6.707031 8.546875 -4 C 8.546875 -1.289062 7.222656 0.0625 4.578125 0.0625 C 2.015625 0.0625 0.675781 -1.289062 0.5625 -4 Z M 0.5625 -4 "/></g></g><g transform="translate(106.421427, 23.611144)"><g><path d="M 0.84375 0 L 0.84375 -8.015625 L 2.375 -8.015625 L 5.09375 -1.9375 L 7.75 -8.015625 L 9.234375 -8.015625 L 9.234375 0 L 7.875 0 L 7.875 -5.578125 L 5.6875 0 L 4.421875 0 L 2.21875 -5.578125 L 2.21875 0 Z M 0.84375 0 "/></g></g><g transform="translate(116.499725, 23.611144)"><g><path d="M 1.65625 0 L 0.140625 0 L 3.546875 -8.015625 L 5.140625 -8.015625 L 8.609375 0 L 7.015625 0 L 6.09375 -2.1875 L 3.4375 -2.1875 L 3.953125 -3.46875 L 5.5625 -3.46875 L 4.296875 -6.484375 Z M 1.65625 0 "/></g></g><g transform="translate(125.245447, 23.611144)"><g><path d="M 2.328125 -8.015625 L 2.328125 0 L 0.84375 0 L 0.84375 -8.015625 Z M 2.328125 -8.015625 "/></g></g><g transform="translate(128.408913, 23.611144)"><g><path d="M 0.84375 0 L 0.84375 -8.015625 L 2.328125 -8.015625 L 6.546875 -2.171875 L 6.546875 -8.015625 L 7.984375 -8.015625 L 7.984375 0 L 6.5 0 L 2.265625 -5.953125 L 2.265625 0 Z M 0.84375 0 "/></g></g><g transform="translate(137.227423, 23.611144)"><g><path d="M 0.703125 -0.34375 L 0.703125 -1.6875 C 1.503906 -1.382812 2.410156 -1.234375 3.421875 -1.234375 C 4.648438 -1.234375 5.265625 -1.644531 5.265625 -2.46875 C 5.265625 -3.0625 4.882812 -3.359375 4.125 -3.359375 L 2.875 -3.359375 C 1.238281 -3.359375 0.421875 -4.101562 0.421875 -5.59375 C 0.421875 -7.238281 1.585938 -8.0625 3.921875 -8.0625 C 4.816406 -8.0625 5.664062 -7.929688 6.46875 -7.671875 L 6.46875 -6.328125 C 5.664062 -6.628906 4.816406 -6.78125 3.921875 -6.78125 C 2.578125 -6.78125 1.90625 -6.382812 1.90625 -5.59375 C 1.90625 -5 2.226562 -4.703125 2.875 -4.703125 L 4.125 -4.703125 C 5.875 -4.703125 6.75 -3.957031 6.75 -2.46875 C 6.75 -0.78125 5.640625 0.0625 3.421875 0.0625 C 2.410156 0.0625 1.503906 -0.0703125 0.703125 -0.34375 Z M 0.703125 -0.34375 "/></g></g></g></svg>