<svg xmlns="http://www.w3.org/2000/svg" xmlns:xlink="http://www.w3.org/1999/xlink" width="40" zoomAndPan="magnify" viewBox="0 0 30 30.000001" height="40" preserveAspectRatio="xMidYMid meet" version="1.0"><defs><clipPath id="id1"><path d="M 3.921875 2.496094 L 26.421875 2.496094 L 26.421875 26.449219 L 3.921875 26.449219 Z M 3.921875 2.496094 " clip-rule="nonzero"/></clipPath></defs><g clip-path="url(#id1)"><path fill="rgb(79.998779%, 0%, 0%)" d="M 26.421875 14.472656 L 24.171875 14.472656 L 24.171875 8.484375 L 18.171875 2.496094 L 6.171875 2.496094 L 6.171875 14.472656 L 3.925781 14.472656 L 3.925781 21.957031 L 6.171875 21.957031 L 6.171875 26.449219 L 24.171875 26.449219 L 24.171875 21.957031 L 26.421875 21.957031 L 26.421875 14.472656 " fill-opacity="1" fill-rule="nonzero"/></g><path fill="rgb(100%, 100%, 100%)" d="M 6.921875 25.699219 L 23.421875 25.699219 L 23.421875 21.957031 L 6.921875 21.957031 Z M 18.171875 3.558594 L 18.171875 8.484375 L 23.109375 8.484375 Z M 17.421875 9.234375 L 17.421875 3.246094 L 6.921875 3.246094 L 6.921875 14.472656 L 23.421875 14.472656 L 23.421875 9.234375 Z M 17.449219 18.109375 C 17.449219 17.320312 17.152344 16.765625 16.6875 16.417969 C 16.253906 16.09375 15.699219 15.941406 14.84375 15.941406 C 14.332031 15.941406 13.84375 15.972656 13.472656 16.035156 L 13.472656 20.441406 C 13.726562 20.472656 14.097656 20.507812 14.625 20.507812 C 15.507812 20.507812 16.226562 20.320312 16.699219 19.929688 C 17.132812 19.5625 17.449219 18.96875 17.449219 18.109375 Z M 14.84375 19.714844 C 14.71875 19.714844 14.578125 19.714844 14.492188 19.695312 L 14.492188 16.757812 C 14.578125 16.738281 14.726562 16.71875 14.953125 16.71875 C 15.824219 16.71875 16.375 17.210938 16.367188 18.144531 C 16.367188 19.214844 15.765625 19.722656 14.84375 19.714844 Z M 10.78125 18.875 C 11.382812 18.875 11.894531 18.730469 12.242188 18.402344 C 12.507812 18.152344 12.65625 17.777344 12.65625 17.339844 C 12.65625 16.898438 12.460938 16.527344 12.175781 16.300781 C 11.875 16.058594 11.425781 15.941406 10.800781 15.941406 C 10.179688 15.941406 9.742188 15.980469 9.425781 16.035156 L 9.425781 20.460938 L 10.433594 20.460938 L 10.433594 18.855469 C 10.527344 18.871094 10.648438 18.875 10.78125 18.875 Z M 10.433594 16.746094 C 10.507812 16.726562 10.648438 16.707031 10.855469 16.707031 C 11.359375 16.707031 11.648438 16.953125 11.648438 17.363281 C 11.648438 17.824219 11.3125 18.097656 10.773438 18.097656 C 10.628906 18.097656 10.519531 18.089844 10.433594 18.070312 Z M 21.03125 16.804688 L 21.03125 15.972656 L 18.28125 15.972656 L 18.28125 20.460938 L 19.304688 20.460938 L 19.304688 18.65625 L 20.917969 18.65625 L 20.917969 17.832031 L 19.304688 17.832031 L 19.304688 16.804688 L 21.03125 16.804688 " fill-opacity="1" fill-rule="nonzero"/></svg>