<svg xmlns="http://www.w3.org/2000/svg" xmlns:xlink="http://www.w3.org/1999/xlink" width="40" zoomAndPan="magnify" viewBox="0 0 30 30.000001" height="40" preserveAspectRatio="xMidYMid meet" version="1.0"><defs><clipPath id="id1"><path d="M 1.726562 3 L 28.582031 3 L 28.582031 24.675781 L 1.726562 24.675781 Z M 1.726562 3 " clip-rule="nonzero"/></clipPath></defs><g clip-path="url(#id1)"><path fill="rgb(65.098572%, 65.098572%, 65.098572%)" d="M 25.8125 8.753906 C 25.828125 8.984375 25.828125 9.214844 25.828125 9.445312 C 25.828125 16.519531 20.296875 24.675781 10.183594 24.675781 L 10.183594 24.671875 C 7.195312 24.675781 4.269531 23.84375 1.753906 22.273438 C 2.191406 22.324219 2.625 22.347656 3.066406 22.351562 C 5.539062 22.351562 7.945312 21.542969 9.894531 20.054688 C 7.539062 20.011719 5.476562 18.515625 4.757812 16.335938 C 5.582031 16.492188 6.429688 16.460938 7.238281 16.246094 C 4.671875 15.738281 2.828125 13.546875 2.828125 10.996094 C 2.828125 10.972656 2.828125 10.953125 2.828125 10.929688 C 3.59375 11.34375 4.449219 11.574219 5.324219 11.601562 C 2.90625 10.027344 2.164062 6.898438 3.621094 4.453125 C 6.414062 7.796875 10.53125 9.832031 14.953125 10.046875 C 14.511719 8.1875 15.117188 6.238281 16.542969 4.929688 C 18.757812 2.90625 22.242188 3.007812 24.324219 5.164062 C 25.554688 4.925781 26.734375 4.488281 27.816406 3.863281 C 27.40625 5.105469 26.546875 6.15625 25.398438 6.824219 C 26.488281 6.699219 27.554688 6.414062 28.554688 5.980469 C 27.816406 7.058594 26.886719 7.996094 25.8125 8.753906 Z M 25.8125 8.753906 " fill-opacity="1" fill-rule="nonzero"/></g></svg>