<svg xmlns="http://www.w3.org/2000/svg" xmlns:xlink="http://www.w3.org/1999/xlink" width="100" zoomAndPan="magnify" viewBox="0 0 75 74.999997" height="100" preserveAspectRatio="xMidYMid meet" version="1.0"><defs><clipPath id="id1"><path d="M 5.023438 5.023438 L 70.273438 5.023438 L 70.273438 70.273438 L 5.023438 70.273438 Z M 5.023438 5.023438 " clip-rule="nonzero"/></clipPath></defs><g clip-path="url(#id1)"><path fill="rgb(21.958923%, 71.369934%, 100%)" d="M 37.648438 5.023438 C 19.660156 5.023438 5.023438 19.660156 5.023438 37.648438 C 5.023438 55.640625 19.660156 70.273438 37.648438 70.273438 C 55.640625 70.273438 70.273438 55.640625 70.273438 37.648438 C 70.273438 19.660156 55.640625 5.023438 37.648438 5.023438 Z M 37.648438 68.277344 C 20.761719 68.277344 7.023438 54.539062 7.023438 37.648438 C 7.023438 20.761719 20.761719 7.023438 37.648438 7.023438 C 54.539062 7.023438 68.277344 20.761719 68.277344 37.648438 C 68.277344 54.539062 54.539062 68.277344 37.648438 68.277344 Z M 36.085938 42.921875 L 19.464844 42.507812 C 18.441406 42.476562 17.644531 41.644531 17.675781 40.621094 L 18.089844 24.164062 C 18.125 23.140625 18.953125 22.34375 19.976562 22.375 C 21 22.40625 21.800781 23.238281 21.765625 24.257812 L 21.480469 36.308594 L 34.292969 24.195312 C 38.738281 20.007812 45.734375 20.199219 49.953125 24.578125 L 51.871094 26.5625 C 52.605469 27.296875 52.574219 28.445312 51.839844 29.148438 C 51.105469 29.851562 49.921875 29.820312 49.21875 29.085938 L 47.300781 27.105469 C 44.488281 24.164062 39.824219 24.066406 36.851562 26.847656 L 24.035156 38.960938 L 36.179688 39.246094 C 37.203125 39.28125 38 40.109375 37.96875 41.132812 C 37.9375 42.15625 37.105469 42.957031 36.085938 42.921875 Z M 57.625 34.679688 L 57.207031 51.136719 C 57.175781 52.160156 56.34375 52.957031 55.320312 52.925781 C 54.300781 52.894531 53.5 52.0625 53.53125 51.039062 L 53.820312 38.992188 L 41.003906 51.105469 C 36.5625 55.289062 29.5625 55.097656 25.347656 50.71875 L 23.429688 48.738281 C 22.691406 48.003906 22.726562 46.855469 23.460938 46.152344 C 24.195312 45.449219 25.378906 45.480469 26.082031 46.214844 L 28 48.195312 C 30.8125 51.136719 35.476562 51.230469 38.449219 48.453125 L 51.261719 36.339844 L 39.121094 36.050781 C 38.097656 36.019531 37.296875 35.1875 37.328125 34.167969 C 37.363281 33.144531 38.191406 32.34375 39.214844 32.375 L 55.832031 32.792969 C 56.855469 32.824219 57.65625 33.65625 57.625 34.679688 Z M 57.625 34.679688 " fill-opacity="1" fill-rule="nonzero"/></g></svg>