<svg xmlns="http://www.w3.org/2000/svg" width="30" viewBox="0 0 30 30" height="30" version="1.0"><defs><clipPath id="a"><path d="M 2.660156 2.539062 L 26.613281 2.539062 L 26.613281 26.492188 L 2.660156 26.492188 Z M 2.660156 2.539062"/></clipPath></defs><g clip-path="url(#a)"><path fill="#1B9DF0" d="M 26.613281 14.515625 C 26.613281 15.300781 26.535156 16.082031 26.382812 16.851562 C 26.230469 17.625 26.003906 18.371094 25.703125 19.097656 C 25.398438 19.824219 25.03125 20.515625 24.59375 21.167969 C 24.15625 21.824219 23.660156 22.429688 23.105469 22.984375 C 22.550781 23.539062 21.945312 24.035156 21.289062 24.472656 C 20.636719 24.910156 19.945312 25.28125 19.21875 25.582031 C 18.492188 25.882812 17.746094 26.109375 16.972656 26.261719 C 16.203125 26.414062 15.421875 26.492188 14.636719 26.492188 C 13.851562 26.492188 13.070312 26.414062 12.300781 26.261719 C 11.53125 26.109375 10.78125 25.882812 10.054688 25.582031 C 9.328125 25.28125 8.636719 24.910156 7.984375 24.472656 C 7.328125 24.035156 6.726562 23.539062 6.167969 22.984375 C 5.613281 22.429688 5.117188 21.824219 4.679688 21.167969 C 4.242188 20.515625 3.875 19.824219 3.574219 19.097656 C 3.273438 18.371094 3.042969 17.625 2.890625 16.851562 C 2.738281 16.082031 2.660156 15.300781 2.660156 14.515625 C 2.660156 13.730469 2.738281 12.949219 2.890625 12.179688 C 3.042969 11.410156 3.273438 10.660156 3.574219 9.933594 C 3.875 9.207031 4.242188 8.515625 4.679688 7.863281 C 5.117188 7.207031 5.613281 6.605469 6.167969 6.046875 C 6.726562 5.492188 7.328125 4.996094 7.984375 4.558594 C 8.636719 4.121094 9.328125 3.753906 10.054688 3.453125 C 10.78125 3.152344 11.53125 2.925781 12.300781 2.769531 C 13.070312 2.617188 13.851562 2.539062 14.636719 2.539062 C 15.421875 2.539062 16.203125 2.617188 16.972656 2.769531 C 17.746094 2.925781 18.492188 3.152344 19.21875 3.453125 C 19.945312 3.753906 20.636719 4.121094 21.289062 4.558594 C 21.945312 4.996094 22.550781 5.492188 23.105469 6.046875 C 23.660156 6.605469 24.15625 7.207031 24.59375 7.863281 C 25.03125 8.515625 25.398438 9.207031 25.703125 9.933594 C 26.003906 10.660156 26.230469 11.410156 26.382812 12.179688 C 26.535156 12.949219 26.613281 13.730469 26.613281 14.515625 Z M 26.613281 14.515625"/></g><path fill="#FFF" d="M 12.445312 20.832031 C 17.757812 20.832031 20.660156 16.433594 20.660156 12.617188 C 20.660156 12.492188 20.660156 12.367188 20.65625 12.246094 C 21.21875 11.839844 21.707031 11.332031 22.097656 10.75 C 21.582031 10.976562 21.027344 11.132812 20.4375 11.203125 C 21.039062 10.84375 21.492188 10.28125 21.707031 9.605469 C 21.152344 9.933594 20.535156 10.175781 19.875 10.304688 C 19.347656 9.742188 18.601562 9.394531 17.769531 9.394531 C 16.175781 9.394531 14.882812 10.691406 14.882812 12.28125 C 14.882812 12.511719 14.90625 12.730469 14.960938 12.941406 C 12.558594 12.820312 10.433594 11.671875 9.007812 9.921875 C 8.761719 10.347656 8.621094 10.84375 8.621094 11.371094 C 8.621094 12.371094 9.128906 13.257812 9.90625 13.773438 C 9.433594 13.761719 8.992188 13.628906 8.601562 13.414062 C 8.601562 13.425781 8.601562 13.4375 8.601562 13.449219 C 8.601562 14.851562 9.59375 16.011719 10.917969 16.28125 C 10.679688 16.347656 10.421875 16.382812 10.15625 16.382812 C 9.972656 16.382812 9.792969 16.367188 9.613281 16.332031 C 9.976562 17.480469 11.042969 18.3125 12.308594 18.335938 C 11.320312 19.109375 10.074219 19.570312 8.722656 19.570312 C 8.488281 19.570312 8.261719 19.558594 8.03125 19.527344 C 9.296875 20.355469 10.816406 20.832031 12.445312 20.832031"/></svg>