<svg width="218" height="106" viewBox="0 0 218 106" fill="none" xmlns="http://www.w3.org/2000/svg">
<rect width="50" height="50" rx="24.8804" fill="#F7931A"/>
<path d="M18.0672 25.0326L17.0059 31.0515L13.9964 30.5208L13.4658 33.5303L17.9799 34.3262L17.4493 37.3357L20.4587 37.8663L20.9894 34.8569L23.9988 35.3875L23.4682 38.397L26.4776 38.9276L27.0218 35.8414C30.0492 35.9889 32.7965 33.8885 33.3361 30.8279C33.6864 28.8417 33.0171 26.9177 31.7209 25.5581C33.0169 24.6323 33.8983 23.2353 34.1757 21.6669C34.6687 18.8711 33.1562 16.1949 30.6851 15.0657L31.2535 11.8426L28.244 11.3119L27.7134 14.3214L24.7039 13.7907L25.2346 10.7813L22.2251 10.2506L21.6945 13.2601L17.1803 12.4641L16.6496 15.4736L19.6591 16.0042L18.0672 25.0326ZM26.7866 32.7761L20.0153 31.5821L21.0766 25.5632L27.8479 26.7572C29.5076 27.0498 30.6193 28.6375 30.3267 30.2973C30.034 31.957 28.4463 33.0687 26.7866 32.7761ZM22.6685 16.5348L28.6874 17.5961C30.3472 17.8888 31.4589 19.4765 31.1663 21.1362C30.8736 22.796 29.2859 23.9077 27.6262 23.615L21.6072 22.5538L22.6685 16.5348Z" fill="white"/>
<rect x="56" y="0.00012207" width="50" height="50" rx="24.8804" fill="#627EEA"/>
<path d="M76.2468 17.4239C73.6482 21.7834 71.5181 25.3761 71.5039 25.4045C71.4968 25.4329 73.6269 26.7393 76.2468 28.3084L81.0039 31.1627L85.761 28.3084C88.381 26.7393 90.511 25.4329 90.5039 25.4045C90.4329 25.2341 81.0394 9.50017 81.0039 9.50017C80.9826 9.50017 78.8384 13.0644 76.2468 17.4239Z" fill="white"/>
<path d="M71.7174 27.6481C71.8594 27.8398 73.9894 30.8219 76.4532 34.2796C78.924 37.7374 80.976 40.5633 81.0115 40.5633C81.0967 40.5633 90.5115 27.3641 90.4476 27.3357C90.4192 27.3286 88.282 28.5853 85.6976 30.1332L81.0044 32.9519L76.3467 30.1545C73.7835 28.6137 71.6322 27.3428 71.5754 27.3286C71.5044 27.3144 71.5612 27.4351 71.7174 27.6481Z" fill="white"/>
<rect x="112" y="0.00012207" width="50" height="50" rx="24.8804" fill="#26A17B"/>
<path d="M126.688 15.6519V18.3659H130.366H134.044V19.6544V20.9379L133.527 20.9734C128.743 21.2828 124.842 22.4192 124.101 23.7077C123.264 25.1687 125.846 26.5485 130.721 27.2385C131.579 27.3602 132.7 27.4769 133.476 27.5276L134.044 27.5631V32.2201V36.8821H136.783H139.523V32.2404V27.6037L139.69 27.5783C139.776 27.5682 140.228 27.5276 140.69 27.4972C142.978 27.3348 145.494 26.8884 147.107 26.3558C147.939 26.0818 148.923 25.5847 149.303 25.2346C149.709 24.8694 149.821 24.6563 149.821 24.2505C149.821 23.9005 149.75 23.7331 149.476 23.4287C148.375 22.2112 144.479 21.2169 139.751 20.9379L139.548 20.9277L139.533 19.6443L139.523 18.3659H143.201H146.879V15.6519V12.9379H136.783H126.688V15.6519ZM134.044 23.1294V24.6969L134.49 24.7375C135.043 24.7882 139.137 24.7882 139.361 24.7375L139.523 24.6969V23.1243V21.5517L139.995 21.5872C141.963 21.7191 143.257 21.8561 144.378 22.0438C146.676 22.4344 147.979 22.9163 148.279 23.4946C148.38 23.6976 148.324 23.8599 148.061 24.1034C147.244 24.8542 144.657 25.4122 140.487 25.7318C139.361 25.818 134.475 25.818 133.309 25.7318C130.848 25.5492 129.108 25.3057 127.688 24.9404C126.282 24.5802 125.471 24.1135 125.471 23.6773C125.471 22.7438 128.9 21.8662 133.588 21.5974C133.74 21.5872 133.907 21.5771 133.958 21.572C134.039 21.5618 134.044 21.6684 134.044 23.1294Z" fill="white"/>
<rect x="168" y="0.00012207" width="50" height="50" rx="24.8804" fill="#2775C9"/>
<path d="M201.95 13.5598C201.436 13.7893 201.078 14.34 201.078 14.9091C201.078 15.3589 201.317 15.7995 201.914 16.442C203.446 18.1218 204.502 20.3524 204.897 22.794C205.071 23.8588 205.025 26.071 204.796 27.1082C204.309 29.348 203.327 31.2297 201.693 33.0563C201.363 33.4327 201.152 33.754 201.115 33.9651C200.876 35.2135 202.06 36.1864 203.226 35.6999C203.391 35.6357 203.804 35.2685 204.144 34.8922C205.943 32.9003 207.173 30.477 207.752 27.7691C207.981 26.7135 207.999 26.4106 207.999 24.6758C208.009 23.2346 207.963 22.537 207.852 21.922C207.293 18.9663 205.989 16.3319 204.061 14.2666C203.759 13.9453 203.382 13.624 203.217 13.5506C202.841 13.4037 202.308 13.4037 201.95 13.5598Z" fill="white"/>
<path d="M182.755 13.7434C182.599 13.8168 182.195 14.1748 181.856 14.5512C180.066 16.5247 178.817 18.9847 178.248 21.6558C178.019 22.739 178 23.0144 178 24.8135C177.991 26.3372 178.028 26.9706 178.156 27.5856C178.762 30.6055 180.038 33.1573 181.966 35.2043C182.608 35.8836 182.975 36.058 183.609 35.9845C184.325 35.9111 184.83 35.3879 184.903 34.6535C184.949 34.0844 184.802 33.7723 184.077 32.9829C182.113 30.8442 180.974 27.8426 180.974 24.8135C180.974 22.8583 181.378 21.1326 182.259 19.3519C182.819 18.2137 183.297 17.5252 184.27 16.4237C184.857 15.7628 184.986 15.4324 184.894 14.8449C184.738 13.9178 183.646 13.3579 182.755 13.7434Z" fill="white"/>
<path d="M192.228 15.203C191.788 15.4508 191.531 15.9189 191.531 16.4605V16.8827L190.741 16.9837C188.226 17.3325 186.748 19.306 187.042 21.9221C187.134 22.7482 187.427 23.4458 187.905 23.9782C188.263 24.3729 189.135 24.8503 189.695 24.9512C189.878 24.9879 190.356 25.1256 190.75 25.2725L191.485 25.5295L191.512 27.5214L191.531 29.5041L191.329 29.4398C190.466 29.1736 190.126 28.7514 190.007 27.8335C189.897 26.888 189.337 26.374 188.428 26.374C187.896 26.374 187.455 26.631 187.18 27.0992C187.042 27.3378 187.005 27.5673 187.014 28.0446C187.051 30.2293 188.557 31.9641 190.778 32.4047L191.531 32.5516V32.9738C191.531 34.112 192.687 34.8005 193.724 34.2681C194.211 34.0294 194.468 33.5797 194.468 33.0105V32.5516L195.147 32.4965C196.799 32.3496 198.259 31.3399 198.865 29.9263C199.562 28.3016 199.149 26.0436 197.965 24.9788C197.424 24.4923 196.937 24.2444 195.569 23.7579L194.514 23.3816L194.486 21.6559L194.468 19.921L194.89 19.9853C195.744 20.0955 196.267 20.6462 196.368 21.5274C196.469 22.5188 197.029 23.0695 197.91 23.0695C198.406 23.0695 198.764 22.9043 199.085 22.5188C199.792 21.6834 199.259 19.4896 198.075 18.3147C197.222 17.4702 195.946 16.9286 194.817 16.9195H194.468V16.4513C194.468 15.8547 194.211 15.4233 193.724 15.1754C193.256 14.9368 192.678 14.9459 192.228 15.203ZM191.531 21.1419V22.3352L191.283 22.2342C191.136 22.1791 190.824 22.0782 190.567 22.0231C190.145 21.9221 190.108 21.8946 190.044 21.5641C189.869 20.7105 190.429 19.9761 191.283 19.9578L191.531 19.9486V21.1419ZM195.45 26.9706C195.973 27.2093 196.065 27.3378 196.166 27.9161C196.295 28.7147 195.606 29.4949 194.762 29.4949H194.468V28.063V26.631L194.725 26.6953C194.863 26.7228 195.184 26.8513 195.45 26.9706Z" fill="white"/>
<rect y="55.7321" width="50" height="50" rx="24.8804" fill="#FAC147"/>
<path d="M15.4475 73.3497L15.4307 76.777L13.9323 76.7938L12.4395 76.805L12.4506 78.0238L12.4674 79.2371L13.9658 79.2539L15.4586 79.2651V80.551V81.837H13.949H12.4395L12.4506 83.0502L12.4674 84.2691L13.9658 84.2859L15.4586 84.2971V87.6797V91.0623H20.2614C25.5841 91.0623 25.7798 91.0511 27.172 90.6989C29.3637 90.1453 31.1584 89.0998 32.5898 87.5399C33.3222 86.746 33.8589 85.9241 34.3621 84.8338L34.6082 84.2971H35.9612H37.3198V83.067V81.837H36.2743H35.2232V80.551V79.2651H36.2743H37.3198V78.035V76.805H35.9836H34.6529L34.5522 76.5366C34.3621 76.0278 33.7359 74.8705 33.3781 74.3729C31.6505 71.9631 28.9779 70.4423 25.7295 70.0118C25.176 69.9447 24.2702 69.9279 20.267 69.9279H15.4586L15.4475 73.3497ZM25.1201 72.17C27.664 72.4495 29.7774 73.5845 31.1305 75.3848C31.4715 75.8377 31.9524 76.6373 31.9524 76.7491C31.9524 76.7882 29.565 76.805 24.9076 76.805H17.8628V74.4567V72.1085H21.2175C23.247 72.1085 24.7902 72.1308 25.1201 72.17ZM32.7351 79.3042C32.7799 79.3489 32.7631 81.6916 32.7184 81.7643C32.6792 81.8202 31.1305 81.837 25.271 81.837H17.8684L17.8516 81.345C17.8405 81.0766 17.8405 80.5007 17.8516 80.0646L17.8684 79.2651L22.4922 79.2539C27.7647 79.2371 32.6904 79.2595 32.7351 79.3042ZM31.807 84.5878C30.7838 86.6118 28.6425 88.1549 26.188 88.6525C25.2039 88.8538 24.6057 88.8762 21.1783 88.8818H17.8628V86.5894V84.2971H24.9076H31.9524L31.807 84.5878Z" fill="white"/>
<rect x="56" y="55.7321" width="50" height="50" rx="24.8804" fill="#8DC351"/>
<path d="M74.6002 83.0199L75.6615 89.0388L72.652 89.5695L73.1827 92.5789L77.6969 91.7829L78.2275 94.7924L81.237 94.2617L80.7063 91.2523L83.7158 90.7216L84.2464 93.7311L87.2559 93.2004L86.7117 90.1143C89.6069 89.2174 91.4701 86.3041 90.9305 83.2435C90.5802 81.2572 89.2933 79.6782 87.6102 78.8439C88.5115 77.5307 88.8619 75.9164 88.5862 74.3478C88.0932 71.552 85.7566 69.5545 83.0484 69.3385L82.48 66.1154L79.4706 66.646L80.0012 69.6555L76.9918 70.1861L76.4611 67.1767L73.4517 67.7073L73.9823 70.7168L69.4681 71.5127L69.9988 74.5222L73.0082 73.9916L74.6002 83.0199ZM85.4422 87.3142L78.6709 88.5082L77.6096 82.4893L84.3809 81.2953C86.0406 81.0026 87.6284 82.1144 87.921 83.7741C88.2137 85.4338 87.1019 87.0216 85.4422 87.3142ZM76.0177 73.4609L82.0366 72.3996C83.6963 72.107 85.284 73.2187 85.5767 74.8784C85.8694 76.5381 84.7576 78.1259 83.0979 78.4185L77.079 79.4798L76.0177 73.4609Z" fill="white"/>
<rect x="112" y="55.7321" width="50" height="50" rx="24.8804" fill="#C3A634"/>
<path d="M127.601 73.1637V79.1503H126.022H124.443V80.637V82.1238H126.022H127.601V88.1235V94.1232L133.03 94.118L138.456 94.1101L138.851 94.0522C139.069 94.018 139.322 93.9811 139.416 93.968C139.782 93.9153 140.495 93.7627 140.85 93.6601C140.966 93.6285 141.09 93.5969 141.127 93.589C141.195 93.5759 141.403 93.5075 141.706 93.3969C141.8 93.3627 141.893 93.3338 141.908 93.3338C141.927 93.3338 142.006 93.3048 142.085 93.268C142.164 93.2312 142.245 93.2022 142.264 93.2022C142.282 93.2022 142.35 93.1733 142.414 93.1364C142.474 93.0996 142.54 93.0706 142.556 93.0706C142.574 93.0706 142.658 93.0364 142.745 92.9943C142.832 92.9522 142.992 92.8759 143.1 92.8233C143.382 92.6917 143.795 92.4628 143.806 92.4365C143.811 92.4233 143.832 92.4128 143.85 92.4128C143.879 92.4128 144.095 92.2838 144.192 92.2075C144.208 92.197 144.303 92.1365 144.403 92.0733C144.506 92.0102 144.598 91.9418 144.608 91.9233C144.619 91.9023 144.64 91.8865 144.656 91.8865C144.679 91.8865 144.929 91.7023 145.127 91.5391C145.177 91.4944 145.279 91.4128 145.35 91.3523C145.54 91.1944 146.279 90.4576 146.395 90.3129C146.45 90.2445 146.527 90.1524 146.566 90.1103C146.608 90.0655 146.711 89.934 146.798 89.8208C146.971 89.5892 146.987 89.5708 147.145 89.3314C147.208 89.2393 147.279 89.134 147.303 89.0998C147.358 89.0287 147.455 88.8709 147.492 88.7945C147.508 88.7656 147.561 88.6709 147.611 88.584C147.884 88.1025 148.416 86.9315 148.416 86.8078C148.416 86.7841 148.426 86.7552 148.44 86.742C148.466 86.7131 148.511 86.5789 148.613 86.242C148.653 86.1105 148.708 85.9289 148.74 85.8342C148.769 85.7394 148.803 85.6157 148.813 85.5579C148.821 85.5 148.855 85.3526 148.884 85.2289C148.976 84.8579 149.074 84.4026 149.074 84.3474C149.074 84.3184 149.103 84.1237 149.137 83.9132C149.174 83.7027 149.229 83.2711 149.263 82.9527C149.318 82.4185 149.324 82.258 149.324 80.8607C149.324 79.4634 149.318 79.3029 149.263 78.7687C149.229 78.4503 149.179 78.0424 149.147 77.8609C149.118 77.6793 149.09 77.4793 149.082 77.4135C149.068 77.2872 148.974 76.832 148.884 76.4662C148.855 76.3425 148.821 76.1899 148.811 76.1241C148.797 76.0583 148.763 75.9399 148.734 75.8609C148.703 75.782 148.679 75.6952 148.679 75.6689C148.679 75.6425 148.655 75.5557 148.624 75.4715C148.595 75.3899 148.555 75.2689 148.534 75.2031C148.516 75.1373 148.466 74.9899 148.421 74.8742C148.379 74.7584 148.329 74.6215 148.308 74.5715C148.29 74.5215 148.247 74.4189 148.213 74.3452C148.182 74.2716 148.153 74.2005 148.153 74.19C148.153 74.1531 147.745 73.3163 147.626 73.1111C147.584 73.0374 147.524 72.9295 147.495 72.869C147.463 72.8085 147.421 72.7453 147.4 72.7269C147.379 72.7111 147.363 72.6822 147.363 72.6664C147.363 72.6506 147.303 72.5506 147.232 72.4453C147.158 72.3374 147.1 72.248 147.1 72.2401C147.1 72.2322 147.063 72.1822 146.882 71.9375C146.863 71.9164 146.84 71.8769 146.824 71.8559C146.792 71.8032 146.508 71.4533 146.327 71.2427C146.216 71.1138 145.582 70.4717 145.377 70.2823C145.292 70.206 144.958 69.9323 144.877 69.8744C144.837 69.8454 144.766 69.7902 144.721 69.7533C144.642 69.6876 144.353 69.4797 144.263 69.427C144.24 69.4113 144.142 69.3481 144.05 69.2876C143.956 69.2244 143.837 69.1507 143.787 69.1218C143.735 69.0929 143.65 69.0455 143.6 69.0165C143.266 68.8139 142.353 68.3613 142.285 68.3613C142.271 68.3613 142.221 68.3403 142.174 68.3139C142.127 68.2876 142.035 68.2482 141.969 68.2245C141.903 68.2008 141.75 68.1455 141.627 68.0982C141.503 68.0534 141.35 67.9982 141.285 67.9797C141.219 67.9613 141.095 67.9219 141.008 67.8929C140.837 67.835 140.45 67.7245 140.258 67.6798C140.193 67.664 140.069 67.635 139.982 67.6113C139.535 67.5008 138.54 67.3219 138.232 67.2956C138.137 67.2903 137.919 67.264 137.745 67.2377C137.459 67.1982 136.977 67.1929 132.517 67.185L127.601 67.1772V73.1637ZM136.864 72.2006C137.464 72.2374 138.174 72.3822 138.901 72.6164C139.145 72.6927 139.395 72.7821 139.458 72.8085C139.519 72.8374 139.579 72.8611 139.59 72.8611C139.608 72.8611 139.751 72.9269 140.087 73.0927C140.345 73.219 140.49 73.2979 140.627 73.3874C140.693 73.4295 140.774 73.4795 140.811 73.4979C140.848 73.5163 140.895 73.5453 140.916 73.5637C141.045 73.6637 141.208 73.7821 141.221 73.7821C141.253 73.7821 141.732 74.1979 141.958 74.4242C142.09 74.5557 142.295 74.7821 142.411 74.9268C142.529 75.0715 142.64 75.2083 142.658 75.2294C142.692 75.2715 142.953 75.661 143.029 75.7873C143.161 76.003 143.469 76.6056 143.535 76.7793C143.748 77.3425 143.766 77.3951 143.848 77.6767C144.019 78.2556 144.15 78.9529 144.224 79.6502C144.29 80.2949 144.29 81.6423 144.224 82.2685C144.129 83.1474 143.927 84.0658 143.713 84.5737C143.682 84.6553 143.653 84.7342 143.653 84.7526C143.653 84.7921 143.319 85.4947 143.19 85.7263C143.135 85.821 142.864 86.2341 142.8 86.321C142.466 86.7578 142.058 87.1867 141.714 87.4578C141.664 87.4999 141.6 87.5499 141.577 87.5709C141.408 87.7262 140.443 88.3077 140.356 88.3077C140.337 88.3077 140.3 88.3235 140.272 88.3446C140.2 88.3919 139.403 88.7024 139.351 88.7024C139.335 88.7024 139.229 88.7314 139.114 88.7656C138.832 88.8498 138.356 88.9498 137.89 89.0235C137.516 89.0814 137.459 89.084 135.122 89.0919L132.732 89.0998V85.6105V82.1238H135.535H138.337V80.637V79.1503H135.535H132.732V75.6636V72.1769H134.622C135.659 72.1795 136.669 72.1901 136.864 72.2006Z" fill="white"/>
<rect x="168" y="55.7321" width="50" height="50" rx="24.8804" fill="#8247E5"/>
<path d="M186.601 69.2403C186.468 69.2811 185.047 70.0806 183.443 71.0177C181.197 72.3316 180.474 72.7746 180.311 72.9529C179.924 73.3704 179.94 73.2279 179.94 77.1593C179.94 80.5816 179.94 80.6732 180.046 80.9482C180.24 81.4728 180.372 81.5644 183.504 83.3774C185.307 84.4214 186.473 85.0631 186.626 85.1038C186.937 85.1802 187.395 85.1395 187.696 85.007C187.828 84.951 188.948 84.3145 190.186 83.5913C191.428 82.8732 193.634 81.5899 195.09 80.7445C196.547 79.8992 197.84 79.1556 197.967 79.0894C198.268 78.9367 198.736 78.901 199.093 79.0029C199.398 79.0945 202.439 80.8464 202.668 81.0654C202.744 81.1418 202.882 81.3506 202.973 81.5339L203.136 81.8649L203.152 83.7899C203.162 85.4501 203.157 85.7608 203.085 86.0052C202.994 86.3209 202.775 86.6621 202.566 86.8302C202.311 87.0288 199.454 88.7145 199.235 88.7909C198.94 88.8978 198.477 88.8876 198.171 88.7705C197.835 88.6432 195.014 87.0033 194.759 86.7895C194.642 86.6927 194.489 86.4788 194.392 86.2802L194.224 85.939L194.209 84.6811C194.199 83.9834 194.184 83.4182 194.173 83.4182C194.168 83.4182 193.593 83.7492 192.895 84.1515L191.627 84.8899V86.2293V87.5686L191.77 87.8589C191.851 88.027 192.014 88.2408 192.157 88.3682C192.447 88.6228 197.82 91.7497 198.197 91.8821C198.517 91.9941 198.838 91.9941 199.19 91.8922C199.516 91.7955 205.092 88.577 205.331 88.3478C205.423 88.2663 205.56 88.0779 205.637 87.9353L205.784 87.6705L205.8 84.014L205.815 80.3575L205.678 80.0621C205.606 79.8992 205.453 79.67 205.336 79.558C205.112 79.339 199.643 76.1306 199.271 76.0033C198.991 75.9015 198.426 75.9117 198.135 76.0237C197.998 76.0746 197.051 76.6144 196.022 77.2205C194.993 77.8214 193.588 78.6311 192.89 79.0181C192.197 79.4001 190.746 80.2404 189.671 80.8871C188.597 81.5288 187.609 82.089 187.482 82.1297C187.166 82.2265 186.677 82.1807 186.341 82.0228C186.193 81.9566 185.399 81.4881 184.574 80.989C183.306 80.2149 183.041 80.0367 182.883 79.8279C182.542 79.3746 182.532 79.3033 182.547 77.0473L182.562 75.0408L182.735 74.72C182.832 74.5417 182.985 74.3329 183.077 74.2617C183.168 74.1853 183.963 73.7066 184.844 73.1922C186.601 72.1737 186.759 72.1075 187.298 72.2093C187.655 72.2755 187.629 72.2654 189.422 73.345C191.586 74.6487 191.51 74.5367 191.54 76.4769C191.551 77.1848 191.576 77.7654 191.591 77.7654C191.612 77.7603 192.187 77.4343 192.875 77.0371L194.122 76.3089L194.138 75.0052C194.148 73.7728 194.143 73.6811 194.041 73.401C193.827 72.8408 193.69 72.739 190.659 70.9616C189.147 70.0704 187.797 69.3015 187.655 69.2556C187.349 69.1436 186.927 69.1385 186.601 69.2403Z" fill="white"/>
</svg>
