<svg xmlns="http://www.w3.org/2000/svg" xmlns:xlink="http://www.w3.org/1999/xlink" width="100" zoomAndPan="magnify" viewBox="0 0 75 74.999997" height="100" preserveAspectRatio="xMidYMid meet" version="1.0"><defs><clipPath id="id1"><path d="M 2.476562 2.476562 L 72.226562 2.476562 L 72.226562 72.226562 L 2.476562 72.226562 Z M 2.476562 2.476562 " clip-rule="nonzero"/></clipPath><clipPath id="id2"><path d="M 18.226562 55.351562 L 18.226562 59.851562 L 14.851562 55.351562 Z M 17.101562 53.101562 L 14.851562 53.101562 L 15.976562 51.601562 Z M 19.351562 52.347656 L 18.226562 50.851562 L 20.476562 50.851562 Z M 21.601562 53.101562 L 22.726562 51.601562 L 23.851562 53.101562 Z M 20.476562 55.351562 L 23.851562 55.351562 L 20.476562 59.851562 Z M 19.351562 65.101562 L 27.507812 54.226562 L 23.289062 48.601562 L 15.414062 48.601562 L 11.195312 54.226562 Z M 67.726562 19.351562 C 67.726562 22.203125 66.726562 24.988281 64.921875 27.191406 L 63.179688 25.765625 C 64.660156 23.960938 65.476562 21.683594 65.476562 19.351562 C 65.476562 13.769531 60.933594 9.226562 55.351562 9.226562 C 53.015625 9.226562 50.738281 10.039062 48.933594 11.519531 L 47.511719 9.777344 C 49.710938 7.972656 52.496094 6.976562 55.351562 6.976562 C 62.175781 6.976562 67.726562 12.523438 67.726562 19.351562 Z M 50 18.671875 L 52.785156 19.464844 L 55.34375 17.417969 L 57.910156 19.464844 L 60.699219 18.667969 L 60.019531 22.726562 L 50.679688 22.726562 Z M 55.351562 33.976562 C 54.886719 33.976562 54.386719 33.933594 53.859375 33.878906 C 53.691406 33.066406 53.445312 32.289062 53.164062 31.523438 C 53.886719 31.65625 54.613281 31.726562 55.351562 31.726562 C 58.203125 31.726562 60.988281 30.726562 63.191406 28.921875 L 61.765625 27.179688 C 59.050781 29.410156 55.230469 30.050781 51.898438 28.847656 C 51.054688 27.40625 50 26.105469 48.785156 24.976562 L 61.929688 24.976562 L 63.5 15.53125 L 58.410156 16.984375 L 55.34375 14.535156 L 52.285156 16.984375 L 47.199219 15.527344 L 48.769531 24.960938 C 47.875 24.140625 46.898438 23.410156 45.84375 22.789062 C 45.441406 21.679688 45.226562 20.523438 45.226562 19.351562 C 45.226562 17.015625 46.039062 14.738281 47.519531 12.933594 L 45.777344 11.511719 C 43.972656 13.710938 42.976562 16.496094 42.976562 19.351562 C 42.976562 20.089844 43.050781 20.8125 43.175781 21.535156 C 42.417969 21.253906 41.632812 21.007812 40.824219 20.839844 C 40.765625 20.3125 40.726562 19.8125 40.726562 19.351562 C 40.726562 11.285156 47.285156 4.726562 55.351562 4.726562 C 63.414062 4.726562 69.976562 11.285156 69.976562 19.351562 C 69.976562 27.414062 63.414062 33.976562 55.351562 33.976562 Z M 62.101562 59.851562 C 63.339844 59.851562 64.351562 60.859375 64.351562 62.101562 C 64.351562 63.339844 63.339844 64.351562 62.101562 64.351562 C 60.859375 64.351562 59.851562 63.339844 59.851562 62.101562 C 59.851562 60.859375 60.859375 59.851562 62.101562 59.851562 Z M 37.351562 51.976562 C 29.285156 51.976562 22.726562 45.414062 22.726562 37.351562 C 22.726562 29.285156 29.285156 22.726562 37.351562 22.726562 C 45.414062 22.726562 51.976562 29.285156 51.976562 37.351562 C 51.976562 45.414062 45.414062 51.976562 37.351562 51.976562 Z M 33.976562 55.351562 C 33.976562 63.414062 27.414062 69.976562 19.351562 69.976562 C 11.285156 69.976562 4.726562 63.414062 4.726562 55.351562 C 4.726562 47.285156 11.285156 40.726562 19.351562 40.726562 C 19.8125 40.726562 20.3125 40.765625 20.839844 40.820312 C 21.011719 41.648438 21.257812 42.4375 21.546875 43.210938 C 18.023438 42.59375 14.292969 43.503906 11.511719 45.777344 L 12.9375 47.519531 C 15.648438 45.289062 19.46875 44.648438 22.800781 45.851562 C 24.265625 48.355469 26.355469 50.441406 28.855469 51.910156 C 29.257812 53.019531 29.476562 54.175781 29.476562 55.351562 C 29.476562 57.683594 28.660156 59.960938 27.179688 61.761719 L 28.921875 63.191406 C 30.726562 60.988281 31.726562 58.203125 31.726562 55.351562 C 31.726562 54.613281 31.648438 53.886719 31.523438 53.164062 C 32.28125 53.445312 33.066406 53.691406 33.875 53.859375 C 33.933594 54.386719 33.976562 54.886719 33.976562 55.351562 Z M 12.601562 14.851562 C 11.359375 14.851562 10.351562 13.839844 10.351562 12.601562 C 10.351562 11.359375 11.359375 10.351562 12.601562 10.351562 C 13.839844 10.351562 14.851562 11.359375 14.851562 12.601562 C 14.851562 13.839844 13.839844 14.851562 12.601562 14.851562 Z M 63.226562 48.601562 C 63.84375 48.601562 64.351562 49.105469 64.351562 49.726562 C 64.351562 50.34375 63.84375 50.851562 63.226562 50.851562 C 62.605469 50.851562 62.101562 50.34375 62.101562 49.726562 C 62.101562 49.105469 62.605469 48.601562 63.226562 48.601562 Z M 50.851562 63.226562 C 50.851562 63.84375 50.34375 64.351562 49.726562 64.351562 C 49.105469 64.351562 48.601562 63.84375 48.601562 63.226562 C 48.601562 62.605469 49.105469 62.101562 49.726562 62.101562 C 50.34375 62.101562 50.851562 62.605469 50.851562 63.226562 Z M 11.476562 26.101562 C 10.855469 26.101562 10.351562 25.59375 10.351562 24.976562 C 10.351562 24.355469 10.855469 23.851562 11.476562 23.851562 C 12.09375 23.851562 12.601562 24.355469 12.601562 24.976562 C 12.601562 25.59375 12.09375 26.101562 11.476562 26.101562 Z M 23.851562 11.476562 C 23.851562 10.855469 24.355469 10.351562 24.976562 10.351562 C 25.59375 10.351562 26.101562 10.855469 26.101562 11.476562 C 26.101562 12.09375 25.59375 12.601562 24.976562 12.601562 C 24.355469 12.601562 23.851562 12.09375 23.851562 11.476562 Z M 55.351562 2.476562 C 46.042969 2.476562 38.476562 10.046875 38.476562 19.351562 C 38.476562 19.730469 38.496094 20.128906 38.527344 20.53125 C 38.136719 20.503906 37.746094 20.476562 37.351562 20.476562 C 34.523438 20.476562 31.859375 21.183594 29.519531 22.414062 L 26.984375 14.171875 C 27.808594 13.558594 28.351562 12.582031 28.351562 11.476562 C 28.351562 9.613281 26.839844 8.101562 24.976562 8.101562 C 23.113281 8.101562 21.601562 9.613281 21.601562 11.476562 C 21.601562 13.285156 23.035156 14.757812 24.828125 14.835938 L 27.542969 23.644531 C 27.097656 23.964844 26.667969 24.308594 26.257812 24.667969 L 16.460938 14.871094 C 16.859375 14.203125 17.101562 13.429688 17.101562 12.601562 C 17.101562 10.117188 15.082031 8.101562 12.601562 8.101562 C 10.117188 8.101562 8.101562 10.117188 8.101562 12.601562 C 8.101562 15.082031 10.117188 17.101562 12.601562 17.101562 C 13.429688 17.101562 14.199219 16.859375 14.871094 16.460938 L 24.664062 26.257812 C 24.308594 26.667969 23.964844 27.097656 23.644531 27.542969 L 14.835938 24.828125 C 14.757812 23.035156 13.289062 21.601562 11.476562 21.601562 C 9.613281 21.601562 8.101562 23.113281 8.101562 24.976562 C 8.101562 26.839844 9.613281 28.351562 11.476562 28.351562 C 12.582031 28.351562 13.558594 27.808594 14.171875 26.984375 L 22.417969 29.519531 C 21.183594 31.859375 20.476562 34.523438 20.476562 37.351562 C 20.476562 37.746094 20.511719 38.136719 20.53125 38.527344 C 20.128906 38.492188 19.730469 38.476562 19.351562 38.476562 C 10.046875 38.476562 2.476562 46.046875 2.476562 55.351562 C 2.476562 64.652344 10.046875 72.226562 19.351562 72.226562 C 28.65625 72.226562 36.226562 64.652344 36.226562 55.351562 C 36.226562 54.96875 36.203125 54.570312 36.171875 54.167969 C 36.5625 54.195312 36.953125 54.226562 37.351562 54.226562 C 40.175781 54.226562 42.839844 53.515625 45.179688 52.285156 L 47.714844 60.527344 C 46.890625 61.140625 46.351562 62.117188 46.351562 63.226562 C 46.351562 65.089844 47.863281 66.601562 49.726562 66.601562 C 51.589844 66.601562 53.101562 65.089844 53.101562 63.226562 C 53.101562 61.414062 51.664062 59.941406 49.871094 59.863281 L 47.160156 51.054688 C 47.601562 50.734375 48.03125 50.394531 48.441406 50.03125 L 58.238281 59.828125 C 57.839844 60.496094 57.601562 61.269531 57.601562 62.101562 C 57.601562 64.582031 59.617188 66.601562 62.101562 66.601562 C 64.582031 66.601562 66.601562 64.582031 66.601562 62.101562 C 66.601562 59.617188 64.582031 57.601562 62.101562 57.601562 C 61.269531 57.601562 60.5 57.839844 59.828125 58.238281 L 50.035156 48.441406 C 50.394531 48.03125 50.734375 47.601562 51.054688 47.160156 L 59.863281 49.871094 C 59.941406 51.664062 61.414062 53.101562 63.226562 53.101562 C 65.089844 53.101562 66.601562 51.589844 66.601562 49.726562 C 66.601562 47.863281 65.089844 46.351562 63.226562 46.351562 C 62.117188 46.351562 61.140625 46.890625 60.527344 47.714844 L 52.285156 45.179688 C 53.515625 42.839844 54.226562 40.175781 54.226562 37.351562 C 54.226562 36.953125 54.191406 36.5625 54.167969 36.171875 C 54.570312 36.207031 54.96875 36.226562 55.351562 36.226562 C 64.65625 36.226562 72.226562 28.652344 72.226562 19.351562 C 72.226562 10.046875 64.65625 2.476562 55.351562 2.476562 Z M 25.765625 63.179688 L 27.191406 64.921875 C 24.988281 66.726562 22.203125 67.726562 19.351562 67.726562 C 12.523438 67.726562 6.976562 62.175781 6.976562 55.351562 C 6.976562 52.496094 7.972656 49.710938 9.777344 47.511719 L 11.519531 48.933594 C 10.039062 50.738281 9.226562 53.015625 9.226562 55.351562 C 9.226562 60.929688 13.765625 65.476562 19.351562 65.476562 C 21.683594 65.476562 23.960938 64.660156 25.765625 63.179688 Z M 49.726562 37.351562 C 49.726562 40.203125 48.726562 42.988281 46.921875 45.191406 L 45.179688 43.765625 C 46.660156 41.960938 47.476562 39.683594 47.476562 37.351562 C 47.476562 31.769531 42.933594 27.226562 37.351562 27.226562 C 35.015625 27.226562 32.738281 28.039062 30.933594 29.519531 L 29.511719 27.777344 C 31.710938 25.972656 34.496094 24.976562 37.351562 24.976562 C 44.175781 24.976562 49.726562 30.523438 49.726562 37.351562 Z M 43.765625 45.179688 L 45.191406 46.921875 C 42.988281 48.726562 40.203125 49.726562 37.351562 49.726562 C 30.523438 49.726562 24.976562 44.175781 24.976562 37.351562 C 24.976562 34.496094 25.972656 31.710938 27.777344 29.511719 L 29.519531 30.933594 C 28.039062 32.738281 27.226562 35.015625 27.226562 37.351562 C 27.226562 42.929688 31.765625 47.476562 37.351562 47.476562 C 39.683594 47.476562 41.960938 46.660156 43.765625 45.179688 Z M 37.351562 36.226562 L 36.226562 36.226562 L 36.226562 33.976562 L 37.351562 33.976562 C 37.96875 33.976562 38.476562 34.480469 38.476562 35.101562 C 38.476562 35.71875 37.96875 36.226562 37.351562 36.226562 Z M 37.351562 40.726562 L 36.226562 40.726562 L 36.226562 38.476562 L 37.351562 38.476562 C 37.96875 38.476562 38.476562 38.980469 38.476562 39.601562 C 38.476562 40.21875 37.96875 40.726562 37.351562 40.726562 Z M 36.226562 29.476562 L 36.226562 31.726562 L 33.976562 31.726562 L 33.976562 42.976562 L 36.226562 42.976562 L 36.226562 45.226562 L 38.476562 45.226562 L 38.476562 42.769531 C 39.78125 42.300781 40.726562 41.0625 40.726562 39.601562 C 40.726562 38.734375 40.398438 37.949219 39.863281 37.351562 C 40.398438 36.753906 40.726562 35.964844 40.726562 35.101562 C 40.726562 33.636719 39.78125 32.398438 38.476562 31.929688 L 38.476562 29.476562 Z M 36.226562 29.476562 " clip-rule="nonzero"/></clipPath><clipPath id="id3"><path d="M 18.226562 55.351562 L 18.226562 59.851562 L 14.851562 55.351562 Z M 17.101562 53.101562 L 14.851562 53.101562 L 15.976562 51.601562 Z M 19.351562 52.347656 L 18.226562 50.851562 L 20.476562 50.851562 Z M 21.601562 53.101562 L 22.726562 51.601562 L 23.851562 53.101562 Z M 20.476562 55.351562 L 23.851562 55.351562 L 20.476562 59.851562 Z M 19.351562 65.101562 L 27.507812 54.226562 L 23.289062 48.601562 L 15.414062 48.601562 L 11.195312 54.226562 Z M 67.726562 19.351562 C 67.726562 22.203125 66.726562 24.988281 64.921875 27.191406 L 63.179688 25.765625 C 64.660156 23.960938 65.476562 21.683594 65.476562 19.351562 C 65.476562 13.769531 60.933594 9.226562 55.351562 9.226562 C 53.015625 9.226562 50.738281 10.039062 48.933594 11.519531 L 47.511719 9.777344 C 49.710938 7.972656 52.496094 6.976562 55.351562 6.976562 C 62.175781 6.976562 67.726562 12.523438 67.726562 19.351562 Z M 50 18.671875 L 52.785156 19.464844 L 55.34375 17.417969 L 57.910156 19.464844 L 60.699219 18.667969 L 60.019531 22.726562 L 50.679688 22.726562 Z M 55.351562 33.976562 C 54.886719 33.976562 54.386719 33.933594 53.859375 33.878906 C 53.691406 33.066406 53.445312 32.289062 53.164062 31.523438 C 53.886719 31.65625 54.613281 31.726562 55.351562 31.726562 C 58.203125 31.726562 60.988281 30.726562 63.191406 28.921875 L 61.765625 27.179688 C 59.050781 29.410156 55.230469 30.050781 51.898438 28.847656 C 51.054688 27.40625 50 26.105469 48.785156 24.976562 L 61.929688 24.976562 L 63.5 15.53125 L 58.410156 16.984375 L 55.34375 14.535156 L 52.285156 16.984375 L 47.199219 15.527344 L 48.769531 24.960938 C 47.875 24.140625 46.898438 23.410156 45.84375 22.789062 C 45.441406 21.679688 45.226562 20.523438 45.226562 19.351562 C 45.226562 17.015625 46.039062 14.738281 47.519531 12.933594 L 45.777344 11.511719 C 43.972656 13.710938 42.976562 16.496094 42.976562 19.351562 C 42.976562 20.089844 43.050781 20.8125 43.175781 21.535156 C 42.417969 21.253906 41.632812 21.007812 40.824219 20.839844 C 40.765625 20.3125 40.726562 19.8125 40.726562 19.351562 C 40.726562 11.285156 47.285156 4.726562 55.351562 4.726562 C 63.414062 4.726562 69.976562 11.285156 69.976562 19.351562 C 69.976562 27.414062 63.414062 33.976562 55.351562 33.976562 Z M 62.101562 59.851562 C 63.339844 59.851562 64.351562 60.859375 64.351562 62.101562 C 64.351562 63.339844 63.339844 64.351562 62.101562 64.351562 C 60.859375 64.351562 59.851562 63.339844 59.851562 62.101562 C 59.851562 60.859375 60.859375 59.851562 62.101562 59.851562 Z M 37.351562 51.976562 C 29.285156 51.976562 22.726562 45.414062 22.726562 37.351562 C 22.726562 29.285156 29.285156 22.726562 37.351562 22.726562 C 45.414062 22.726562 51.976562 29.285156 51.976562 37.351562 C 51.976562 45.414062 45.414062 51.976562 37.351562 51.976562 Z M 33.976562 55.351562 C 33.976562 63.414062 27.414062 69.976562 19.351562 69.976562 C 11.285156 69.976562 4.726562 63.414062 4.726562 55.351562 C 4.726562 47.285156 11.285156 40.726562 19.351562 40.726562 C 19.8125 40.726562 20.3125 40.765625 20.839844 40.820312 C 21.011719 41.648438 21.257812 42.4375 21.546875 43.210938 C 18.023438 42.59375 14.292969 43.503906 11.511719 45.777344 L 12.9375 47.519531 C 15.648438 45.289062 19.46875 44.648438 22.800781 45.851562 C 24.265625 48.355469 26.355469 50.441406 28.855469 51.910156 C 29.257812 53.019531 29.476562 54.175781 29.476562 55.351562 C 29.476562 57.683594 28.660156 59.960938 27.179688 61.761719 L 28.921875 63.191406 C 30.726562 60.988281 31.726562 58.203125 31.726562 55.351562 C 31.726562 54.613281 31.648438 53.886719 31.523438 53.164062 C 32.28125 53.445312 33.066406 53.691406 33.875 53.859375 C 33.933594 54.386719 33.976562 54.886719 33.976562 55.351562 Z M 12.601562 14.851562 C 11.359375 14.851562 10.351562 13.839844 10.351562 12.601562 C 10.351562 11.359375 11.359375 10.351562 12.601562 10.351562 C 13.839844 10.351562 14.851562 11.359375 14.851562 12.601562 C 14.851562 13.839844 13.839844 14.851562 12.601562 14.851562 Z M 63.226562 48.601562 C 63.84375 48.601562 64.351562 49.105469 64.351562 49.726562 C 64.351562 50.34375 63.84375 50.851562 63.226562 50.851562 C 62.605469 50.851562 62.101562 50.34375 62.101562 49.726562 C 62.101562 49.105469 62.605469 48.601562 63.226562 48.601562 Z M 50.851562 63.226562 C 50.851562 63.84375 50.34375 64.351562 49.726562 64.351562 C 49.105469 64.351562 48.601562 63.84375 48.601562 63.226562 C 48.601562 62.605469 49.105469 62.101562 49.726562 62.101562 C 50.34375 62.101562 50.851562 62.605469 50.851562 63.226562 Z M 11.476562 26.101562 C 10.855469 26.101562 10.351562 25.59375 10.351562 24.976562 C 10.351562 24.355469 10.855469 23.851562 11.476562 23.851562 C 12.09375 23.851562 12.601562 24.355469 12.601562 24.976562 C 12.601562 25.59375 12.09375 26.101562 11.476562 26.101562 Z M 23.851562 11.476562 C 23.851562 10.855469 24.355469 10.351562 24.976562 10.351562 C 25.59375 10.351562 26.101562 10.855469 26.101562 11.476562 C 26.101562 12.09375 25.59375 12.601562 24.976562 12.601562 C 24.355469 12.601562 23.851562 12.09375 23.851562 11.476562 Z M 55.351562 2.476562 C 46.042969 2.476562 38.476562 10.046875 38.476562 19.351562 C 38.476562 19.730469 38.496094 20.128906 38.527344 20.53125 C 38.136719 20.503906 37.746094 20.476562 37.351562 20.476562 C 34.523438 20.476562 31.859375 21.183594 29.519531 22.414062 L 26.984375 14.171875 C 27.808594 13.558594 28.351562 12.582031 28.351562 11.476562 C 28.351562 9.613281 26.839844 8.101562 24.976562 8.101562 C 23.113281 8.101562 21.601562 9.613281 21.601562 11.476562 C 21.601562 13.285156 23.035156 14.757812 24.828125 14.835938 L 27.542969 23.644531 C 27.097656 23.964844 26.667969 24.308594 26.257812 24.667969 L 16.460938 14.871094 C 16.859375 14.203125 17.101562 13.429688 17.101562 12.601562 C 17.101562 10.117188 15.082031 8.101562 12.601562 8.101562 C 10.117188 8.101562 8.101562 10.117188 8.101562 12.601562 C 8.101562 15.082031 10.117188 17.101562 12.601562 17.101562 C 13.429688 17.101562 14.199219 16.859375 14.871094 16.460938 L 24.664062 26.257812 C 24.308594 26.667969 23.964844 27.097656 23.644531 27.542969 L 14.835938 24.828125 C 14.757812 23.035156 13.289062 21.601562 11.476562 21.601562 C 9.613281 21.601562 8.101562 23.113281 8.101562 24.976562 C 8.101562 26.839844 9.613281 28.351562 11.476562 28.351562 C 12.582031 28.351562 13.558594 27.808594 14.171875 26.984375 L 22.417969 29.519531 C 21.183594 31.859375 20.476562 34.523438 20.476562 37.351562 C 20.476562 37.746094 20.511719 38.136719 20.53125 38.527344 C 20.128906 38.492188 19.730469 38.476562 19.351562 38.476562 C 10.046875 38.476562 2.476562 46.046875 2.476562 55.351562 C 2.476562 64.652344 10.046875 72.226562 19.351562 72.226562 C 28.65625 72.226562 36.226562 64.652344 36.226562 55.351562 C 36.226562 54.96875 36.203125 54.570312 36.171875 54.167969 C 36.5625 54.195312 36.953125 54.226562 37.351562 54.226562 C 40.175781 54.226562 42.839844 53.515625 45.179688 52.285156 L 47.714844 60.527344 C 46.890625 61.140625 46.351562 62.117188 46.351562 63.226562 C 46.351562 65.089844 47.863281 66.601562 49.726562 66.601562 C 51.589844 66.601562 53.101562 65.089844 53.101562 63.226562 C 53.101562 61.414062 51.664062 59.941406 49.871094 59.863281 L 47.160156 51.054688 C 47.601562 50.734375 48.03125 50.394531 48.441406 50.03125 L 58.238281 59.828125 C 57.839844 60.496094 57.601562 61.269531 57.601562 62.101562 C 57.601562 64.582031 59.617188 66.601562 62.101562 66.601562 C 64.582031 66.601562 66.601562 64.582031 66.601562 62.101562 C 66.601562 59.617188 64.582031 57.601562 62.101562 57.601562 C 61.269531 57.601562 60.5 57.839844 59.828125 58.238281 L 50.035156 48.441406 C 50.394531 48.03125 50.734375 47.601562 51.054688 47.160156 L 59.863281 49.871094 C 59.941406 51.664062 61.414062 53.101562 63.226562 53.101562 C 65.089844 53.101562 66.601562 51.589844 66.601562 49.726562 C 66.601562 47.863281 65.089844 46.351562 63.226562 46.351562 C 62.117188 46.351562 61.140625 46.890625 60.527344 47.714844 L 52.285156 45.179688 C 53.515625 42.839844 54.226562 40.175781 54.226562 37.351562 C 54.226562 36.953125 54.191406 36.5625 54.167969 36.171875 C 54.570312 36.207031 54.96875 36.226562 55.351562 36.226562 C 64.65625 36.226562 72.226562 28.652344 72.226562 19.351562 C 72.226562 10.046875 64.65625 2.476562 55.351562 2.476562 Z M 25.765625 63.179688 L 27.191406 64.921875 C 24.988281 66.726562 22.203125 67.726562 19.351562 67.726562 C 12.523438 67.726562 6.976562 62.175781 6.976562 55.351562 C 6.976562 52.496094 7.972656 49.710938 9.777344 47.511719 L 11.519531 48.933594 C 10.039062 50.738281 9.226562 53.015625 9.226562 55.351562 C 9.226562 60.929688 13.765625 65.476562 19.351562 65.476562 C 21.683594 65.476562 23.960938 64.660156 25.765625 63.179688 Z M 49.726562 37.351562 C 49.726562 40.203125 48.726562 42.988281 46.921875 45.191406 L 45.179688 43.765625 C 46.660156 41.960938 47.476562 39.683594 47.476562 37.351562 C 47.476562 31.769531 42.933594 27.226562 37.351562 27.226562 C 35.015625 27.226562 32.738281 28.039062 30.933594 29.519531 L 29.511719 27.777344 C 31.710938 25.972656 34.496094 24.976562 37.351562 24.976562 C 44.175781 24.976562 49.726562 30.523438 49.726562 37.351562 Z M 43.765625 45.179688 L 45.191406 46.921875 C 42.988281 48.726562 40.203125 49.726562 37.351562 49.726562 C 30.523438 49.726562 24.976562 44.175781 24.976562 37.351562 C 24.976562 34.496094 25.972656 31.710938 27.777344 29.511719 L 29.519531 30.933594 C 28.039062 32.738281 27.226562 35.015625 27.226562 37.351562 C 27.226562 42.929688 31.765625 47.476562 37.351562 47.476562 C 39.683594 47.476562 41.960938 46.660156 43.765625 45.179688 Z M 37.351562 36.226562 L 36.226562 36.226562 L 36.226562 33.976562 L 37.351562 33.976562 C 37.96875 33.976562 38.476562 34.480469 38.476562 35.101562 C 38.476562 35.71875 37.96875 36.226562 37.351562 36.226562 Z M 37.351562 40.726562 L 36.226562 40.726562 L 36.226562 38.476562 L 37.351562 38.476562 C 37.96875 38.476562 38.476562 38.980469 38.476562 39.601562 C 38.476562 40.21875 37.96875 40.726562 37.351562 40.726562 Z M 36.226562 29.476562 L 36.226562 31.726562 L 33.976562 31.726562 L 33.976562 42.976562 L 36.226562 42.976562 L 36.226562 45.226562 L 38.476562 45.226562 L 38.476562 42.769531 C 39.78125 42.300781 40.726562 41.0625 40.726562 39.601562 C 40.726562 38.734375 40.398438 37.949219 39.863281 37.351562 C 40.398438 36.753906 40.726562 35.964844 40.726562 35.101562 C 40.726562 33.636719 39.78125 32.398438 38.476562 31.929688 L 38.476562 29.476562 L 36.226562 29.476562 " clip-rule="nonzero"/></clipPath><linearGradient x1="0.0000000230735" gradientTransform="matrix(0, -69.749997, 69.749997, 0, 37.349998, 72.224995)" y1="0" x2="1" gradientUnits="userSpaceOnUse" y2="0" xlink:type="simple" xlink:actuate="onLoad" id="id4" xlink:show="other"><stop stop-opacity="1" stop-color="rgb(62.399292%, 18.399048%, 100%)" offset="0"/><stop stop-opacity="1" stop-color="rgb(62.199402%, 18.598938%, 100%)" offset="0.00390625"/><stop stop-opacity="1" stop-color="rgb(61.999512%, 18.798828%, 100%)" offset="0.0078125"/><stop stop-opacity="1" stop-color="rgb(61.799622%, 18.998718%, 99.798584%)" offset="0.0117188"/><stop stop-opacity="1" stop-color="rgb(61.599731%, 19.198608%, 99.598694%)" offset="0.015625"/><stop stop-opacity="1" stop-color="rgb(61.376953%, 19.419861%, 99.598694%)" offset="0.0195312"/><stop stop-opacity="1" stop-color="rgb(61.155701%, 19.642639%, 99.598694%)" offset="0.0234375"/><stop stop-opacity="1" stop-color="rgb(60.777283%, 19.833374%, 99.586487%)" offset="0.0273438"/><stop stop-opacity="1" stop-color="rgb(60.398865%, 20.024109%, 99.57428%)" offset="0.03125"/><stop stop-opacity="1" stop-color="rgb(60.198975%, 20.214844%, 99.386597%)" offset="0.0351562"/><stop stop-opacity="1" stop-color="rgb(59.999084%, 20.405579%, 99.198914%)" offset="0.0390625"/><stop stop-opacity="1" stop-color="rgb(59.805298%, 20.602417%, 99.198914%)" offset="0.0429688"/><stop stop-opacity="1" stop-color="rgb(59.611511%, 20.799255%, 99.198914%)" offset="0.046875"/><stop stop-opacity="1" stop-color="rgb(59.405518%, 20.999146%, 99.198914%)" offset="0.0507812"/><stop stop-opacity="1" stop-color="rgb(59.199524%, 21.199036%, 99.198914%)" offset="0.0546875"/><stop stop-opacity="1" stop-color="rgb(58.999634%, 21.398926%, 98.999023%)" offset="0.0585938"/><stop stop-opacity="1" stop-color="rgb(58.799744%, 21.598816%, 98.799133%)" offset="0.0625"/><stop stop-opacity="1" stop-color="rgb(58.583069%, 21.813965%, 98.799133%)" offset="0.0664062"/><stop stop-opacity="1" stop-color="rgb(58.36792%, 22.03064%, 98.799133%)" offset="0.0703125"/><stop stop-opacity="1" stop-color="rgb(57.983398%, 22.219849%, 98.79303%)" offset="0.0742188"/><stop stop-opacity="1" stop-color="rgb(57.598877%, 22.409058%, 98.786926%)" offset="0.078125"/><stop stop-opacity="1" stop-color="rgb(57.450867%, 22.554016%, 98.59314%)" offset="0.0859375"/><stop stop-opacity="1" stop-color="rgb(57.113647%, 22.898865%, 98.399353%)" offset="0.0898438"/><stop stop-opacity="1" stop-color="rgb(56.924438%, 23.098755%, 98.399353%)" offset="0.09375"/><stop stop-opacity="1" stop-color="rgb(56.733704%, 23.298645%, 98.399353%)" offset="0.0976562"/><stop stop-opacity="1" stop-color="rgb(56.542969%, 23.498535%, 98.399353%)" offset="0.101562"/><stop stop-opacity="1" stop-color="rgb(56.30188%, 23.716736%, 98.199463%)" offset="0.105469"/><stop stop-opacity="1" stop-color="rgb(56.062317%, 23.936462%, 97.999573%)" offset="0.109375"/><stop stop-opacity="1" stop-color="rgb(55.871582%, 24.127197%, 97.999573%)" offset="0.117188"/><stop stop-opacity="1" stop-color="rgb(55.290222%, 24.508667%, 97.799683%)" offset="0.121094"/><stop stop-opacity="1" stop-color="rgb(54.899597%, 24.699402%, 97.599792%)" offset="0.125"/><stop stop-opacity="1" stop-color="rgb(54.708862%, 24.899292%, 97.599792%)" offset="0.128906"/><stop stop-opacity="1" stop-color="rgb(54.518127%, 25.099182%, 97.599792%)" offset="0.132812"/><stop stop-opacity="1" stop-color="rgb(54.327393%, 25.299072%, 97.599792%)" offset="0.136719"/><stop stop-opacity="1" stop-color="rgb(54.136658%, 25.498962%, 97.599792%)" offset="0.140625"/><stop stop-opacity="1" stop-color="rgb(53.895569%, 25.720215%, 97.44873%)" offset="0.144531"/><stop stop-opacity="1" stop-color="rgb(53.656006%, 25.942993%, 97.299194%)" offset="0.148438"/><stop stop-opacity="1" stop-color="rgb(53.465271%, 26.133728%, 97.299194%)" offset="0.15625"/><stop stop-opacity="1" stop-color="rgb(53.083801%, 26.515198%, 97.299194%)" offset="0.164062"/><stop stop-opacity="1" stop-color="rgb(52.696228%, 26.902771%, 97.105408%)" offset="0.167969"/><stop stop-opacity="1" stop-color="rgb(52.49939%, 27.099609%, 96.911621%)" offset="0.171875"/><stop stop-opacity="1" stop-color="rgb(52.165222%, 27.2995%, 96.905518%)" offset="0.175781"/><stop stop-opacity="1" stop-color="rgb(51.831055%, 27.49939%, 96.899414%)" offset="0.179688"/><stop stop-opacity="1" stop-color="rgb(51.64032%, 27.648926%, 96.899414%)" offset="0.1875"/><stop stop-opacity="1" stop-color="rgb(51.223755%, 28.015137%, 96.699524%)" offset="0.191406"/><stop stop-opacity="1" stop-color="rgb(50.999451%, 28.230286%, 96.499634%)" offset="0.195312"/><stop stop-opacity="1" stop-color="rgb(50.793457%, 28.421021%, 96.499634%)" offset="0.199219"/><stop stop-opacity="1" stop-color="rgb(50.587463%, 28.611755%, 96.499634%)" offset="0.203125"/><stop stop-opacity="1" stop-color="rgb(50.393677%, 28.805542%, 96.499634%)" offset="0.210938"/><stop stop-opacity="1" stop-color="rgb(49.998474%, 29.199219%, 96.311951%)" offset="0.214844"/><stop stop-opacity="1" stop-color="rgb(49.798584%, 29.399109%, 96.124268%)" offset="0.21875"/><stop stop-opacity="1" stop-color="rgb(49.420166%, 29.598999%, 96.112061%)" offset="0.222656"/><stop stop-opacity="1" stop-color="rgb(49.043274%, 29.798889%, 96.099854%)" offset="0.226562"/><stop stop-opacity="1" stop-color="rgb(48.820496%, 30.01709%, 96.099854%)" offset="0.230469"/><stop stop-opacity="1" stop-color="rgb(48.599243%, 30.236816%, 96.099854%)" offset="0.234375"/><stop stop-opacity="1" stop-color="rgb(48.399353%, 30.427551%, 95.898438%)" offset="0.238281"/><stop stop-opacity="1" stop-color="rgb(48.199463%, 30.618286%, 95.698547%)" offset="0.242188"/><stop stop-opacity="1" stop-color="rgb(47.999573%, 30.809021%, 95.698547%)" offset="0.246094"/><stop stop-opacity="1" stop-color="rgb(47.799683%, 30.999756%, 95.698547%)" offset="0.25"/><stop stop-opacity="1" stop-color="rgb(47.648621%, 31.390381%, 95.698547%)" offset="0.253906"/><stop stop-opacity="1" stop-color="rgb(47.499084%, 31.781006%, 95.698547%)" offset="0.257812"/><stop stop-opacity="1" stop-color="rgb(47.299194%, 31.971741%, 95.498657%)" offset="0.261719"/><stop stop-opacity="1" stop-color="rgb(47.099304%, 32.162476%, 95.298767%)" offset="0.265625"/><stop stop-opacity="1" stop-color="rgb(46.876526%, 32.330322%, 95.298767%)" offset="0.269531"/><stop stop-opacity="1" stop-color="rgb(46.655273%, 32.499695%, 95.298767%)" offset="0.273438"/><stop stop-opacity="1" stop-color="rgb(46.276855%, 32.699585%, 95.28656%)" offset="0.277344"/><stop stop-opacity="1" stop-color="rgb(45.899963%, 32.899475%, 95.274353%)" offset="0.28125"/><stop stop-opacity="1" stop-color="rgb(45.698547%, 33.099365%, 95.08667%)" offset="0.285156"/><stop stop-opacity="1" stop-color="rgb(45.498657%, 33.299255%, 94.898987%)" offset="0.289062"/><stop stop-opacity="1" stop-color="rgb(45.304871%, 33.493042%, 94.898987%)" offset="0.296875"/><stop stop-opacity="1" stop-color="rgb(44.90509%, 33.877563%, 94.898987%)" offset="0.300781"/><stop stop-opacity="1" stop-color="rgb(44.699097%, 34.068298%, 94.898987%)" offset="0.304688"/><stop stop-opacity="1" stop-color="rgb(44.499207%, 34.259033%, 94.699097%)" offset="0.308594"/><stop stop-opacity="1" stop-color="rgb(44.299316%, 34.449768%, 94.499207%)" offset="0.3125"/><stop stop-opacity="1" stop-color="rgb(44.082642%, 34.674072%, 94.499207%)" offset="0.316406"/><stop stop-opacity="1" stop-color="rgb(43.867493%, 34.899902%, 94.499207%)" offset="0.320312"/><stop stop-opacity="1" stop-color="rgb(43.482971%, 35.099792%, 94.493103%)" offset="0.324219"/><stop stop-opacity="1" stop-color="rgb(43.099976%, 35.299683%, 94.487%)" offset="0.328125"/><stop stop-opacity="1" stop-color="rgb(42.901611%, 35.496521%, 94.293213%)" offset="0.332031"/><stop stop-opacity="1" stop-color="rgb(42.704773%, 35.693359%, 94.099426%)" offset="0.335938"/><stop stop-opacity="1" stop-color="rgb(42.56134%, 35.884094%, 94.099426%)" offset="0.34375"/><stop stop-opacity="1" stop-color="rgb(42.230225%, 36.264038%, 94.099426%)" offset="0.351562"/><stop stop-opacity="1" stop-color="rgb(41.801453%, 36.676025%, 93.899536%)" offset="0.355469"/><stop stop-opacity="1" stop-color="rgb(41.56189%, 36.898804%, 93.699646%)" offset="0.359375"/><stop stop-opacity="1" stop-color="rgb(41.371155%, 37.098694%, 93.699646%)" offset="0.363281"/><stop stop-opacity="1" stop-color="rgb(41.18042%, 37.298584%, 93.699646%)" offset="0.367188"/><stop stop-opacity="1" stop-color="rgb(40.789795%, 37.44812%, 93.499756%)" offset="0.371094"/><stop stop-opacity="1" stop-color="rgb(40.39917%, 37.599182%, 93.299866%)" offset="0.375"/><stop stop-opacity="1" stop-color="rgb(40.208435%, 37.789917%, 93.299866%)" offset="0.382812"/><stop stop-opacity="1" stop-color="rgb(39.826965%, 38.171387%, 93.299866%)" offset="0.390625"/><stop stop-opacity="1" stop-color="rgb(39.395142%, 38.580322%, 93.09845%)" offset="0.394531"/><stop stop-opacity="1" stop-color="rgb(39.155579%, 38.798523%, 92.89856%)" offset="0.398438"/><stop stop-opacity="1" stop-color="rgb(38.964844%, 38.998413%, 92.89856%)" offset="0.402344"/><stop stop-opacity="1" stop-color="rgb(38.774109%, 39.199829%, 92.89856%)" offset="0.40625"/><stop stop-opacity="1" stop-color="rgb(38.583374%, 39.399719%, 92.89856%)" offset="0.410156"/><stop stop-opacity="1" stop-color="rgb(38.392639%, 39.599609%, 92.89856%)" offset="0.414062"/><stop stop-opacity="1" stop-color="rgb(38.195801%, 39.793396%, 92.704773%)" offset="0.417969"/><stop stop-opacity="1" stop-color="rgb(37.998962%, 39.987183%, 92.510986%)" offset="0.421875"/><stop stop-opacity="1" stop-color="rgb(37.660217%, 40.177917%, 92.504883%)" offset="0.425781"/><stop stop-opacity="1" stop-color="rgb(37.322998%, 40.368652%, 92.498779%)" offset="0.429688"/><stop stop-opacity="1" stop-color="rgb(37.135315%, 40.557861%, 92.498779%)" offset="0.4375"/><stop stop-opacity="1" stop-color="rgb(36.723328%, 40.9729%, 92.349243%)" offset="0.441406"/><stop stop-opacity="1" stop-color="rgb(36.499023%, 41.19873%, 92.199707%)" offset="0.445312"/><stop stop-opacity="1" stop-color="rgb(36.29303%, 41.398621%, 92.199707%)" offset="0.449219"/><stop stop-opacity="1" stop-color="rgb(36.087036%, 41.598511%, 92.199707%)" offset="0.453125"/><stop stop-opacity="1" stop-color="rgb(35.89325%, 41.795349%, 92.199707%)" offset="0.457031"/><stop stop-opacity="1" stop-color="rgb(35.699463%, 41.993713%, 92.199707%)" offset="0.460938"/><stop stop-opacity="1" stop-color="rgb(35.499573%, 42.182922%, 92.012024%)" offset="0.464844"/><stop stop-opacity="1" stop-color="rgb(35.299683%, 42.373657%, 91.824341%)" offset="0.46875"/><stop stop-opacity="1" stop-color="rgb(34.921265%, 42.520142%, 91.812134%)" offset="0.472656"/><stop stop-opacity="1" stop-color="rgb(34.542847%, 42.666626%, 91.799927%)" offset="0.476562"/><stop stop-opacity="1" stop-color="rgb(34.320068%, 42.883301%, 91.799927%)" offset="0.480469"/><stop stop-opacity="1" stop-color="rgb(34.098816%, 43.099976%, 91.799927%)" offset="0.484375"/><stop stop-opacity="1" stop-color="rgb(33.898926%, 43.299866%, 91.598511%)" offset="0.488281"/><stop stop-opacity="1" stop-color="rgb(33.699036%, 43.499756%, 91.398621%)" offset="0.492188"/><stop stop-opacity="1" stop-color="rgb(33.499146%, 43.699646%, 91.398621%)" offset="0.496094"/><stop stop-opacity="1" stop-color="rgb(33.299255%, 43.899536%, 91.398621%)" offset="0.5"/><stop stop-opacity="1" stop-color="rgb(33.099365%, 44.099426%, 91.398621%)" offset="0.503906"/><stop stop-opacity="1" stop-color="rgb(32.899475%, 44.299316%, 91.398621%)" offset="0.507812"/><stop stop-opacity="1" stop-color="rgb(32.699585%, 44.499207%, 91.19873%)" offset="0.511719"/><stop stop-opacity="1" stop-color="rgb(32.499695%, 44.699097%, 90.99884%)" offset="0.515625"/><stop stop-opacity="1" stop-color="rgb(32.327271%, 44.920349%, 90.99884%)" offset="0.519531"/><stop stop-opacity="1" stop-color="rgb(32.154846%, 45.143127%, 90.99884%)" offset="0.523438"/><stop stop-opacity="1" stop-color="rgb(31.776428%, 45.333862%, 90.986633%)" offset="0.527344"/><stop stop-opacity="1" stop-color="rgb(31.399536%, 45.524597%, 90.974426%)" offset="0.53125"/><stop stop-opacity="1" stop-color="rgb(31.199646%, 45.715332%, 90.786743%)" offset="0.535156"/><stop stop-opacity="1" stop-color="rgb(30.999756%, 45.906067%, 90.59906%)" offset="0.539062"/><stop stop-opacity="1" stop-color="rgb(30.805969%, 46.102905%, 90.59906%)" offset="0.542969"/><stop stop-opacity="1" stop-color="rgb(30.612183%, 46.299744%, 90.59906%)" offset="0.546875"/><stop stop-opacity="1" stop-color="rgb(30.404663%, 46.499634%, 90.59906%)" offset="0.550781"/><stop stop-opacity="1" stop-color="rgb(30.198669%, 46.699524%, 90.59906%)" offset="0.554688"/><stop stop-opacity="1" stop-color="rgb(29.998779%, 46.899414%, 90.39917%)" offset="0.558594"/><stop stop-opacity="1" stop-color="rgb(29.798889%, 47.099304%, 90.19928%)" offset="0.5625"/><stop stop-opacity="1" stop-color="rgb(29.58374%, 47.309875%, 90.19928%)" offset="0.566406"/><stop stop-opacity="1" stop-color="rgb(29.368591%, 47.521973%, 90.19928%)" offset="0.570312"/><stop stop-opacity="1" stop-color="rgb(28.98407%, 47.666931%, 90.193176%)" offset="0.574219"/><stop stop-opacity="1" stop-color="rgb(28.599548%, 47.81189%, 90.187073%)" offset="0.578125"/><stop stop-opacity="1" stop-color="rgb(28.40271%, 48.005676%, 89.993286%)" offset="0.582031"/><stop stop-opacity="1" stop-color="rgb(28.205872%, 48.199463%, 89.7995%)" offset="0.585938"/><stop stop-opacity="1" stop-color="rgb(28.015137%, 48.399353%, 89.7995%)" offset="0.589844"/><stop stop-opacity="1" stop-color="rgb(27.824402%, 48.599243%, 89.7995%)" offset="0.59375"/><stop stop-opacity="1" stop-color="rgb(27.677917%, 48.799133%, 89.7995%)" offset="0.597656"/><stop stop-opacity="1" stop-color="rgb(27.531433%, 48.999023%, 89.7995%)" offset="0.601562"/><stop stop-opacity="1" stop-color="rgb(27.296448%, 49.217224%, 89.599609%)" offset="0.605469"/><stop stop-opacity="1" stop-color="rgb(27.061462%, 49.436951%, 89.399719%)" offset="0.609375"/><stop stop-opacity="1" stop-color="rgb(26.870728%, 49.627686%, 89.399719%)" offset="0.617188"/><stop stop-opacity="1" stop-color="rgb(26.289368%, 50.009155%, 89.199829%)" offset="0.621094"/><stop stop-opacity="1" stop-color="rgb(25.898743%, 50.19989%, 88.999939%)" offset="0.625"/><stop stop-opacity="1" stop-color="rgb(25.708008%, 50.39978%, 88.999939%)" offset="0.628906"/><stop stop-opacity="1" stop-color="rgb(25.517273%, 50.59967%, 88.999939%)" offset="0.632812"/><stop stop-opacity="1" stop-color="rgb(25.326538%, 50.799561%, 88.999939%)" offset="0.636719"/><stop stop-opacity="1" stop-color="rgb(25.137329%, 50.999451%, 88.999939%)" offset="0.640625"/><stop stop-opacity="1" stop-color="rgb(24.89624%, 51.220703%, 88.798523%)" offset="0.644531"/><stop stop-opacity="1" stop-color="rgb(24.655151%, 51.443481%, 88.598633%)" offset="0.648438"/><stop stop-opacity="1" stop-color="rgb(24.464417%, 51.634216%, 88.598633%)" offset="0.65625"/><stop stop-opacity="1" stop-color="rgb(24.082947%, 52.01416%, 88.598633%)" offset="0.664062"/><stop stop-opacity="1" stop-color="rgb(23.695374%, 52.351379%, 88.404846%)" offset="0.667969"/><stop stop-opacity="1" stop-color="rgb(23.498535%, 52.49939%, 88.21106%)" offset="0.671875"/><stop stop-opacity="1" stop-color="rgb(23.114014%, 52.69928%, 88.204956%)" offset="0.675781"/><stop stop-opacity="1" stop-color="rgb(22.731018%, 52.89917%, 88.198853%)" offset="0.679688"/><stop stop-opacity="1" stop-color="rgb(22.583008%, 53.09906%, 88.198853%)" offset="0.683594"/><stop stop-opacity="1" stop-color="rgb(22.436523%, 53.29895%, 88.198853%)" offset="0.6875"/><stop stop-opacity="1" stop-color="rgb(22.216797%, 53.514099%, 87.998962%)" offset="0.691406"/><stop stop-opacity="1" stop-color="rgb(21.998596%, 53.730774%, 87.799072%)" offset="0.695312"/><stop stop-opacity="1" stop-color="rgb(21.792603%, 53.921509%, 87.799072%)" offset="0.699219"/><stop stop-opacity="1" stop-color="rgb(21.586609%, 54.112244%, 87.799072%)" offset="0.703125"/><stop stop-opacity="1" stop-color="rgb(21.392822%, 54.30603%, 87.799072%)" offset="0.710938"/><stop stop-opacity="1" stop-color="rgb(20.999146%, 54.699707%, 87.658691%)" offset="0.714844"/><stop stop-opacity="1" stop-color="rgb(20.799255%, 54.899597%, 87.518311%)" offset="0.71875"/><stop stop-opacity="1" stop-color="rgb(20.420837%, 55.099487%, 87.509155%)" offset="0.722656"/><stop stop-opacity="1" stop-color="rgb(20.042419%, 55.299377%, 87.5%)" offset="0.726562"/><stop stop-opacity="1" stop-color="rgb(19.821167%, 55.517578%, 87.5%)" offset="0.730469"/><stop stop-opacity="1" stop-color="rgb(19.599915%, 55.737305%, 87.5%)" offset="0.734375"/><stop stop-opacity="1" stop-color="rgb(19.398499%, 55.926514%, 87.298584%)" offset="0.738281"/><stop stop-opacity="1" stop-color="rgb(19.198608%, 56.117249%, 87.098694%)" offset="0.742188"/><stop stop-opacity="1" stop-color="rgb(18.998718%, 56.307983%, 87.098694%)" offset="0.746094"/><stop stop-opacity="1" stop-color="rgb(18.798828%, 56.498718%, 87.098694%)" offset="0.75"/><stop stop-opacity="1" stop-color="rgb(18.598938%, 56.889343%, 87.098694%)" offset="0.753906"/><stop stop-opacity="1" stop-color="rgb(18.399048%, 57.279968%, 87.098694%)" offset="0.757812"/><stop stop-opacity="1" stop-color="rgb(18.199158%, 57.424927%, 86.898804%)" offset="0.761719"/><stop stop-opacity="1" stop-color="rgb(17.999268%, 57.571411%, 86.698914%)" offset="0.765625"/><stop stop-opacity="1" stop-color="rgb(17.782593%, 57.785034%, 86.698914%)" offset="0.769531"/><stop stop-opacity="1" stop-color="rgb(17.565918%, 57.998657%, 86.698914%)" offset="0.773438"/><stop stop-opacity="1" stop-color="rgb(17.23175%, 58.198547%, 86.686707%)" offset="0.777344"/><stop stop-opacity="1" stop-color="rgb(16.899109%, 58.399963%, 86.6745%)" offset="0.78125"/><stop stop-opacity="1" stop-color="rgb(16.699219%, 58.599854%, 86.486816%)" offset="0.785156"/><stop stop-opacity="1" stop-color="rgb(16.499329%, 58.799744%, 86.299133%)" offset="0.789062"/><stop stop-opacity="1" stop-color="rgb(16.305542%, 58.99353%, 86.299133%)" offset="0.796875"/><stop stop-opacity="1" stop-color="rgb(15.905762%, 59.376526%, 86.299133%)" offset="0.800781"/><stop stop-opacity="1" stop-color="rgb(15.699768%, 59.567261%, 86.299133%)" offset="0.804688"/><stop stop-opacity="1" stop-color="rgb(15.499878%, 59.757996%, 86.099243%)" offset="0.808594"/><stop stop-opacity="1" stop-color="rgb(15.299988%, 59.94873%, 85.899353%)" offset="0.8125"/><stop stop-opacity="1" stop-color="rgb(15.083313%, 60.173035%, 85.899353%)" offset="0.816406"/><stop stop-opacity="1" stop-color="rgb(14.868164%, 60.398865%, 85.899353%)" offset="0.820312"/><stop stop-opacity="1" stop-color="rgb(14.483643%, 60.598755%, 85.89325%)" offset="0.824219"/><stop stop-opacity="1" stop-color="rgb(14.099121%, 60.798645%, 85.887146%)" offset="0.828125"/><stop stop-opacity="1" stop-color="rgb(13.902283%, 60.995483%, 85.693359%)" offset="0.832031"/><stop stop-opacity="1" stop-color="rgb(13.705444%, 61.192322%, 85.499573%)" offset="0.835938"/><stop stop-opacity="1" stop-color="rgb(13.514709%, 61.383057%, 85.499573%)" offset="0.84375"/><stop stop-opacity="1" stop-color="rgb(13.13324%, 61.764526%, 85.499573%)" offset="0.851562"/><stop stop-opacity="1" stop-color="rgb(12.705994%, 62.176514%, 85.299683%)" offset="0.855469"/><stop stop-opacity="1" stop-color="rgb(12.471008%, 62.399292%, 85.099792%)" offset="0.859375"/><stop stop-opacity="1" stop-color="rgb(12.32605%, 62.548828%, 85.099792%)" offset="0.867188"/><stop stop-opacity="1" stop-color="rgb(11.790466%, 62.89978%, 84.898376%)" offset="0.871094"/><stop stop-opacity="1" stop-color="rgb(11.399841%, 63.09967%, 84.698486%)" offset="0.875"/><stop stop-opacity="1" stop-color="rgb(11.209106%, 63.290405%, 84.698486%)" offset="0.882812"/><stop stop-opacity="1" stop-color="rgb(10.827637%, 63.670349%, 84.698486%)" offset="0.890625"/><stop stop-opacity="1" stop-color="rgb(10.395813%, 64.079285%, 84.498596%)" offset="0.894531"/><stop stop-opacity="1" stop-color="rgb(10.15625%, 64.299011%, 84.298706%)" offset="0.898438"/><stop stop-opacity="1" stop-color="rgb(9.965515%, 64.498901%, 84.298706%)" offset="0.902344"/><stop stop-opacity="1" stop-color="rgb(9.77478%, 64.698792%, 84.298706%)" offset="0.90625"/><stop stop-opacity="1" stop-color="rgb(9.584045%, 64.898682%, 84.298706%)" offset="0.910156"/><stop stop-opacity="1" stop-color="rgb(9.393311%, 65.098572%, 84.298706%)" offset="0.914062"/><stop stop-opacity="1" stop-color="rgb(9.196472%, 65.292358%, 84.104919%)" offset="0.917969"/><stop stop-opacity="1" stop-color="rgb(8.999634%, 65.486145%, 83.911133%)" offset="0.921875"/><stop stop-opacity="1" stop-color="rgb(8.615112%, 65.67688%, 83.905029%)" offset="0.925781"/><stop stop-opacity="1" stop-color="rgb(8.230591%, 65.867615%, 83.898926%)" offset="0.929688"/><stop stop-opacity="1" stop-color="rgb(8.039856%, 66.05835%, 83.898926%)" offset="0.9375"/><stop stop-opacity="1" stop-color="rgb(7.673645%, 66.473389%, 83.699036%)" offset="0.941406"/><stop stop-opacity="1" stop-color="rgb(7.499695%, 66.699219%, 83.499146%)" offset="0.945312"/><stop stop-opacity="1" stop-color="rgb(7.292175%, 66.899109%, 83.499146%)" offset="0.949219"/><stop stop-opacity="1" stop-color="rgb(7.086182%, 67.098999%, 83.499146%)" offset="0.953125"/><stop stop-opacity="1" stop-color="rgb(6.892395%, 67.295837%, 83.499146%)" offset="0.957031"/><stop stop-opacity="1" stop-color="rgb(6.698608%, 67.492676%, 83.499146%)" offset="0.960938"/><stop stop-opacity="1" stop-color="rgb(6.498718%, 67.636108%, 83.311462%)" offset="0.964844"/><stop stop-opacity="1" stop-color="rgb(6.298828%, 67.781067%, 83.123779%)" offset="0.96875"/><stop stop-opacity="1" stop-color="rgb(5.92041%, 67.967224%, 83.111572%)" offset="0.972656"/><stop stop-opacity="1" stop-color="rgb(5.543518%, 68.154907%, 83.099365%)" offset="0.976562"/><stop stop-opacity="1" stop-color="rgb(5.32074%, 68.37616%, 83.099365%)" offset="0.980469"/><stop stop-opacity="1" stop-color="rgb(5.099487%, 68.598938%, 83.099365%)" offset="0.984375"/><stop stop-opacity="1" stop-color="rgb(4.899597%, 68.798828%, 82.899475%)" offset="0.988281"/><stop stop-opacity="1" stop-color="rgb(4.699707%, 68.998718%, 82.699585%)" offset="0.992188"/><stop stop-opacity="1" stop-color="rgb(4.499817%, 69.198608%, 82.699585%)" offset="0.996094"/><stop stop-opacity="1" stop-color="rgb(4.299927%, 69.398499%, 82.699585%)" offset="1"/></linearGradient></defs><g clip-path="url(#id1)"><g clip-path="url(#id2)"><g clip-path="url(#id3)"><path fill="url(#id4)" d="M 2.476562 72.226562 L 72.226562 72.226562 L 72.226562 2.476562 L 2.476562 2.476562 Z M 2.476562 72.226562 " fill-rule="nonzero"/></g></g></g></svg>