<svg xmlns="http://www.w3.org/2000/svg" xmlns:xlink="http://www.w3.org/1999/xlink" width="2000" zoomAndPan="magnify" viewBox="0 0 1500 449.999984" height="600" preserveAspectRatio="xMidYMid meet" version="1.0"><defs><filter x="0%" y="0%" width="100%" xlink:type="simple" xlink:actuate="onLoad" height="100%" id="id1" xlink:show="other"><feColorMatrix values="0 0 0 0 1 0 0 0 0 1 0 0 0 0 1 0 0 0 1 0" color-interpolation-filters="sRGB"/></filter><g><g id="id2"/></g><mask id="id3"><g filter="url(#id1)"><rect x="-150" width="1800" fill="rgb(0%, 0%, 0%)" y="-44.999998" height="539.99998" fill-opacity="0.3098"/></g></mask><clipPath id="id4"><path d="M 1.007812 0.246094 L 268 0.246094 L 268 407 L 1.007812 407 Z M 1.007812 0.246094 " clip-rule="nonzero"/></clipPath><clipPath id="id5"><rect x="0" width="268" y="0" height="407"/></clipPath><clipPath id="id6"><path d="M 1136 0 L 1500 0 L 1500 149 L 1136 149 Z M 1136 0 " clip-rule="nonzero"/></clipPath><clipPath id="id7"><path d="M 1136.8125 75.589844 L 1529.886719 -170.019531 L 1575.589844 -96.875 L 1182.515625 148.738281 Z M 1136.8125 75.589844 " clip-rule="nonzero"/></clipPath><mask id="id8"><g filter="url(#id1)"><rect x="-150" width="1800" fill="rgb(0%, 0%, 0%)" y="-44.999998" height="539.99998" fill-opacity="0.3098"/></g></mask><clipPath id="id9"><path d="M 0 0 L 167.53125 0 L 167.53125 148.367188 L 0 148.367188 Z M 0 0 " clip-rule="nonzero"/></clipPath><clipPath id="id10"><rect x="0" width="169" y="0" height="150"/></clipPath><clipPath id="id11"><path d="M 1104 0 L 1500 0 L 1500 266 L 1104 266 Z M 1104 0 " clip-rule="nonzero"/></clipPath><clipPath id="id12"><path d="M 1104.949219 192.425781 L 1498.023438 -53.183594 L 1543.726562 19.960938 L 1150.652344 265.570312 Z M 1104.949219 192.425781 " clip-rule="nonzero"/></clipPath><clipPath id="id13"><path d="M 1011 0 L 1163 0 L 1163 72 L 1011 72 Z M 1011 0 " clip-rule="nonzero"/></clipPath><clipPath id="id14"><path d="M 1162.414062 -18.574219 L 1018.667969 71.246094 L 1011.117188 59.160156 L 1154.863281 -30.660156 Z M 1162.414062 -18.574219 " clip-rule="nonzero"/></clipPath><clipPath id="id15"><path d="M 951 0 L 1032 0 L 1032 73 L 951 73 Z M 951 0 " clip-rule="nonzero"/></clipPath><clipPath id="id16"><path d="M 963.460938 -30.679688 L 1031.132812 63.84375 L 1019.546875 72.136719 L 951.875 -22.386719 Z M 963.460938 -30.679688 " clip-rule="nonzero"/></clipPath><clipPath id="id17"><path d="M 100.675781 47.035156 L 170.425781 47.035156 L 170.425781 116.785156 L 100.675781 116.785156 Z M 100.675781 47.035156 " clip-rule="nonzero"/></clipPath><clipPath id="id18"><path d="M 113.5 95.605469 L 183.0625 95.605469 L 183.0625 165.167969 L 113.5 165.167969 Z M 113.5 95.605469 " clip-rule="nonzero"/></clipPath><mask id="id19"><g filter="url(#id1)"><rect x="-150" width="1800" fill="rgb(0%, 0%, 0%)" y="-44.999998" height="539.99998" fill-opacity="0.3098"/></g></mask><clipPath id="id20"><path d="M 1.050781 0.511719 L 265.800781 0.511719 L 265.800781 102 L 1.050781 102 Z M 1.050781 0.511719 " clip-rule="nonzero"/></clipPath><clipPath id="id21"><rect x="0" width="266" y="0" height="102"/></clipPath><clipPath id="id22"><path d="M 899 279 L 1278 279 L 1278 450 L 899 450 Z M 899 279 " clip-rule="nonzero"/></clipPath><clipPath id="id23"><path d="M 899.898438 490.875 L 1238.273438 279.441406 L 1277.617188 342.410156 L 939.246094 553.84375 Z M 899.898438 490.875 " clip-rule="nonzero"/></clipPath><clipPath id="id24"><path d="M 0 348 L 159 348 L 159 450 L 0 450 Z M 0 348 " clip-rule="nonzero"/></clipPath><clipPath id="id25"><path d="M -18.632812 453.371094 L 149.285156 348.449219 L 158.027344 362.441406 L -9.886719 467.363281 Z M -18.632812 453.371094 " clip-rule="nonzero"/></clipPath><clipPath id="id26"><path d="M 134 348 L 227 348 L 227 450 L 134 450 Z M 134 348 " clip-rule="nonzero"/></clipPath><clipPath id="id27"><path d="M 213.320312 467.480469 L 134.738281 357.710938 L 148.152344 348.105469 L 226.738281 457.875 Z M 213.320312 467.480469 " clip-rule="nonzero"/></clipPath><clipPath id="id28"><path d="M 894 369 L 1273 369 L 1273 450 L 894 450 Z M 894 369 " clip-rule="nonzero"/></clipPath><clipPath id="id29"><path d="M 894.96875 581.109375 L 1233.339844 369.675781 L 1272.6875 432.640625 L 934.3125 644.074219 Z M 894.96875 581.109375 " clip-rule="nonzero"/></clipPath><clipPath id="id30"><path d="M 1394.277344 279.574219 L 1455.027344 279.574219 L 1455.027344 340.324219 L 1394.277344 340.324219 Z M 1394.277344 279.574219 " clip-rule="nonzero"/></clipPath><clipPath id="id31"><path d="M 1394.277344 333.941406 L 1455.027344 333.941406 L 1455.027344 394.691406 L 1394.277344 394.691406 Z M 1394.277344 333.941406 " clip-rule="nonzero"/></clipPath></defs><rect x="-150" width="1800" fill="rgb(100%, 100%, 100%)" y="-44.999998" height="539.99998" fill-opacity="1"/><rect x="-150" width="1800" fill="rgb(6.269836%, 6.669617%, 32.159424%)" y="-44.999998" height="539.99998" fill-opacity="1"/><rect x="-150" width="1800" fill="rgb(100%, 100%, 100%)" y="-44.999998" height="539.99998" fill-opacity="1"/><rect x="-150" width="1800" fill="rgb(6.269836%, 6.669617%, 32.159424%)" y="-44.999998" height="539.99998" fill-opacity="1"/><g mask="url(#id3)"><g transform="matrix(1, 0, 0, 1, 1232, 43)"><g clip-path="url(#id5)"><g clip-path="url(#id4)"><path fill="rgb(100%, 100%, 100%)" d="M 1.007812 0.246094 L 1.007812 418.746094 L 419.507812 418.746094 L 419.507812 0.246094 Z M 418.035156 83.710938 L 336.042969 83.710938 L 336.042969 1.71875 L 418.035156 1.71875 Z M 169.261719 250.492188 L 169.261719 168.5 L 251.253906 168.5 L 251.253906 250.492188 Z M 251.253906 251.964844 L 251.253906 333.957031 L 169.261719 333.957031 L 169.261719 251.964844 Z M 167.789062 250.492188 L 85.945312 250.492188 L 85.945312 168.5 L 167.9375 168.5 L 167.9375 250.492188 Z M 169.261719 167.027344 L 169.261719 85.183594 L 251.253906 85.183594 L 251.253906 167.175781 L 169.261719 167.175781 Z M 252.726562 168.5 L 334.71875 168.5 L 334.71875 250.492188 L 252.726562 250.492188 Z M 252.726562 167.027344 L 252.726562 85.183594 L 334.71875 85.183594 L 334.71875 167.175781 L 252.726562 167.175781 Z M 252.726562 83.710938 L 252.726562 1.71875 L 334.71875 1.71875 L 334.71875 83.710938 Z M 251.253906 83.710938 L 169.261719 83.710938 L 169.261719 1.71875 L 251.253906 1.71875 Z M 167.789062 83.710938 L 85.945312 83.710938 L 85.945312 1.71875 L 167.9375 1.71875 L 167.9375 83.710938 Z M 167.789062 85.183594 L 167.789062 167.175781 L 85.945312 167.175781 L 85.945312 85.183594 Z M 84.472656 167.027344 L 2.480469 167.027344 L 2.480469 85.183594 L 84.472656 85.183594 Z M 84.472656 168.5 L 84.472656 250.492188 L 2.480469 250.492188 L 2.480469 168.5 Z M 84.472656 251.964844 L 84.472656 333.957031 L 2.480469 333.957031 L 2.480469 251.964844 Z M 85.945312 251.964844 L 167.9375 251.964844 L 167.9375 333.957031 L 85.945312 333.957031 Z M 167.789062 335.28125 L 167.789062 417.273438 L 85.945312 417.273438 L 85.945312 335.28125 Z M 169.261719 335.28125 L 251.253906 335.28125 L 251.253906 417.273438 L 169.261719 417.273438 Z M 252.726562 335.28125 L 334.71875 335.28125 L 334.71875 417.273438 L 252.726562 417.273438 Z M 252.726562 333.808594 L 252.726562 251.964844 L 334.71875 251.964844 L 334.71875 333.957031 L 252.726562 333.957031 Z M 336.042969 251.964844 L 418.035156 251.964844 L 418.035156 333.957031 L 336.042969 333.957031 Z M 336.042969 250.492188 L 336.042969 168.5 L 418.035156 168.5 L 418.035156 250.492188 Z M 336.042969 167.027344 L 336.042969 85.183594 L 418.035156 85.183594 L 418.035156 167.175781 L 336.042969 167.175781 Z M 84.472656 1.71875 L 84.472656 83.710938 L 2.480469 83.710938 L 2.480469 1.71875 Z M 2.480469 335.28125 L 84.472656 335.28125 L 84.472656 417.273438 L 2.480469 417.273438 Z M 336.042969 417.273438 L 336.042969 335.28125 L 418.035156 335.28125 L 418.035156 417.273438 Z M 336.042969 417.273438 " fill-opacity="1" fill-rule="nonzero"/></g></g></g></g><g clip-path="url(#id6)"><g clip-path="url(#id7)"><path fill="rgb(22.749329%, 10.5896%, 46.269226%)" d="M 1136.8125 75.589844 L 1529.886719 -170.019531 L 1575.589844 -96.875 L 1182.515625 148.738281 Z M 1136.8125 75.589844 " fill-opacity="1" fill-rule="nonzero"/></g></g><g mask="url(#id8)"><g transform="matrix(1, 0, 0, 1, 0, 0)"><g clip-path="url(#id10)"><g clip-path="url(#id9)"><path fill="rgb(100%, 100%, 100%)" d="M -45.46875 -64.632812 L -45.46875 148.367188 L 167.53125 148.367188 L 167.53125 -64.632812 Z M 166.78125 -22.152344 L 125.050781 -22.152344 L 125.050781 -63.882812 L 166.78125 -63.882812 Z M 40.164062 62.734375 L 40.164062 21.003906 L 81.894531 21.003906 L 81.894531 62.734375 Z M 81.894531 63.484375 L 81.894531 105.214844 L 40.164062 105.214844 L 40.164062 63.484375 Z M 39.414062 62.734375 L -2.242188 62.734375 L -2.242188 21.003906 L 39.488281 21.003906 L 39.488281 62.734375 Z M 40.164062 20.253906 L 40.164062 -21.402344 L 81.894531 -21.402344 L 81.894531 20.328125 L 40.164062 20.328125 Z M 82.644531 21.003906 L 124.375 21.003906 L 124.375 62.734375 L 82.644531 62.734375 Z M 82.644531 20.253906 L 82.644531 -21.402344 L 124.375 -21.402344 L 124.375 20.328125 L 82.644531 20.328125 Z M 82.644531 -22.152344 L 82.644531 -63.882812 L 124.375 -63.882812 L 124.375 -22.152344 Z M 81.894531 -22.152344 L 40.164062 -22.152344 L 40.164062 -63.882812 L 81.894531 -63.882812 Z M 39.414062 -22.152344 L -2.242188 -22.152344 L -2.242188 -63.882812 L 39.488281 -63.882812 L 39.488281 -22.152344 Z M 39.414062 -21.402344 L 39.414062 20.328125 L -2.242188 20.328125 L -2.242188 -21.402344 Z M -2.992188 20.253906 L -44.722656 20.253906 L -44.722656 -21.402344 L -2.992188 -21.402344 Z M -2.992188 21.003906 L -2.992188 62.734375 L -44.722656 62.734375 L -44.722656 21.003906 Z M -2.992188 63.484375 L -2.992188 105.214844 L -44.722656 105.214844 L -44.722656 63.484375 Z M -2.242188 63.484375 L 39.488281 63.484375 L 39.488281 105.214844 L -2.242188 105.214844 Z M 39.414062 105.886719 L 39.414062 147.621094 L -2.242188 147.621094 L -2.242188 105.886719 Z M 40.164062 105.886719 L 81.894531 105.886719 L 81.894531 147.621094 L 40.164062 147.621094 Z M 82.644531 105.886719 L 124.375 105.886719 L 124.375 147.621094 L 82.644531 147.621094 Z M 82.644531 105.140625 L 82.644531 63.484375 L 124.375 63.484375 L 124.375 105.214844 L 82.644531 105.214844 Z M 125.050781 63.484375 L 166.78125 63.484375 L 166.78125 105.214844 L 125.050781 105.214844 Z M 125.050781 62.734375 L 125.050781 21.003906 L 166.78125 21.003906 L 166.78125 62.734375 Z M 125.050781 20.253906 L 125.050781 -21.402344 L 166.78125 -21.402344 L 166.78125 20.328125 L 125.050781 20.328125 Z M -2.992188 -63.882812 L -2.992188 -22.152344 L -44.722656 -22.152344 L -44.722656 -63.882812 Z M -44.722656 105.886719 L -2.992188 105.886719 L -2.992188 147.621094 L -44.722656 147.621094 Z M 125.050781 147.621094 L 125.050781 105.886719 L 166.78125 105.886719 L 166.78125 147.621094 Z M 125.050781 147.621094 " fill-opacity="1" fill-rule="nonzero"/></g></g></g></g><g clip-path="url(#id11)"><g clip-path="url(#id12)"><path fill="rgb(36.859131%, 9.01947%, 92.158508%)" d="M 1104.949219 192.425781 L 1498.023438 -53.183594 L 1543.726562 19.960938 L 1150.652344 265.570312 Z M 1104.949219 192.425781 " fill-opacity="1" fill-rule="nonzero"/></g></g><g clip-path="url(#id13)"><g clip-path="url(#id14)"><path fill="rgb(36.859131%, 9.01947%, 92.158508%)" d="M 1162.414062 -18.574219 L 1018.667969 71.246094 L 1011.117188 59.160156 L 1154.863281 -30.660156 Z M 1162.414062 -18.574219 " fill-opacity="1" fill-rule="nonzero"/></g></g><g clip-path="url(#id15)"><g clip-path="url(#id16)"><path fill="rgb(36.859131%, 9.01947%, 92.158508%)" d="M 963.460938 -30.679688 L 1031.132812 63.84375 L 1019.546875 72.136719 L 951.875 -22.386719 Z M 963.460938 -30.679688 " fill-opacity="1" fill-rule="nonzero"/></g></g><g clip-path="url(#id17)"><path fill="rgb(36.859131%, 9.01947%, 92.158508%)" d="M 170.425781 78.09375 L 170.425781 47.035156 C 131.902344 47.035156 100.675781 78.261719 100.675781 116.785156 L 131.734375 116.785156 C 131.734375 95.417969 149.058594 78.09375 170.425781 78.09375 Z M 170.425781 78.09375 " fill-opacity="1" fill-rule="nonzero"/></g><g clip-path="url(#id18)"><path fill="rgb(36.859131%, 9.01947%, 92.158508%)" d="M 113.3125 134.109375 L 113.3125 165.167969 C 151.832031 165.167969 183.0625 133.941406 183.0625 95.417969 L 152 95.417969 C 152 116.785156 134.679688 134.109375 113.3125 134.109375 Z M 113.3125 134.109375 " fill-opacity="1" fill-rule="nonzero"/></g><path fill="rgb(36.859131%, 9.01947%, 92.158508%)" d="M 1024.574219 81.8125 C 1037 81.8125 1047.074219 71.738281 1047.074219 59.3125 C 1047.074219 46.886719 1037 36.8125 1024.574219 36.8125 C 1012.148438 36.8125 1002.074219 46.886719 1002.074219 59.3125 C 1002.074219 71.738281 1012.148438 81.8125 1024.574219 81.8125 " fill-opacity="1" fill-rule="nonzero"/><g mask="url(#id19)"><g transform="matrix(1, 0, 0, 1, 55, 348)"><g clip-path="url(#id21)"><g clip-path="url(#id20)"><path fill="rgb(100%, 100%, 100%)" d="M 1.050781 0.511719 L 1.050781 265.261719 L 265.800781 265.261719 L 265.800781 0.511719 Z M 264.867188 53.3125 L 213 53.3125 L 213 1.441406 L 264.867188 1.441406 Z M 107.492188 158.820312 L 107.492188 106.949219 L 159.359375 106.949219 L 159.359375 158.820312 Z M 159.359375 159.75 L 159.359375 211.621094 L 107.492188 211.621094 L 107.492188 159.75 Z M 106.558594 158.820312 L 54.78125 158.820312 L 54.78125 106.949219 L 106.652344 106.949219 L 106.652344 158.820312 Z M 107.492188 106.019531 L 107.492188 54.242188 L 159.359375 54.242188 L 159.359375 106.113281 L 107.492188 106.113281 Z M 160.292969 106.949219 L 212.160156 106.949219 L 212.160156 158.820312 L 160.292969 158.820312 Z M 160.292969 106.019531 L 160.292969 54.242188 L 212.160156 54.242188 L 212.160156 106.113281 L 160.292969 106.113281 Z M 160.292969 53.3125 L 160.292969 1.441406 L 212.160156 1.441406 L 212.160156 53.3125 Z M 159.359375 53.3125 L 107.492188 53.3125 L 107.492188 1.441406 L 159.359375 1.441406 Z M 106.558594 53.3125 L 54.78125 53.3125 L 54.78125 1.441406 L 106.652344 1.441406 L 106.652344 53.3125 Z M 106.558594 54.242188 L 106.558594 106.113281 L 54.78125 106.113281 L 54.78125 54.242188 Z M 53.851562 106.019531 L 1.980469 106.019531 L 1.980469 54.242188 L 53.851562 54.242188 Z M 53.851562 106.949219 L 53.851562 158.820312 L 1.980469 158.820312 L 1.980469 106.949219 Z M 53.851562 159.75 L 53.851562 211.621094 L 1.980469 211.621094 L 1.980469 159.75 Z M 54.78125 159.75 L 106.652344 159.75 L 106.652344 211.621094 L 54.78125 211.621094 Z M 106.558594 212.460938 L 106.558594 264.328125 L 54.78125 264.328125 L 54.78125 212.460938 Z M 107.492188 212.460938 L 159.359375 212.460938 L 159.359375 264.328125 L 107.492188 264.328125 Z M 160.292969 212.460938 L 212.160156 212.460938 L 212.160156 264.328125 L 160.292969 264.328125 Z M 160.292969 211.527344 L 160.292969 159.75 L 212.160156 159.75 L 212.160156 211.621094 L 160.292969 211.621094 Z M 213 159.75 L 264.867188 159.75 L 264.867188 211.621094 L 213 211.621094 Z M 213 158.820312 L 213 106.949219 L 264.867188 106.949219 L 264.867188 158.820312 Z M 213 106.019531 L 213 54.242188 L 264.867188 54.242188 L 264.867188 106.113281 L 213 106.113281 Z M 53.851562 1.441406 L 53.851562 53.3125 L 1.980469 53.3125 L 1.980469 1.441406 Z M 1.980469 212.460938 L 53.851562 212.460938 L 53.851562 264.328125 L 1.980469 264.328125 Z M 213 264.328125 L 213 212.460938 L 264.867188 212.460938 L 264.867188 264.328125 Z M 213 264.328125 " fill-opacity="1" fill-rule="nonzero"/></g></g></g></g><g clip-path="url(#id22)"><g clip-path="url(#id23)"><path fill="rgb(22.749329%, 10.5896%, 46.269226%)" d="M 899.898438 490.875 L 1238.273438 279.441406 L 1277.617188 342.410156 L 939.246094 553.84375 Z M 899.898438 490.875 " fill-opacity="1" fill-rule="nonzero"/></g></g><g clip-path="url(#id24)"><g clip-path="url(#id25)"><path fill="rgb(36.859131%, 9.01947%, 92.158508%)" d="M -18.632812 453.371094 L 149.285156 348.449219 L 158.027344 362.441406 L -9.886719 467.363281 Z M -18.632812 453.371094 " fill-opacity="1" fill-rule="nonzero"/></g></g><g clip-path="url(#id26)"><g clip-path="url(#id27)"><path fill="rgb(36.859131%, 9.01947%, 92.158508%)" d="M 213.320312 467.480469 L 134.738281 357.710938 L 148.152344 348.105469 L 226.738281 457.875 Z M 213.320312 467.480469 " fill-opacity="1" fill-rule="nonzero"/></g></g><g clip-path="url(#id28)"><g clip-path="url(#id29)"><path fill="rgb(36.859131%, 9.01947%, 92.158508%)" d="M 894.96875 581.109375 L 1233.339844 369.675781 L 1272.6875 432.640625 L 934.3125 644.074219 Z M 894.96875 581.109375 " fill-opacity="1" fill-rule="nonzero"/></g></g><g clip-path="url(#id30)"><path fill="rgb(36.859131%, 9.01947%, 92.158508%)" d="M 1455.027344 306.625 L 1455.027344 279.574219 C 1421.476562 279.574219 1394.277344 306.769531 1394.277344 340.320312 L 1421.328125 340.320312 C 1421.328125 321.710938 1436.414062 306.625 1455.027344 306.625 Z M 1455.027344 306.625 " fill-opacity="1" fill-rule="nonzero"/></g><g clip-path="url(#id31)"><path fill="rgb(36.859131%, 9.01947%, 92.158508%)" d="M 1455.027344 360.992188 L 1455.027344 333.941406 C 1421.476562 333.941406 1394.277344 361.136719 1394.277344 394.6875 L 1421.328125 394.6875 C 1421.328125 376.078125 1436.414062 360.992188 1455.027344 360.992188 Z M 1455.027344 360.992188 " fill-opacity="1" fill-rule="nonzero"/></g><path fill="rgb(36.859131%, 9.01947%, 92.158508%)" d="M 141.714844 336.328125 C 127.421875 336.328125 115.839844 347.910156 115.839844 362.203125 C 115.839844 376.492188 127.421875 388.078125 141.714844 388.078125 C 156.003906 388.078125 167.589844 376.492188 167.589844 362.203125 C 167.589844 347.910156 156.003906 336.328125 141.714844 336.328125 " fill-opacity="1" fill-rule="nonzero"/><g fill="rgb(100%, 100%, 100%)" fill-opacity="1"><g transform="translate(226.864185, 231.175671)"><g><path d="M 81.90625 0 L 61.96875 0 L 61.96875 -41.140625 L 60.828125 -41.140625 L 53.328125 0 L 32.890625 0 L 25.78125 -41.140625 L 24.515625 -41.140625 L 24.515625 0 L 4.828125 0 L 7.484375 -78.859375 L 36.0625 -78.859375 L 43.171875 -36.1875 L 44.1875 -36.1875 L 51.046875 -78.859375 L 79.234375 -78.859375 Z M 81.90625 0 "/></g></g></g><g fill="rgb(100%, 100%, 100%)" fill-opacity="1"><g transform="translate(317.148345, 231.175671)"><g><path d="M 28.4375 0 L 6.859375 0 L 6.859375 -78.859375 L 28.4375 -78.859375 Z M 28.4375 0 "/></g></g></g><g fill="rgb(100%, 100%, 100%)" fill-opacity="1"><g transform="translate(356.004967, 231.175671)"><g><path d="M 63.109375 0 L 42.28125 0 L 25.90625 -36.703125 L 24.890625 -36.703125 L 24.890625 0 L 5.59375 0 L 5.59375 -78.859375 L 27.046875 -78.859375 L 42.671875 -41.015625 L 43.6875 -41.015625 L 43.6875 -78.859375 L 63.109375 -78.859375 Z M 63.109375 0 "/></g></g></g><g fill="rgb(100%, 100%, 100%)" fill-opacity="1"><g transform="translate(428.257756, 231.175671)"><g><path d="M 51.421875 -59.6875 L 36.703125 -59.6875 L 36.703125 0 L 14.984375 0 L 14.984375 -59.6875 L -0.640625 -59.6875 L 0.640625 -78.859375 L 52.703125 -78.859375 Z M 51.421875 -59.6875 "/></g></g></g><g fill="rgb(100%, 100%, 100%)" fill-opacity="1"><g transform="translate(483.875947, 231.175671)"><g/></g></g><g fill="rgb(100%, 100%, 100%)" fill-opacity="1"><g transform="translate(514.09782, 231.175671)"><g><path d="M 51.421875 -59.6875 L 36.703125 -59.6875 L 36.703125 0 L 14.984375 0 L 14.984375 -59.6875 L -0.640625 -59.6875 L 0.640625 -78.859375 L 52.703125 -78.859375 Z M 51.421875 -59.6875 "/></g></g></g><g fill="rgb(100%, 100%, 100%)" fill-opacity="1"><g transform="translate(569.716011, 231.175671)"><g><path d="M 2.796875 -30.65625 C 2.796875 -41.789062 4.929688 -49.851562 9.203125 -54.84375 C 13.484375 -59.84375 20.171875 -62.34375 29.265625 -62.34375 C 38.367188 -62.34375 44.992188 -59.890625 49.140625 -54.984375 C 53.285156 -50.078125 55.359375 -42.015625 55.359375 -30.796875 C 55.359375 -19.578125 53.328125 -11.425781 49.265625 -6.34375 C 45.203125 -1.269531 38.554688 1.265625 29.328125 1.265625 C 20.097656 1.265625 13.367188 -1.269531 9.140625 -6.34375 C 4.910156 -11.425781 2.796875 -19.53125 2.796875 -30.65625 Z M 33.328125 -42.65625 C 32.785156 -44.351562 31.410156 -45.203125 29.203125 -45.203125 C 27.003906 -45.203125 25.609375 -44.351562 25.015625 -42.65625 C 24.421875 -40.96875 24.125 -37.414062 24.125 -32 L 24.125 -28.953125 C 24.125 -22.941406 24.421875 -19.046875 25.015625 -17.265625 C 25.609375 -15.492188 26.984375 -14.609375 29.140625 -14.609375 C 31.296875 -14.609375 32.671875 -15.492188 33.265625 -17.265625 C 33.859375 -19.046875 34.15625 -22.6875 34.15625 -28.1875 L 34.15625 -31.875 C 34.15625 -37.375 33.878906 -40.96875 33.328125 -42.65625 Z M 33.328125 -42.65625 "/></g></g></g><g fill="rgb(100%, 100%, 100%)" fill-opacity="1"><g transform="translate(631.429322, 231.175671)"><g><path d="M 56.25 0 L 32.765625 0 L 25.015625 -23.359375 L 24.515625 -23.359375 L 24.515625 0 L 3.8125 0 L 3.8125 -81.390625 L 24.765625 -81.390625 L 24.765625 -36.578125 L 25.265625 -36.578125 L 34.546875 -60.828125 L 56.765625 -60.828125 L 43.9375 -30.46875 Z M 56.25 0 "/></g></g></g><g fill="rgb(100%, 100%, 100%)" fill-opacity="1"><g transform="translate(691.110914, 231.175671)"><g><path d="M 29.203125 -44.1875 C 27.003906 -44.1875 25.566406 -43.445312 24.890625 -41.96875 C 24.210938 -40.488281 23.875 -38.222656 23.875 -35.171875 L 34.921875 -35.171875 L 34.921875 -38.21875 C 34.921875 -42.195312 33.015625 -44.1875 29.203125 -44.1875 Z M 29.71875 -62.34375 C 38.4375 -62.34375 44.675781 -60.25 48.4375 -56.0625 C 52.207031 -51.875 54.09375 -45.882812 54.09375 -38.09375 C 54.09375 -37.082031 53.796875 -32.507812 53.203125 -24.375 L 24.25 -24.375 C 24.25 -18.03125 27.171875 -14.859375 33.015625 -14.859375 C 35.804688 -14.859375 41.265625 -15.832031 49.390625 -17.78125 L 51.171875 -2.03125 C 44.066406 0.164062 36.957031 1.265625 29.84375 1.265625 C 21.125 1.265625 14.4375 -1.585938 9.78125 -7.296875 C 5.125 -13.015625 2.796875 -20.785156 2.796875 -30.609375 C 2.796875 -51.765625 11.769531 -62.34375 29.71875 -62.34375 Z M 29.71875 -62.34375 "/></g></g></g><g fill="rgb(100%, 100%, 100%)" fill-opacity="1"><g transform="translate(750.792507, 231.175671)"><g><path d="M 25.015625 -56.375 C 29.671875 -60.351562 34.789062 -62.34375 40.375 -62.34375 C 45.96875 -62.34375 49.882812 -61.050781 52.125 -58.46875 C 54.363281 -55.894531 55.484375 -52.023438 55.484375 -46.859375 L 55.484375 0 L 33.90625 0 L 33.90625 -39.625 C 33.90625 -41.738281 32.972656 -42.796875 31.109375 -42.796875 C 28.742188 -42.796875 26.753906 -42.203125 25.140625 -41.015625 L 25.140625 0 L 3.8125 0 L 3.8125 -60.828125 L 23.234375 -60.828125 L 24.515625 -56.375 Z M 25.015625 -56.375 "/></g></g></g></svg>