<svg xmlns="http://www.w3.org/2000/svg" xmlns:xlink="http://www.w3.org/1999/xlink" width="40" zoomAndPan="magnify" viewBox="0 0 30 30.000001" height="40" preserveAspectRatio="xMidYMid meet" version="1.0"><defs><clipPath id="id1"><path d="M 1.535156 1.050781 L 28.390625 1.050781 L 28.390625 27.90625 L 1.535156 27.90625 Z M 1.535156 1.050781 " clip-rule="nonzero"/></clipPath></defs><g clip-path="url(#id1)"><path fill="rgb(10.5896%, 61.569214%, 94.119263%)" d="M 28.390625 14.480469 C 28.390625 15.363281 28.304688 16.234375 28.132812 17.097656 C 27.960938 17.964844 27.707031 18.804688 27.367188 19.617188 C 27.03125 20.433594 26.617188 21.207031 26.128906 21.941406 C 25.636719 22.671875 25.082031 23.351562 24.457031 23.972656 C 23.835938 24.597656 23.15625 25.15625 22.421875 25.644531 C 21.691406 26.132812 20.917969 26.546875 20.101562 26.886719 C 19.289062 27.222656 18.449219 27.476562 17.582031 27.648438 C 16.71875 27.820312 15.84375 27.90625 14.964844 27.90625 C 14.082031 27.90625 13.207031 27.820312 12.34375 27.648438 C 11.480469 27.476562 10.640625 27.222656 9.824219 26.886719 C 9.011719 26.546875 8.238281 26.132812 7.503906 25.644531 C 6.769531 25.15625 6.09375 24.597656 5.46875 23.972656 C 4.84375 23.351562 4.289062 22.671875 3.800781 21.941406 C 3.308594 21.207031 2.894531 20.433594 2.558594 19.617188 C 2.222656 18.804688 1.964844 17.964844 1.792969 17.097656 C 1.621094 16.234375 1.535156 15.363281 1.535156 14.480469 C 1.535156 13.597656 1.621094 12.726562 1.792969 11.859375 C 1.964844 10.996094 2.222656 10.15625 2.558594 9.339844 C 2.894531 8.527344 3.308594 7.753906 3.800781 7.019531 C 4.289062 6.285156 4.84375 5.609375 5.46875 4.984375 C 6.09375 4.363281 6.769531 3.804688 7.503906 3.316406 C 8.238281 2.824219 9.011719 2.410156 9.824219 2.074219 C 10.640625 1.738281 11.480469 1.484375 12.34375 1.308594 C 13.207031 1.136719 14.082031 1.050781 14.964844 1.050781 C 15.84375 1.050781 16.71875 1.136719 17.582031 1.308594 C 18.449219 1.484375 19.289062 1.738281 20.101562 2.074219 C 20.917969 2.410156 21.691406 2.824219 22.421875 3.316406 C 23.15625 3.804688 23.835938 4.363281 24.457031 4.984375 C 25.082031 5.609375 25.636719 6.285156 26.128906 7.019531 C 26.617188 7.753906 27.03125 8.527344 27.367188 9.339844 C 27.707031 10.15625 27.960938 10.996094 28.132812 11.859375 C 28.304688 12.726562 28.390625 13.597656 28.390625 14.480469 Z M 28.390625 14.480469 " fill-opacity="1" fill-rule="nonzero"/></g><path fill="rgb(100%, 100%, 100%)" d="M 12.507812 21.5625 C 18.460938 21.5625 21.71875 16.628906 21.71875 12.351562 C 21.71875 12.210938 21.71875 12.070312 21.710938 11.933594 C 22.34375 11.480469 22.894531 10.90625 23.328125 10.257812 C 22.75 10.511719 22.128906 10.6875 21.46875 10.765625 C 22.140625 10.363281 22.652344 9.734375 22.894531 8.972656 C 22.269531 9.34375 21.578125 9.613281 20.839844 9.761719 C 20.246094 9.128906 19.40625 8.738281 18.476562 8.738281 C 16.6875 8.738281 15.238281 10.191406 15.238281 11.976562 C 15.238281 12.230469 15.265625 12.480469 15.328125 12.714844 C 12.632812 12.578125 10.25 11.289062 8.652344 9.332031 C 8.378906 9.808594 8.214844 10.363281 8.214844 10.957031 C 8.214844 12.078125 8.785156 13.070312 9.660156 13.648438 C 9.128906 13.632812 8.632812 13.484375 8.195312 13.246094 C 8.195312 13.257812 8.195312 13.269531 8.195312 13.285156 C 8.195312 14.855469 9.3125 16.160156 10.792969 16.460938 C 10.527344 16.535156 10.238281 16.574219 9.941406 16.574219 C 9.734375 16.574219 9.53125 16.554688 9.332031 16.515625 C 9.742188 17.804688 10.933594 18.738281 12.351562 18.761719 C 11.246094 19.628906 9.847656 20.144531 8.332031 20.144531 C 8.070312 20.144531 7.8125 20.132812 7.558594 20.097656 C 8.976562 21.027344 10.679688 21.5625 12.507812 21.5625 " fill-opacity="1" fill-rule="nonzero"/></svg>