<svg xmlns="http://www.w3.org/2000/svg" xmlns:xlink="http://www.w3.org/1999/xlink" width="40" zoomAndPan="magnify" viewBox="0 0 30 30.000001" height="40" preserveAspectRatio="xMidYMid meet" version="1.0"><defs><clipPath id="id1"><path d="M 1.644531 2.03125 L 26.324219 2.03125 L 26.324219 26.710938 L 1.644531 26.710938 Z M 1.644531 2.03125 " clip-rule="nonzero"/></clipPath><clipPath id="id2"><path d="M 1.644531 5 L 15 5 L 15 14 L 1.644531 14 Z M 1.644531 5 " clip-rule="nonzero"/></clipPath><clipPath id="id3"><path d="M 1.644531 3 L 26.324219 3 L 26.324219 13 L 1.644531 13 Z M 1.644531 3 " clip-rule="nonzero"/></clipPath><clipPath id="id4"><path d="M 19 7 L 26.324219 7 L 26.324219 14 L 19 14 Z M 19 7 " clip-rule="nonzero"/></clipPath><clipPath id="id5"><path d="M 13 14 L 26.324219 14 L 26.324219 24 L 13 24 Z M 13 14 " clip-rule="nonzero"/></clipPath><clipPath id="id6"><path d="M 1.644531 16 L 26.324219 16 L 26.324219 26 L 1.644531 26 Z M 1.644531 16 " clip-rule="nonzero"/></clipPath><clipPath id="id7"><path d="M 1.644531 14 L 9 14 L 9 21 L 1.644531 21 Z M 1.644531 14 " clip-rule="nonzero"/></clipPath></defs><g clip-path="url(#id1)"><path fill="#faca30" d="M 26.324219 14.371094 C 26.324219 15.179688 26.242188 15.984375 26.085938 16.777344 C 25.925781 17.574219 25.695312 18.34375 25.382812 19.09375 C 25.074219 19.839844 24.691406 20.550781 24.242188 21.226562 C 23.792969 21.898438 23.28125 22.523438 22.707031 23.097656 C 22.136719 23.667969 21.511719 24.179688 20.839844 24.628906 C 20.164062 25.082031 19.453125 25.460938 18.707031 25.769531 C 17.957031 26.082031 17.1875 26.316406 16.390625 26.472656 C 15.597656 26.628906 14.792969 26.710938 13.984375 26.710938 C 13.171875 26.710938 12.371094 26.628906 11.578125 26.472656 C 10.78125 26.316406 10.011719 26.082031 9.261719 25.769531 C 8.511719 25.460938 7.800781 25.082031 7.128906 24.628906 C 6.457031 24.179688 5.832031 23.667969 5.257812 23.097656 C 4.6875 22.523438 4.175781 21.898438 3.722656 21.226562 C 3.273438 20.550781 2.894531 19.839844 2.585938 19.09375 C 2.273438 18.34375 2.039062 17.574219 1.882812 16.777344 C 1.722656 15.984375 1.644531 15.179688 1.644531 14.371094 C 1.644531 13.5625 1.722656 12.757812 1.882812 11.964844 C 2.039062 11.167969 2.273438 10.398438 2.585938 9.648438 C 2.894531 8.902344 3.273438 8.191406 3.722656 7.515625 C 4.175781 6.84375 4.6875 6.21875 5.257812 5.644531 C 5.832031 5.074219 6.457031 4.5625 7.128906 4.113281 C 7.800781 3.660156 8.511719 3.28125 9.261719 2.972656 C 10.011719 2.660156 10.78125 2.425781 11.578125 2.269531 C 12.371094 2.109375 13.171875 2.03125 13.984375 2.03125 C 14.792969 2.03125 15.597656 2.109375 16.390625 2.269531 C 17.1875 2.425781 17.957031 2.660156 18.707031 2.972656 C 19.453125 3.28125 20.164062 3.660156 20.839844 4.113281 C 21.511719 4.5625 22.136719 5.074219 22.707031 5.644531 C 23.28125 6.21875 23.792969 6.84375 24.242188 7.515625 C 24.691406 8.191406 25.074219 8.902344 25.382812 9.648438 C 25.695312 10.398438 25.925781 11.167969 26.085938 11.964844 C 26.242188 12.757812 26.324219 13.5625 26.324219 14.371094 Z M 26.324219 14.371094 " fill-opacity="1" fill-rule="nonzero"/></g><path fill="#27363a" d="M 13.984375 13.167969 L 15.1875 14.371094 L 13.984375 15.574219 L 12.78125 14.371094 Z M 13.984375 13.167969 " fill-opacity="1" fill-rule="nonzero"/><path fill="#27363a" d="M 19.089844 13.167969 L 20.292969 14.371094 L 19.089844 15.574219 L 17.886719 14.371094 Z M 19.089844 13.167969 " fill-opacity="1" fill-rule="nonzero"/><path fill="#27363a" d="M 10.082031 14.371094 L 8.878906 15.574219 L 7.675781 14.371094 L 8.878906 13.167969 Z M 10.082031 14.371094 " fill-opacity="1" fill-rule="nonzero"/><path fill="#27363a" d="M 17.742188 11.816406 L 16.535156 13.023438 L 13.984375 10.464844 L 11.429688 13.023438 L 10.226562 11.816406 L 13.984375 8.066406 Z M 17.742188 11.816406 " fill-opacity="1" fill-rule="nonzero"/><path fill="#27363a" d="M 17.742188 16.921875 L 16.535156 15.71875 L 13.984375 18.277344 L 11.429688 15.71875 L 10.226562 16.921875 L 13.984375 20.675781 Z M 17.742188 16.921875 " fill-opacity="1" fill-rule="nonzero"/><g clip-path="url(#id2)"><path fill="#b58401" d="M 13.984375 5.4375 C 13.09375 5.433594 12.226562 5.5625 11.375 5.820312 C 10.523438 6.078125 9.730469 6.453125 8.992188 6.949219 C 8.253906 7.445312 7.605469 8.039062 7.046875 8.730469 C 6.484375 9.421875 6.039062 10.179688 5.707031 11.003906 C 5.707031 11.007812 5.707031 11.007812 5.707031 11.007812 C 5.433594 11.683594 5.242188 12.375 5.140625 13.09375 L 1.710938 13.09375 C 1.683594 13.375 1.664062 13.660156 1.65625 13.945312 L 5.515625 13.945312 C 5.625 13.945312 5.722656 13.910156 5.804688 13.835938 C 5.886719 13.761719 5.929688 13.671875 5.941406 13.5625 C 5.996094 13.011719 6.105469 12.46875 6.273438 11.941406 L 6.875 12.542969 C 6.957031 12.628906 7.058594 12.667969 7.175781 12.667969 L 8.027344 12.667969 C 8.144531 12.667969 8.246094 12.628906 8.328125 12.542969 C 8.410156 12.460938 8.453125 12.359375 8.453125 12.242188 C 8.453125 12.125 8.410156 12.027344 8.328125 11.941406 C 8.246094 11.859375 8.144531 11.816406 8.027344 11.816406 L 7.351562 11.816406 L 6.605469 11.070312 C 6.921875 10.355469 7.332031 9.703125 7.839844 9.109375 C 8.347656 8.515625 8.925781 8.007812 9.582031 7.582031 C 10.238281 7.15625 10.941406 6.835938 11.6875 6.613281 C 12.4375 6.394531 13.203125 6.285156 13.984375 6.285156 C 14.101562 6.285156 14.203125 6.246094 14.285156 6.164062 C 14.367188 6.078125 14.410156 5.980469 14.410156 5.863281 C 14.410156 5.742188 14.367188 5.644531 14.285156 5.5625 C 14.203125 5.476562 14.101562 5.4375 13.984375 5.4375 Z M 13.984375 5.4375 " fill-opacity="1" fill-rule="nonzero"/></g><g clip-path="url(#id3)"><path fill="#b58401" d="M 25.957031 11.394531 L 24.195312 11.394531 C 24.035156 10.84375 23.832031 10.3125 23.585938 9.796875 C 23.339844 9.28125 23.054688 8.785156 22.730469 8.316406 C 22.402344 7.847656 22.042969 7.40625 21.648438 6.992188 C 21.25 6.582031 20.824219 6.203125 20.367188 5.863281 C 19.910156 5.519531 19.425781 5.214844 18.921875 4.949219 C 18.414062 4.683594 17.890625 4.460938 17.347656 4.28125 C 16.804688 4.097656 16.25 3.964844 15.6875 3.871094 C 15.125 3.78125 14.554688 3.734375 13.984375 3.734375 C 13.414062 3.734375 12.84375 3.78125 12.28125 3.871094 C 11.714844 3.964844 11.164062 4.097656 10.621094 4.28125 C 10.078125 4.460938 9.554688 4.683594 9.046875 4.949219 C 8.539062 5.214844 8.058594 5.519531 7.601562 5.863281 C 7.144531 6.203125 6.71875 6.582031 6.320312 6.992188 C 5.925781 7.40625 5.5625 7.847656 5.238281 8.316406 C 4.914062 8.785156 4.628906 9.28125 4.382812 9.796875 C 4.136719 10.3125 3.933594 10.84375 3.773438 11.394531 L 2.007812 11.394531 C 1.941406 11.671875 1.882812 11.957031 1.832031 12.242188 L 4.097656 12.242188 C 4.316406 12.242188 4.453125 12.136719 4.507812 11.925781 C 4.640625 11.402344 4.816406 10.894531 5.035156 10.402344 C 5.253906 9.910156 5.511719 9.4375 5.808594 8.988281 C 6.105469 8.539062 6.433594 8.117188 6.800781 7.71875 C 7.167969 7.324219 7.5625 6.960938 7.988281 6.632812 C 8.414062 6.300781 8.867188 6.007812 9.339844 5.753906 C 9.8125 5.496094 10.304688 5.28125 10.816406 5.105469 C 11.324219 4.933594 11.847656 4.800781 12.378906 4.714844 C 12.910156 4.625 13.445312 4.582031 13.984375 4.582031 C 14.523438 4.582031 15.058594 4.625 15.589844 4.714844 C 16.121094 4.800781 16.640625 4.933594 17.152344 5.105469 C 17.660156 5.28125 18.152344 5.496094 18.628906 5.753906 C 19.101562 6.007812 19.550781 6.300781 19.976562 6.632812 C 20.40625 6.960938 20.800781 7.324219 21.167969 7.71875 C 21.53125 8.117188 21.863281 8.539062 22.160156 8.988281 C 22.457031 9.4375 22.710938 9.910156 22.929688 10.402344 C 23.148438 10.894531 23.324219 11.402344 23.460938 11.925781 C 23.515625 12.136719 23.652344 12.242188 23.871094 12.242188 L 26.136719 12.242188 C 26.085938 11.957031 26.027344 11.671875 25.957031 11.394531 Z M 25.957031 11.394531 " fill-opacity="1" fill-rule="nonzero"/></g><g clip-path="url(#id4)"><path fill="#b58401" d="M 26.257812 13.09375 L 22.828125 13.09375 C 22.722656 12.378906 22.535156 11.6875 22.265625 11.019531 C 22.261719 11.011719 22.257812 11.003906 22.253906 10.996094 C 21.800781 9.882812 21.148438 8.90625 20.300781 8.054688 C 20.21875 7.976562 20.117188 7.9375 20.003906 7.9375 C 19.886719 7.941406 19.789062 7.980469 19.707031 8.0625 C 19.625 8.144531 19.582031 8.242188 19.582031 8.359375 C 19.582031 8.472656 19.621094 8.574219 19.699219 8.65625 C 20.398438 9.359375 20.953125 10.167969 21.359375 11.074219 L 20.613281 11.816406 L 19.941406 11.816406 C 19.824219 11.816406 19.722656 11.859375 19.640625 11.941406 C 19.554688 12.027344 19.515625 12.125 19.515625 12.242188 C 19.515625 12.359375 19.554688 12.460938 19.640625 12.542969 C 19.722656 12.628906 19.824219 12.667969 19.941406 12.667969 L 20.792969 12.667969 C 20.910156 12.667969 21.007812 12.628906 21.09375 12.542969 L 21.6875 11.949219 C 21.859375 12.472656 21.96875 13.011719 22.027344 13.5625 C 22.039062 13.671875 22.085938 13.761719 22.167969 13.835938 C 22.246094 13.910156 22.34375 13.945312 22.453125 13.945312 L 26.3125 13.945312 C 26.300781 13.660156 26.285156 13.375 26.257812 13.09375 Z M 26.257812 13.09375 " fill-opacity="1" fill-rule="nonzero"/></g><g clip-path="url(#id5)"><path fill="#b58401" d="M 22.449219 14.796875 C 22.339844 14.796875 22.246094 14.832031 22.164062 14.90625 C 22.082031 14.980469 22.035156 15.070312 22.023438 15.179688 C 21.96875 15.730469 21.859375 16.269531 21.695312 16.800781 L 21.09375 16.199219 C 21.007812 16.113281 20.910156 16.074219 20.792969 16.074219 L 19.941406 16.074219 C 19.824219 16.074219 19.722656 16.113281 19.640625 16.199219 C 19.554688 16.28125 19.515625 16.378906 19.515625 16.5 C 19.515625 16.617188 19.554688 16.714844 19.640625 16.800781 C 19.722656 16.882812 19.824219 16.921875 19.941406 16.921875 L 20.617188 16.921875 L 21.363281 17.671875 C 21.046875 18.386719 20.636719 19.039062 20.128906 19.632812 C 19.621094 20.226562 19.039062 20.734375 18.386719 21.160156 C 17.730469 21.585938 17.027344 21.90625 16.277344 22.128906 C 15.53125 22.347656 14.765625 22.457031 13.984375 22.453125 C 13.867188 22.453125 13.765625 22.496094 13.683594 22.578125 C 13.601562 22.664062 13.558594 22.761719 13.558594 22.878906 C 13.558594 22.996094 13.601562 23.097656 13.683594 23.179688 C 13.765625 23.265625 13.867188 23.304688 13.984375 23.304688 C 14.871094 23.308594 15.742188 23.179688 16.59375 22.921875 C 17.445312 22.664062 18.238281 22.289062 18.976562 21.792969 C 19.714844 21.292969 20.363281 20.699219 20.921875 20.011719 C 21.480469 19.320312 21.929688 18.5625 22.261719 17.738281 C 22.261719 17.734375 22.261719 17.734375 22.261719 17.730469 C 22.535156 17.058594 22.722656 16.367188 22.828125 15.648438 L 26.257812 15.648438 C 26.285156 15.367188 26.300781 15.082031 26.308594 14.796875 Z M 22.449219 14.796875 " fill-opacity="1" fill-rule="nonzero"/></g><g clip-path="url(#id6)"><path fill="#b58401" d="M 23.871094 16.5 C 23.652344 16.5 23.515625 16.605469 23.460938 16.816406 C 23.324219 17.339844 23.148438 17.847656 22.929688 18.339844 C 22.710938 18.832031 22.457031 19.304688 22.160156 19.753906 C 21.863281 20.203125 21.53125 20.625 21.167969 21.023438 C 20.800781 21.417969 20.40625 21.78125 19.976562 22.109375 C 19.550781 22.441406 19.101562 22.734375 18.628906 22.988281 C 18.152344 23.246094 17.660156 23.460938 17.152344 23.632812 C 16.640625 23.808594 16.121094 23.941406 15.589844 24.027344 C 15.058594 24.117188 14.523438 24.160156 13.984375 24.160156 C 13.445312 24.160156 12.910156 24.117188 12.378906 24.027344 C 11.847656 23.941406 11.324219 23.808594 10.816406 23.632812 C 10.304688 23.460938 9.8125 23.246094 9.339844 22.988281 C 8.867188 22.734375 8.414062 22.441406 7.988281 22.109375 C 7.5625 21.78125 7.167969 21.417969 6.800781 21.023438 C 6.433594 20.625 6.105469 20.203125 5.808594 19.753906 C 5.511719 19.304688 5.253906 18.832031 5.035156 18.339844 C 4.816406 17.847656 4.640625 17.339844 4.507812 16.816406 C 4.453125 16.605469 4.316406 16.5 4.097656 16.5 L 1.832031 16.5 C 1.882812 16.785156 1.9375 17.070312 2.007812 17.347656 L 3.773438 17.347656 C 3.933594 17.898438 4.136719 18.429688 4.382812 18.945312 C 4.628906 19.460938 4.914062 19.957031 5.238281 20.425781 C 5.5625 20.894531 5.925781 21.335938 6.320312 21.75 C 6.71875 22.160156 7.144531 22.539062 7.601562 22.878906 C 8.058594 23.222656 8.539062 23.527344 9.046875 23.792969 C 9.554688 24.058594 10.078125 24.28125 10.621094 24.460938 C 11.164062 24.644531 11.714844 24.777344 12.28125 24.871094 C 12.84375 24.960938 13.414062 25.007812 13.984375 25.007812 C 14.554688 25.007812 15.125 24.960938 15.6875 24.871094 C 16.25 24.777344 16.804688 24.644531 17.347656 24.460938 C 17.890625 24.28125 18.414062 24.058594 18.921875 23.792969 C 19.425781 23.527344 19.910156 23.222656 20.367188 22.878906 C 20.824219 22.539062 21.25 22.160156 21.648438 21.75 C 22.042969 21.335938 22.402344 20.894531 22.730469 20.425781 C 23.054688 19.957031 23.339844 19.460938 23.585938 18.945312 C 23.832031 18.429688 24.035156 17.898438 24.195312 17.347656 L 25.957031 17.347656 C 26.027344 17.070312 26.085938 16.785156 26.136719 16.5 Z M 23.871094 16.5 " fill-opacity="1" fill-rule="nonzero"/></g><g clip-path="url(#id7)"><path fill="#b58401" d="M 8.027344 16.921875 C 8.144531 16.921875 8.246094 16.882812 8.328125 16.800781 C 8.410156 16.714844 8.453125 16.617188 8.453125 16.5 C 8.453125 16.378906 8.410156 16.28125 8.328125 16.199219 C 8.246094 16.113281 8.144531 16.074219 8.027344 16.074219 L 7.175781 16.074219 C 7.058594 16.074219 6.957031 16.113281 6.875 16.199219 L 6.277344 16.792969 C 6.109375 16.265625 5.996094 15.730469 5.941406 15.179688 C 5.929688 15.070312 5.882812 14.980469 5.800781 14.90625 C 5.71875 14.832031 5.625 14.796875 5.515625 14.796875 L 1.65625 14.796875 C 1.664062 15.082031 1.683594 15.367188 1.707031 15.648438 L 5.140625 15.648438 C 5.242188 16.363281 5.429688 17.054688 5.703125 17.722656 C 5.707031 17.730469 5.710938 17.738281 5.714844 17.746094 C 6.167969 18.859375 6.820312 19.835938 7.667969 20.6875 C 7.75 20.773438 7.851562 20.816406 7.96875 20.820312 C 8.089844 20.820312 8.191406 20.777344 8.277344 20.695312 C 8.359375 20.609375 8.402344 20.507812 8.402344 20.386719 C 8.398438 20.269531 8.355469 20.167969 8.269531 20.085938 C 7.566406 19.382812 7.015625 18.574219 6.609375 17.667969 L 7.355469 16.921875 Z M 8.027344 16.921875 " fill-opacity="1" fill-rule="nonzero"/></g><path fill="#b58401" d="M 19.089844 5.011719 C 19.089844 5.246094 19.007812 5.445312 18.839844 5.613281 C 18.675781 5.777344 18.472656 5.863281 18.238281 5.863281 C 18.003906 5.863281 17.804688 5.777344 17.636719 5.613281 C 17.472656 5.445312 17.386719 5.246094 17.386719 5.011719 C 17.386719 4.777344 17.472656 4.574219 17.636719 4.410156 C 17.804688 4.242188 18.003906 4.160156 18.238281 4.160156 C 18.472656 4.160156 18.675781 4.242188 18.839844 4.410156 C 19.007812 4.574219 19.089844 4.777344 19.089844 5.011719 Z M 19.089844 5.011719 " fill-opacity="1" fill-rule="nonzero"/><path fill="#b58401" d="M 10.15625 23.304688 C 10.15625 23.539062 10.070312 23.742188 9.90625 23.90625 C 9.738281 24.074219 9.539062 24.15625 9.304688 24.15625 C 9.070312 24.15625 8.867188 24.074219 8.703125 23.90625 C 8.535156 23.742188 8.453125 23.539062 8.453125 23.304688 C 8.453125 23.070312 8.535156 22.871094 8.703125 22.703125 C 8.867188 22.539062 9.070312 22.453125 9.304688 22.453125 C 9.539062 22.453125 9.738281 22.539062 9.90625 22.703125 C 10.070312 22.871094 10.15625 23.070312 10.15625 23.304688 Z M 10.15625 23.304688 " fill-opacity="1" fill-rule="nonzero"/></svg>