<svg width="52" height="52" viewBox="0 0 52 52" fill="none" xmlns="http://www.w3.org/2000/svg">
<rect width="52" height="52" rx="6" fill="#4267B2" fill-opacity="0.12"/>
<path d="M13.6941 8.85199C12.5204 8.94981 11.6171 9.62298 11.174 10.7334L11.0187 11.1247L11.0014 24.243C10.9957 32.1773 11.0072 37.4707 11.0417 37.649C11.2201 38.6099 11.7724 39.3924 12.5779 39.8239C13.2914 40.2094 12.739 40.1806 19.5801 40.1979L25.7825 40.2151L24.9828 39.5247C23.9817 38.6617 23.4868 38.0863 23.1071 37.3498L23.015 37.1657L19.4305 37.1427C15.5008 37.1254 15.5871 37.1312 15.0577 36.7687C14.5111 36.3832 14.2235 35.992 14.0739 35.4051C13.9933 35.1059 13.9818 33.8574 13.9818 24.4732C13.9818 12.9371 13.9645 13.5297 14.2983 12.9601C14.6377 12.379 15.2936 11.9475 16.0071 11.8381C16.2315 11.8036 19.4708 11.7864 24.6836 11.7979L32.9976 11.8151L33.3428 11.9532C33.9815 12.2064 34.4648 12.6724 34.7065 13.2708L34.8388 13.5988L34.8561 22.4997C34.8618 27.4018 34.8848 31.4063 34.9078 31.4063C34.9251 31.4063 34.9711 31.3718 35.0057 31.3258C35.0402 31.2797 35.535 30.6929 36.1046 30.0197C36.6742 29.3465 37.3014 28.6043 37.5027 28.3684L37.8595 27.9369L37.848 19.5883L37.8307 11.2398L37.7099 10.9233C37.4855 10.3364 37.3301 10.0948 36.9331 9.70353C36.5304 9.30653 36.2197 9.11666 35.6731 8.93254C35.3681 8.82898 34.9251 8.82323 24.7699 8.81747C18.9472 8.81172 13.9645 8.82898 13.6941 8.85199Z" fill="#4267B2"/>
<path d="M17.5207 15.6931C17.1007 15.7967 16.7267 16.0844 16.531 16.4641C16.1571 17.1833 16.4447 18.0867 17.1755 18.4779L17.4056 18.6045H24.5689H31.7322L31.9623 18.4779C32.8714 17.9889 33.044 16.8209 32.3191 16.0556C32.1982 15.929 32.0141 15.8312 31.7725 15.7564C31.4157 15.6471 31.2144 15.6414 24.5459 15.6471C20.7772 15.6529 17.6185 15.6701 17.5207 15.6931Z" fill="#4267B2"/>
<path d="M17.4344 20.6989C17.0258 20.8255 16.7267 21.0844 16.5253 21.4814C16.157 22.2006 16.4275 23.0406 17.1524 23.4376L17.4631 23.6102H24.5689C31.3985 23.6102 31.6804 23.6045 31.876 23.5009C32.2558 23.2995 32.4514 23.1154 32.6067 22.8162C33.0095 22.0395 32.6413 21.0671 31.8357 20.7622C31.5308 20.6471 31.387 20.6471 24.5516 20.6529C20.7139 20.6529 17.5149 20.6759 17.4344 20.6989Z" fill="#4267B2"/>
<path d="M17.1582 25.8024C16.6634 26.0498 16.3814 26.5101 16.3757 27.0912C16.3699 27.4019 16.3987 27.517 16.5368 27.7702C16.7267 28.1096 17.0604 28.3858 17.3826 28.4721C17.5207 28.5124 20.1328 28.5239 24.7012 28.5181L31.8012 28.5009L32.1119 28.2937C33.1015 27.6378 32.952 26.1994 31.8472 25.7334C31.6804 25.6643 30.6217 25.6528 24.5516 25.6528H17.4574L17.1582 25.8024Z" fill="#4267B2"/>
<path d="M43.7569 25.8599C43.3656 25.9577 42.9974 26.1533 42.6637 26.4525C42.4393 26.6481 41.8466 27.3328 40.1896 29.2775C38.2161 31.602 37.9514 31.907 37.7788 32.0968C37.681 32.2062 37.3933 32.5399 37.1402 32.8448C36.887 33.1497 36.2944 33.8517 35.8168 34.404C35.345 34.9564 34.7064 35.6986 34.4072 36.0553C34.108 36.4063 33.8318 36.6998 33.7973 36.6998C33.7628 36.6998 33.4866 36.4869 33.1874 36.2222C31.0816 34.3868 29.2922 32.9023 29.0045 32.7527C27.5258 31.9587 25.6444 32.8391 25.2589 34.5076C25.0978 35.2038 25.3222 36.1244 25.794 36.6825C26.0414 36.9702 26.9965 37.8102 29.5453 39.9851C30.3393 40.6583 31.2312 41.4293 31.5303 41.6939C32.2898 42.3671 32.6811 42.6663 33.0666 42.8447C33.3715 42.9885 33.4578 43 34.0965 43C34.7754 43 34.7927 42.9942 35.2184 42.7871C35.742 42.5282 35.8168 42.4476 37.5199 40.4741C37.8191 40.1289 38.1413 39.7492 38.2391 39.6399C38.3312 39.5248 39.1482 38.5639 40.0457 37.5053C40.9433 36.4466 42.1343 35.0485 42.6924 34.404C43.2448 33.7539 43.9467 32.9369 44.2459 32.5801C44.5451 32.2234 45.1435 31.5272 45.5693 31.0209C46.6912 29.7091 46.743 29.6285 46.9271 28.9611C47.14 28.1843 46.8753 27.212 46.2712 26.5906C45.6153 25.9059 44.6889 25.6355 43.7569 25.8599Z" fill="#4267B2"/>
<path d="M17.29 30.5146C16.1047 30.9979 16.0357 32.5341 17.1749 33.1498C17.3993 33.2764 17.4453 33.2764 20.1323 33.2764H22.8595L23.1587 32.6837C23.6017 31.8207 24.1656 31.1935 24.9538 30.6757C25.1667 30.5319 25.3566 30.4053 25.3681 30.3938C25.3796 30.3823 23.6477 30.3708 21.5131 30.3708H17.6352L17.29 30.5146Z" fill="#4267B2"/>
<path d="M30.2879 30.4225C30.3051 30.4513 30.4432 30.5433 30.587 30.6296C30.892 30.808 30.8344 30.762 31.8701 31.648C32.3016 32.022 32.6699 32.3212 32.6929 32.327C32.7619 32.327 32.8137 31.93 32.7734 31.6826C32.6814 31.1014 32.2556 30.6239 31.686 30.457C31.3695 30.365 30.2361 30.3362 30.2879 30.4225Z" fill="#4267B2"/>
</svg>
