<svg width="234" height="42" viewBox="0 0 234 42" fill="none" xmlns="http://www.w3.org/2000/svg">
<g clip-path="url(#clip0_2_305)">
<mask id="mask0_2_305" style="mask-type:luminance" maskUnits="userSpaceOnUse" x="0" y="0" width="234" height="42">
<path d="M233.527 0H0V41.7159H233.527V0Z" fill="white"/>
</mask>
<g mask="url(#mask0_2_305)">
<path d="M47.132 11.6463C38.6485 11.6463 32.0199 18.0863 32.0199 26.7075C32.0199 35.3289 38.481 41.7137 47.132 41.7137C55.783 41.7137 62.3565 35.2186 62.3565 26.6525C62.3565 18.1414 55.8954 11.6463 47.132 11.6463ZM47.1893 35.5006C42.3582 35.5006 38.8181 31.7485 38.8181 26.7097C38.8181 21.6136 42.3009 17.8637 47.132 17.8637C52.0203 17.8637 55.5583 21.6709 55.5583 26.7097C55.5583 31.7485 52.0203 35.5006 47.1893 35.5006ZM64.2093 18.1986H68.4232V41.1562H75.1642V12.2059H64.2093V18.1986ZM15.0549 17.8616C18.595 17.8616 21.4038 20.045 22.4701 23.2925H29.6054C28.3123 16.3501 22.5824 11.6463 15.1122 11.6463C6.62865 11.6463 0 18.0863 0 26.7097C0 35.3331 6.4612 41.7159 15.1122 41.7159C22.4149 41.7159 28.2572 37.012 29.5502 30.0124H22.4701C21.4589 33.2599 18.6501 35.5006 15.1101 35.5006C10.2218 35.5006 6.7961 31.7485 6.7961 26.7097C6.79825 21.6136 10.1688 17.8616 15.0549 17.8616ZM192.293 23.9094L187.349 23.1823C184.99 22.8474 183.305 22.0631 183.305 20.2146C183.305 18.1986 185.497 17.1917 188.473 17.1917C191.731 17.1917 193.811 18.5908 194.26 20.8866H200.777C200.045 15.0634 195.551 11.6484 188.642 11.6484C181.507 11.6484 176.789 15.2882 176.789 20.4393C176.789 25.3657 179.879 28.2233 186.113 29.1178L191.057 29.8449C193.474 30.1798 194.822 31.1337 194.822 32.925C194.822 35.2208 192.463 36.1726 189.204 36.1726C185.215 36.1726 182.968 34.5488 182.631 32.0856H176.002C176.621 37.7412 181.058 41.7159 189.147 41.7159C196.507 41.7159 201.393 38.356 201.393 32.5879C201.393 27.4368 197.855 24.7489 192.293 23.9094ZM71.7937 0.279816C69.322 0.279816 67.4676 2.07106 67.4676 4.53429C67.4676 6.99751 69.3201 8.78875 71.7937 8.78875C74.2653 8.78875 76.1204 6.99751 76.1204 4.53429C76.1204 2.07106 74.2653 0.279816 71.7937 0.279816ZM170.722 22.1181C170.722 15.8477 166.902 11.6484 158.812 11.6484C151.172 11.6484 146.903 15.5128 146.06 21.4483H152.745C153.082 19.1525 154.88 17.2489 158.7 17.2489C162.128 17.2489 163.813 18.7603 163.813 20.6089C163.813 23.017 160.722 23.6317 156.903 24.0239C151.734 24.5835 145.33 26.3747 145.33 33.0946C145.33 38.303 149.207 41.6607 155.387 41.6607C160.218 41.6607 163.251 39.6448 164.769 36.4524C164.994 39.3078 167.129 41.1562 170.107 41.1562H174.039V35.1656H170.724V22.1181H170.722ZM164.093 29.3976C164.093 33.262 160.722 36.1174 156.62 36.1174C154.092 36.1174 151.957 35.0533 151.957 32.8148C151.957 29.9594 155.384 29.175 158.531 28.8401C161.564 28.5603 163.249 27.8883 164.093 26.5995V29.3976ZM128.308 11.6463C124.543 11.6463 121.398 13.2149 119.151 15.8456V0H112.41V41.1562H119.038V37.3491C121.285 40.0921 124.489 41.7159 128.308 41.7159C136.397 41.7159 142.522 35.3331 142.522 26.7097C142.522 18.0863 136.285 11.6463 128.308 11.6463ZM127.297 35.5006C122.466 35.5006 118.926 31.7485 118.926 26.7097C118.926 21.6709 122.521 17.8637 127.352 17.8637C132.241 17.8637 135.666 21.6158 135.666 26.7097C135.666 31.7485 132.128 35.5006 127.297 35.5006ZM96.2861 11.6463C91.9046 11.6463 89.0386 13.4375 87.3537 15.958V12.2059H80.6674V41.1541H87.4085V25.4209C87.4085 20.9968 90.2171 17.8616 94.3743 17.8616C98.2513 17.8616 100.666 20.6046 100.666 24.5814V41.1562H107.407V24.079C107.409 16.7974 103.646 11.6463 96.2861 11.6463ZM233.527 25.7579C233.527 17.4715 227.46 11.6484 219.314 11.6484C210.663 11.6484 204.315 18.1435 204.315 26.7097C204.315 35.7253 211.112 41.7159 219.427 41.7159C226.449 41.7159 231.955 37.5717 233.358 31.6934H226.335C225.324 34.2689 222.852 35.7253 219.537 35.7253C215.21 35.7253 211.952 33.0373 211.222 28.3335H233.525V25.7579H233.527ZM211.617 23.5173C212.686 19.4854 215.719 17.5267 219.202 17.5267C223.022 17.5267 225.943 19.71 226.617 23.5173H211.617Z" fill="#0052FF"/>
</g>
</g>
<defs>
<clipPath id="clip0_2_305">
<rect width="234" height="41.7159" fill="white"/>
</clipPath>
</defs>
</svg>
