<svg xmlns="http://www.w3.org/2000/svg" xmlns:xlink="http://www.w3.org/1999/xlink" width="40" zoomAndPan="magnify" viewBox="0 0 30 30.000001" height="40" preserveAspectRatio="xMidYMid meet" version="1.0"><defs><clipPath id="id1"><path d="M 3.53125 1.523438 L 23 1.523438 L 23 27.652344 L 3.53125 27.652344 Z M 3.53125 1.523438 " clip-rule="nonzero"/></clipPath><clipPath id="id2"><path d="M 10 4 L 29.515625 4 L 29.515625 25 L 10 25 Z M 10 4 " clip-rule="nonzero"/></clipPath></defs><path fill="rgb(85.099792%, 85.099792%, 85.099792%)" d="M 9.207031 13.355469 C 9.058594 13.238281 8.816406 13.265625 8.667969 13.417969 L 7.40625 14.980469 L 7.015625 14.617188 C 6.867188 14.46875 6.625 14.46875 6.476562 14.617188 C 6.324219 14.769531 6.324219 15.007812 6.476562 15.160156 C 6.476562 15.160156 7.195312 15.820312 7.195312 15.820312 C 7.375 15.96875 7.648438 15.910156 7.738281 15.789062 L 9.238281 13.898438 C 9.390625 13.71875 9.449219 13.539062 9.207031 13.355469 Z M 9.207031 13.355469 " fill-opacity="1" fill-rule="nonzero"/><g clip-path="url(#id1)"><path fill="rgb(85.099792%, 85.099792%, 85.099792%)" d="M 22.484375 16.960938 C 22.273438 16.960938 22.121094 17.140625 22.121094 17.320312 L 22.121094 26.902344 L 4.3125 26.902344 L 4.3125 2.273438 L 16.71875 2.273438 L 16.71875 7.261719 C 16.71875 7.472656 16.867188 7.652344 17.078125 7.652344 L 22.0625 7.652344 L 22.0625 8.132812 C 22.0625 8.339844 22.242188 8.492188 22.421875 8.492188 C 22.601562 8.492188 22.785156 8.3125 22.785156 8.132812 L 22.785156 7.261719 C 22.785156 7.171875 22.753906 7.082031 22.664062 6.992188 L 17.378906 1.644531 C 17.316406 1.554688 17.199219 1.523438 17.105469 1.523438 L 3.953125 1.523438 C 3.742188 1.523438 3.59375 1.703125 3.59375 1.882812 L 3.59375 27.292969 C 3.59375 27.503906 3.773438 27.652344 3.953125 27.652344 L 22.484375 27.652344 C 22.695312 27.652344 22.84375 27.472656 22.84375 27.292969 L 22.84375 17.320312 C 22.84375 17.113281 22.695312 16.960938 22.484375 16.960938 Z M 22.484375 16.960938 " fill-opacity="1" fill-rule="nonzero"/></g><path fill="rgb(85.099792%, 85.099792%, 85.099792%)" d="M 20.199219 9.304688 C 20.199219 9.09375 20.019531 8.941406 19.839844 8.941406 L 10.890625 8.941406 C 10.679688 8.941406 10.53125 9.121094 10.53125 9.304688 C 10.53125 9.484375 10.710938 9.664062 10.890625 9.664062 L 19.839844 9.664062 C 20.050781 9.691406 20.199219 9.511719 20.199219 9.304688 Z M 20.199219 9.304688 " fill-opacity="1" fill-rule="nonzero"/><path fill="rgb(85.099792%, 85.099792%, 85.099792%)" d="M 10.890625 10.863281 C 10.679688 10.863281 10.53125 11.042969 10.53125 11.226562 C 10.53125 11.40625 10.710938 11.585938 10.890625 11.585938 L 17.316406 11.585938 C 17.527344 11.585938 17.679688 11.40625 17.679688 11.226562 C 17.679688 11.042969 17.527344 10.863281 17.316406 10.863281 Z M 10.890625 10.863281 " fill-opacity="1" fill-rule="nonzero"/><path fill="rgb(85.099792%, 85.099792%, 85.099792%)" d="M 9.207031 8.402344 C 9.058594 8.28125 8.816406 8.3125 8.667969 8.460938 L 7.40625 10.023438 L 7.015625 9.664062 C 6.867188 9.511719 6.625 9.511719 6.476562 9.664062 C 6.324219 9.8125 6.324219 10.054688 6.476562 10.203125 C 6.476562 10.203125 7.195312 10.863281 7.195312 10.863281 C 7.375 11.015625 7.648438 10.953125 7.738281 10.835938 L 9.238281 8.941406 C 9.390625 8.761719 9.417969 8.582031 9.207031 8.402344 Z M 9.207031 8.402344 " fill-opacity="1" fill-rule="nonzero"/><path fill="rgb(85.099792%, 85.099792%, 85.099792%)" d="M 9.207031 18.132812 C 9.058594 18.011719 8.816406 18.042969 8.667969 18.191406 L 7.40625 19.753906 L 7.015625 19.394531 C 6.867188 19.242188 6.625 19.242188 6.476562 19.394531 C 6.324219 19.542969 6.324219 19.785156 6.476562 19.933594 C 6.476562 19.933594 7.195312 20.59375 7.195312 20.59375 C 7.375 20.746094 7.648438 20.683594 7.738281 20.566406 L 9.238281 18.671875 C 9.390625 18.523438 9.417969 18.3125 9.207031 18.132812 Z M 9.207031 18.132812 " fill-opacity="1" fill-rule="nonzero"/><g clip-path="url(#id2)"><path fill="rgb(85.099792%, 85.099792%, 85.099792%)" d="M 29.390625 8.339844 L 28.308594 7.5 L 29.03125 6.570312 C 29.179688 6.390625 29.332031 6.089844 29 5.820312 L 27.4375 4.585938 C 27.199219 4.378906 26.808594 4.378906 26.597656 4.648438 L 25.878906 5.578125 C 25.816406 5.546875 25.726562 5.519531 25.667969 5.546875 C 25.578125 5.546875 25.488281 5.609375 25.425781 5.699219 L 24.164062 7.320312 C 24.074219 7.472656 24.074219 7.652344 24.164062 7.769531 L 19.417969 13.808594 L 10.890625 13.808594 C 10.679688 13.808594 10.53125 13.988281 10.53125 14.167969 C 10.53125 14.347656 10.710938 14.527344 10.890625 14.527344 L 18.820312 14.527344 L 17.917969 15.699219 L 10.890625 15.699219 C 10.679688 15.699219 10.53125 15.878906 10.53125 16.058594 C 10.53125 16.242188 10.710938 16.421875 10.890625 16.421875 L 17.347656 16.421875 L 15.636719 18.671875 L 10.890625 18.671875 C 10.679688 18.671875 10.53125 18.851562 10.53125 19.035156 C 10.53125 19.214844 10.710938 19.394531 10.890625 19.394531 L 15.035156 19.394531 L 14.285156 20.355469 C 14.285156 20.355469 14.253906 20.445312 14.222656 20.566406 L 10.890625 20.566406 C 10.679688 20.566406 10.53125 20.746094 10.53125 20.925781 C 10.53125 21.105469 10.710938 21.285156 10.890625 21.285156 L 13.984375 21.285156 C 13.683594 22.246094 13.292969 23.597656 13.292969 23.597656 C 13.234375 23.75 13.292969 23.929688 13.414062 24.019531 C 13.535156 24.109375 13.714844 24.109375 13.832031 24.050781 C 13.832031 24.050781 16.6875 22.335938 16.746094 22.277344 L 26.566406 9.632812 C 26.628906 9.664062 26.6875 9.691406 26.777344 9.691406 C 26.898438 9.691406 27.019531 9.632812 27.078125 9.542969 L 28.097656 8.222656 L 28.640625 8.640625 L 25.578125 12.636719 C 25.457031 12.816406 25.488281 13.027344 25.636719 13.175781 C 25.785156 13.328125 26.027344 13.265625 26.175781 13.117188 L 29.480469 8.882812 C 29.601562 8.703125 29.542969 8.460938 29.390625 8.339844 Z M 14.285156 22.9375 L 14.824219 21.136719 C 15.035156 21.257812 15.214844 21.375 15.394531 21.496094 C 15.574219 21.648438 15.753906 21.796875 15.90625 21.945312 Z M 26.71875 8.851562 L 24.945312 7.472656 L 25.695312 6.507812 L 27.46875 7.890625 Z M 26.71875 8.851562 " fill-opacity="1" fill-rule="nonzero"/></g></svg>