<svg xmlns="http://www.w3.org/2000/svg" xmlns:xlink="http://www.w3.org/1999/xlink" width="40" zoomAndPan="magnify" viewBox="0 0 30 30.000001" height="40" preserveAspectRatio="xMidYMid meet" version="1.0"><defs><clipPath id="id1"><path d="M 3.261719 2 L 26.484375 2 L 26.484375 28.027344 L 3.261719 28.027344 Z M 3.261719 2 " clip-rule="nonzero"/></clipPath><clipPath id="id2"><path d="M 3.261719 1.171875 L 9 1.171875 L 9 8 L 3.261719 8 Z M 3.261719 1.171875 " clip-rule="nonzero"/></clipPath><clipPath id="id3"><path d="M 3.261719 11 L 9 11 L 9 18 L 3.261719 18 Z M 3.261719 11 " clip-rule="nonzero"/></clipPath><clipPath id="id4"><path d="M 21 1.171875 L 26.484375 1.171875 L 26.484375 8 L 21 8 Z M 21 1.171875 " clip-rule="nonzero"/></clipPath><clipPath id="id5"><path d="M 21 11 L 26.484375 11 L 26.484375 18 L 21 18 Z M 21 11 " clip-rule="nonzero"/></clipPath></defs><g clip-path="url(#id1)"><path fill="rgb(49.409485%, 85.099792%, 34.118652%)" d="M 22.484375 19.8125 L 18.859375 19.082031 C 18.472656 19.003906 18.191406 18.65625 18.191406 18.257812 L 18.191406 17.417969 C 18.429688 17.082031 18.652344 16.632812 18.886719 16.164062 C 19.0625 15.808594 19.332031 15.273438 19.449219 15.148438 C 20.152344 14.453125 20.902344 13.589844 21.132812 12.460938 C 21.339844 11.441406 21.132812 10.910156 20.890625 10.492188 C 20.890625 9.671875 20.890625 8.167969 20.609375 7.085938 C 20.578125 5.777344 20.34375 5.039062 19.746094 4.382812 C 19.324219 3.921875 18.703125 3.816406 18.207031 3.730469 C 18.011719 3.699219 17.738281 3.652344 17.644531 3.597656 C 16.785156 3.113281 15.910156 2.875 14.839844 2.851562 C 12.652344 2.933594 9.964844 4.339844 9.066406 6.863281 C 8.792969 7.632812 8.816406 8.890625 8.835938 9.902344 L 8.816406 10.492188 C 8.605469 10.910156 8.398438 11.441406 8.605469 12.460938 C 8.835938 13.59375 9.585938 14.453125 10.285156 15.148438 C 10.40625 15.277344 10.675781 15.8125 10.855469 16.167969 C 11.089844 16.632812 11.316406 17.082031 11.554688 17.417969 L 11.554688 18.257812 C 11.554688 18.65625 11.273438 19.003906 10.890625 19.082031 L 7.261719 19.816406 C 4.941406 20.285156 3.261719 22.363281 3.261719 24.753906 L 3.261719 26.347656 C 3.261719 27.273438 4.003906 28.027344 4.917969 28.027344 L 24.824219 28.027344 C 25.742188 28.027344 26.484375 27.273438 26.484375 26.347656 L 26.484375 24.753906 C 26.484375 22.363281 24.800781 20.285156 22.484375 19.8125 Z M 22.484375 19.8125 " fill-opacity="1" fill-rule="nonzero"/></g><g clip-path="url(#id2)"><path fill="rgb(49.409485%, 85.099792%, 34.118652%)" d="M 4.089844 7.886719 C 4.546875 7.886719 4.917969 7.507812 4.917969 7.046875 L 4.917969 2.851562 L 7.40625 2.851562 C 7.867188 2.851562 8.238281 2.472656 8.238281 2.011719 C 8.238281 1.546875 7.867188 1.171875 7.40625 1.171875 L 4.089844 1.171875 C 3.632812 1.171875 3.261719 1.546875 3.261719 2.011719 L 3.261719 7.046875 C 3.261719 7.507812 3.632812 7.886719 4.089844 7.886719 Z M 4.089844 7.886719 " fill-opacity="1" fill-rule="nonzero"/></g><g clip-path="url(#id3)"><path fill="rgb(49.409485%, 85.099792%, 34.118652%)" d="M 4.089844 17.957031 L 7.40625 17.957031 C 7.867188 17.957031 8.238281 17.578125 8.238281 17.117188 C 8.238281 16.652344 7.867188 16.277344 7.40625 16.277344 L 4.917969 16.277344 L 4.917969 12.082031 C 4.917969 11.617188 4.546875 11.242188 4.089844 11.242188 C 3.632812 11.242188 3.261719 11.617188 3.261719 12.082031 L 3.261719 17.117188 C 3.261719 17.578125 3.632812 17.957031 4.089844 17.957031 Z M 4.089844 17.957031 " fill-opacity="1" fill-rule="nonzero"/></g><g clip-path="url(#id4)"><path fill="rgb(49.409485%, 85.099792%, 34.118652%)" d="M 25.65625 1.171875 L 22.335938 1.171875 C 21.878906 1.171875 21.507812 1.546875 21.507812 2.011719 C 21.507812 2.472656 21.878906 2.851562 22.335938 2.851562 L 24.824219 2.851562 L 24.824219 7.046875 C 24.824219 7.507812 25.199219 7.886719 25.65625 7.886719 C 26.113281 7.886719 26.484375 7.507812 26.484375 7.046875 L 26.484375 2.011719 C 26.484375 1.546875 26.113281 1.171875 25.65625 1.171875 Z M 25.65625 1.171875 " fill-opacity="1" fill-rule="nonzero"/></g><g clip-path="url(#id5)"><path fill="rgb(49.409485%, 85.099792%, 34.118652%)" d="M 25.65625 11.242188 C 25.199219 11.242188 24.824219 11.617188 24.824219 12.082031 L 24.824219 16.277344 L 22.335938 16.277344 C 21.878906 16.277344 21.507812 16.652344 21.507812 17.117188 C 21.507812 17.578125 21.878906 17.957031 22.335938 17.957031 L 25.65625 17.957031 C 26.113281 17.957031 26.484375 17.578125 26.484375 17.117188 L 26.484375 12.082031 C 26.484375 11.617188 26.113281 11.242188 25.65625 11.242188 Z M 25.65625 11.242188 " fill-opacity="1" fill-rule="nonzero"/></g></svg>