<?xml version="1.0" encoding="utf-8"?>
<!-- Generator: Adobe Illustrator 26.0.1, SVG Export Plug-In . SVG Version: 6.00 Build 0)  -->
<svg version="1.1" id="Layer_1" xmlns="http://www.w3.org/2000/svg" xmlns:xlink="http://www.w3.org/1999/xlink" x="0px" y="0px"
	 viewBox="0 0 911.34 130.73" style="enable-background:new 0 0 911.34 130.73;" xml:space="preserve">
<style type="text/css">
	.st0{fill:#0052FF;}
	.st1{fill:#103872;}
</style>
<g>
	<g>
		<g>
			<rect x="108.36" class="st0" width="22.37" height="22.37"/>
			<rect x="108.36" y="108.36" class="st0" width="22.37" height="22.37"/>
			<rect y="108.36" class="st0" width="22.37" height="22.37"/>
			<rect class="st0" width="22.37" height="22.37"/>
			<path class="st0" d="M108.36,22.37h-21.2V0H43.58v22.37h-21.2v21.2H0v43.58h22.37v21.2h21.2v22.37h43.58v-22.37h21.2v-21.2h22.37
				V43.58h-22.37V22.37z M43.58,87.15V43.58h43.58v43.58H43.58z"/>
		</g>
	</g>
	<g>
		<g>
			<path class="st1" d="M156.89,65.37c0-20.22,14.85-34.31,33.73-34.31c18.88,0,33.73,14.09,33.73,34.31s-14.85,34.31-33.73,34.31
				C171.74,99.67,156.89,85.59,156.89,65.37z M211.7,65.37c0-13.8-8.91-23-21.08-23c-12.07,0-20.99,9.2-20.99,23
				c0,13.8,8.91,23,20.99,23C202.79,88.37,211.7,79.17,211.7,65.37z"/>
			<path class="st1" d="M267.47,48.11v10.64h-4.22c-9.68,0-14.85,5.18-14.85,15.81v24.34h-11.69V48.11h11.5v8.72
				c2.97-5.65,8.72-8.72,15.24-8.72H267.47z"/>
			<path class="st1" d="M313.86,28.95h11.69v69.96h-11.6v-7.28c-3.26,4.98-9.39,8.05-16.48,8.05c-13.13,0-23.58-10.54-23.58-26.16
				s10.45-26.16,23.58-26.16c7,0,13.13,3.07,16.39,7.86V28.95z M314.05,73.51c0-9.58-5.85-15.81-14.09-15.81
				c-8.34,0-14.18,6.23-14.18,15.81c0,9.58,5.85,15.81,14.18,15.81C308.2,89.32,314.05,83.1,314.05,73.51z"/>
			<path class="st1" d="M338.58,33.45c0-4.31,3.55-7.57,7.76-7.57c4.22,0,7.76,3.26,7.76,7.57s-3.55,7.48-7.76,7.48
				C342.12,40.93,338.58,37.76,338.58,33.45z"/>
			<rect x="340.49" y="48.11" class="st1" width="11.69" height="50.79"/>
			<path class="st1" d="M413.71,67.09v31.82h-11.69V70.44c0-8.34-4.12-12.46-10.64-12.46c-7.28,0-12.65,4.89-12.65,13.99v26.93
				h-11.69V48.11h11.5v7.38c3.55-5.08,9.78-8.15,16.87-8.15C406.33,47.35,413.71,54.54,413.71,67.09z"/>
			<path class="st1" d="M476.76,89.23v9.68h-6.13c-5.85,0-9.78-2.68-10.73-7.76c-3.35,5.27-9.78,8.34-17.35,8.34
				c-10.73,0-18.11-6.23-18.11-15.24c0-9.3,7.76-15.43,20.41-15.43h14.57v-1.73c0-6.71-3.83-10.16-10.54-10.16
				c-6.13,0-9.87,2.78-10.64,7.48h-12.08c1.05-10.45,9.68-17.06,23-17.06c13.9,0,21.56,7.28,21.56,20.13V85.2
				c0,2.78,1.25,4.03,4.03,4.03H476.76z M459.42,77.63v-0.67h-13.03c-6.71,0-10.16,2.49-10.16,6.61c0,4.03,3.35,6.71,9.01,6.71
				C453.38,90.28,459.42,84.92,459.42,77.63z"/>
			<path class="st1" d="M486.15,98.91V28.95h11.69v69.96H486.15z"/>
			<path class="st1" d="M532.82,31.82c20.89,0,35.65,12.65,35.65,33.54c0,20.89-14.76,33.54-35.65,33.54h-18.4V31.82H532.82z
				 M533.2,91.43c16.29,0,26.64-9.58,26.64-26.07S549.49,39.3,533.2,39.3h-10.35v52.13H533.2z"/>
			<path class="st1" d="M579.2,73.99c0-14.95,11.02-25.78,25.2-25.78c14.09,0,25.11,10.83,25.11,25.78
				c0,14.85-11.02,25.68-25.11,25.68C590.22,99.67,579.2,88.85,579.2,73.99z M621.27,73.99c0-11.02-7-18.59-16.87-18.59
				c-9.97,0-16.96,7.57-16.96,18.59c0,10.92,7,18.5,16.96,18.5C614.27,92.49,621.27,84.92,621.27,73.99z"/>
			<path class="st1" d="M717,67.47v31.43h-8.05V69.39c0-9.3-4.6-13.8-11.21-13.8c-7.47,0-13.8,5.65-13.8,15.62v27.7h-8.05V69.39
				c0-9.3-4.7-13.8-11.31-13.8c-7.38,0-13.7,5.65-13.7,15.62v27.7h-8.05V48.98h8.05v7.28c3.55-5.08,9.39-8.05,15.91-8.05
				c7.28,0,13.03,3.64,15.62,10.25c3.26-6.42,9.97-10.25,17.44-10.25C710.01,48.21,717,55.21,717,67.47z"/>
			<path class="st1" d="M779.38,92.1v6.8h-5.17c-5.37,0-8.72-2.97-9.2-8.05c-3.35,5.46-9.97,8.62-17.82,8.62
				c-10.64,0-17.92-6.04-17.92-14.76c0-9.01,7.57-14.76,19.65-14.76h16v-2.49c0-7.95-4.7-12.08-12.75-12.08
				c-7.38,0-12.08,3.55-13.03,9.3h-8.43c1.15-10.06,9.49-16.48,21.75-16.48c12.94,0,20.41,7.19,20.41,19.26V87.7
				c0,3.16,1.25,4.41,4.31,4.41H779.38z M764.91,77.92V76.2h-15.52c-7.76,0-11.98,3.16-11.98,8.24c0,4.98,4.22,8.24,10.92,8.24
				C757.73,92.68,764.91,86.55,764.91,77.92z"/>
			<path class="st1" d="M787.81,34.41c0-3.26,2.68-5.75,5.85-5.75c3.16,0,5.85,2.49,5.85,5.75s-2.68,5.75-5.85,5.75
				C790.5,40.16,787.81,37.67,787.81,34.41z"/>
			<rect x="789.63" y="48.98" class="st1" width="8.05" height="49.93"/>
			<path class="st1" d="M857.87,67.67v31.24h-8.05V69.58c0-9.39-4.89-13.99-12.46-13.99c-8.43,0-14.95,5.65-14.95,15.81v27.5h-8.05
				V48.98h8.05v7.38c3.64-5.18,9.68-8.15,16.96-8.15C850.68,48.21,857.87,55.4,857.87,67.67z"/>
			<path class="st1" d="M870.22,83.38h7.86c0.86,6.13,5.75,9.49,13.61,9.49c7.67,0,11.79-3.35,11.79-8.34
				c0-3.83-2.4-5.75-10.25-7.19l-7.95-1.44c-10.16-1.92-14.28-6.42-14.28-12.94c0-8.63,7.38-14.76,19.84-14.76
				c12.27,0,19.26,5.85,20.13,15.72h-7.86c-0.77-5.75-5.08-8.91-12.75-8.91c-7.67,0-11.5,3.07-11.5,7.57
				c0,3.26,2.11,5.18,10.06,6.71l8.05,1.53c9.78,1.72,14.38,5.85,14.38,13.13c0,9.2-7.38,15.72-20.03,15.72
				C879.14,99.67,870.99,93.73,870.22,83.38z"/>
		</g>
		<rect x="332.67" y="48.12" class="st1" width="19.52" height="11.69"/>
		<rect x="779.86" y="48.98" class="st1" width="17.82" height="8.05"/>
	</g>
</g>
</svg>
