<svg xmlns="http://www.w3.org/2000/svg" xmlns:xlink="http://www.w3.org/1999/xlink" width="40" zoomAndPan="magnify" viewBox="0 0 30 30.000001" height="40" preserveAspectRatio="xMidYMid meet" version="1.0"><defs><clipPath id="id1"><path d="M 1.828125 1.34375 L 27.957031 1.34375 L 27.957031 27.472656 L 1.828125 27.472656 Z M 1.828125 1.34375 " clip-rule="nonzero"/></clipPath><clipPath id="id2"><path d="M 1.828125 14.40625 C 1.828125 17.898438 3.1875 21.179688 5.652344 23.644531 C 5.917969 23.910156 6.191406 24.160156 6.472656 24.398438 L 5.488281 25.386719 L 4.714844 25.386719 C 4.535156 24.875 4.046875 24.507812 3.472656 24.507812 C 2.746094 24.507812 2.15625 25.097656 2.15625 25.824219 C 2.15625 26.550781 2.746094 27.140625 3.472656 27.140625 C 4.046875 27.140625 4.535156 26.773438 4.714844 26.265625 L 5.667969 26.265625 C 5.785156 26.265625 5.898438 26.21875 5.980469 26.136719 L 7.167969 24.945312 C 9.394531 26.585938 12.074219 27.472656 14.890625 27.472656 C 17.707031 27.472656 20.386719 26.585938 22.613281 24.949219 L 23.800781 26.136719 C 23.886719 26.21875 23.996094 26.265625 24.113281 26.265625 L 25.066406 26.265625 C 25.25 26.773438 25.738281 27.140625 26.308594 27.140625 C 27.035156 27.140625 27.625 26.550781 27.625 25.824219 C 27.625 25.097656 27.035156 24.507812 26.308594 24.507812 C 25.738281 24.507812 25.25 24.875 25.066406 25.386719 L 24.296875 25.386719 L 23.308594 24.398438 C 23.589844 24.160156 23.863281 23.910156 24.128906 23.644531 C 26.597656 21.179688 27.957031 17.898438 27.957031 14.40625 C 27.957031 10.917969 26.597656 7.636719 24.128906 5.167969 C 23.863281 4.90625 23.589844 4.652344 23.308594 4.414062 L 24.296875 3.429688 L 25.066406 3.429688 C 25.25 3.941406 25.738281 4.308594 26.308594 4.308594 C 27.035156 4.308594 27.625 3.714844 27.625 2.988281 C 27.625 2.261719 27.035156 1.671875 26.308594 1.671875 C 25.738281 1.671875 25.25 2.039062 25.066406 2.550781 L 24.113281 2.550781 C 23.996094 2.550781 23.886719 2.597656 23.800781 2.679688 L 22.613281 3.867188 C 20.386719 2.230469 17.707031 1.34375 14.890625 1.34375 C 12.074219 1.34375 9.394531 2.230469 7.167969 3.867188 L 5.980469 2.679688 C 5.898438 2.597656 5.785156 2.550781 5.667969 2.550781 L 4.714844 2.550781 C 4.535156 2.039062 4.046875 1.671875 3.472656 1.671875 C 2.746094 1.671875 2.15625 2.261719 2.15625 2.988281 C 2.15625 3.714844 2.746094 4.308594 3.472656 4.308594 C 4.046875 4.308594 4.535156 3.941406 4.714844 3.429688 L 5.488281 3.429688 L 6.472656 4.414062 C 6.191406 4.652344 5.917969 4.90625 5.652344 5.167969 C 3.1875 7.636719 1.828125 10.917969 1.828125 14.40625 Z M 3.472656 26.265625 C 3.230469 26.265625 3.035156 26.066406 3.035156 25.824219 C 3.035156 25.582031 3.230469 25.386719 3.472656 25.386719 C 3.714844 25.386719 3.914062 25.582031 3.914062 25.824219 C 3.914062 26.066406 3.714844 26.265625 3.472656 26.265625 Z M 26.308594 25.386719 C 26.550781 25.386719 26.746094 25.582031 26.746094 25.824219 C 26.746094 26.066406 26.550781 26.265625 26.308594 26.265625 C 26.066406 26.265625 25.871094 26.066406 25.871094 25.824219 C 25.871094 25.582031 26.066406 25.386719 26.308594 25.386719 Z M 26.308594 2.550781 C 26.550781 2.550781 26.746094 2.746094 26.746094 2.988281 C 26.746094 3.230469 26.550781 3.429688 26.308594 3.429688 C 26.066406 3.429688 25.871094 3.230469 25.871094 2.988281 C 25.871094 2.746094 26.066406 2.550781 26.308594 2.550781 Z M 3.472656 3.429688 C 3.230469 3.429688 3.035156 3.230469 3.035156 2.988281 C 3.035156 2.746094 3.230469 2.550781 3.472656 2.550781 C 3.714844 2.550781 3.914062 2.746094 3.914062 2.988281 C 3.914062 3.230469 3.714844 3.429688 3.472656 3.429688 Z M 5.96875 6.105469 L 6.515625 6.65625 C 4.628906 8.691406 3.472656 11.417969 3.472656 14.40625 C 3.472656 17.398438 4.628906 20.121094 6.515625 22.160156 L 5.96875 22.707031 C 3.863281 20.445312 2.707031 17.515625 2.707031 14.40625 C 2.707031 11.300781 3.863281 8.371094 5.96875 6.105469 Z M 8.472656 6.414062 C 8.433594 6.507812 8.414062 6.613281 8.414062 6.722656 C 8.414062 7.207031 8.808594 7.601562 9.292969 7.601562 C 9.777344 7.601562 10.171875 7.207031 10.171875 6.722656 C 10.171875 6.238281 9.777344 5.84375 9.292969 5.84375 C 9.246094 5.84375 9.199219 5.847656 9.15625 5.855469 L 8.984375 5.683594 C 10.671875 4.539062 12.703125 3.867188 14.890625 3.867188 C 17.078125 3.867188 19.113281 4.539062 20.796875 5.683594 L 20.625 5.855469 C 20.582031 5.847656 20.535156 5.84375 20.488281 5.84375 C 20.003906 5.84375 19.613281 6.238281 19.613281 6.722656 C 19.613281 7.207031 20.003906 7.601562 20.488281 7.601562 C 20.976562 7.601562 21.367188 7.207031 21.367188 6.722656 C 21.367188 6.613281 21.347656 6.507812 21.3125 6.414062 L 21.511719 6.210938 C 23.898438 8.148438 25.429688 11.101562 25.429688 14.40625 C 25.429688 17.714844 23.898438 20.667969 21.511719 22.601562 L 21.3125 22.402344 C 21.347656 22.304688 21.367188 22.203125 21.367188 22.09375 C 21.367188 21.605469 20.976562 21.214844 20.488281 21.214844 C 20.003906 21.214844 19.613281 21.605469 19.613281 22.09375 C 19.613281 22.578125 20.003906 22.96875 20.488281 22.96875 C 20.535156 22.96875 20.582031 22.964844 20.625 22.957031 L 20.796875 23.132812 C 19.113281 24.277344 17.078125 24.945312 14.890625 24.945312 C 12.703125 24.945312 10.671875 24.277344 8.984375 23.132812 L 9.15625 22.957031 C 9.199219 22.964844 9.246094 22.96875 9.292969 22.96875 C 9.777344 22.96875 10.171875 22.578125 10.171875 22.09375 C 10.171875 21.605469 9.777344 21.214844 9.292969 21.214844 C 8.808594 21.214844 8.414062 21.605469 8.414062 22.09375 C 8.414062 22.203125 8.433594 22.304688 8.472656 22.402344 L 8.269531 22.601562 C 5.882812 20.667969 4.351562 17.714844 4.351562 14.40625 C 4.351562 11.101562 5.882812 8.148438 8.269531 6.214844 Z M 6.589844 23.328125 L 7.136719 22.78125 C 7.304688 22.933594 7.472656 23.082031 7.648438 23.226562 L 7.097656 23.777344 C 6.925781 23.632812 6.757812 23.484375 6.589844 23.328125 Z M 14.890625 26.59375 C 12.308594 26.59375 9.851562 25.796875 7.796875 24.316406 L 8.351562 23.761719 C 10.207031 25.0625 12.460938 25.824219 14.890625 25.824219 C 17.320312 25.824219 19.578125 25.0625 21.429688 23.761719 L 21.984375 24.316406 C 19.929688 25.796875 17.472656 26.59375 14.890625 26.59375 Z M 22.136719 23.226562 C 22.308594 23.082031 22.480469 22.933594 22.644531 22.78125 L 23.191406 23.328125 C 23.027344 23.484375 22.855469 23.632812 22.683594 23.777344 Z M 23.8125 22.707031 L 23.265625 22.160156 C 25.152344 20.121094 26.308594 17.398438 26.308594 14.40625 C 26.308594 11.417969 25.152344 8.691406 23.265625 6.65625 L 23.8125 6.105469 C 25.921875 8.367188 27.078125 11.300781 27.078125 14.40625 C 27.078125 17.515625 25.921875 20.445312 23.8125 22.707031 Z M 23.191406 5.484375 L 22.644531 6.035156 C 22.480469 5.878906 22.308594 5.730469 22.136719 5.589844 L 22.683594 5.039062 C 22.855469 5.183594 23.027344 5.332031 23.191406 5.484375 Z M 14.890625 2.222656 C 17.472656 2.222656 19.929688 3.019531 21.984375 4.496094 L 21.429688 5.050781 C 19.574219 3.753906 17.320312 2.988281 14.890625 2.988281 C 12.460938 2.988281 10.207031 3.753906 8.351562 5.050781 L 7.796875 4.496094 C 9.851562 3.019531 12.308594 2.222656 14.890625 2.222656 Z M 7.648438 5.589844 C 7.472656 5.730469 7.304688 5.878906 7.136719 6.035156 L 6.589844 5.484375 C 6.757812 5.332031 6.925781 5.183594 7.097656 5.039062 Z M 6.988281 10.09375 L 6.988281 18.714844 C 6.988281 18.871094 7.070312 19.015625 7.207031 19.09375 L 14.671875 23.40625 C 14.738281 23.445312 14.816406 23.464844 14.890625 23.464844 C 14.96875 23.464844 15.042969 23.445312 15.109375 23.40625 L 22.578125 19.09375 C 22.710938 19.015625 22.796875 18.871094 22.796875 18.714844 L 22.796875 10.09375 C 22.796875 9.9375 22.710938 9.792969 22.578125 9.714844 L 15.109375 5.402344 C 14.976562 5.324219 14.808594 5.324219 14.671875 5.402344 L 7.207031 9.714844 C 7.070312 9.792969 6.988281 9.9375 6.988281 10.09375 Z M 7.863281 10.347656 L 14.890625 6.292969 L 21.917969 10.347656 L 21.917969 18.460938 L 14.890625 22.519531 L 7.863281 18.460938 Z M 12.257812 9.6875 L 12.203125 19.347656 C 12.203125 19.5625 12.042969 19.746094 11.828125 19.78125 C 11.808594 19.78125 11.785156 19.785156 11.765625 19.785156 C 11.574219 19.785156 11.402344 19.660156 11.34375 19.476562 L 9.621094 13.90625 L 9.621094 18.027344 C 9.621094 18.269531 9.425781 18.46875 9.183594 18.46875 C 8.941406 18.46875 8.742188 18.269531 8.742188 18.027344 L 8.742188 11 C 8.742188 10.785156 8.902344 10.601562 9.117188 10.566406 C 9.332031 10.535156 9.539062 10.664062 9.601562 10.871094 L 11.339844 16.492188 L 11.378906 9.683594 C 11.378906 9.441406 11.574219 9.246094 11.816406 9.246094 C 11.816406 9.246094 11.820312 9.246094 11.820312 9.246094 C 12.0625 9.246094 12.257812 9.445312 12.257812 9.6875 Z M 17.6875 9.375 C 17.804688 9.160156 18.070312 9.082031 18.285156 9.195312 L 19.550781 9.878906 C 19.585938 9.890625 19.617188 9.910156 19.644531 9.929688 L 20.917969 10.613281 C 21.132812 10.730469 21.210938 10.996094 21.097656 11.210938 C 21.015625 11.355469 20.867188 11.441406 20.710938 11.441406 C 20.640625 11.441406 20.566406 11.421875 20.5 11.386719 L 19.832031 11.027344 L 19.832031 18.46875 C 19.832031 18.710938 19.636719 18.90625 19.390625 18.90625 C 19.148438 18.90625 18.953125 18.710938 18.953125 18.46875 L 18.953125 10.554688 L 17.867188 9.96875 C 17.652344 9.855469 17.574219 9.589844 17.6875 9.375 Z M 14.011719 14.84375 L 14.011719 20.222656 C 14.011719 20.464844 13.816406 20.664062 13.574219 20.664062 C 13.332031 20.664062 13.132812 20.464844 13.132812 20.222656 L 13.132812 8.804688 C 13.132812 8.652344 13.214844 8.511719 13.34375 8.433594 L 14.769531 7.554688 C 14.90625 7.472656 15.070312 7.464844 15.210938 7.539062 L 16.839844 8.417969 C 17.054688 8.535156 17.132812 8.800781 17.019531 9.015625 C 16.902344 9.226562 16.636719 9.308594 16.425781 9.191406 L 15.015625 8.433594 L 14.011719 9.050781 L 14.011719 13.964844 L 16.207031 13.964844 C 16.449219 13.964844 16.648438 14.164062 16.648438 14.40625 C 16.648438 14.648438 16.449219 14.84375 16.207031 14.84375 Z M 14.011719 14.84375 " clip-rule="nonzero"/></clipPath><linearGradient x1="18.002028" gradientTransform="matrix(0.0548929, 0, 0, 0.0548929, 0.83854, 0.354673)" y1="493.997983" x2="493.999007" gradientUnits="userSpaceOnUse" y2="18.001004" xlink:type="simple" xlink:actuate="onLoad" id="id3" xlink:show="other"><stop stop-opacity="1" stop-color="rgb(25.498962%, 87.5%, 81.599426%)" offset="0"/><stop stop-opacity="1" stop-color="rgb(25.637817%, 87.425232%, 81.62384%)" offset="0.03125"/><stop stop-opacity="1" stop-color="rgb(26.055908%, 87.202454%, 81.698608%)" offset="0.0351562"/><stop stop-opacity="1" stop-color="rgb(26.33667%, 87.052917%, 81.748962%)" offset="0.0390625"/><stop stop-opacity="1" stop-color="rgb(26.615906%, 86.903381%, 81.797791%)" offset="0.0429688"/><stop stop-opacity="1" stop-color="rgb(26.896667%, 86.755371%, 81.848145%)" offset="0.046875"/><stop stop-opacity="1" stop-color="rgb(27.177429%, 86.605835%, 81.898499%)" offset="0.0507812"/><stop stop-opacity="1" stop-color="rgb(27.458191%, 86.456299%, 81.948853%)" offset="0.0546875"/><stop stop-opacity="1" stop-color="rgb(27.737427%, 86.306763%, 81.997681%)" offset="0.0585937"/><stop stop-opacity="1" stop-color="rgb(28.018188%, 86.158752%, 82.048035%)" offset="0.0625"/><stop stop-opacity="1" stop-color="rgb(28.297424%, 86.009216%, 82.098389%)" offset="0.0664062"/><stop stop-opacity="1" stop-color="rgb(28.578186%, 85.85968%, 82.148743%)" offset="0.0703125"/><stop stop-opacity="1" stop-color="rgb(28.857422%, 85.710144%, 82.199097%)" offset="0.0742187"/><stop stop-opacity="1" stop-color="rgb(29.138184%, 85.560608%, 82.249451%)" offset="0.078125"/><stop stop-opacity="1" stop-color="rgb(29.418945%, 85.411072%, 82.298279%)" offset="0.0820312"/><stop stop-opacity="1" stop-color="rgb(29.699707%, 85.263062%, 82.348633%)" offset="0.0859375"/><stop stop-opacity="1" stop-color="rgb(29.978943%, 85.113525%, 82.398987%)" offset="0.0898438"/><stop stop-opacity="1" stop-color="rgb(30.259705%, 84.963989%, 82.449341%)" offset="0.09375"/><stop stop-opacity="1" stop-color="rgb(30.53894%, 84.814453%, 82.498169%)" offset="0.0976562"/><stop stop-opacity="1" stop-color="rgb(30.819702%, 84.666443%, 82.548523%)" offset="0.101562"/><stop stop-opacity="1" stop-color="rgb(31.098938%, 84.516907%, 82.598877%)" offset="0.105469"/><stop stop-opacity="1" stop-color="rgb(31.3797%, 84.367371%, 82.649231%)" offset="0.109375"/><stop stop-opacity="1" stop-color="rgb(31.660461%, 84.217834%, 82.698059%)" offset="0.113281"/><stop stop-opacity="1" stop-color="rgb(31.941223%, 84.069824%, 82.748413%)" offset="0.117187"/><stop stop-opacity="1" stop-color="rgb(32.220459%, 83.920288%, 82.798767%)" offset="0.121094"/><stop stop-opacity="1" stop-color="rgb(32.501221%, 83.770752%, 82.849121%)" offset="0.125"/><stop stop-opacity="1" stop-color="rgb(32.780457%, 83.621216%, 82.897949%)" offset="0.128906"/><stop stop-opacity="1" stop-color="rgb(33.061218%, 83.473206%, 82.948303%)" offset="0.132812"/><stop stop-opacity="1" stop-color="rgb(33.340454%, 83.323669%, 82.998657%)" offset="0.136719"/><stop stop-opacity="1" stop-color="rgb(33.621216%, 83.174133%, 83.049011%)" offset="0.140625"/><stop stop-opacity="1" stop-color="rgb(33.901978%, 83.024597%, 83.097839%)" offset="0.144531"/><stop stop-opacity="1" stop-color="rgb(34.182739%, 82.876587%, 83.148193%)" offset="0.148438"/><stop stop-opacity="1" stop-color="rgb(34.461975%, 82.727051%, 83.198547%)" offset="0.152344"/><stop stop-opacity="1" stop-color="rgb(34.742737%, 82.577515%, 83.248901%)" offset="0.15625"/><stop stop-opacity="1" stop-color="rgb(35.021973%, 82.427979%, 83.299255%)" offset="0.160156"/><stop stop-opacity="1" stop-color="rgb(35.302734%, 82.279968%, 83.349609%)" offset="0.164062"/><stop stop-opacity="1" stop-color="rgb(35.58197%, 82.130432%, 83.398438%)" offset="0.167969"/><stop stop-opacity="1" stop-color="rgb(35.862732%, 81.980896%, 83.448792%)" offset="0.171875"/><stop stop-opacity="1" stop-color="rgb(36.143494%, 81.83136%, 83.499146%)" offset="0.175781"/><stop stop-opacity="1" stop-color="rgb(36.424255%, 81.681824%, 83.5495%)" offset="0.179688"/><stop stop-opacity="1" stop-color="rgb(36.703491%, 81.532288%, 83.598328%)" offset="0.183594"/><stop stop-opacity="1" stop-color="rgb(36.984253%, 81.384277%, 83.648682%)" offset="0.1875"/><stop stop-opacity="1" stop-color="rgb(37.263489%, 81.234741%, 83.699036%)" offset="0.191406"/><stop stop-opacity="1" stop-color="rgb(37.54425%, 81.085205%, 83.74939%)" offset="0.195312"/><stop stop-opacity="1" stop-color="rgb(37.823486%, 80.935669%, 83.798218%)" offset="0.199219"/><stop stop-opacity="1" stop-color="rgb(38.104248%, 80.787659%, 83.848572%)" offset="0.203125"/><stop stop-opacity="1" stop-color="rgb(38.38501%, 80.638123%, 83.898926%)" offset="0.207031"/><stop stop-opacity="1" stop-color="rgb(38.665771%, 80.488586%, 83.94928%)" offset="0.210937"/><stop stop-opacity="1" stop-color="rgb(38.945007%, 80.33905%, 83.998108%)" offset="0.214844"/><stop stop-opacity="1" stop-color="rgb(39.225769%, 80.19104%, 84.048462%)" offset="0.21875"/><stop stop-opacity="1" stop-color="rgb(39.505005%, 80.041504%, 84.098816%)" offset="0.222656"/><stop stop-opacity="1" stop-color="rgb(39.785767%, 79.891968%, 84.14917%)" offset="0.226562"/><stop stop-opacity="1" stop-color="rgb(40.065002%, 79.742432%, 84.197998%)" offset="0.230469"/><stop stop-opacity="1" stop-color="rgb(40.345764%, 79.594421%, 84.248352%)" offset="0.234375"/><stop stop-opacity="1" stop-color="rgb(40.626526%, 79.444885%, 84.298706%)" offset="0.238281"/><stop stop-opacity="1" stop-color="rgb(40.907288%, 79.295349%, 84.34906%)" offset="0.242187"/><stop stop-opacity="1" stop-color="rgb(41.186523%, 79.145813%, 84.397888%)" offset="0.246094"/><stop stop-opacity="1" stop-color="rgb(41.467285%, 78.997803%, 84.448242%)" offset="0.25"/><stop stop-opacity="1" stop-color="rgb(41.746521%, 78.848267%, 84.498596%)" offset="0.253906"/><stop stop-opacity="1" stop-color="rgb(42.027283%, 78.69873%, 84.54895%)" offset="0.257812"/><stop stop-opacity="1" stop-color="rgb(42.306519%, 78.549194%, 84.599304%)" offset="0.261719"/><stop stop-opacity="1" stop-color="rgb(42.58728%, 78.399658%, 84.649658%)" offset="0.265625"/><stop stop-opacity="1" stop-color="rgb(42.868042%, 78.250122%, 84.698486%)" offset="0.269531"/><stop stop-opacity="1" stop-color="rgb(43.148804%, 78.102112%, 84.74884%)" offset="0.273438"/><stop stop-opacity="1" stop-color="rgb(43.42804%, 77.952576%, 84.799194%)" offset="0.277344"/><stop stop-opacity="1" stop-color="rgb(43.708801%, 77.80304%, 84.849548%)" offset="0.28125"/><stop stop-opacity="1" stop-color="rgb(43.988037%, 77.653503%, 84.898376%)" offset="0.285156"/><stop stop-opacity="1" stop-color="rgb(44.268799%, 77.505493%, 84.94873%)" offset="0.289062"/><stop stop-opacity="1" stop-color="rgb(44.548035%, 77.355957%, 84.999084%)" offset="0.292969"/><stop stop-opacity="1" stop-color="rgb(44.828796%, 77.206421%, 85.049438%)" offset="0.296875"/><stop stop-opacity="1" stop-color="rgb(45.109558%, 77.056885%, 85.098267%)" offset="0.300781"/><stop stop-opacity="1" stop-color="rgb(45.39032%, 76.908875%, 85.148621%)" offset="0.304687"/><stop stop-opacity="1" stop-color="rgb(45.669556%, 76.759338%, 85.198975%)" offset="0.308594"/><stop stop-opacity="1" stop-color="rgb(45.950317%, 76.609802%, 85.249329%)" offset="0.3125"/><stop stop-opacity="1" stop-color="rgb(46.229553%, 76.460266%, 85.298157%)" offset="0.316406"/><stop stop-opacity="1" stop-color="rgb(46.510315%, 76.312256%, 85.348511%)" offset="0.320312"/><stop stop-opacity="1" stop-color="rgb(46.789551%, 76.16272%, 85.398865%)" offset="0.324219"/><stop stop-opacity="1" stop-color="rgb(47.070312%, 76.013184%, 85.449219%)" offset="0.328125"/><stop stop-opacity="1" stop-color="rgb(47.351074%, 75.863647%, 85.498047%)" offset="0.332031"/><stop stop-opacity="1" stop-color="rgb(47.631836%, 75.715637%, 85.548401%)" offset="0.335937"/><stop stop-opacity="1" stop-color="rgb(47.911072%, 75.566101%, 85.598755%)" offset="0.339844"/><stop stop-opacity="1" stop-color="rgb(48.191833%, 75.416565%, 85.649109%)" offset="0.34375"/><stop stop-opacity="1" stop-color="rgb(48.471069%, 75.267029%, 85.699463%)" offset="0.347656"/><stop stop-opacity="1" stop-color="rgb(48.751831%, 75.119019%, 85.749817%)" offset="0.351562"/><stop stop-opacity="1" stop-color="rgb(49.031067%, 74.969482%, 85.798645%)" offset="0.355469"/><stop stop-opacity="1" stop-color="rgb(49.311829%, 74.819946%, 85.848999%)" offset="0.359375"/><stop stop-opacity="1" stop-color="rgb(49.59259%, 74.67041%, 85.899353%)" offset="0.363281"/><stop stop-opacity="1" stop-color="rgb(49.873352%, 74.520874%, 85.949707%)" offset="0.367188"/><stop stop-opacity="1" stop-color="rgb(50.152588%, 74.371338%, 85.998535%)" offset="0.371094"/><stop stop-opacity="1" stop-color="rgb(50.43335%, 74.223328%, 86.048889%)" offset="0.375"/><stop stop-opacity="1" stop-color="rgb(50.712585%, 74.073792%, 86.099243%)" offset="0.378906"/><stop stop-opacity="1" stop-color="rgb(50.993347%, 73.924255%, 86.149597%)" offset="0.382812"/><stop stop-opacity="1" stop-color="rgb(51.272583%, 73.774719%, 86.198425%)" offset="0.386719"/><stop stop-opacity="1" stop-color="rgb(51.553345%, 73.626709%, 86.248779%)" offset="0.390625"/><stop stop-opacity="1" stop-color="rgb(51.834106%, 73.477173%, 86.299133%)" offset="0.394531"/><stop stop-opacity="1" stop-color="rgb(52.114868%, 73.327637%, 86.349487%)" offset="0.398438"/><stop stop-opacity="1" stop-color="rgb(52.394104%, 73.178101%, 86.398315%)" offset="0.402344"/><stop stop-opacity="1" stop-color="rgb(52.674866%, 73.03009%, 86.448669%)" offset="0.40625"/><stop stop-opacity="1" stop-color="rgb(52.954102%, 72.880554%, 86.499023%)" offset="0.410156"/><stop stop-opacity="1" stop-color="rgb(53.234863%, 72.731018%, 86.549377%)" offset="0.414062"/><stop stop-opacity="1" stop-color="rgb(53.514099%, 72.581482%, 86.598206%)" offset="0.417969"/><stop stop-opacity="1" stop-color="rgb(53.794861%, 72.433472%, 86.64856%)" offset="0.421875"/><stop stop-opacity="1" stop-color="rgb(54.075623%, 72.283936%, 86.698914%)" offset="0.425781"/><stop stop-opacity="1" stop-color="rgb(54.356384%, 72.134399%, 86.749268%)" offset="0.429688"/><stop stop-opacity="1" stop-color="rgb(54.63562%, 71.984863%, 86.798096%)" offset="0.433594"/><stop stop-opacity="1" stop-color="rgb(54.916382%, 71.836853%, 86.84845%)" offset="0.4375"/><stop stop-opacity="1" stop-color="rgb(55.195618%, 71.687317%, 86.898804%)" offset="0.441406"/><stop stop-opacity="1" stop-color="rgb(55.476379%, 71.537781%, 86.949158%)" offset="0.445312"/><stop stop-opacity="1" stop-color="rgb(55.755615%, 71.388245%, 86.999512%)" offset="0.449219"/><stop stop-opacity="1" stop-color="rgb(56.036377%, 71.238708%, 87.049866%)" offset="0.453125"/><stop stop-opacity="1" stop-color="rgb(56.317139%, 71.089172%, 87.098694%)" offset="0.457031"/><stop stop-opacity="1" stop-color="rgb(56.5979%, 70.941162%, 87.149048%)" offset="0.460937"/><stop stop-opacity="1" stop-color="rgb(56.877136%, 70.791626%, 87.199402%)" offset="0.464844"/><stop stop-opacity="1" stop-color="rgb(57.157898%, 70.64209%, 87.249756%)" offset="0.46875"/><stop stop-opacity="1" stop-color="rgb(57.437134%, 70.492554%, 87.298584%)" offset="0.472656"/><stop stop-opacity="1" stop-color="rgb(57.717896%, 70.344543%, 87.348938%)" offset="0.476562"/><stop stop-opacity="1" stop-color="rgb(57.997131%, 70.195007%, 87.399292%)" offset="0.480469"/><stop stop-opacity="1" stop-color="rgb(58.277893%, 70.045471%, 87.449646%)" offset="0.484375"/><stop stop-opacity="1" stop-color="rgb(58.558655%, 69.895935%, 87.498474%)" offset="0.488281"/><stop stop-opacity="1" stop-color="rgb(58.839417%, 69.747925%, 87.548828%)" offset="0.492187"/><stop stop-opacity="1" stop-color="rgb(59.118652%, 69.598389%, 87.599182%)" offset="0.496094"/><stop stop-opacity="1" stop-color="rgb(59.399414%, 69.448853%, 87.649536%)" offset="0.5"/><stop stop-opacity="1" stop-color="rgb(59.67865%, 69.299316%, 87.698364%)" offset="0.503906"/><stop stop-opacity="1" stop-color="rgb(59.959412%, 69.151306%, 87.748718%)" offset="0.507812"/><stop stop-opacity="1" stop-color="rgb(60.238647%, 69.00177%, 87.799072%)" offset="0.511719"/><stop stop-opacity="1" stop-color="rgb(60.519409%, 68.852234%, 87.849426%)" offset="0.515625"/><stop stop-opacity="1" stop-color="rgb(60.800171%, 68.702698%, 87.898254%)" offset="0.519531"/><stop stop-opacity="1" stop-color="rgb(61.080933%, 68.554688%, 87.948608%)" offset="0.523437"/><stop stop-opacity="1" stop-color="rgb(61.360168%, 68.405151%, 87.998962%)" offset="0.527344"/><stop stop-opacity="1" stop-color="rgb(61.64093%, 68.255615%, 88.049316%)" offset="0.53125"/><stop stop-opacity="1" stop-color="rgb(61.920166%, 68.106079%, 88.09967%)" offset="0.535156"/><stop stop-opacity="1" stop-color="rgb(62.200928%, 67.958069%, 88.150024%)" offset="0.539062"/><stop stop-opacity="1" stop-color="rgb(62.480164%, 67.808533%, 88.198853%)" offset="0.542969"/><stop stop-opacity="1" stop-color="rgb(62.760925%, 67.658997%, 88.249207%)" offset="0.546875"/><stop stop-opacity="1" stop-color="rgb(63.041687%, 67.50946%, 88.299561%)" offset="0.550781"/><stop stop-opacity="1" stop-color="rgb(63.322449%, 67.359924%, 88.349915%)" offset="0.554688"/><stop stop-opacity="1" stop-color="rgb(63.601685%, 67.210388%, 88.398743%)" offset="0.558594"/><stop stop-opacity="1" stop-color="rgb(63.882446%, 67.062378%, 88.449097%)" offset="0.5625"/><stop stop-opacity="1" stop-color="rgb(64.161682%, 66.912842%, 88.499451%)" offset="0.566406"/><stop stop-opacity="1" stop-color="rgb(64.442444%, 66.763306%, 88.549805%)" offset="0.570312"/><stop stop-opacity="1" stop-color="rgb(64.72168%, 66.61377%, 88.598633%)" offset="0.574219"/><stop stop-opacity="1" stop-color="rgb(65.002441%, 66.465759%, 88.648987%)" offset="0.578125"/><stop stop-opacity="1" stop-color="rgb(65.283203%, 66.316223%, 88.699341%)" offset="0.582031"/><stop stop-opacity="1" stop-color="rgb(65.563965%, 66.166687%, 88.749695%)" offset="0.585938"/><stop stop-opacity="1" stop-color="rgb(65.843201%, 66.017151%, 88.798523%)" offset="0.589844"/><stop stop-opacity="1" stop-color="rgb(66.123962%, 65.869141%, 88.848877%)" offset="0.59375"/><stop stop-opacity="1" stop-color="rgb(66.403198%, 65.719604%, 88.899231%)" offset="0.597656"/><stop stop-opacity="1" stop-color="rgb(66.68396%, 65.570068%, 88.949585%)" offset="0.601562"/><stop stop-opacity="1" stop-color="rgb(66.963196%, 65.420532%, 88.998413%)" offset="0.605469"/><stop stop-opacity="1" stop-color="rgb(67.243958%, 65.272522%, 89.048767%)" offset="0.609375"/><stop stop-opacity="1" stop-color="rgb(67.524719%, 65.122986%, 89.099121%)" offset="0.613281"/><stop stop-opacity="1" stop-color="rgb(67.805481%, 64.97345%, 89.149475%)" offset="0.617188"/><stop stop-opacity="1" stop-color="rgb(68.084717%, 64.823914%, 89.198303%)" offset="0.621094"/><stop stop-opacity="1" stop-color="rgb(68.365479%, 64.675903%, 89.248657%)" offset="0.625"/><stop stop-opacity="1" stop-color="rgb(68.644714%, 64.526367%, 89.299011%)" offset="0.628906"/><stop stop-opacity="1" stop-color="rgb(68.925476%, 64.376831%, 89.349365%)" offset="0.632812"/><stop stop-opacity="1" stop-color="rgb(69.204712%, 64.227295%, 89.399719%)" offset="0.636719"/><stop stop-opacity="1" stop-color="rgb(69.485474%, 64.077759%, 89.450073%)" offset="0.640625"/><stop stop-opacity="1" stop-color="rgb(69.766235%, 63.928223%, 89.498901%)" offset="0.644531"/><stop stop-opacity="1" stop-color="rgb(70.046997%, 63.780212%, 89.549255%)" offset="0.648438"/><stop stop-opacity="1" stop-color="rgb(70.326233%, 63.630676%, 89.599609%)" offset="0.652344"/><stop stop-opacity="1" stop-color="rgb(70.606995%, 63.48114%, 89.649963%)" offset="0.65625"/><stop stop-opacity="1" stop-color="rgb(70.88623%, 63.331604%, 89.698792%)" offset="0.660156"/><stop stop-opacity="1" stop-color="rgb(71.166992%, 63.183594%, 89.749146%)" offset="0.664062"/><stop stop-opacity="1" stop-color="rgb(71.446228%, 63.034058%, 89.7995%)" offset="0.667969"/><stop stop-opacity="1" stop-color="rgb(71.72699%, 62.884521%, 89.849854%)" offset="0.671875"/><stop stop-opacity="1" stop-color="rgb(72.007751%, 62.734985%, 89.898682%)" offset="0.675781"/><stop stop-opacity="1" stop-color="rgb(72.288513%, 62.586975%, 89.949036%)" offset="0.679687"/><stop stop-opacity="1" stop-color="rgb(72.567749%, 62.437439%, 89.99939%)" offset="0.683594"/><stop stop-opacity="1" stop-color="rgb(72.848511%, 62.287903%, 90.049744%)" offset="0.6875"/><stop stop-opacity="1" stop-color="rgb(73.127747%, 62.138367%, 90.098572%)" offset="0.691406"/><stop stop-opacity="1" stop-color="rgb(73.408508%, 61.990356%, 90.148926%)" offset="0.695312"/><stop stop-opacity="1" stop-color="rgb(73.687744%, 61.84082%, 90.19928%)" offset="0.699219"/><stop stop-opacity="1" stop-color="rgb(73.968506%, 61.691284%, 90.249634%)" offset="0.703125"/><stop stop-opacity="1" stop-color="rgb(74.249268%, 61.541748%, 90.298462%)" offset="0.707031"/><stop stop-opacity="1" stop-color="rgb(74.530029%, 61.393738%, 90.348816%)" offset="0.710937"/><stop stop-opacity="1" stop-color="rgb(74.809265%, 61.244202%, 90.39917%)" offset="0.714844"/><stop stop-opacity="1" stop-color="rgb(75.090027%, 61.094666%, 90.449524%)" offset="0.71875"/><stop stop-opacity="1" stop-color="rgb(75.369263%, 60.945129%, 90.499878%)" offset="0.722656"/><stop stop-opacity="1" stop-color="rgb(75.650024%, 60.797119%, 90.550232%)" offset="0.726562"/><stop stop-opacity="1" stop-color="rgb(75.92926%, 60.647583%, 90.59906%)" offset="0.730469"/><stop stop-opacity="1" stop-color="rgb(76.210022%, 60.498047%, 90.649414%)" offset="0.734375"/><stop stop-opacity="1" stop-color="rgb(76.490784%, 60.348511%, 90.699768%)" offset="0.738281"/><stop stop-opacity="1" stop-color="rgb(76.771545%, 60.198975%, 90.750122%)" offset="0.742187"/><stop stop-opacity="1" stop-color="rgb(77.050781%, 60.049438%, 90.79895%)" offset="0.746094"/><stop stop-opacity="1" stop-color="rgb(77.331543%, 59.901428%, 90.849304%)" offset="0.75"/><stop stop-opacity="1" stop-color="rgb(77.610779%, 59.751892%, 90.899658%)" offset="0.753906"/><stop stop-opacity="1" stop-color="rgb(77.891541%, 59.602356%, 90.950012%)" offset="0.757812"/><stop stop-opacity="1" stop-color="rgb(78.170776%, 59.45282%, 90.99884%)" offset="0.761719"/><stop stop-opacity="1" stop-color="rgb(78.451538%, 59.30481%, 91.049194%)" offset="0.765625"/><stop stop-opacity="1" stop-color="rgb(78.7323%, 59.155273%, 91.099548%)" offset="0.769531"/><stop stop-opacity="1" stop-color="rgb(79.013062%, 59.005737%, 91.149902%)" offset="0.773437"/><stop stop-opacity="1" stop-color="rgb(79.292297%, 58.856201%, 91.19873%)" offset="0.777344"/><stop stop-opacity="1" stop-color="rgb(79.573059%, 58.708191%, 91.249084%)" offset="0.78125"/><stop stop-opacity="1" stop-color="rgb(79.852295%, 58.558655%, 91.299438%)" offset="0.785156"/><stop stop-opacity="1" stop-color="rgb(80.133057%, 58.409119%, 91.349792%)" offset="0.789062"/><stop stop-opacity="1" stop-color="rgb(80.412292%, 58.259583%, 91.398621%)" offset="0.792969"/><stop stop-opacity="1" stop-color="rgb(80.693054%, 58.111572%, 91.448975%)" offset="0.796875"/><stop stop-opacity="1" stop-color="rgb(80.973816%, 57.962036%, 91.499329%)" offset="0.800781"/><stop stop-opacity="1" stop-color="rgb(81.254578%, 57.8125%, 91.549683%)" offset="0.804687"/><stop stop-opacity="1" stop-color="rgb(81.533813%, 57.662964%, 91.598511%)" offset="0.808594"/><stop stop-opacity="1" stop-color="rgb(81.814575%, 57.514954%, 91.648865%)" offset="0.8125"/><stop stop-opacity="1" stop-color="rgb(82.093811%, 57.365417%, 91.699219%)" offset="0.816406"/><stop stop-opacity="1" stop-color="rgb(82.374573%, 57.215881%, 91.749573%)" offset="0.820312"/><stop stop-opacity="1" stop-color="rgb(82.653809%, 57.066345%, 91.799927%)" offset="0.824219"/><stop stop-opacity="1" stop-color="rgb(82.93457%, 56.916809%, 91.850281%)" offset="0.828125"/><stop stop-opacity="1" stop-color="rgb(83.215332%, 56.767273%, 91.899109%)" offset="0.832031"/><stop stop-opacity="1" stop-color="rgb(83.496094%, 56.619263%, 91.949463%)" offset="0.835937"/><stop stop-opacity="1" stop-color="rgb(83.77533%, 56.469727%, 91.999817%)" offset="0.839844"/><stop stop-opacity="1" stop-color="rgb(84.056091%, 56.32019%, 92.050171%)" offset="0.84375"/><stop stop-opacity="1" stop-color="rgb(84.335327%, 56.170654%, 92.098999%)" offset="0.847656"/><stop stop-opacity="1" stop-color="rgb(84.616089%, 56.022644%, 92.149353%)" offset="0.851562"/><stop stop-opacity="1" stop-color="rgb(84.895325%, 55.873108%, 92.199707%)" offset="0.855469"/><stop stop-opacity="1" stop-color="rgb(85.176086%, 55.723572%, 92.250061%)" offset="0.859375"/><stop stop-opacity="1" stop-color="rgb(85.456848%, 55.574036%, 92.298889%)" offset="0.863281"/><stop stop-opacity="1" stop-color="rgb(85.73761%, 55.426025%, 92.349243%)" offset="0.867187"/><stop stop-opacity="1" stop-color="rgb(86.016846%, 55.276489%, 92.399597%)" offset="0.871094"/><stop stop-opacity="1" stop-color="rgb(86.297607%, 55.126953%, 92.449951%)" offset="0.875"/><stop stop-opacity="1" stop-color="rgb(86.576843%, 54.977417%, 92.498779%)" offset="0.878906"/><stop stop-opacity="1" stop-color="rgb(86.857605%, 54.829407%, 92.549133%)" offset="0.882812"/><stop stop-opacity="1" stop-color="rgb(87.136841%, 54.679871%, 92.599487%)" offset="0.886719"/><stop stop-opacity="1" stop-color="rgb(87.417603%, 54.530334%, 92.649841%)" offset="0.890625"/><stop stop-opacity="1" stop-color="rgb(87.698364%, 54.380798%, 92.698669%)" offset="0.894531"/><stop stop-opacity="1" stop-color="rgb(87.979126%, 54.232788%, 92.749023%)" offset="0.898437"/><stop stop-opacity="1" stop-color="rgb(88.258362%, 54.083252%, 92.799377%)" offset="0.902344"/><stop stop-opacity="1" stop-color="rgb(88.539124%, 53.933716%, 92.849731%)" offset="0.90625"/><stop stop-opacity="1" stop-color="rgb(88.818359%, 53.78418%, 92.900085%)" offset="0.910156"/><stop stop-opacity="1" stop-color="rgb(89.099121%, 53.634644%, 92.950439%)" offset="0.914062"/><stop stop-opacity="1" stop-color="rgb(89.378357%, 53.485107%, 92.999268%)" offset="0.917969"/><stop stop-opacity="1" stop-color="rgb(89.659119%, 53.337097%, 93.049622%)" offset="0.921875"/><stop stop-opacity="1" stop-color="rgb(89.93988%, 53.187561%, 93.099976%)" offset="0.925781"/><stop stop-opacity="1" stop-color="rgb(90.220642%, 53.038025%, 93.15033%)" offset="0.929688"/><stop stop-opacity="1" stop-color="rgb(90.499878%, 52.888489%, 93.199158%)" offset="0.933594"/><stop stop-opacity="1" stop-color="rgb(90.78064%, 52.740479%, 93.249512%)" offset="0.9375"/><stop stop-opacity="1" stop-color="rgb(91.059875%, 52.590942%, 93.299866%)" offset="0.941406"/><stop stop-opacity="1" stop-color="rgb(91.340637%, 52.441406%, 93.35022%)" offset="0.945312"/><stop stop-opacity="1" stop-color="rgb(91.619873%, 52.29187%, 93.399048%)" offset="0.949219"/><stop stop-opacity="1" stop-color="rgb(91.900635%, 52.14386%, 93.449402%)" offset="0.953125"/><stop stop-opacity="1" stop-color="rgb(92.181396%, 51.994324%, 93.499756%)" offset="0.957031"/><stop stop-opacity="1" stop-color="rgb(92.462158%, 51.844788%, 93.55011%)" offset="0.960938"/><stop stop-opacity="1" stop-color="rgb(92.741394%, 51.695251%, 93.598938%)" offset="0.964844"/><stop stop-opacity="1" stop-color="rgb(93.022156%, 51.547241%, 93.649292%)" offset="0.96875"/><stop stop-opacity="1" stop-color="rgb(93.161011%, 51.472473%, 93.673706%)" offset="1"/></linearGradient></defs><g clip-path="url(#id1)"><g clip-path="url(#id2)"><path fill="url(#id3)" d="M 1.828125 1.34375 L 1.828125 27.472656 L 27.957031 27.472656 L 27.957031 1.34375 Z M 1.828125 1.34375 " fill-rule="nonzero"/></g></g></svg>