<svg xmlns="http://www.w3.org/2000/svg" xmlns:xlink="http://www.w3.org/1999/xlink" width="40" zoomAndPan="magnify" viewBox="0 0 30 30.000001" height="40" preserveAspectRatio="xMidYMid meet" version="1.0"><defs><clipPath id="id1"><path d="M 6 11 L 24 11 L 24 28.816406 L 6 28.816406 Z M 6 11 " clip-rule="nonzero"/></clipPath><clipPath id="id2"><path d="M 6 0.507812 L 24 0.507812 L 24 18 L 6 18 Z M 6 0.507812 " clip-rule="nonzero"/></clipPath></defs><g clip-path="url(#id1)"><path fill="rgb(97.648621%, 45.098877%, 74.899292%)" d="M 21.027344 14.320312 C 24.289062 17.582031 24.289062 22.875 21.027344 26.136719 C 17.765625 29.398438 12.472656 29.398438 9.210938 26.136719 C 5.953125 22.875 5.953125 17.582031 9.210938 14.320312 C 12.472656 11.0625 17.765625 11.0625 21.027344 14.320312 Z M 21.027344 14.320312 " fill-opacity="1" fill-rule="nonzero"/></g><path fill="rgb(97.648621%, 76.469421%, 8.628845%)" d="M 15.523438 8.746094 C 18.785156 12.007812 18.785156 17.300781 15.523438 20.558594 C 12.261719 23.820312 6.96875 23.820312 3.710938 20.558594 C 0.449219 17.300781 0.449219 12.007812 3.710938 8.746094 C 6.96875 5.484375 12.261719 5.480469 15.523438 8.746094 Z M 15.523438 8.746094 " fill-opacity="1" fill-rule="nonzero"/><path fill="rgb(15.689087%, 75.689697%, 87.838745%)" d="M 26.53125 8.746094 C 29.789062 12.007812 29.789062 17.300781 26.53125 20.558594 C 23.269531 23.820312 17.976562 23.820312 14.714844 20.558594 C 11.453125 17.300781 11.453125 12.007812 14.714844 8.746094 C 17.976562 5.484375 23.261719 5.480469 26.53125 8.746094 Z M 26.53125 8.746094 " fill-opacity="1" fill-rule="nonzero"/><g clip-path="url(#id2)"><path fill="rgb(78.42865%, 85.879517%, 33.729553%)" d="M 21.027344 3.164062 C 24.289062 6.425781 24.289062 11.71875 21.027344 14.976562 C 17.765625 18.238281 12.472656 18.238281 9.210938 14.976562 C 5.953125 11.71875 5.953125 6.425781 9.210938 3.164062 C 12.472656 -0.0976562 17.765625 -0.0976562 21.027344 3.164062 Z M 21.027344 3.164062 " fill-opacity="1" fill-rule="nonzero"/></g><path fill="rgb(97.648621%, 45.098877%, 74.899292%)" d="M 21.027344 14.320312 C 21.136719 14.429688 21.238281 14.535156 21.339844 14.648438 C 21.238281 14.761719 21.136719 14.871094 21.027344 14.976562 C 17.765625 18.238281 12.472656 18.238281 9.210938 14.976562 C 9.105469 14.871094 9.003906 14.761719 8.902344 14.648438 C 9.003906 14.535156 9.105469 14.429688 9.210938 14.320312 C 12.472656 11.0625 17.765625 11.0625 21.027344 14.320312 Z M 21.027344 14.320312 " fill-opacity="0.498" fill-rule="nonzero"/><path fill="rgb(97.648621%, 76.469421%, 8.628845%)" d="M 15.523438 8.746094 C 17.773438 10.992188 18.46875 14.195312 17.625 17.042969 C 14.753906 17.945312 11.488281 17.261719 9.210938 14.976562 C 6.964844 12.730469 6.269531 9.527344 7.113281 6.679688 C 9.988281 5.777344 13.25 6.464844 15.523438 8.746094 Z M 15.523438 8.746094 " fill-opacity="0.498" fill-rule="nonzero"/><path fill="rgb(97.648621%, 76.469421%, 8.628845%)" d="M 15.523438 20.554688 C 15.394531 20.683594 15.257812 20.816406 15.117188 20.933594 C 14.980469 20.816406 14.84375 20.683594 14.710938 20.554688 C 11.449219 17.292969 11.449219 12 14.710938 8.738281 C 14.839844 8.609375 14.976562 8.480469 15.117188 8.359375 C 15.253906 8.480469 15.386719 8.609375 15.523438 8.738281 C 18.785156 12.007812 18.785156 17.292969 15.523438 20.554688 Z M 15.523438 20.554688 " fill-opacity="1" fill-rule="nonzero"/><path fill="rgb(15.689087%, 75.689697%, 87.838745%)" d="M 12.613281 17.039062 C 11.765625 14.195312 12.46875 10.988281 14.714844 8.738281 C 16.992188 6.464844 20.25 5.773438 23.128906 6.671875 C 23.976562 9.515625 23.273438 12.726562 21.027344 14.972656 C 18.75 17.253906 15.492188 17.9375 12.613281 17.039062 Z M 12.613281 17.039062 " fill-opacity="0.498" fill-rule="nonzero"/><path fill="rgb(97.648621%, 45.098877%, 74.899292%)" d="M 14.714844 20.554688 C 12.46875 18.308594 11.769531 15.101562 12.613281 12.253906 C 15.484375 11.355469 18.75 12.039062 21.027344 14.320312 C 23.273438 16.570312 23.972656 19.773438 23.128906 22.621094 C 20.25 23.519531 16.992188 22.832031 14.714844 20.554688 Z M 14.714844 20.554688 " fill-opacity="0.498" fill-rule="nonzero"/><path fill="rgb(97.648621%, 45.098877%, 74.899292%)" d="M 17.625 12.261719 C 18.472656 15.101562 17.773438 18.3125 15.523438 20.558594 C 13.25 22.835938 9.988281 23.527344 7.113281 22.625 C 6.261719 19.785156 6.964844 16.574219 9.210938 14.328125 C 11.488281 12.046875 14.75 11.359375 17.625 12.261719 Z M 17.625 12.261719 " fill-opacity="0.498" fill-rule="nonzero"/></svg>