<svg xmlns="http://www.w3.org/2000/svg" xmlns:xlink="http://www.w3.org/1999/xlink" width="40" zoomAndPan="magnify" viewBox="0 0 30 30.000001" height="40" preserveAspectRatio="xMidYMid meet" version="1.0"><defs><clipPath id="id1"><path d="M 10 1.558594 L 20 1.558594 L 20 27.691406 L 10 27.691406 Z M 10 1.558594 " clip-rule="nonzero"/></clipPath><clipPath id="id2"><path d="M 5 1.558594 L 25 1.558594 L 25 27.691406 L 5 27.691406 Z M 5 1.558594 " clip-rule="nonzero"/></clipPath><clipPath id="id3"><path d="M 2.042969 10 L 28.171875 10 L 28.171875 19 L 2.042969 19 Z M 2.042969 10 " clip-rule="nonzero"/></clipPath><clipPath id="id4"><path d="M 2.042969 1.558594 L 28.171875 1.558594 L 28.171875 27.691406 L 2.042969 27.691406 Z M 2.042969 1.558594 " clip-rule="nonzero"/></clipPath></defs><path fill="rgb(65.098572%, 65.098572%, 65.098572%)" d="M 24.769531 7.605469 L 5.03125 7.605469 C 4.757812 7.605469 4.53125 7.382812 4.53125 7.105469 C 4.53125 6.828125 4.757812 6.605469 5.03125 6.605469 L 24.769531 6.605469 C 25.046875 6.605469 25.269531 6.828125 25.269531 7.105469 C 25.273438 7.382812 25.046875 7.605469 24.769531 7.605469 Z M 24.769531 7.605469 " fill-opacity="1" fill-rule="nonzero"/><path fill="rgb(65.098572%, 65.098572%, 65.098572%)" d="M 24.816406 22.644531 L 5.53125 22.644531 C 5.257812 22.644531 5.03125 22.421875 5.03125 22.144531 C 5.03125 21.867188 5.257812 21.644531 5.53125 21.644531 L 24.816406 21.644531 C 25.09375 21.644531 25.316406 21.867188 25.316406 22.144531 C 25.316406 22.421875 25.09375 22.644531 24.816406 22.644531 Z M 24.816406 22.644531 " fill-opacity="1" fill-rule="nonzero"/><g clip-path="url(#id1)"><path fill="rgb(65.098572%, 65.098572%, 65.098572%)" d="M 15.105469 27.695312 C 14.359375 27.695312 13.273438 27.191406 12.324219 24.78125 C 11.648438 23.066406 11.171875 20.75 10.941406 18.078125 C 10.929688 17.941406 10.976562 17.800781 11.074219 17.699219 C 11.167969 17.59375 11.300781 17.535156 11.441406 17.535156 L 18.769531 17.535156 C 18.910156 17.535156 19.042969 17.59375 19.136719 17.699219 C 19.230469 17.800781 19.277344 17.941406 19.265625 18.078125 C 19.039062 20.75 18.5625 23.066406 17.886719 24.78125 C 16.9375 27.191406 15.851562 27.695312 15.105469 27.695312 Z M 11.992188 18.539062 C 12.226562 20.855469 12.667969 22.925781 13.253906 24.414062 C 13.824219 25.863281 14.5 26.695312 15.105469 26.695312 C 15.710938 26.695312 16.386719 25.863281 16.957031 24.414062 C 17.542969 22.925781 17.984375 20.855469 18.21875 18.539062 Z M 18.769531 11.71875 L 11.441406 11.71875 C 11.300781 11.71875 11.167969 11.65625 11.074219 11.554688 C 10.976562 11.453125 10.929688 11.3125 10.941406 11.171875 C 11.171875 8.503906 11.648438 6.183594 12.324219 4.46875 C 13.273438 2.0625 14.359375 1.554688 15.105469 1.554688 C 15.851562 1.554688 16.941406 2.0625 17.886719 4.46875 C 18.558594 6.175781 19.035156 8.480469 19.265625 11.136719 C 19.269531 11.164062 19.269531 11.1875 19.269531 11.214844 C 19.269531 11.492188 19.046875 11.71875 18.769531 11.71875 Z M 11.992188 10.714844 L 18.21875 10.714844 C 17.984375 8.394531 17.542969 6.324219 16.957031 4.835938 C 16.386719 3.386719 15.710938 2.558594 15.105469 2.558594 C 14.5 2.558594 13.824219 3.386719 13.253906 4.835938 C 12.667969 6.324219 12.226562 8.394531 11.992188 10.714844 Z M 11.992188 10.714844 " fill-opacity="1" fill-rule="nonzero"/></g><g clip-path="url(#id2)"><path fill="rgb(65.098572%, 65.098572%, 65.098572%)" d="M 15.105469 27.695312 C 12.925781 27.695312 10.871094 26.742188 9.164062 24.941406 C 7.542969 23.230469 6.347656 20.8125 5.796875 18.136719 C 5.765625 17.988281 5.804688 17.835938 5.898438 17.722656 C 5.996094 17.605469 6.136719 17.535156 6.289062 17.535156 L 23.921875 17.535156 C 24.074219 17.535156 24.214844 17.605469 24.308594 17.722656 C 24.40625 17.835938 24.441406 17.992188 24.414062 18.136719 C 23.863281 20.8125 22.667969 23.230469 21.046875 24.941406 C 19.335938 26.742188 17.285156 27.695312 15.105469 27.695312 Z M 6.914062 18.539062 C 8.105469 23.371094 11.410156 26.695312 15.105469 26.695312 C 18.800781 26.695312 22.105469 23.371094 23.296875 18.539062 Z M 23.921875 11.71875 L 6.289062 11.71875 C 6.136719 11.71875 5.996094 11.648438 5.898438 11.53125 C 5.804688 11.414062 5.765625 11.261719 5.796875 11.117188 C 6.347656 8.4375 7.542969 6.023438 9.164062 4.308594 C 10.871094 2.507812 12.925781 1.554688 15.105469 1.554688 C 17.285156 1.554688 19.335938 2.507812 21.046875 4.308594 C 22.660156 6.015625 23.855469 8.417969 24.40625 11.078125 C 24.417969 11.121094 24.425781 11.167969 24.425781 11.214844 C 24.425781 11.492188 24.199219 11.71875 23.921875 11.71875 Z M 6.914062 10.714844 L 23.296875 10.714844 C 22.105469 5.882812 18.800781 2.558594 15.105469 2.558594 C 11.410156 2.558594 8.105469 5.882812 6.914062 10.714844 Z M 6.914062 10.714844 " fill-opacity="1" fill-rule="nonzero"/></g><path fill="rgb(65.098572%, 65.098572%, 65.098572%)" d="M 6.429688 13.246094 L 6.800781 14.355469 L 6.808594 14.375 C 6.863281 14.53125 6.898438 14.65625 6.910156 14.75 C 6.921875 14.695312 6.933594 14.640625 6.949219 14.582031 C 6.964844 14.523438 6.988281 14.449219 7.019531 14.359375 L 7.398438 13.246094 L 8.316406 13.246094 L 7.261719 15.757812 L 6.632812 15.757812 L 6.257812 14.621094 C 6.242188 14.558594 6.222656 14.492188 6.207031 14.425781 C 6.191406 14.363281 6.175781 14.296875 6.164062 14.230469 C 6.144531 14.332031 6.113281 14.457031 6.066406 14.605469 L 6.0625 14.625 L 5.691406 15.757812 L 5.0625 15.757812 L 4.011719 13.246094 L 4.925781 13.246094 L 5.300781 14.359375 C 5.328125 14.441406 5.351562 14.511719 5.367188 14.570312 C 5.386719 14.632812 5.398438 14.691406 5.410156 14.75 C 5.425781 14.667969 5.457031 14.550781 5.507812 14.402344 C 5.511719 14.382812 5.519531 14.367188 5.519531 14.359375 L 5.894531 13.246094 Z M 6.429688 13.246094 " fill-opacity="1" fill-rule="nonzero"/><path fill="rgb(65.098572%, 65.098572%, 65.098572%)" d="M 10.527344 13.246094 L 10.898438 14.355469 L 10.90625 14.375 C 10.960938 14.53125 10.996094 14.65625 11.007812 14.75 C 11.019531 14.695312 11.03125 14.640625 11.046875 14.582031 C 11.0625 14.523438 11.085938 14.449219 11.117188 14.359375 L 11.496094 13.246094 L 12.414062 13.246094 L 11.355469 15.757812 L 10.730469 15.757812 L 10.355469 14.621094 C 10.335938 14.558594 10.320312 14.492188 10.304688 14.425781 C 10.289062 14.363281 10.273438 14.296875 10.261719 14.230469 C 10.242188 14.332031 10.210938 14.457031 10.164062 14.605469 L 10.15625 14.625 L 9.789062 15.757812 L 9.160156 15.757812 L 8.109375 13.246094 L 9.023438 13.246094 L 9.398438 14.359375 C 9.425781 14.441406 9.449219 14.511719 9.464844 14.570312 C 9.484375 14.632812 9.496094 14.691406 9.507812 14.75 C 9.519531 14.667969 9.554688 14.550781 9.601562 14.402344 C 9.609375 14.382812 9.613281 14.367188 9.617188 14.359375 L 9.992188 13.246094 Z M 10.527344 13.246094 " fill-opacity="1" fill-rule="nonzero"/><path fill="rgb(65.098572%, 65.098572%, 65.098572%)" d="M 14.625 13.246094 L 14.996094 14.355469 L 15.003906 14.375 C 15.058594 14.53125 15.09375 14.65625 15.105469 14.75 C 15.117188 14.695312 15.128906 14.640625 15.144531 14.582031 C 15.160156 14.523438 15.183594 14.449219 15.214844 14.359375 L 15.59375 13.246094 L 16.511719 13.246094 L 15.453125 15.757812 L 14.828125 15.757812 L 14.453125 14.621094 C 14.433594 14.558594 14.417969 14.492188 14.402344 14.425781 C 14.386719 14.363281 14.371094 14.296875 14.359375 14.230469 C 14.339844 14.332031 14.308594 14.457031 14.261719 14.605469 L 14.253906 14.625 L 13.886719 15.757812 L 13.257812 15.757812 L 12.207031 13.246094 L 13.121094 13.246094 L 13.496094 14.359375 C 13.523438 14.441406 13.546875 14.511719 13.5625 14.570312 C 13.582031 14.632812 13.59375 14.691406 13.605469 14.75 C 13.617188 14.667969 13.652344 14.550781 13.699219 14.402344 C 13.707031 14.382812 13.710938 14.367188 13.714844 14.359375 L 14.089844 13.246094 Z M 14.625 13.246094 " fill-opacity="1" fill-rule="nonzero"/><path fill="rgb(65.098572%, 65.098572%, 65.098572%)" d="M 16.335938 15.351562 C 16.335938 15.210938 16.386719 15.089844 16.480469 14.996094 C 16.574219 14.898438 16.695312 14.851562 16.835938 14.851562 C 16.980469 14.851562 17.101562 14.898438 17.195312 14.996094 C 17.292969 15.089844 17.339844 15.210938 17.339844 15.351562 C 17.339844 15.492188 17.292969 15.613281 17.195312 15.710938 C 17.097656 15.808594 16.976562 15.855469 16.835938 15.855469 C 16.695312 15.855469 16.578125 15.808594 16.480469 15.710938 C 16.386719 15.613281 16.335938 15.492188 16.335938 15.351562 Z M 16.335938 15.351562 " fill-opacity="1" fill-rule="nonzero"/><path fill="rgb(65.098572%, 65.098572%, 65.098572%)" d="M 25.226562 15.984375 L 18.71875 15.984375 C 18.441406 15.984375 18.214844 15.757812 18.214844 15.484375 C 18.214844 15.207031 18.441406 14.980469 18.71875 14.980469 L 25.226562 14.980469 C 25.503906 14.980469 25.726562 15.207031 25.726562 15.484375 C 25.726562 15.757812 25.5 15.984375 25.226562 15.984375 Z M 25.226562 15.984375 " fill-opacity="1" fill-rule="nonzero"/><g clip-path="url(#id3)"><path fill="rgb(65.098572%, 65.098572%, 65.098572%)" d="M 27.207031 18.539062 L 3.003906 18.539062 C 2.78125 18.539062 2.582031 18.390625 2.523438 18.171875 C 2.257812 17.226562 2.097656 16.246094 2.050781 15.261719 C 2.050781 15.253906 2.050781 15.246094 2.050781 15.238281 L 2.050781 14.015625 C 2.050781 14.007812 2.050781 14 2.050781 13.988281 C 2.097656 13.003906 2.257812 12.027344 2.523438 11.082031 C 2.585938 10.863281 2.78125 10.714844 3.003906 10.714844 L 27.207031 10.714844 C 27.433594 10.714844 27.628906 10.863281 27.691406 11.082031 C 28.011719 12.230469 28.175781 13.421875 28.175781 14.625 C 28.175781 15.828125 28.011719 17.019531 27.691406 18.171875 C 27.628906 18.386719 27.429688 18.539062 27.207031 18.539062 Z M 3.390625 17.535156 L 26.820312 17.535156 C 27.054688 16.585938 27.171875 15.609375 27.171875 14.625 C 27.171875 13.640625 27.054688 12.664062 26.820312 11.71875 L 3.390625 11.71875 C 3.203125 12.472656 3.089844 13.246094 3.050781 14.027344 L 3.050781 15.226562 C 3.089844 16.003906 3.203125 16.78125 3.390625 17.535156 Z M 3.390625 17.535156 " fill-opacity="1" fill-rule="nonzero"/></g><g clip-path="url(#id4)"><path fill="rgb(65.098572%, 65.098572%, 65.098572%)" d="M 15.105469 27.695312 C 11.613281 27.695312 8.332031 26.335938 5.863281 23.867188 C 3.394531 21.398438 2.035156 18.117188 2.035156 14.625 C 2.035156 7.417969 7.898438 1.554688 15.105469 1.554688 C 22.3125 1.554688 28.175781 7.417969 28.175781 14.625 C 28.175781 18.117188 26.816406 21.398438 24.347656 23.867188 C 21.878906 26.335938 18.597656 27.695312 15.105469 27.695312 Z M 15.105469 2.558594 C 8.449219 2.558594 3.035156 7.972656 3.035156 14.625 C 3.035156 21.28125 8.449219 26.695312 15.105469 26.695312 C 21.761719 26.695312 27.171875 21.28125 27.171875 14.625 C 27.171875 7.972656 21.761719 2.558594 15.105469 2.558594 Z M 15.105469 2.558594 " fill-opacity="1" fill-rule="nonzero"/></g></svg>