<svg xmlns="http://www.w3.org/2000/svg" xmlns:xlink="http://www.w3.org/1999/xlink" width="40" zoomAndPan="magnify" viewBox="0 0 30 30.000001" height="40" preserveAspectRatio="xMidYMid meet" version="1.0"><defs><clipPath id="id1"><path d="M 1.933594 2.902344 L 28.066406 2.902344 L 28.066406 26.128906 L 1.933594 26.128906 Z M 1.933594 2.902344 " clip-rule="nonzero"/></clipPath></defs><g clip-path="url(#id1)"><path fill="rgb(65.098572%, 65.098572%, 65.098572%)" d="M 25.84375 2.882812 C 25.464844 2.898438 25.121094 3.007812 24.816406 3.125 C 24.535156 3.234375 23.527344 3.652344 21.917969 4.320312 C 20.3125 4.984375 18.179688 5.867188 15.910156 6.8125 C 11.371094 8.699219 6.269531 10.820312 3.652344 11.90625 C 3.5625 11.945312 3.199219 12.054688 2.796875 12.359375 C 2.394531 12.664062 1.945312 13.324219 1.945312 14.046875 C 1.945312 14.628906 2.238281 15.222656 2.59375 15.566406 C 2.949219 15.90625 3.3125 16.0625 3.613281 16.183594 L 3.613281 16.179688 C 4.632812 16.582031 7.675781 17.78125 8.398438 18.070312 C 8.65625 18.832031 9.757812 22.085938 10.019531 22.90625 C 10.203125 23.484375 10.382812 23.863281 10.636719 24.179688 C 10.761719 24.335938 10.910156 24.480469 11.09375 24.589844 C 11.164062 24.636719 11.242188 24.667969 11.320312 24.699219 C 11.332031 24.703125 11.34375 24.707031 11.355469 24.710938 L 11.324219 24.703125 C 11.347656 24.710938 11.367188 24.726562 11.390625 24.734375 C 11.429688 24.746094 11.453125 24.746094 11.503906 24.753906 C 11.683594 24.808594 11.863281 24.847656 12.027344 24.847656 C 12.738281 24.847656 13.171875 24.464844 13.171875 24.464844 L 13.203125 24.445312 L 16.269531 21.882812 L 20.023438 25.316406 C 20.089844 25.410156 20.628906 26.128906 21.871094 26.128906 C 22.613281 26.128906 23.199219 25.765625 23.578125 25.386719 C 23.953125 25.003906 24.183594 24.617188 24.289062 24.085938 L 24.292969 24.085938 C 24.375 23.660156 27.972656 5.828125 27.972656 5.828125 L 27.964844 5.855469 C 28.074219 5.363281 28.109375 4.886719 27.976562 4.398438 C 27.84375 3.914062 27.488281 3.441406 27.058594 3.191406 C 26.628906 2.941406 26.222656 2.867188 25.84375 2.882812 Z M 25.328125 5.707031 C 25.1875 6.414062 21.964844 22.394531 21.769531 23.398438 L 16.34375 18.441406 L 12.679688 21.503906 L 13.695312 17.582031 C 13.695312 17.582031 20.699219 10.578125 21.121094 10.167969 C 21.460938 9.84375 21.53125 9.726562 21.53125 9.613281 C 21.53125 9.464844 21.453125 9.355469 21.269531 9.355469 C 21.105469 9.355469 20.886719 9.507812 20.769531 9.582031 C 19.273438 10.5 12.910156 14.082031 9.785156 15.839844 C 9.59375 15.765625 6.769531 14.644531 5.246094 14.042969 C 7.953125 12.917969 12.597656 10.988281 16.921875 9.191406 C 19.191406 8.246094 21.324219 7.363281 22.929688 6.699219 C 24.285156 6.136719 24.992188 5.847656 25.328125 5.707031 Z M 21.730469 23.582031 C 21.730469 23.582031 21.730469 23.589844 21.730469 23.589844 C 21.730469 23.582031 21.726562 23.585938 21.730469 23.582031 Z M 21.730469 23.582031 " fill-opacity="1" fill-rule="nonzero"/></g></svg>