<svg xmlns="http://www.w3.org/2000/svg" xmlns:xlink="http://www.w3.org/1999/xlink" width="30" viewBox="0 0 30 30" height="30" version="1.0"><defs><clipPath id="a"><path d="M 2.878906 2.394531 L 26.832031 2.394531 L 26.832031 26.347656 L 2.878906 26.347656 Z M 2.878906 2.394531"/></clipPath><clipPath id="b"><path d="M 2.878906 14.371094 C 2.878906 20.984375 8.242188 26.347656 14.855469 26.347656 C 21.46875 26.347656 26.832031 20.984375 26.832031 14.371094 C 26.832031 7.757812 21.46875 2.394531 14.855469 2.394531 C 8.242188 2.394531 2.878906 7.757812 2.878906 14.371094"/></clipPath><clipPath id="c"><path d="M 2.878906 14.371094 C 2.878906 20.984375 8.242188 26.347656 14.855469 26.347656 C 21.46875 26.347656 26.832031 20.984375 26.832031 14.371094 C 26.832031 7.757812 21.46875 2.394531 14.855469 2.394531 C 8.242188 2.394531 2.878906 7.757812 2.878906 14.371094"/></clipPath><linearGradient x1="133.903" gradientTransform="matrix(.1015 0 0 -.1015 1.265 27.767)" xmlns:xlink="http://www.w3.org/1999/xlink" y1="13.998" x2="133.903" gradientUnits="userSpaceOnUse" y2="249.994" xlink:type="simple" xlink:actuate="onLoad" id="d" xlink:show="other"><stop stop-color="#1D93D2" offset="0"/><stop stop-color="#1D93D2" offset=".031"/><stop stop-color="#1E94D3" offset=".063"/><stop stop-color="#1F95D3" offset=".094"/><stop stop-color="#2096D4" offset=".125"/><stop stop-color="#2197D4" offset=".156"/><stop stop-color="#2298D5" offset=".188"/><stop stop-color="#2399D6" offset=".219"/><stop stop-color="#239AD6" offset=".25"/><stop stop-color="#249BD7" offset=".281"/><stop stop-color="#259CD7" offset=".313"/><stop stop-color="#269CD8" offset=".344"/><stop stop-color="#279DD8" offset=".375"/><stop stop-color="#289ED9" offset=".406"/><stop stop-color="#289FD9" offset=".438"/><stop stop-color="#29A0DA" offset=".469"/><stop stop-color="#2AA1DA" offset=".5"/><stop stop-color="#2BA2DB" offset=".531"/><stop stop-color="#2CA3DB" offset=".563"/><stop stop-color="#2DA4DC" offset=".594"/><stop stop-color="#2EA5DC" offset=".625"/><stop stop-color="#2EA5DD" offset=".656"/><stop stop-color="#2FA6DD" offset=".688"/><stop stop-color="#30A7DE" offset=".719"/><stop stop-color="#31A8DE" offset=".75"/><stop stop-color="#32A9DF" offset=".781"/><stop stop-color="#33AAE0" offset=".813"/><stop stop-color="#33ABE0" offset=".844"/><stop stop-color="#34ACE1" offset=".875"/><stop stop-color="#35ADE1" offset=".906"/><stop stop-color="#36AEE2" offset=".938"/><stop stop-color="#37AFE2" offset=".969"/><stop stop-color="#38AFE3" offset="1"/></linearGradient></defs><g clip-path="url(#a)"><g clip-path="url(#b)"><g clip-path="url(#c)"><path fill="url(#d)" d="M 2.878906 26.347656 L 2.878906 2.394531 L 26.832031 2.394531 L 26.832031 26.347656 Z M 2.878906 26.347656"/></g></g></g><path fill="#C8DAEA" d="M 10.984375 15.246094 L 12.40625 19.179688 C 12.40625 19.179688 12.585938 19.546875 12.773438 19.546875 C 12.964844 19.546875 15.792969 16.601562 15.792969 16.601562 L 18.941406 10.527344 L 11.035156 14.230469 Z M 10.984375 15.246094"/><path fill="#A9C6D8" d="M 12.871094 16.253906 L 12.597656 19.152344 C 12.597656 19.152344 12.484375 20.042969 13.371094 19.152344 C 14.257812 18.265625 15.109375 17.582031 15.109375 17.582031"/><path fill="#FFF" d="M 11.011719 15.386719 L 8.089844 14.433594 C 8.089844 14.433594 7.738281 14.292969 7.851562 13.972656 C 7.875 13.90625 7.921875 13.847656 8.0625 13.75 C 8.707031 13.300781 20.046875 9.222656 20.046875 9.222656 C 20.046875 9.222656 20.367188 9.117188 20.558594 9.1875 C 20.644531 9.222656 20.699219 9.257812 20.746094 9.394531 C 20.761719 9.441406 20.773438 9.546875 20.769531 9.652344 C 20.769531 9.726562 20.761719 9.796875 20.753906 9.90625 C 20.683594 11.019531 18.617188 19.335938 18.617188 19.335938 C 18.617188 19.335938 18.496094 19.820312 18.050781 19.839844 C 17.890625 19.84375 17.695312 19.8125 17.460938 19.609375 C 16.589844 18.863281 13.585938 16.84375 12.921875 16.398438 C 12.882812 16.375 12.875 16.339844 12.867188 16.308594 C 12.859375 16.261719 12.90625 16.203125 12.90625 16.203125 C 12.90625 16.203125 18.140625 11.554688 18.277344 11.066406 C 18.289062 11.027344 18.25 11.007812 18.195312 11.027344 C 17.847656 11.152344 11.824219 14.957031 11.15625 15.378906 C 11.121094 15.402344 11.011719 15.386719 11.011719 15.386719"/></svg>