<svg xmlns="http://www.w3.org/2000/svg" width="30" viewBox="0 0 30 30" height="30" version="1.0"><defs><clipPath id="a"><path d="M 11 2.976562 L 19 2.976562 L 19 26.203125 L 11 26.203125 Z M 11 2.976562"/></clipPath><clipPath id="b"><path d="M 6 2.976562 L 24 2.976562 L 24 26.203125 L 6 26.203125 Z M 6 2.976562"/></clipPath><clipPath id="c"><path d="M 3.386719 11 L 26.613281 11 L 26.613281 19 L 3.386719 19 Z M 3.386719 11"/></clipPath><clipPath id="d"><path d="M 3.386719 2.976562 L 26.613281 2.976562 L 26.613281 26.203125 L 3.386719 26.203125 Z M 3.386719 2.976562"/></clipPath></defs><path d="M 23.589844 8.351562 L 6.042969 8.351562 C 5.796875 8.351562 5.597656 8.152344 5.597656 7.90625 C 5.597656 7.660156 5.796875 7.460938 6.042969 7.460938 L 23.589844 7.460938 C 23.835938 7.460938 24.035156 7.660156 24.035156 7.90625 C 24.035156 8.152344 23.835938 8.351562 23.589844 8.351562 Z M 23.589844 8.351562"/><path d="M 23.628906 21.71875 L 6.488281 21.71875 C 6.242188 21.71875 6.042969 21.519531 6.042969 21.273438 C 6.042969 21.027344 6.242188 20.828125 6.488281 20.828125 L 23.628906 20.828125 C 23.875 20.828125 24.074219 21.027344 24.074219 21.273438 C 24.074219 21.519531 23.875 21.71875 23.628906 21.71875 Z M 23.628906 21.71875"/><g clip-path="url(#a)"><path d="M 14.996094 26.207031 C 14.335938 26.207031 13.367188 25.757812 12.523438 23.617188 C 11.921875 22.09375 11.5 20.03125 11.296875 17.660156 C 11.285156 17.535156 11.328125 17.414062 11.414062 17.320312 C 11.496094 17.230469 11.617188 17.175781 11.738281 17.175781 L 18.253906 17.175781 C 18.378906 17.175781 18.496094 17.230469 18.582031 17.320312 C 18.664062 17.414062 18.707031 17.535156 18.695312 17.660156 C 18.492188 20.035156 18.070312 22.09375 17.46875 23.617188 C 16.628906 25.757812 15.660156 26.207031 14.996094 26.207031 Z M 12.226562 18.066406 C 12.4375 20.128906 12.832031 21.96875 13.351562 23.289062 C 13.859375 24.578125 14.460938 25.316406 14.996094 25.316406 C 15.535156 25.316406 16.136719 24.578125 16.640625 23.289062 C 17.160156 21.96875 17.558594 20.128906 17.765625 18.066406 Z M 18.253906 12.003906 L 11.742188 12.003906 C 11.617188 12.003906 11.496094 11.953125 11.414062 11.859375 C 11.328125 11.769531 11.285156 11.644531 11.296875 11.519531 C 11.5 9.148438 11.925781 7.085938 12.523438 5.5625 C 13.367188 3.421875 14.335938 2.972656 14.996094 2.972656 C 15.660156 2.972656 16.628906 3.421875 17.46875 5.5625 C 18.066406 7.078125 18.492188 9.128906 18.695312 11.488281 C 18.699219 11.511719 18.699219 11.535156 18.699219 11.558594 C 18.699219 11.804688 18.5 12.003906 18.253906 12.003906 Z M 12.226562 11.113281 L 17.765625 11.113281 C 17.558594 9.050781 17.160156 7.210938 16.640625 5.890625 C 16.136719 4.601562 15.535156 3.863281 14.996094 3.863281 C 14.460938 3.863281 13.859375 4.601562 13.351562 5.890625 C 12.832031 7.210938 12.4375 9.050781 12.226562 11.113281 Z M 12.226562 11.113281"/></g><g clip-path="url(#b)"><path d="M 14.996094 26.207031 C 13.0625 26.207031 11.234375 25.359375 9.71875 23.757812 C 8.273438 22.238281 7.210938 20.089844 6.722656 17.710938 C 6.695312 17.578125 6.730469 17.445312 6.816406 17.339844 C 6.898438 17.238281 7.027344 17.175781 7.160156 17.175781 L 22.835938 17.175781 C 22.96875 17.175781 23.09375 17.238281 23.179688 17.339844 C 23.261719 17.445312 23.296875 17.582031 23.269531 17.710938 C 22.78125 20.089844 21.71875 22.238281 20.277344 23.757812 C 18.757812 25.359375 16.933594 26.207031 14.996094 26.207031 Z M 7.714844 18.066406 C 8.773438 22.363281 11.710938 25.316406 14.996094 25.316406 C 18.28125 25.316406 21.21875 22.363281 22.277344 18.066406 Z M 22.835938 12.003906 L 7.160156 12.003906 C 7.027344 12.003906 6.898438 11.945312 6.816406 11.839844 C 6.730469 11.734375 6.695312 11.601562 6.722656 11.46875 C 7.210938 9.089844 8.273438 6.941406 9.71875 5.417969 C 11.234375 3.820312 13.0625 2.972656 14.996094 2.972656 C 16.933594 2.972656 18.757812 3.820312 20.277344 5.417969 C 21.714844 6.933594 22.773438 9.070312 23.261719 11.4375 C 23.273438 11.476562 23.28125 11.515625 23.28125 11.558594 C 23.28125 11.804688 23.082031 12.003906 22.835938 12.003906 Z M 7.714844 11.113281 L 22.277344 11.113281 C 21.21875 6.816406 18.28125 3.863281 14.996094 3.863281 C 11.710938 3.863281 8.773438 6.816406 7.714844 11.113281 Z M 7.714844 11.113281"/></g><path d="M 7.285156 13.363281 L 7.613281 14.351562 L 7.621094 14.367188 C 7.667969 14.503906 7.699219 14.617188 7.714844 14.699219 C 7.722656 14.652344 7.734375 14.601562 7.746094 14.550781 C 7.761719 14.5 7.78125 14.433594 7.808594 14.351562 L 8.144531 13.363281 L 8.960938 13.363281 L 8.023438 15.597656 L 7.464844 15.597656 L 7.132812 14.585938 C 7.117188 14.527344 7.101562 14.472656 7.085938 14.414062 C 7.074219 14.355469 7.058594 14.296875 7.046875 14.238281 C 7.03125 14.328125 7.003906 14.4375 6.960938 14.574219 L 6.957031 14.589844 L 6.628906 15.597656 L 6.070312 15.597656 L 5.136719 13.363281 L 5.949219 13.363281 L 6.28125 14.351562 C 6.308594 14.425781 6.328125 14.488281 6.34375 14.539062 C 6.355469 14.59375 6.371094 14.648438 6.378906 14.699219 C 6.390625 14.625 6.421875 14.523438 6.464844 14.390625 C 6.46875 14.375 6.472656 14.359375 6.476562 14.351562 L 6.808594 13.363281 Z M 7.285156 13.363281"/><path d="M 10.925781 13.363281 L 11.257812 14.351562 L 11.261719 14.367188 C 11.3125 14.503906 11.34375 14.617188 11.355469 14.699219 C 11.363281 14.652344 11.375 14.601562 11.390625 14.550781 C 11.40625 14.5 11.425781 14.433594 11.449219 14.351562 L 11.785156 13.363281 L 12.601562 13.363281 L 11.664062 15.597656 L 11.109375 15.597656 L 10.777344 14.585938 C 10.757812 14.527344 10.742188 14.472656 10.730469 14.414062 C 10.714844 14.355469 10.703125 14.296875 10.691406 14.238281 C 10.671875 14.328125 10.644531 14.4375 10.605469 14.574219 L 10.597656 14.589844 L 10.269531 15.597656 L 9.710938 15.597656 L 8.777344 13.363281 L 9.589844 13.363281 L 9.925781 14.351562 C 9.949219 14.425781 9.96875 14.488281 9.984375 14.539062 C 10 14.59375 10.011719 14.648438 10.019531 14.699219 C 10.03125 14.625 10.0625 14.523438 10.105469 14.390625 C 10.113281 14.375 10.117188 14.359375 10.121094 14.351562 L 10.449219 13.363281 Z M 10.925781 13.363281"/><path d="M 14.570312 13.363281 L 14.898438 14.351562 L 14.90625 14.367188 C 14.953125 14.503906 14.984375 14.617188 15 14.699219 C 15.007812 14.652344 15.019531 14.601562 15.03125 14.550781 C 15.046875 14.5 15.066406 14.433594 15.09375 14.351562 L 15.429688 13.363281 L 16.246094 13.363281 L 15.308594 15.597656 L 14.75 15.597656 L 14.417969 14.585938 C 14.402344 14.527344 14.386719 14.472656 14.371094 14.414062 C 14.355469 14.355469 14.34375 14.296875 14.332031 14.238281 C 14.316406 14.328125 14.289062 14.4375 14.246094 14.574219 L 14.242188 14.589844 L 13.914062 15.597656 L 13.355469 15.597656 L 12.421875 13.363281 L 13.234375 13.363281 L 13.566406 14.351562 C 13.59375 14.425781 13.613281 14.488281 13.625 14.539062 C 13.640625 14.59375 13.652344 14.648438 13.664062 14.699219 C 13.675781 14.625 13.703125 14.523438 13.75 14.390625 C 13.753906 14.375 13.757812 14.359375 13.761719 14.351562 L 14.09375 13.363281 Z M 14.570312 13.363281"/><path d="M 16.09375 15.234375 C 16.09375 15.109375 16.136719 15.003906 16.21875 14.917969 C 16.304688 14.832031 16.410156 14.789062 16.535156 14.789062 C 16.664062 14.789062 16.769531 14.832031 16.855469 14.917969 C 16.941406 15.003906 16.984375 15.109375 16.984375 15.234375 C 16.984375 15.359375 16.941406 15.464844 16.855469 15.554688 C 16.769531 15.640625 16.660156 15.683594 16.535156 15.683594 C 16.410156 15.683594 16.304688 15.640625 16.21875 15.554688 C 16.136719 15.464844 16.09375 15.359375 16.09375 15.234375 Z M 16.09375 15.234375"/><path d="M 23.992188 15.796875 L 18.207031 15.796875 C 17.960938 15.796875 17.761719 15.597656 17.761719 15.351562 C 17.761719 15.105469 17.960938 14.90625 18.207031 14.90625 L 23.992188 14.90625 C 24.238281 14.90625 24.4375 15.105469 24.4375 15.351562 C 24.4375 15.597656 24.238281 15.796875 23.992188 15.796875 Z M 23.992188 15.796875"/><g clip-path="url(#c)"><path d="M 25.753906 18.066406 L 4.242188 18.066406 C 4.042969 18.066406 3.867188 17.933594 3.8125 17.742188 C 3.574219 16.898438 3.433594 16.03125 3.394531 15.15625 C 3.390625 15.148438 3.390625 15.140625 3.390625 15.132812 L 3.390625 14.046875 C 3.390625 14.039062 3.390625 14.03125 3.394531 14.023438 C 3.433594 13.148438 3.574219 12.277344 3.8125 11.4375 C 3.867188 11.246094 4.042969 11.113281 4.242188 11.113281 L 25.753906 11.113281 C 25.953125 11.113281 26.128906 11.246094 26.183594 11.4375 C 26.46875 12.460938 26.613281 13.519531 26.613281 14.589844 C 26.613281 15.65625 26.46875 16.71875 26.183594 17.742188 C 26.128906 17.933594 25.953125 18.066406 25.753906 18.066406 Z M 4.585938 17.175781 L 25.410156 17.175781 C 25.617188 16.332031 25.722656 15.464844 25.722656 14.589844 C 25.722656 13.714844 25.617188 12.847656 25.410156 12.003906 L 4.585938 12.003906 C 4.417969 12.675781 4.316406 13.363281 4.28125 14.054688 L 4.28125 15.125 C 4.316406 15.816406 4.417969 16.503906 4.585938 17.175781 Z M 4.585938 17.175781"/></g><g clip-path="url(#d)"><path d="M 14.996094 26.207031 C 11.894531 26.207031 8.976562 25 6.78125 22.804688 C 4.589844 20.609375 3.378906 17.695312 3.378906 14.589844 C 3.378906 8.183594 8.589844 2.972656 14.996094 2.972656 C 21.402344 2.972656 26.613281 8.183594 26.613281 14.589844 C 26.613281 17.695312 25.40625 20.609375 23.210938 22.804688 C 21.019531 25 18.101562 26.207031 14.996094 26.207031 Z M 14.996094 3.863281 C 9.082031 3.863281 4.269531 8.675781 4.269531 14.589844 C 4.269531 20.503906 9.082031 25.316406 14.996094 25.316406 C 20.910156 25.316406 25.722656 20.503906 25.722656 14.589844 C 25.722656 8.675781 20.910156 3.863281 14.996094 3.863281 Z M 14.996094 3.863281"/></g></svg>