<svg xmlns="http://www.w3.org/2000/svg" xmlns:xlink="http://www.w3.org/1999/xlink" width="40" zoomAndPan="magnify" viewBox="0 0 30 30.000001" height="40" preserveAspectRatio="xMidYMid meet" version="1.0"><defs><clipPath id="id1"><path d="M 2.550781 2.070312 L 27.230469 2.070312 L 27.230469 26.746094 L 2.550781 26.746094 Z M 2.550781 2.070312 " clip-rule="nonzero"/></clipPath><clipPath id="id2"><path d="M 2.550781 14.40625 C 2.550781 21.222656 8.078125 26.746094 14.890625 26.746094 C 21.707031 26.746094 27.230469 21.222656 27.230469 14.40625 C 27.230469 7.59375 21.707031 2.066406 14.890625 2.066406 C 8.078125 2.066406 2.550781 7.59375 2.550781 14.40625 " clip-rule="nonzero"/></clipPath><clipPath id="id3"><path d="M 2.550781 14.40625 C 2.550781 21.222656 8.078125 26.746094 14.890625 26.746094 C 21.707031 26.746094 27.230469 21.222656 27.230469 14.40625 C 27.230469 7.59375 21.707031 2.066406 14.890625 2.066406 C 8.078125 2.066406 2.550781 7.59375 2.550781 14.40625 " clip-rule="nonzero"/></clipPath><linearGradient x1="133.903" gradientTransform="matrix(0.104567, 0, 0, -0.104567, 0.889392, 28.209648)" y1="13.998004" x2="133.903" gradientUnits="userSpaceOnUse" y2="249.994446" xlink:type="simple" xlink:actuate="onLoad" id="id4" xlink:show="other"><stop stop-opacity="1" stop-color="rgb(11.399841%, 57.598877%, 82.398987%)" offset="0"/><stop stop-opacity="1" stop-color="rgb(11.564636%, 57.777405%, 82.501221%)" offset="0.03125"/><stop stop-opacity="1" stop-color="rgb(11.895752%, 58.132935%, 82.707214%)" offset="0.0625"/><stop stop-opacity="1" stop-color="rgb(12.226868%, 58.48999%, 82.914734%)" offset="0.09375"/><stop stop-opacity="1" stop-color="rgb(12.557983%, 58.84552%, 83.120728%)" offset="0.125"/><stop stop-opacity="1" stop-color="rgb(12.889099%, 59.202576%, 83.326721%)" offset="0.15625"/><stop stop-opacity="1" stop-color="rgb(13.220215%, 59.558105%, 83.532715%)" offset="0.1875"/><stop stop-opacity="1" stop-color="rgb(13.551331%, 59.913635%, 83.738708%)" offset="0.21875"/><stop stop-opacity="1" stop-color="rgb(13.882446%, 60.270691%, 83.944702%)" offset="0.25"/><stop stop-opacity="1" stop-color="rgb(14.213562%, 60.626221%, 84.152222%)" offset="0.28125"/><stop stop-opacity="1" stop-color="rgb(14.544678%, 60.983276%, 84.358215%)" offset="0.3125"/><stop stop-opacity="1" stop-color="rgb(14.877319%, 61.338806%, 84.564209%)" offset="0.34375"/><stop stop-opacity="1" stop-color="rgb(15.208435%, 61.695862%, 84.770203%)" offset="0.375"/><stop stop-opacity="1" stop-color="rgb(15.539551%, 62.051392%, 84.976196%)" offset="0.40625"/><stop stop-opacity="1" stop-color="rgb(15.870667%, 62.408447%, 85.18219%)" offset="0.4375"/><stop stop-opacity="1" stop-color="rgb(16.201782%, 62.763977%, 85.389709%)" offset="0.46875"/><stop stop-opacity="1" stop-color="rgb(16.532898%, 63.121033%, 85.595703%)" offset="0.5"/><stop stop-opacity="1" stop-color="rgb(16.864014%, 63.476562%, 85.801697%)" offset="0.53125"/><stop stop-opacity="1" stop-color="rgb(17.195129%, 63.833618%, 86.00769%)" offset="0.5625"/><stop stop-opacity="1" stop-color="rgb(17.526245%, 64.189148%, 86.213684%)" offset="0.59375"/><stop stop-opacity="1" stop-color="rgb(17.857361%, 64.546204%, 86.419678%)" offset="0.625"/><stop stop-opacity="1" stop-color="rgb(18.188477%, 64.901733%, 86.627197%)" offset="0.65625"/><stop stop-opacity="1" stop-color="rgb(18.519592%, 65.258789%, 86.833191%)" offset="0.6875"/><stop stop-opacity="1" stop-color="rgb(18.852234%, 65.614319%, 87.039185%)" offset="0.71875"/><stop stop-opacity="1" stop-color="rgb(19.18335%, 65.969849%, 87.245178%)" offset="0.75"/><stop stop-opacity="1" stop-color="rgb(19.514465%, 66.326904%, 87.451172%)" offset="0.78125"/><stop stop-opacity="1" stop-color="rgb(19.845581%, 66.682434%, 87.657166%)" offset="0.8125"/><stop stop-opacity="1" stop-color="rgb(20.176697%, 67.03949%, 87.864685%)" offset="0.84375"/><stop stop-opacity="1" stop-color="rgb(20.507812%, 67.39502%, 88.070679%)" offset="0.875"/><stop stop-opacity="1" stop-color="rgb(20.838928%, 67.752075%, 88.276672%)" offset="0.90625"/><stop stop-opacity="1" stop-color="rgb(21.170044%, 68.107605%, 88.482666%)" offset="0.9375"/><stop stop-opacity="1" stop-color="rgb(21.50116%, 68.464661%, 88.68866%)" offset="0.96875"/><stop stop-opacity="1" stop-color="rgb(21.832275%, 68.82019%, 88.894653%)" offset="1"/></linearGradient></defs><g clip-path="url(#id1)"><g clip-path="url(#id2)"><g clip-path="url(#id3)"><path fill="url(#id4)" d="M 2.550781 26.746094 L 2.550781 2.070312 L 27.230469 2.070312 L 27.230469 26.746094 Z M 2.550781 26.746094 " fill-rule="nonzero"/></g></g></g><path fill="rgb(78.42865%, 85.488892%, 91.758728%)" d="M 10.90625 15.308594 L 12.367188 19.359375 C 12.367188 19.359375 12.550781 19.738281 12.746094 19.738281 C 12.945312 19.738281 15.859375 16.707031 15.859375 16.707031 L 19.101562 10.445312 L 10.957031 14.261719 Z M 10.90625 15.308594 " fill-opacity="1" fill-rule="nonzero"/><path fill="rgb(66.268921%, 77.648926%, 84.709167%)" d="M 12.84375 16.347656 L 12.566406 19.335938 C 12.566406 19.335938 12.445312 20.25 13.363281 19.335938 C 14.277344 18.417969 15.152344 17.714844 15.152344 17.714844 " fill-opacity="1" fill-rule="nonzero"/><path fill="rgb(100%, 100%, 100%)" d="M 10.929688 15.453125 L 7.921875 14.472656 C 7.921875 14.472656 7.558594 14.328125 7.675781 13.996094 C 7.699219 13.925781 7.746094 13.867188 7.890625 13.769531 C 8.558594 13.304688 20.242188 9.105469 20.242188 9.105469 C 20.242188 9.105469 20.570312 8.992188 20.765625 9.066406 C 20.855469 9.101562 20.914062 9.140625 20.960938 9.277344 C 20.976562 9.328125 20.988281 9.4375 20.984375 9.542969 C 20.984375 9.621094 20.976562 9.695312 20.96875 9.804688 C 20.898438 10.953125 18.769531 19.523438 18.769531 19.523438 C 18.769531 19.523438 18.640625 20.023438 18.183594 20.039062 C 18.019531 20.046875 17.816406 20.011719 17.574219 19.804688 C 16.679688 19.035156 13.582031 16.953125 12.898438 16.496094 C 12.859375 16.472656 12.851562 16.4375 12.84375 16.40625 C 12.832031 16.355469 12.886719 16.296875 12.886719 16.296875 C 12.886719 16.296875 18.277344 11.503906 18.417969 11.003906 C 18.429688 10.964844 18.386719 10.945312 18.332031 10.960938 C 17.972656 11.09375 11.765625 15.011719 11.082031 15.445312 C 11.042969 15.46875 10.929688 15.453125 10.929688 15.453125 " fill-opacity="1" fill-rule="nonzero"/></svg>