<svg width="42" height="42" viewBox="0 0 42 42" fill="none" xmlns="http://www.w3.org/2000/svg">
<rect width="42" height="42" rx="21" fill="white" fill-opacity="0.1"/>
<path fill-rule="evenodd" clip-rule="evenodd" d="M31.9762 13.0823C32.0282 12.7663 31.9946 12.442 31.8788 12.1434C31.763 11.8448 31.5692 11.5827 31.3176 11.3844C31.0661 11.1861 30.766 11.0589 30.4485 11.0161C30.1311 10.9733 29.808 11.0163 29.5129 11.1408L9.09495 19.7378C7.67166 20.3372 7.59883 22.3957 9.09495 23.0166C10.5764 23.6345 12.0795 24.1992 13.6012 24.7098C14.9958 25.1707 16.517 25.5969 17.7361 25.7175C18.0693 26.1163 18.4884 26.4996 18.9159 26.8519C19.569 27.3892 20.3547 27.942 21.1666 28.4722C22.7929 29.5348 24.597 30.551 25.8126 31.2125C27.2657 32.0005 29.0054 31.0931 29.2657 29.5086L31.9762 13.0823ZM11.3839 21.3641L29.4424 13.7617L26.9135 29.0931C25.7206 28.4447 24.0024 27.4739 22.4717 26.4733C21.7662 26.0204 21.085 25.5306 20.4311 25.0059C20.2563 24.8631 20.0866 24.7142 19.9224 24.5593L24.652 19.831C24.876 19.6071 25.002 19.3033 25.0021 18.9866C25.0022 18.6699 24.8765 18.366 24.6526 18.142C24.4287 17.9179 24.125 17.792 23.8082 17.7919C23.4915 17.7918 23.1877 17.9175 22.9636 18.1414L17.7851 23.3199C16.9087 23.2077 15.6884 22.8829 14.3487 22.4411C13.3513 22.1089 12.3619 21.7497 11.3839 21.3641Z" fill="white"/>
</svg>
