<svg width="42" height="42" viewBox="0 0 42 42" fill="none" xmlns="http://www.w3.org/2000/svg">
<rect width="42" height="42" rx="21" fill="white" fill-opacity="0.1"/>
<path d="M33.9321 14.2161C33.8649 14.0537 33.751 13.9148 33.6048 13.8171C33.4587 13.7194 33.2868 13.6672 33.111 13.6672H29.7298C29.257 12.8629 28.5842 12.1947 27.7768 11.7274C26.9693 11.2601 26.0547 11.0096 25.1219 11.0004C24.4268 10.9913 23.737 11.1213 23.093 11.3827C22.449 11.6442 21.8637 12.0318 21.3717 12.5227C20.8653 13.0197 20.4634 13.6128 20.1896 14.2673C19.9158 14.9218 19.7756 15.6245 19.7772 16.334V17.0106C15.3038 15.8306 11.6447 12.1916 11.6059 12.1527C11.4866 12.0324 11.3354 11.9487 11.1702 11.9114C11.0049 11.8741 10.8325 11.8848 10.6731 11.9422C10.5137 11.9997 10.3741 12.1015 10.2706 12.2356C10.1672 12.3697 10.1042 12.5307 10.0891 12.6994C9.61023 18.0096 11.1525 21.563 12.5337 23.6086C13.2071 24.6199 14.0264 25.526 14.9649 26.2976C13.2726 28.2455 10.608 29.2688 10.5792 29.2799C10.4537 29.3269 10.3405 29.4016 10.248 29.4985C10.1555 29.5954 10.0861 29.7119 10.045 29.8394C10.0038 29.9668 9.99204 30.102 10.0105 30.2346C10.0289 30.3673 10.077 30.4941 10.1514 30.6055C10.2347 30.73 10.568 31.1667 11.3825 31.5745C12.3892 32.0789 13.7193 32.3345 15.3326 32.3345C23.1851 32.3345 29.7465 26.2876 30.4165 18.5074L33.7399 15.185C33.8642 15.0606 33.9488 14.9022 33.983 14.7297C34.0172 14.5573 33.9995 14.3785 33.9321 14.2161ZM28.932 17.484C28.7796 17.6368 28.688 17.8398 28.6742 18.0551C28.222 25.0654 22.364 30.5566 15.3326 30.5566C14.1593 30.5566 13.3326 30.4011 12.7526 30.2144C14.0315 29.5199 15.8149 28.3255 16.9616 26.6054C17.0289 26.5043 17.0747 26.3904 17.0963 26.2708C17.1179 26.1513 17.1147 26.0286 17.087 25.9103C17.0593 25.792 17.0077 25.6806 16.9353 25.5831C16.8629 25.4856 16.7712 25.4039 16.666 25.3431C16.6138 25.3131 11.787 22.4164 11.777 14.6761C13.5548 16.1206 16.8049 18.3618 20.5184 18.9863C20.6456 19.0077 20.7761 19.0012 20.9005 18.9672C21.025 18.9331 21.1406 18.8724 21.2393 18.7892C21.338 18.706 21.4173 18.6023 21.4718 18.4853C21.5264 18.3683 21.5548 18.2409 21.5551 18.1118V16.334C21.5541 15.8598 21.6479 15.3902 21.8311 14.9528C22.0143 14.5154 22.2831 14.1191 22.6218 13.7872C22.9464 13.462 23.3329 13.2051 23.7585 13.0318C24.1841 12.8585 24.6401 12.7723 25.0996 12.7783C26.5063 12.7961 27.8208 13.6539 28.3708 14.9128C28.4402 15.0711 28.5541 15.2057 28.6988 15.3002C28.8435 15.3948 29.0125 15.4451 29.1853 15.445H30.9632L28.932 17.484Z" fill="white"/>
</svg>
